<?xml version="1.0" encoding="UTF-8" standalone="no"?>
<svg
   xmlns:dc="http://purl.org/dc/elements/1.1/"
   xmlns:cc="http://creativecommons.org/ns#"
   xmlns:rdf="http://www.w3.org/1999/02/22-rdf-syntax-ns#"
   xmlns:svg="http://www.w3.org/2000/svg"
   xmlns="http://www.w3.org/2000/svg"
   xmlns:sodipodi="http://sodipodi.sourceforge.net/DTD/sodipodi-0.dtd"
   xmlns:inkscape="http://www.inkscape.org/namespaces/inkscape"
   version="1.1"
   id="svg2"
   xml:space="preserve"
   width="3733.3333"
   height="2666.6667"
   viewBox="0 0 3733.3333 2666.6667"
   sodipodi:docname="5870.eps"><metadata
     id="metadata8"><rdf:RDF><cc:Work
         rdf:about=""><dc:format>image/svg+xml</dc:format><dc:type
           rdf:resource="http://purl.org/dc/dcmitype/StillImage" /></cc:Work></rdf:RDF></metadata><defs
     id="defs6" /><sodipodi:namedview
     pagecolor="#ffffff"
     bordercolor="#666666"
     borderopacity="1"
     objecttolerance="10"
     gridtolerance="10"
     guidetolerance="10"
     inkscape:pageopacity="0"
     inkscape:pageshadow="2"
     inkscape:window-width="640"
     inkscape:window-height="480"
     id="namedview4" /><g
     id="g10"
     inkscape:groupmode="layer"
     inkscape:label="ink_ext_XXXXXX"
     transform="matrix(1.3333333,0,0,-1.3333333,0,2666.6667)"><g
       id="g12"
       transform="scale(0.1)"><path
         d="M 28000,0 H 0 V 20000 H 28000 V 0"
         style="fill:#ffffff;fill-opacity:1;fill-rule:nonzero;stroke:none"
         id="path14" /><path
         d="m 6382.25,10896.1 c 13.62,-5.9 27.98,-9.4 42.71,-11.5 -4.96,32.7 0.36,72.4 31.07,115.2 -12.37,15.9 -24.75,31.9 -37.07,47.9 -25.93,-34.2 -56.25,-90.7 -36.71,-151.6"
         style="fill:#f7cc7f;fill-opacity:1;fill-rule:nonzero;stroke:none"
         id="path16" /><path
         d="m 6663.49,10842.7 c -48.75,65.9 -101.09,134.9 -152.97,203.5 -3.67,-1.7 -6.06,-2.9 -5.55,-2.6 -19.91,-12.1 -21.9,-14.5 -21.79,-14.4 -12.79,-10.3 -20.54,-20.5 -20.46,-20.4 -2.39,-3 -4.55,-6 -6.69,-9 57.3,-73.9 114.46,-146.6 166.37,-213.4 16.83,16.4 30.7,35.7 41.09,56.3"
         style="fill:#f7cc7f;fill-opacity:1;fill-rule:nonzero;stroke:none"
         id="path18" /><path
         d="m 6831.67,10490.3 c -0.25,0.6 32.77,-69.6 -2.95,-110.1 0,0 -39.58,-47.5 -71.52,15.2 0.09,-0.1 -3.13,4.2 -3.22,4.3 -6.95,9.4 -20.1,11.7 -30.24,5 -10.67,-6.9 -11.96,-20.1 -7.35,-31.8 2.53,-6.4 7.66,-16.3 21.02,-27.3 78.01,-63.8 172.93,17.4 161.81,110.3 -6.53,57.7 -83.83,177.5 -186.27,319.2 -13.37,-17.2 -28.16,-33.7 -44.21,-48.7 85.3,-111 149.15,-198.6 162.93,-236.1"
         style="fill:#f7cc7f;fill-opacity:1;fill-rule:nonzero;stroke:none"
         id="path20" /><path
         d="m 6622.4,10786.4 c 16,-20.6 31.49,-40.6 46.34,-60 16.05,15 30.84,31.5 44.21,48.7 -15.93,22.1 -32.48,44.6 -49.46,67.6 -10.39,-20.6 -24.26,-39.9 -41.09,-56.3"
         style="fill:#f7cc7f;fill-opacity:1;fill-rule:nonzero;stroke:none"
         id="path22" /><path
         d="m 6418.96,11047.7 c 15.94,21.1 30.2,33.7 30.17,33.6 7.29,6.3 14.71,11.8 22.22,16.8 -44.67,59.2 -88.21,117.4 -127.93,172.2 -10.09,-31.9 -18.38,-61.9 -25.11,-90.1 32.46,-43.5 66.37,-88 100.65,-132.5"
         style="fill:#f7cc7f;fill-opacity:1;fill-rule:nonzero;stroke:none"
         id="path24" /><path
         d="m 6251.93,11270.8 c 21.14,-29.5 43.38,-59.7 66.38,-90.6 6.73,28.2 15.02,58.2 25.11,90.1 -22.71,31.3 -44.17,61.5 -63.89,90.2 -8.32,-30.1 -17.82,-59.9 -27.6,-89.7"
         style="fill:#f7cc7f;fill-opacity:1;fill-rule:nonzero;stroke:none"
         id="path26" /><path
         d="m 6397.33,10759.2 c -30.32,15.6 -154.95,102.9 -79.02,421 -23,30.9 -45.24,61.1 -66.38,90.6 -11.54,-35.2 -23.35,-70.2 -33.74,-105.5 -25.1,-85.3 -46.43,-176.4 -34.04,-263.9 16.14,-114 98.91,-197.2 201.43,-237 53.34,-20.7 114.01,-26.5 170.71,-7.4 41.73,14 79.68,38.8 112.45,69.4 -14.85,19.4 -30.34,39.4 -46.34,60 -52.16,-51 -132.59,-74.8 -225.07,-27.2"
         style="fill:#f7cc7f;fill-opacity:1;fill-rule:nonzero;stroke:none"
         id="path28" /><path
         d="m 6278.13,11682.8 c -70.89,37.3 -221.09,40.7 -208.61,-90.6 5.64,-59.4 81.03,-180.3 182.41,-321.4 9.78,29.8 19.28,59.6 27.6,89.7 -101.01,146.8 -156.38,253.2 -99.13,260.1 33.97,4.1 76.47,-13.1 102.44,-53.5 27.73,-43.2 20.8,-101.4 10.41,-151 -3.91,-18.7 -8.63,-37.2 -13.72,-55.6 19.72,-28.7 41.18,-58.9 63.89,-90.2 4.33,13.7 8.98,27.8 13.99,42.3 31.54,90.9 36.51,201.9 13.63,262 0.05,-0.1 -23.71,71.8 -92.91,108.2"
         style="fill:#f7cc7f;fill-opacity:1;fill-rule:nonzero;stroke:none"
         id="path30" /><path
         d="m 6531.88,11054.3 c -3.91,-1.1 27.41,8.9 56.06,4.1 -11.79,1.6 60.51,2.2 89.35,-80.3 14.6,-41.8 8.24,-91.6 -13.8,-135.4 16.98,-23 33.53,-45.5 49.46,-67.6 2.16,2.8 4.3,5.6 6.37,8.4 152.56,206.8 -73.8,429.6 -247.97,314.6 12.98,-17.2 26.06,-34.5 39.17,-51.9 5.89,2.7 15.11,6.7 21.36,8.1"
         style="fill:#f7cc7f;fill-opacity:1;fill-rule:nonzero;stroke:none"
         id="path32" /><path
         d="m 6418.96,11047.7 c 12.32,-16 24.7,-32 37.07,-47.9 2.14,3 4.3,6 6.69,9 -0.08,-0.1 7.67,10.1 20.46,20.4 -0.11,-0.1 1.88,2.3 21.79,14.4 -0.51,-0.3 1.88,0.9 5.55,2.6 -13.11,17.4 -26.19,34.7 -39.17,51.9 -7.51,-5 -14.93,-10.5 -22.22,-16.8 0.03,0.1 -14.23,-12.5 -30.17,-33.6"
         style="fill:#f7cc7f;fill-opacity:1;fill-rule:nonzero;stroke:none"
         id="path34" /><path
         d="m 6491.99,10936.9 c 31.13,-33.3 37.12,-78.3 13.39,-100.5 -23.72,-22.1 -68.18,-13.1 -99.31,20.2 -31.11,33.3 -37.11,78.3 -13.38,100.4 23.72,22.2 68.18,13.2 99.3,-20.1"
         style="fill:#f7cc7f;fill-opacity:1;fill-rule:nonzero;stroke:none"
         id="path36" /><path
         d="m 6811.37,10436.9 c 31.12,-33.3 37.12,-78.3 13.39,-100.5 -23.72,-22.1 -68.19,-13.1 -99.31,20.2 -31.12,33.3 -37.12,78.3 -13.39,100.5 23.73,22.1 68.18,13.1 99.31,-20.2"
         style="fill:#f7cc7f;fill-opacity:1;fill-rule:nonzero;stroke:none"
         id="path38" /><path
         d="m 16201.2,6338.7 h -1346.7 v 2652.4 h 1346.7 V 6338.7"
         style="fill:#f47458;fill-opacity:1;fill-rule:nonzero;stroke:none"
         id="path40" /><path
         d="m 16201.2,7618.4 c -12,0.3 -24,0.5 -36,0.5 H 14854.5 V 6338.7 h 1346.7 v 1279.7"
         style="fill:#b75742;fill-opacity:1;fill-rule:nonzero;stroke:none"
         id="path42" /><path
         d="m 13189.1,4362.8 v 1585.9 c 0,760.9 616.8,1377.7 1377.7,1377.7 h 1654.6 c 760.9,0 1377.7,-616.8 1377.7,-1377.7 V 4362.8 c 0,-760.8 -616.8,-1377.7 -1377.7,-1377.7 h -1654.6 c -760.9,0 -1377.7,616.9 -1377.7,1377.7"
         style="fill:#f47458;fill-opacity:1;fill-rule:nonzero;stroke:none"
         id="path44" /><path
         d="m 13742.1,4495.2 v 1252.4 c 0,578.2 468.8,1047 1047,1047 h 1210 c 578.2,0 1046.9,-468.8 1046.9,-1047 V 4495.2 c 0,-578.2 -468.7,-1046.9 -1046.9,-1046.9 h -1210 c -578.2,0 -1047,468.7 -1047,1046.9"
         style="fill:#b75742;fill-opacity:1;fill-rule:nonzero;stroke:none"
         id="path46" /><path
         d="m 14877.5,5872.9 c -58.7,0 -106.2,-47.5 -106.2,-106.2 0,-58.6 47.5,-106.1 106.2,-106.1 58.6,0 106.1,47.5 106.1,106.1 0,58.7 -47.5,106.2 -106.1,106.2"
         style="fill:#f47458;fill-opacity:1;fill-rule:nonzero;stroke:none"
         id="path48" /><path
         d="m 15350.4,5872.9 c -58.6,0 -106.1,-47.5 -106.1,-106.2 0,-58.6 47.5,-106.1 106.1,-106.1 58.6,0 106.1,47.5 106.1,106.1 0,58.7 -47.5,106.2 -106.1,106.2"
         style="fill:#f47458;fill-opacity:1;fill-rule:nonzero;stroke:none"
         id="path50" /><path
         d="m 15823.3,5872.9 c -58.6,0 -106.1,-47.5 -106.1,-106.2 0,-58.6 47.5,-106.1 106.1,-106.1 58.7,0 106.2,47.5 106.2,106.1 0,58.7 -47.5,106.2 -106.2,106.2"
         style="fill:#f47458;fill-opacity:1;fill-rule:nonzero;stroke:none"
         id="path52" /><path
         d="m 14877.5,5487.7 c -58.7,0 -106.2,-47.5 -106.2,-106.1 0,-58.6 47.5,-106.2 106.2,-106.2 58.6,0 106.1,47.6 106.1,106.2 0,58.6 -47.5,106.1 -106.1,106.1"
         style="fill:#f47458;fill-opacity:1;fill-rule:nonzero;stroke:none"
         id="path54" /><path
         d="m 15350.4,5487.7 c -58.6,0 -106.1,-47.5 -106.1,-106.1 0,-58.6 47.5,-106.2 106.1,-106.2 58.6,0 106.1,47.6 106.1,106.2 0,58.6 -47.5,106.1 -106.1,106.1"
         style="fill:#f47458;fill-opacity:1;fill-rule:nonzero;stroke:none"
         id="path56" /><path
         d="m 15823.3,5487.7 c -58.6,0 -106.1,-47.5 -106.1,-106.1 0,-58.6 47.5,-106.2 106.1,-106.2 58.7,0 106.2,47.6 106.2,106.2 0,58.6 -47.5,106.1 -106.2,106.1"
         style="fill:#f47458;fill-opacity:1;fill-rule:nonzero;stroke:none"
         id="path58" /><path
         d="m 14877.5,5102.6 c -58.7,0 -106.2,-47.6 -106.2,-106.2 0,-58.6 47.5,-106.1 106.2,-106.1 58.6,0 106.1,47.5 106.1,106.1 0,58.6 -47.5,106.2 -106.1,106.2"
         style="fill:#f47458;fill-opacity:1;fill-rule:nonzero;stroke:none"
         id="path60" /><path
         d="m 15350.4,5102.6 c -58.6,0 -106.1,-47.6 -106.1,-106.2 0,-58.6 47.5,-106.1 106.1,-106.1 58.6,0 106.1,47.5 106.1,106.1 0,58.6 -47.5,106.2 -106.1,106.2"
         style="fill:#f47458;fill-opacity:1;fill-rule:nonzero;stroke:none"
         id="path62" /><path
         d="m 15823.3,5102.6 c -58.6,0 -106.1,-47.6 -106.1,-106.2 0,-58.6 47.5,-106.1 106.1,-106.1 58.7,0 106.2,47.5 106.2,106.1 0,58.6 -47.5,106.2 -106.2,106.2"
         style="fill:#f47458;fill-opacity:1;fill-rule:nonzero;stroke:none"
         id="path64" /><path
         d="m 9409.48,2985.1 v 0 c 0,-27.7 26.69,-50.1 59.6,-50.1 H 24325.8 c 32.9,0 59.6,22.4 59.6,50.1 v 0 c 0,27.7 -26.7,50.2 -59.6,50.2 H 9469.08 c -32.91,0 -59.6,-22.5 -59.6,-50.2"
         style="fill:#13375b;fill-opacity:1;fill-rule:nonzero;stroke:none"
         id="path66" /><path
         d="m 13191.6,3025.4 c 0,0 1382.7,-47.2 1685.9,96.5 303.2,143.7 9.1,333.6 9.1,333.6 0,0 657,155.8 700.2,360.8 43.2,205 -272.1,172.9 -272.1,172.9 0,0 629.3,439.8 539.1,574.9 -168.1,251.5 -879.6,-191.6 -879.6,-191.6 0,0 236.9,235.6 69.9,323.2 -251.8,131.9 -617.5,-502.8 -617.5,-502.8 0,0 18.3,153.6 -175.4,163.1 -347.4,16.9 -1059.6,-1330.6 -1059.6,-1330.6"
         style="fill:#466eb6;fill-opacity:1;fill-rule:nonzero;stroke:none"
         id="path68" /><path
         d="m 14239.1,4466.7 c 193.7,-9.5 187.5,-273.8 187.5,-273.8 0,0 368.3,749.9 620.1,617.9 166.9,-87.5 -14.3,-403.2 -14.3,-403.2 0,0 653.3,408 821.4,156.5 L 13307.2,3121.9 c 82.3,157.8 607.4,1360.6 931.9,1344.8"
         style="fill:#355389;fill-opacity:1;fill-rule:nonzero;stroke:none"
         id="path70" /><path
         d="m 13139.9,3025.1 c 0,0 1189.7,827.8 1360.8,1191.7 171.1,363.9 -156.6,333.5 -156.6,333.5 0,0 489.4,644.5 373.2,867.1 -116.1,222.7 -383.4,-47.2 -383.4,-47.2 0,0 247.6,886.3 61.2,942.6 -347.1,104.8 -686.7,-1017.5 -686.7,-1017.5 0,0 -129.6,620.9 -350.8,574.8 -333.5,-69.6 -0.7,-987.6 -0.7,-987.6 0,0 -98.4,299 -284.8,160.3 -334.5,-248.8 67.8,-2017.7 67.8,-2017.7"
         style="fill:#466eb6;fill-opacity:1;fill-rule:nonzero;stroke:none"
         id="path72" /><path
         d="m 12746.7,5028.5 c 210,99.4 252.2,308.4 252.2,308.4 0,0 1.4,519.1 335,588.7 221.1,46.1 375.9,-370.9 375.9,-370.9 0,0 338.2,862.9 685.3,758.1 L 13136.3,3039 c -43.9,208.7 -639.8,1871.2 -389.6,1989.5"
         style="fill:#355389;fill-opacity:1;fill-rule:nonzero;stroke:none"
         id="path74" /><path
         d="m 7481.89,2880.2 c 0,0 -2845.54,1492.5 -3352.48,2272.7 -506.92,780.1 111.86,843.8 111.86,843.8 0,0 -1324.7,1322.9 -1128.64,1869.8 196.05,547 893.64,12.6 893.64,12.6 0,0 -846.58,1953.4 -437.18,2141.2 762.56,349.6 1798.35,-1731.1 1798.35,-1731.1 0,0 -216.61,900.8 304.85,864.8 786.39,-54.4 727.06,-2084.9 727.06,-2084.9 0,0 99.16,777.5 570.15,518.3 845.05,-465 512.39,-4707.2 512.39,-4707.2"
         style="fill:#355389;fill-opacity:1;fill-rule:nonzero;stroke:none"
         id="path76" /><path
         d="m 7144.88,7899.3 c -367.68,210.4 -744.52,-385.5 -744.52,-385.5 0,0 58.32,1585.8 -728.07,1640.1 -521.46,36.1 -304.85,-864.7 -304.85,-864.7 0,0 -1035.79,2080.7 -1798.35,1731.1 l 3916.7,-7107.1 c 34.84,492.2 387.46,4569.2 -340.91,4986.1"
         style="fill:#466eb6;fill-opacity:1;fill-rule:nonzero;stroke:none"
         id="path78" /><path
         d="m 7457.83,2888.8 c 0,0 -2467.13,-237.5 -3096.22,52.2 -629.11,289.7 -163.6,613.3 -163.6,613.3 0,0 -1359.53,306.4 -1453.43,728.6 -93.89,422.2 557.55,363 557.55,363 0,0 -1309.08,893.3 -1125.95,1174.2 341.12,523.1 1819.88,-375.2 1819.88,-375.2 0,0 -494.27,481 -151.68,665.5 516.66,278.2 1286.06,-1023.6 1286.06,-1023.6 0,0 -41.29,316.8 358.2,340.8 716.76,43 1969.19,-2538.8 1969.19,-2538.8"
         style="fill:#355389;fill-opacity:1;fill-rule:nonzero;stroke:none"
         id="path80" /><path
         d="m 5511.1,5656.3 c -399.48,-24 -380.66,-569.5 -380.66,-569.5 0,0 -777.4,1539.4 -1294.06,1261.2 -342.6,-184.5 38.84,-832 38.84,-832 0,0 -1357.92,827.2 -1699.04,304.1 L 7465.67,2902.3 C 7292.02,3226 6180.61,5696.4 5511.1,5656.3"
         style="fill:#466eb6;fill-opacity:1;fill-rule:nonzero;stroke:none"
         id="path82" /><path
         d="m 18207.9,13196.9 c -65.6,-230.2 -305.4,-363.5 -535.5,-297.9 -230.2,65.7 -363.5,305.6 -297.9,535.8 65.7,230.1 305.5,363.5 535.6,297.8 230.2,-65.7 363.5,-305.5 297.8,-535.7"
         style="fill:#f7cc7f;fill-opacity:1;fill-rule:nonzero;stroke:none"
         id="path84" /><path
         d="m 17549.6,13313.4 c -35.1,-123.1 36.2,-251.3 159.2,-286.4 123.1,-35.1 251.3,36.1 286.4,159.2 l -445.6,127.2"
         style="fill:#efefef;fill-opacity:1;fill-rule:nonzero;stroke:none"
         id="path86" /><path
         d="m 15992.7,15915.9 -239.1,19.4 -32.7,-221.3 -236.4,8.7 -57.3,-207.6 -178,-22.5 11.4,-90.1 238.1,30.1 54.2,196.7 246,-9 32.1,217.6 216.7,-17.5 -55,95.5"
         style="fill:#f48c7f;fill-opacity:1;fill-rule:nonzero;stroke:none"
         id="path88" /><path
         d="m 6901.85,13025.7 -11.71,-145.6 -236.49,-7.1 -43.4,-210.9 -176.1,-34.2 17.31,-89.1 235.55,45.7 41.12,199.9 246.01,7.3 17.63,219.2 -89.92,14.8"
         style="fill:#f48c7f;fill-opacity:1;fill-rule:nonzero;stroke:none"
         id="path90" /><path
         d="M 13211.3,3002.2 H 9947.25 c -169.52,0 -306.93,137.4 -306.93,306.9 v 6375 c 0,169.5 137.41,306.9 306.93,306.9 h 3264.05 c 169.5,0 306.9,-137.4 306.9,-306.9 v -6375 c 0,-169.5 -137.4,-306.9 -306.9,-306.9"
         style="fill:#184655;fill-opacity:1;fill-rule:nonzero;stroke:none"
         id="path92" /><path
         d="m 9947.25,3248.9 c -33.19,0 -60.19,27 -60.19,60.2 v 6375 c 0,33.2 27,60.2 60.19,60.2 h 3264.05 c 33.1,0 60.1,-27 60.1,-60.2 v -6375 c 0,-33.2 -27,-60.2 -60.1,-60.2 H 9947.25"
         style="fill:#3c8f7c;fill-opacity:1;fill-rule:nonzero;stroke:none"
         id="path94" /><path
         d="m 12240.3,8785 c 0,-326.2 -264.5,-590.7 -590.7,-590.7 -326.2,0 -590.7,264.5 -590.7,590.7 0,326.2 264.5,590.7 590.7,590.7 326.2,0 590.7,-264.5 590.7,-590.7"
         style="fill:#355389;fill-opacity:1;fill-rule:nonzero;stroke:none"
         id="path96" /><path
         d="m 11855.6,8785 c 0,-113.8 -92.2,-206 -206,-206 -113.8,0 -206.1,92.2 -206.1,206 0,113.8 92.3,206.1 206.1,206.1 113.8,0 206,-92.3 206,-206.1"
         style="fill:#184655;fill-opacity:1;fill-rule:nonzero;stroke:none"
         id="path98" /><path
         d="m 12487,6496.6 c 0,-462.5 -374.9,-837.4 -837.4,-837.4 -462.5,0 -837.4,374.9 -837.4,837.4 0,462.5 374.9,837.4 837.4,837.4 462.5,0 837.4,-374.9 837.4,-837.4"
         style="fill:#355389;fill-opacity:1;fill-rule:nonzero;stroke:none"
         id="path100" /><path
         d="m 11941.7,6496.6 c 0,-161.3 -130.8,-292.1 -292.1,-292.1 -161.3,0 -292.1,130.8 -292.1,292.1 0,161.3 130.8,292.1 292.1,292.1 161.3,0 292.1,-130.8 292.1,-292.1"
         style="fill:#184655;fill-opacity:1;fill-rule:nonzero;stroke:none"
         id="path102" /><path
         d="m 12416.6,4357.4 c 0,-462.4 -374.9,-837.4 -837.4,-837.4 -462.4,0 -837.3,375 -837.3,837.4 0,462.5 374.9,837.4 837.3,837.4 462.5,0 837.4,-374.9 837.4,-837.4"
         style="fill:#355389;fill-opacity:1;fill-rule:nonzero;stroke:none"
         id="path104" /><path
         d="m 11871.4,4357.4 c 0,-161.3 -130.8,-292.1 -292.2,-292.1 -161.3,0 -292.1,130.8 -292.1,292.1 0,161.4 130.8,292.2 292.1,292.2 161.4,0 292.2,-130.8 292.2,-292.2"
         style="fill:#184655;fill-opacity:1;fill-rule:nonzero;stroke:none"
         id="path106" /><path
         d="m 20142.1,12901.7 190.8,-19.4 c 9.7,-1 18.3,-6.7 23,-15.1 l 91.9,-165.5 c 11.7,-21.3 43.2,-20 53.1,2.1 l 77.8,172.4 c 4,8.7 12.1,15 21.7,16.8 l 188.5,34.7 c 24.2,4.5 32.7,34.2 14.4,50.4 l -142.7,126 c -7.3,6.4 -10.9,16 -9.6,25.5 l 24.7,187 c 3.1,24 -23.1,41.1 -44.3,29 l -166,-94.5 c -8.5,-4.8 -18.8,-5.2 -27.6,-1.1 l -173.3,80.8 c -22.2,10.4 -46.9,-8.8 -41.7,-32.4 l 40.1,-184.4 c 2,-9.4 -0.8,-19.2 -7.5,-26.2 l -131.7,-137 c -17,-17.6 -6,-46.6 18.4,-49.1"
         style="fill:#96d9c9;fill-opacity:1;fill-rule:nonzero;stroke:none"
         id="path108" /><path
         d="m 9070.62,10765.9 190.76,-19.5 c 9.72,-1 18.32,-6.6 23,-15 l 91.83,-165.6 c 11.78,-21.2 43.21,-19.9 53.19,2.2 l 77.79,172.3 c 3.96,8.8 12.07,15.1 21.67,16.9 l 188.51,34.7 c 24.19,4.4 32.68,34.2 14.38,50.4 l -142.7,126 c -7.26,6.4 -10.86,15.9 -9.6,25.4 l 24.68,187 c 3.16,24 -23.02,41.2 -44.32,29 l -165.97,-94.4 c -8.45,-4.9 -18.78,-5.3 -27.6,-1.2 l -173.27,80.9 c -22.23,10.4 -46.9,-8.8 -41.76,-32.5 l 40.12,-184.3 c 2.04,-9.4 -0.75,-19.2 -7.46,-26.2 l -131.76,-137 c -16.9,-17.6 -5.97,-46.6 18.51,-49.1"
         style="fill:#f7cc7f;fill-opacity:1;fill-rule:nonzero;stroke:none"
         id="path110" /><path
         d="m 20021.8,10897.7 190.8,-19.4 c 9.7,-1 18.3,-6.7 23,-15.1 l 91.8,-165.5 c 11.8,-21.3 43.2,-20 53.2,2.1 l 77.8,172.4 c 4,8.7 12.1,15 21.7,16.8 l 188.5,34.7 c 24.2,4.5 32.7,34.2 14.4,50.4 l -142.7,126 c -7.3,6.4 -10.9,15.9 -9.6,25.5 l 24.6,187 c 3.2,23.9 -23,41.1 -44.3,29 l -165.9,-94.5 c -8.5,-4.8 -18.8,-5.2 -27.6,-1.1 l -173.3,80.8 c -22.2,10.4 -46.9,-8.8 -41.8,-32.4 l 40.1,-184.4 c 2.1,-9.4 -0.7,-19.2 -7.4,-26.2 l -131.8,-137 c -16.9,-17.6 -5.9,-46.6 18.5,-49.1"
         style="fill:#f7cc7f;fill-opacity:1;fill-rule:nonzero;stroke:none"
         id="path112" /><path
         d="m 19227.3,7273.6 c -8.4,-3.5 110.8,-157.1 226.9,-265.7 93.6,-117.5 181.4,-256.5 211.6,-408.2 46,-230.5 7.8,-1369.5 47.8,-1450.5 343.5,-335.9 592.2,-1178.8 662.1,-1435.9 13.6,-50.1 41.2,-95.3 79.4,-130.5 v 0 l -15.3,-290.5 -170.7,-157.3 c 0,0 38,236.8 -37.9,412.5 0,0 -864.9,1309.8 -916.3,1410 -98.1,285.1 -455.3,1746 -455.3,1746 l -82.9,335.7 c 0,0 449.9,234.1 450.6,234.4"
         style="fill:#f7a491;fill-opacity:1;fill-rule:nonzero;stroke:none"
         id="path114" /><path
         d="m 20642.1,3489.4 c 0,0 -108.1,-166.5 -117.3,-231.4 -9.2,-64.9 -66.8,-212 -130.4,-221.4 -14.5,-2.1 -262,-20.2 -260.2,10.7 1.4,23.6 91,57.4 132.6,86.1 71.9,49.7 183.5,454.2 183.5,454.2 0,0 187.1,-46.4 191.8,-98.2"
         style="fill:#f47458;fill-opacity:1;fill-rule:nonzero;stroke:none"
         id="path116" /><path
         d="m 18488,6768.8 c 0,0 -557,-1191.1 -560.6,-1400.6 -3,-179.5 97.4,-1186.7 69.3,-2025.4 -1,-30.3 -39.3,-70.6 -95.1,-96.1 -31.5,-14.4 -179.6,-87.1 -179.6,-87.1 l -24.4,-49.4 522.5,37.2 10.6,121.2 -3.2,21.5 c 0,0 208,1254.7 186.8,1609.5 -3.4,55.8 -30.5,389.5 -30.5,389.5 l 628.3,1213.1 -395.1,519.2 -129,-252.6"
         style="fill:#f7a491;fill-opacity:1;fill-rule:nonzero;stroke:none"
         id="path118" /><path
         d="m 19765,5337.9 c -0.1,-0.2 -0.1,-0.2 -0.2,0.1 l 0.2,-0.1"
         style="fill:#13375b;fill-opacity:1;fill-rule:nonzero;stroke:none"
         id="path120" /><path
         d="m 17806.3,5902.2 1093.4,1579.7 c 67.5,-27.3 131.2,-51.1 203.3,-65 156.8,-30.3 313.8,-25.4 472.5,-20.2 0,-5.9 0.3,-11.1 0.9,-15.5 18.3,-130.3 191,-331.9 226.6,-727.1 40.5,-448.6 16,-1227.8 2.3,-1279 -726.9,88.4 -1792.8,310.7 -1999,527.1"
         style="fill:#13375b;fill-opacity:1;fill-rule:nonzero;stroke:none"
         id="path122" /><path
         d="m 19233.8,9587.5 c -4.4,-46.1 -28.8,-81.4 -54.6,-78.8 -25.8,2.7 -43.2,42.2 -38.8,88.3 4.3,46.1 28.7,81.3 54.5,78.7 25.8,-2.6 43.2,-42.1 38.9,-88.2"
         style="fill:#f7a491;fill-opacity:1;fill-rule:nonzero;stroke:none"
         id="path124" /><path
         d="m 18235.7,3029.7 h -685.4 c -24.4,2.2 -30.7,33 -17,46.8 21.6,21.5 102.2,43.3 188.7,83.1 151.9,-15.8 484.8,74.3 508.7,109.1 13.8,-69.6 18.6,-236 5,-239"
         style="fill:#f47458;fill-opacity:1;fill-rule:nonzero;stroke:none"
         id="path126" /><path
         d="m 17572.1,8714.5 c 3.3,8.8 11.3,1.7 21.1,-13 -12.7,53.5 -11,120.7 -0.9,126.7 12.4,7.4 19.6,-86.3 47.2,-137 27.6,-50.7 52.8,-113.3 56.6,-110.5 6.1,4.4 -32.5,72.6 -59.7,124.7 -27.2,52 -6.4,291.4 18.9,119.8 25.4,-171.6 191.3,-302.7 196.1,-250.1 4.9,52.7 -23,132.3 11.2,120.7 34.2,-11.7 44.2,-129.5 74.2,-214.7 3.5,-9.8 3.8,-39.9 3.6,-75.3 -0.1,-18.4 11.4,-34.9 28.7,-41.2 l 436.2,-158.6 284.7,495.9 322.1,-68.6 c 0,0 -259.1,-674 -479.9,-775.6 -100.7,-46.4 -571.3,283.6 -756.4,439.7 -183.1,154.5 -217.9,379.5 -203.7,417.1"
         style="fill:#f7a491;fill-opacity:1;fill-rule:nonzero;stroke:none"
         id="path128" /><path
         d="m 18831.3,9013.5 c -113.7,-54.2 -403.8,-727.4 -403.8,-727.4 l 373.1,-228.8 117.6,342.4 c 0,0 53,680.6 -86.9,613.8"
         style="fill:#f7cc7f;fill-opacity:1;fill-rule:nonzero;stroke:none"
         id="path130" /><path
         d="m 18938.7,9561.2 c -55.3,137.6 -110.2,276.2 -47.7,445.1 50.6,136.7 160.9,227.1 299.3,263.3 392.3,102.6 386.2,-162.2 953.6,-106.7 586.9,57.3 822.6,-580.7 768.3,-791.9 -259.7,-1010.2 -1426.3,-518 -1584.3,-350.4 -117.5,124.6 -353.5,452.1 -389.2,540.6"
         style="fill:#b75742;fill-opacity:1;fill-rule:nonzero;stroke:none"
         id="path132" /><path
         d="m 19709.6,9069.9 c 0,0 63.1,3 233.4,-74.8 170.2,-77.8 535.1,-583.8 535.1,-583.8 l -297.2,-231.3 -509.2,333 c 0,0 -64.5,556.9 37.9,556.9"
         style="fill:#f7cc7f;fill-opacity:1;fill-rule:nonzero;stroke:none"
         id="path134" /><path
         d="m 18800.6,7397.7 c 175.2,-93.1 849.2,-78 849.2,-78 16.7,175.2 106,644.3 145.1,1021.1 49,262.3 -31.9,337.5 -85.3,729.1 -0.4,2.7 -271.8,21.6 -271.8,21.6 l -282.6,-7 c 0,0 -245.7,-19.7 -323.9,-71 -5.4,-3.5 -36.5,-446.1 -12.2,-759.7 16.6,-213.8 40.8,-386.3 39.3,-527.7 -2.3,-205.4 -57.8,-328.4 -57.8,-328.4"
         style="fill:#fae0b2;fill-opacity:1;fill-rule:nonzero;stroke:none"
         id="path136" /><path
         d="m 18745,8469.2 c 5.5,-167.2 221.2,-328.2 527.8,-328.2 306.6,0 555.1,135.6 555.1,302.9 0,167.4 -203.7,402.8 -510.2,402.8 -306.6,0 -579.8,-165.4 -572.7,-377.5"
         style="fill:#fae0b2;fill-opacity:1;fill-rule:nonzero;stroke:none"
         id="path138" /><path
         d="m 19371.8,9507 c 0,0 5.9,-42.5 15,-101 16.8,-107.1 25.3,-282.9 46.8,-336.3 19,-47 -145.2,-491.7 -199.2,-367.8 -94.7,217.3 -91.9,282.7 -96.8,340.5 -4.9,57.3 -20.3,253.4 -30.6,384.1 -5.5,70.7 -9.5,122.2 -9.5,122.2 l 274.3,-41.7"
         style="fill:#f7a491;fill-opacity:1;fill-rule:nonzero;stroke:none"
         id="path140" /><path
         d="m 19106.5,9428.8 c -5.2,69.2 -9,119.9 -9,119.9 l 274.3,-41.7 c 0,0 6.9,-40 14.5,-96.4 -111.2,-64.5 -211.2,-44.2 -279.8,18.2"
         style="fill:#f47458;fill-opacity:1;fill-rule:nonzero;stroke:none"
         id="path142" /><path
         d="m 19285.7,10127.8 c 0,0 108.2,-24.4 174.9,-126.3 66.8,-101.8 112.6,-401.8 -107.3,-541.8 -219.9,-140 -390.9,58.1 -393.7,251.2 -2.8,193.2 38.6,450.9 326.1,416.9"
         style="fill:#f7a491;fill-opacity:1;fill-rule:nonzero;stroke:none"
         id="path144" /><path
         d="m 18909.3,9771.4 c 18.7,-46.6 56,-75.6 83.1,-64.6 27.2,10.9 34,57.5 15.2,104.1 -18.8,46.6 -56,75.6 -83.1,64.6 -27.2,-10.9 -34,-57.5 -15.2,-104.1"
         style="fill:#f7a491;fill-opacity:1;fill-rule:nonzero;stroke:none"
         id="path146" /><path
         d="m 19253.3,10134.1 c 0,0 137.8,-309.2 258.9,-336.8 121.1,-27.6 119.4,-183.2 119.4,-183.2 0,0 -2.7,359.3 -116.2,441.7 -113.5,82.4 -262.1,78.3 -262.1,78.3"
         style="fill:#b75742;fill-opacity:1;fill-rule:nonzero;stroke:none"
         id="path148" /><path
         d="m 19464.1,9733.1 c -15.9,-50.2 -1.3,-99.7 32.6,-110.5 33.9,-10.7 74.4,21.2 90.3,71.4 16,50.2 1.4,99.7 -32.6,110.5 -33.9,10.7 -74.3,-21.2 -90.3,-71.4"
         style="fill:#f7a491;fill-opacity:1;fill-rule:nonzero;stroke:none"
         id="path150" /><path
         d="m 17164.2,8858.6 188.1,337.4 -26.6,14.8 -188.1,-337.4 26.6,-14.8"
         style="fill:#ffd09f;fill-opacity:1;fill-rule:nonzero;stroke:none"
         id="path152" /><path
         d="m 17164.2,8858.6 188.1,337.4 -15.4,8.6 -188.1,-337.4 15.4,-8.6"
         style="fill:#ffb769;fill-opacity:1;fill-rule:nonzero;stroke:none"
         id="path154" /><path
         d="m 17295.4,8795.2 184,330 -26.6,14.8 -183.9,-330 26.5,-14.8"
         style="fill:#ffd09f;fill-opacity:1;fill-rule:nonzero;stroke:none"
         id="path156" /><path
         d="m 17295.4,8795.2 184,330 -19.8,11 -183.9,-330 19.7,-11"
         style="fill:#ffb769;fill-opacity:1;fill-rule:nonzero;stroke:none"
         id="path158" /><path
         d="m 17428.3,8721.2 183.9,330 -26.5,14.8 -184,-330 26.6,-14.8"
         style="fill:#ffd09f;fill-opacity:1;fill-rule:nonzero;stroke:none"
         id="path160" /><path
         d="m 17428.3,8721.2 183.9,330 -16.1,9 -184,-330 16.2,-9"
         style="fill:#ffb769;fill-opacity:1;fill-rule:nonzero;stroke:none"
         id="path162" /><path
         d="m 19719,6732.3 c -120.2,109 -195.1,335.5 -239.9,426.9 0,0 -58.7,119.4 -234.8,122.2 -176.1,2.7 -372,107.6 -461.5,309.2 -89.5,201.7 128.1,505.3 128.1,505.3 l 9.5,16.9 c 0,0 143.7,344.8 362.3,374.8 218.6,29.9 410.8,-81.6 505.8,-229.9 95,-148.3 227.3,-135.4 227.3,-135.4 101.3,9.9 333.4,65.3 489.3,20.4 145.6,-41.9 261.3,-149.3 331.9,-284.9 76.6,-147.1 89.5,-348.5 -20.8,-601.4 -6,-13.5 -64.2,-132.5 -83.6,-164.7 -17.2,-33.5 -87.8,-145.6 -96.2,-157.8 -157.1,-226.8 -335.1,-321.8 -500.5,-334 -152.5,-11.3 -304.6,30.6 -416.9,132.4"
         style="fill:#f47458;fill-opacity:1;fill-rule:nonzero;stroke:none"
         id="path164" /><path
         d="m 19322.3,7500.9 c 143.4,-79.9 329.2,-19.9 415,134.1 85.8,154 39.2,343.6 -104.2,423.5 -143.4,80 -329.3,19.9 -415.1,-134.1 -85.8,-153.9 -39.1,-343.6 104.3,-423.5"
         style="fill:#b75742;fill-opacity:1;fill-rule:nonzero;stroke:none"
         id="path166" /><path
         d="m 19376.7,7598.6 c 93.2,-51.9 213.9,-12.9 269.6,87.1 55.8,100 25.5,223.2 -67.7,275.1 -93.1,52 -213.9,13 -269.6,-87.1 -55.8,-100 -25.4,-223.2 67.7,-275.1"
         style="fill:#13375b;fill-opacity:1;fill-rule:nonzero;stroke:none"
         id="path168" /><path
         d="m 17128.4,9008.6 v 0 c 13.6,26.7 44.9,38.2 69.9,25.7 l 314.3,-158.2 c 25,-12.5 34.2,-44.4 20.5,-71.1 v 0 c -13.6,-26.7 -44.9,-38.2 -69.8,-25.6 l -314.4,158.1 c -24.9,12.5 -34.1,44.4 -20.5,71.1 z m 398.4,-107 -299.8,184.2 c -23.8,14.6 -30.5,47.3 -14.9,72.9 v 0 c 15.6,25.7 47.5,34.6 71.3,20 l 299.8,-184.2 c 23.8,-14.6 30.5,-47.3 14.9,-72.9 v 0 c -15.5,-25.7 -47.5,-34.6 -71.3,-20 z m -397,408.7 c -115.2,-60.3 -184.1,-182.7 -175.8,-312.4 l 0.2,-2.7 541.8,-269.5 c 23,7.5 101.3,-11 101.3,-11 l 109.3,196.1 c 0,0 -56.9,56.9 -62.7,80.4 l -514.1,319.1 v 0"
         style="fill:#ff7700;fill-opacity:1;fill-rule:nonzero;stroke:none"
         id="path170" /><path
         d="m 19309,7873.7 c -28.9,-51.9 -34.7,-110 -20.5,-161.1 l -1691.2,1002.1 109.3,196.1 1752.7,-929.4 c -60.2,-9.7 -116.9,-47.7 -150.3,-107.7"
         style="fill:#184655;fill-opacity:1;fill-rule:nonzero;stroke:none"
         id="path172" /><path
         d="m 20030.9,6986.6 409.3,734.4 -109.3,60.9 -409.4,-734.4 109.4,-60.9"
         style="fill:#b75742;fill-opacity:1;fill-rule:nonzero;stroke:none"
         id="path174" /><path
         d="m 17648,9036.6 0.6,1.1 c 4.5,8.1 1.6,18.3 -6.5,22.8 l -63.1,35.2 c -8.1,4.5 -18.3,1.6 -22.8,-6.5 l -0.6,-1.1 c -4.5,-8.1 -1.6,-18.3 6.5,-22.8 l 63.1,-35.2 c 8.1,-4.5 18.3,-1.6 22.8,6.5"
         style="fill:#184655;fill-opacity:1;fill-rule:nonzero;stroke:none"
         id="path176" /><path
         d="m 17514.6,9111 0.6,1 c 4.5,8.1 1.6,18.4 -6.5,22.9 l -63.1,35.1 c -8.1,4.6 -18.3,1.6 -22.8,-6.5 l -0.6,-1 c -4.5,-8.1 -1.6,-18.3 6.5,-22.9 l 63.1,-35.1 c 8,-4.5 18.3,-1.6 22.8,6.5"
         style="fill:#184655;fill-opacity:1;fill-rule:nonzero;stroke:none"
         id="path178" /><path
         d="m 17390.6,9187.4 0.6,1 c 4.5,8.1 1.6,18.4 -6.5,22.9 l -63.1,35.1 c -8.1,4.6 -18.3,1.7 -22.8,-6.4 l -0.6,-1.1 c -4.5,-8.1 -1.6,-18.3 6.5,-22.8 l 63.1,-35.2 c 8.1,-4.5 18.3,-1.6 22.8,6.5"
         style="fill:#184655;fill-opacity:1;fill-rule:nonzero;stroke:none"
         id="path180" /><path
         d="m 17196.8,8839.7 0.6,1.1 c 4.6,8.1 1.6,18.3 -6.5,22.8 l -63,35.2 c -8.1,4.5 -18.4,1.6 -22.9,-6.5 l -0.6,-1.1 c -4.5,-8.1 -1.6,-18.3 6.5,-22.8 l 63.1,-35.2 c 8.1,-4.5 18.3,-1.6 22.8,6.5"
         style="fill:#184655;fill-opacity:1;fill-rule:nonzero;stroke:none"
         id="path182" /><path
         d="m 17326,8772.6 0.6,1.1 c 4.5,8.1 1.6,18.3 -6.5,22.8 l -63.1,35.2 c -8.1,4.5 -18.3,1.6 -22.8,-6.5 l -0.6,-1.1 c -4.5,-8.1 -1.6,-18.3 6.5,-22.8 l 63.1,-35.2 c 8.1,-4.5 18.3,-1.6 22.8,6.5"
         style="fill:#184655;fill-opacity:1;fill-rule:nonzero;stroke:none"
         id="path184" /><path
         d="m 17456,8700.2 0.6,1 c 4.5,8.1 1.6,18.4 -6.5,22.9 l -63.1,35.1 c -8.1,4.5 -18.3,1.6 -22.9,-6.5 l -0.6,-1 c -4.5,-8.1 -1.6,-18.4 6.5,-22.9 l 63.1,-35.1 c 8.1,-4.5 18.4,-1.6 22.9,6.5"
         style="fill:#184655;fill-opacity:1;fill-rule:nonzero;stroke:none"
         id="path186" /><path
         d="m 17597.3,8714.7 109.3,196.1 22.2,-11.8 -109.8,-197.1 -21.7,12.8"
         style="fill:#96d9c9;fill-opacity:1;fill-rule:nonzero;stroke:none"
         id="path188" /><path
         d="m 17747.6,8625.7 113.3,203.2 9.3,-4.9 -113.5,-203.7 -9.1,5.4"
         style="fill:#96d9c9;fill-opacity:1;fill-rule:nonzero;stroke:none"
         id="path190" /><path
         d="m 17885.3,8544.1 117,209.9 9.3,-5 -117.2,-210.3 -9.1,5.4"
         style="fill:#96d9c9;fill-opacity:1;fill-rule:nonzero;stroke:none"
         id="path192" /><path
         d="m 18002.5,8474.6 120.2,215.5 9.3,-4.9 -120.3,-216 -9.2,5.4"
         style="fill:#96d9c9;fill-opacity:1;fill-rule:nonzero;stroke:none"
         id="path194" /><path
         d="m 18119.8,8405.1 123.2,221.2 9.4,-5 -123.5,-221.6 -9.1,5.4"
         style="fill:#96d9c9;fill-opacity:1;fill-rule:nonzero;stroke:none"
         id="path196" /><path
         d="m 18227.9,8341.1 126.2,226.3 9.3,-4.9 -126.4,-226.8 -9.1,5.4"
         style="fill:#96d9c9;fill-opacity:1;fill-rule:nonzero;stroke:none"
         id="path198" /><path
         d="m 18336,8277 129.1,231.5 9.4,-4.9 -129.3,-232 -9.2,5.4"
         style="fill:#96d9c9;fill-opacity:1;fill-rule:nonzero;stroke:none"
         id="path200" /><path
         d="m 18427.5,8222.8 131.5,236 9.3,-5 -131.7,-236.4 -9.1,5.4"
         style="fill:#96d9c9;fill-opacity:1;fill-rule:nonzero;stroke:none"
         id="path202" /><path
         d="m 18518.9,8168.6 134,240.4 9.3,-5 -134.2,-240.8 -9.1,5.4"
         style="fill:#96d9c9;fill-opacity:1;fill-rule:nonzero;stroke:none"
         id="path204" /><path
         d="m 18607.3,8116.2 136.4,244.6 9.3,-4.9 -136.6,-245.1 -9.1,5.4"
         style="fill:#96d9c9;fill-opacity:1;fill-rule:nonzero;stroke:none"
         id="path206" /><path
         d="m 18690,8067.2 138.6,248.6 9.3,-5 -138.8,-249 -9.1,5.4"
         style="fill:#96d9c9;fill-opacity:1;fill-rule:nonzero;stroke:none"
         id="path208" /><path
         d="m 18768.2,8020.9 140.6,252.3 9.4,-4.9 -140.9,-252.8 -9.1,5.4"
         style="fill:#96d9c9;fill-opacity:1;fill-rule:nonzero;stroke:none"
         id="path210" /><path
         d="m 18909.3,7937.3 144.4,259.1 9.4,-4.9 -144.7,-259.6 -9.1,5.4"
         style="fill:#96d9c9;fill-opacity:1;fill-rule:nonzero;stroke:none"
         id="path212" /><path
         d="m 18978.3,7896.4 146.3,262.4 9.4,-4.9 -146.6,-262.9 -9.1,5.4"
         style="fill:#96d9c9;fill-opacity:1;fill-rule:nonzero;stroke:none"
         id="path214" /><path
         d="m 19034.5,7863.1 147.8,265.2 9.3,-5 -148,-265.6 -9.1,5.4"
         style="fill:#96d9c9;fill-opacity:1;fill-rule:nonzero;stroke:none"
         id="path216" /><path
         d="m 19093.7,7828 149.4,268 9.4,-5 -149.7,-268.4 -9.1,5.4"
         style="fill:#96d9c9;fill-opacity:1;fill-rule:nonzero;stroke:none"
         id="path218" /><path
         d="m 17304.8,9097.2 8.1,14.6 -42.4,23.6 -8.1,-14.6 42.4,-23.6"
         style="fill:#ffffff;fill-opacity:1;fill-rule:nonzero;stroke:none"
         id="path220" /><path
         d="m 17227.1,8957.9 5.6,10 -37.8,21 -5.5,-9.9 37.7,-21.1"
         style="fill:#ffffff;fill-opacity:1;fill-rule:nonzero;stroke:none"
         id="path222" /><path
         d="m 17434.5,9025.6 6.2,11.1 -45.5,25.4 -6.2,-11.1 45.5,-25.4"
         style="fill:#ffffff;fill-opacity:1;fill-rule:nonzero;stroke:none"
         id="path224" /><path
         d="m 17356.5,8885.8 8.5,15.2 -40.8,22.8 -8.5,-15.2 40.8,-22.8"
         style="fill:#ffffff;fill-opacity:1;fill-rule:nonzero;stroke:none"
         id="path226" /><path
         d="m 17564.8,8958.7 7,12.5 -39.2,21.9 -7,-12.6 39.2,-21.8"
         style="fill:#ffffff;fill-opacity:1;fill-rule:nonzero;stroke:none"
         id="path228" /><path
         d="m 17479,8801.3 4.2,7.4 -36.2,20.2 -4.2,-7.4 36.2,-20.2"
         style="fill:#ffffff;fill-opacity:1;fill-rule:nonzero;stroke:none"
         id="path230" /><path
         d="m 18835.7,7980.9 142.4,255.6 9.4,-5 -142.7,-256 -9.1,5.4"
         style="fill:#96d9c9;fill-opacity:1;fill-rule:nonzero;stroke:none"
         id="path232" /><path
         d="m 19568.2,7445.6 c 1.7,-4.2 -59.4,-17.4 -114.7,-33.3 -55.4,-15.9 -146.4,-16.1 -142.1,-29.4 3.3,-10.4 59.3,-16.5 110.8,-12.5 -12.9,-5.5 -18.8,-10.8 -12,-15.2 28.1,-18 189.3,-7.9 337.2,55.1 148,63 1009.5,535.9 922.2,669 -32.1,49 -170.1,190.2 -248.9,287.4 L 20195,8191 l 116.2,-126.8 c -178,-190.6 -450.4,-397.3 -464.4,-407.3 -37.7,-27 -110.3,-3.7 -126.7,-3.3 -89.7,2.4 -205.2,3.4 -224.4,-26.6 -19.3,-30.1 64.1,-19.9 113.8,-35.2 49.7,-15.3 -115.3,-145.9 -286.9,-135.1 -171.5,10.9 22.4,-65.7 79,-50.5 56.6,15.2 163.7,46.1 166.6,39.4"
         style="fill:#f7a491;fill-opacity:1;fill-rule:nonzero;stroke:none"
         id="path234" /><path
         d="m 18405.3,8206 -436.2,158.6 c -17.3,6.3 -28.8,22.8 -28.7,41.2 0.2,35.4 -0.1,65.5 -3.6,75.3 -30,85.3 -40,203 -74.2,214.7 -34.2,11.6 -6.3,-68 -11.2,-120.7 -4.8,-52.6 -170.7,78.5 -196.1,250.1 -25.3,171.6 -46.1,-67.8 -18.9,-119.8 27.2,-52.1 65.8,-120.3 59.7,-124.7 -3.8,-2.8 -29,59.8 -56.6,110.5 -27.6,50.7 -34.8,144.4 -47.2,137 -10.1,-6 -11.8,-73.2 0.9,-126.7 -9.8,14.7 -17.8,21.8 -21.1,13 -14.2,-37.6 20.6,-262.6 203.7,-417.1 185.1,-156.1 655.7,-486.1 756.4,-439.7 l -126.9,348.3"
         style="fill:#f7a491;fill-opacity:1;fill-rule:nonzero;stroke:none"
         id="path236" /><path
         d="m 12527.6,12522.3 c 0,0 9.3,26 1.8,82.4 -9.2,69.8 -35.7,173.7 -39.6,182.7 -7.1,16.3 210.6,114 210.6,114 0,0 360.7,61.6 409.9,108.5 49.2,46.9 92.6,69 72.4,24 -36.5,-81.3 -129.6,-205.3 -151.4,-223.3 -21.9,-18 -295.3,-122.3 -300.4,-122.9 -5,-0.6 17.7,-177.6 17.7,-177.6 l -221,12.2"
         style="fill:#f7a491;fill-opacity:1;fill-rule:nonzero;stroke:none"
         id="path238" /><path
         d="m 12754.1,12625.8 c 0,0 -239.7,12.1 -241.2,-11.9 -33.2,-531.1 -28.9,-704.8 -38.8,-711.5 -33.5,-22.6 -598.2,365.5 -686.1,384.9 -42.1,9.2 -85.8,1.6 -127.8,-4.6 -100.2,-14.9 -66.6,-8.5 -119.3,-17.4 l 0.1,-0.1 c -2.9,-0.5 -4.5,-0.8 -4.5,-0.8 l 11.8,-94.5 c 125.4,-88.5 567.8,-1601.1 589.5,-1597.5 24.3,4 552,-64.1 537.9,-22 -2.3,6.8 -381.9,248.9 -528.5,645.8 -49.2,133.2 -83,279 -116.2,406.1 120.6,-43.5 591.3,-209.6 658.4,-172.3 208.5,115.9 64.7,1195.8 64.7,1195.8"
         style="fill:#355389;fill-opacity:1;fill-rule:nonzero;stroke:none"
         id="path240" /><path
         d="m 13961.8,9990.1 c 0,0 521.1,-316.9 544.9,-381.2 34.2,-92.7 455.9,84.5 348.3,91.4 -24.7,1.6 -104.6,12.1 -111.3,14.7 -36.3,14.2 -521.2,475.1 -521.2,475.1 l -260.7,-200"
         style="fill:#f7a491;fill-opacity:1;fill-rule:nonzero;stroke:none"
         id="path242" /><path
         d="m 15059.8,9724.6 -307.4,-11.3 c 0,0 -78.4,-82.4 -245.3,-105.6 0,0 -17.6,-79.5 5.7,-167.3 4,-15.2 12.1,-61.4 27.5,-58.5 55.8,10.5 201.2,65.5 367.9,119.9 0,0 223.7,75.9 346.8,170.9 123.1,95 -195.2,51.9 -195.2,51.9"
         style="fill:#f7cc7f;fill-opacity:1;fill-rule:nonzero;stroke:none"
         id="path244" /><path
         d="m 11714.3,10673.4 c 0,0 356.1,-17.2 731.6,118.9 434.4,157.6 917,312.8 1071.7,245.9 124.6,-53.9 982.7,-1067.1 982.7,-1067.1 l -256.6,-238.4 -907.7,802.1 c 0,0 -977.4,-498.5 -1212,-483.9 -534.1,33.1 -591.1,449.8 -409.7,622.5"
         style="fill:#b75742;fill-opacity:1;fill-rule:nonzero;stroke:none"
         id="path246" /><path
         d="m 12069.7,10940.6 398.6,-373.7 -624.6,-274.4 -129.4,380.9 355.4,267.2"
         style="fill:#b75742;fill-opacity:1;fill-rule:nonzero;stroke:none"
         id="path248" /><path
         d="m 13004.7,9128.5 c 0,0 47.2,-579.2 45.6,-678.4 -1.5,-98.8 291,-361.1 246,-263.1 -10.4,22.5 -39.1,97.8 -40,105 -4.7,38.6 13,707.8 13,707.8 l -264.6,128.7"
         style="fill:#f7a491;fill-opacity:1;fill-rule:nonzero;stroke:none"
         id="path250" /><path
         d="m 13415,8018.4 -156,265 c 0,0 -109.8,30 -209.5,165.7 0,0 -78.4,-22.2 -144.5,-84.5 -11.5,-10.7 -89.3,-83.2 -81.7,-96.8 28.2,-50.4 157.7,-150.1 299.4,-258.9 0,0 197.2,-123.8 339.3,-187 142.1,-63.2 -47,196.5 -47,196.5"
         style="fill:#f7cc7f;fill-opacity:1;fill-rule:nonzero;stroke:none"
         id="path252" /><path
         d="m 13435.7,10332.5 c -141.4,148.3 -1145.1,186 -1145.1,186 l -337.4,495.5 -563.1,-446.7 c 0,0 118.1,-476.3 179,-600.1 81.2,-164.9 490.5,-125.2 739.6,-93 229.2,29.5 653.8,32.5 653.8,32.5 l 6.7,-1267.4 c 0,0 286.1,-30.3 363.2,-10.8 8.7,2.2 279.2,1519.5 103.3,1704"
         style="fill:#f47458;fill-opacity:1;fill-rule:nonzero;stroke:none"
         id="path254" /><path
         d="m 11540,12263.9 -340.5,-59.4 c 0,0 -7.6,-3.7 -9.9,-4.4 -27.3,-8.5 116.6,-1004.4 185.8,-1374.6 69.2,-370.1 138.3,-520.8 138.3,-520.8 0,0 455.1,137.7 591.2,210 56.4,30 178.5,226.2 178.5,226.2 0,0 -169.8,179.4 -281.5,490.4 -86.1,239.8 -208.1,668.6 -259.1,755.1 -117,198.6 -202.8,277.5 -202.8,277.5"
         style="fill:#96d9c9;fill-opacity:1;fill-rule:nonzero;stroke:none"
         id="path256" /><path
         d="m 11173.4,12507.9 26.1,-303.8 c 0,0 267.3,-356 374.9,-289.2 90.3,56.1 -29.1,336.8 -29.1,336.8 0,0 -24.5,64.8 -56.5,138.6 -22.4,51.7 -42.6,108.1 -46.7,150.7 -9.9,103.8 -268.7,-33.1 -268.7,-33.1"
         style="fill:#f7a491;fill-opacity:1;fill-rule:nonzero;stroke:none"
         id="path258" /><path
         d="m 11356.5,13229.7 c 0,0 133.3,-157.1 158.8,-299.5 25.5,-142.5 6.7,-244 6.7,-244 l -414.3,390.7 248.8,152.8"
         style="fill:#184655;fill-opacity:1;fill-rule:nonzero;stroke:none"
         id="path260" /><path
         d="m 11549.4,12964 c 11,-49.6 -3.4,-95.1 -32.2,-101.5 -28.8,-6.5 -61.2,28.5 -72.3,78.2 -11,49.6 3.4,95 32.2,101.5 28.8,6.4 61.2,-28.6 72.3,-78.2"
         style="fill:#f48c7f;fill-opacity:1;fill-rule:nonzero;stroke:none"
         id="path262" /><path
         d="m 10998.5,12993.5 c -8.5,0.8 41.9,-416.7 174.5,-500.6 132.7,-83.9 344.4,-67.5 394.2,38.8 55,117.5 -61.9,549.8 -253,621.9 -191.1,72.1 -315.7,-160.1 -315.7,-160.1"
         style="fill:#f7a491;fill-opacity:1;fill-rule:nonzero;stroke:none"
         id="path264" /><path
         d="m 10937.1,13248.8 c -82.8,-92 -120.5,-156.5 -165.9,-307.9 -55.9,-186.2 118.4,-351.6 254.9,-409.4 136.6,-57.7 158.1,-145.9 158.1,-145.9 l -1.6,56.3 c 0.4,43.9 -15.6,67 -31,91.7 -13.6,22 -58.1,97.6 -74.2,117 -42.6,51.2 -51.1,62.4 -39.6,117.2 8.9,42.3 -17.6,129.9 -4.4,199.3 l 167.8,57.6 c 0,0 104.6,38.7 151.5,107.9 134.9,198.7 -197.8,363 -415.6,116.2"
         style="fill:#184655;fill-opacity:1;fill-rule:nonzero;stroke:none"
         id="path266" /><path
         d="m 11084.2,12727 c 26.6,-43.3 27.8,-91 2.6,-106.4 -25.1,-15.5 -67.1,7 -93.8,50.3 -26.6,43.3 -27.8,91 -2.6,106.5 25.1,15.5 67.1,-7.1 93.8,-50.4"
         style="fill:#f7a491;fill-opacity:1;fill-rule:nonzero;stroke:none"
         id="path268" /><path
         d="m 9774.53,13739.7 c 29.1,-78.1 79.46,-200.9 79.46,-200.9 1.35,-35.3 8.29,-181.9 17.15,-361.4 l 249.36,135.8 c 0,0 -37.6,289.9 -28,309 8.1,16.2 26.9,-0.5 93.6,123.8 19.2,35.9 16.5,95.7 16.5,95.7 0,0 -3.9,73.4 -21,78.3 -17.2,4.8 -34.7,-8.3 -39.1,-21.6 -4.5,-13.3 0.5,-42.5 -3.9,-55.7 -4.4,-13.3 -40.5,-33 -56.5,-34.1 -16.1,-1.1 -23.6,215.8 -23.6,215.8 0,0 1.6,62 3.8,82.5 1.8,17.5 11.4,69.1 11.4,69.1 0,0 9.6,74.5 -13.6,77.4 -13.6,1.6 -40.3,-61.1 -56.1,-126.2 -16.89,-70.1 -22.54,-143 -29.78,-142.9 -16.98,0.3 -22.11,119.1 -22.11,119.1 0,0 10.26,56 6.82,81.4 12.03,33.1 15.6,92.2 -12.67,93.7 -5.22,0.3 -33,-77.6 -33,-77.6 0,0 -8.2,-53.5 -13.69,-78.7 -9.69,-44.4 -3.93,-112 -8.1,-142.7 -3.47,-25.4 -10.45,-16 -12.97,-17.3 -1.95,-1.1 -2.42,33.5 -3.9,80.8 -0.74,23.9 -6.69,50.8 -3.28,78.4 3.16,25.7 2.44,61.7 1.47,83.4 -2.74,61.5 -40.36,50.7 -47.01,-6.6 -2.54,-21.8 -5.11,-45.6 -7.62,-69.7 -9.76,-93.8 1.26,-181.7 -8.5,-183.6 -12.67,-2.5 -23.26,158.7 -23.26,158.7 0,0 -30.15,86.4 -39.87,1.7 -11.28,-98.1 0.32,-175.7 1.03,-179.1 4.84,-23.1 -2.13,-108.5 26.97,-186.5"
         style="fill:#f8a492;fill-opacity:1;fill-rule:nonzero;stroke:none"
         id="path270" /><path
         d="m 11199.1,12203.9 c 0,0 -341.3,-24.3 -433.7,5 -56,17.7 -534.4,317.8 -534.4,317.8 l -106.9,942.6 -309.87,-13 c 0,0 -35.67,-1060.3 33.02,-1167.7 70.92,-110.9 767.65,-519.7 920.35,-714.8 88.1,-112.4 353.8,-1633.9 378.8,-1646 175.6,-66.5 779.9,-199.6 761.7,-148.8 -503.7,1403.5 -709,2424.9 -709,2424.9"
         style="fill:#355389;fill-opacity:1;fill-rule:nonzero;stroke:none"
         id="path272" /><path
         d="m 12642.4,12785 c 0,0 89.7,51.7 114,63.1 24.3,11.5 103.5,36.3 103.5,36.3 0,0 110.4,144 142.1,151.2 31.7,7.2 -56.7,-149.7 -56.7,-149.7 l -38.9,-47.4 c 0,0 63.7,69.2 76.2,79.3 12.5,10 100.6,176.2 128.8,169.3 28.2,-6.9 -31.6,-123.6 -60.2,-185.2 -28.6,-61.5 -186.4,-116.2 -186.4,-116.2 l -222.4,-0.7"
         style="fill:#f7a491;fill-opacity:1;fill-rule:nonzero;stroke:none"
         id="path274" /><path
         d="m 12943.8,13078.6 c -2.3,2.6 -235.8,257.8 -682.2,414.9 -637.1,224.3 -1729.3,-21.5 -2053.5,681.7 -57.8,125.4 -60.5,223.6 -60.6,227.7 -0.3,15 22.4,15.5 22.7,0.5 v 0 c 0,-1 2.8,-98.4 59,-219.7 318.3,-687.6 1399.3,-443.3 2040,-668.8 320.5,-112.8 583.9,-301.7 691.5,-421.1 10,-11.2 -6.9,-26.4 -16.9,-15.2"
         style="fill:#86b1f2;fill-opacity:1;fill-rule:nonzero;stroke:none"
         id="path276" /><path
         d="m 12934.9,13199.1 c -8.8,9.6 -220.9,237.5 -618.7,378.2 -433.4,154 -1100,116.3 -1500.6,295.6 -243.3,108.9 -362.3,264.9 -419.3,376.5 -61.9,121.4 -65.9,215.8 -66.1,219.8 -0.5,15 22.2,15.8 22.7,0.8 0.1,-1.4 4.3,-94.6 64.2,-211.4 55.4,-108 171,-259 407.8,-365 396.5,-177.4 1061.8,-139.6 1498.9,-294.9 403.1,-142.6 618.9,-374.5 627.9,-384.3 4.2,-4.6 3.9,-11.8 -0.7,-16 -4.6,-4.2 -11.8,-3.9 -16.1,0.7"
         style="fill:#86b1f2;fill-opacity:1;fill-rule:nonzero;stroke:none"
         id="path278" /><path
         d="m 12926,13319.7 c -94.5,103 -290,246.8 -555.3,341.4 -418.7,150.2 -987.8,146.2 -1345.5,296.2 -254.8,106.9 -380.4,257.9 -440.9,365.7 -66,117.5 -71.2,208.7 -71.4,212.5 -0.7,14.9 22,16.1 22.7,1.1 v 0 c 0.1,-0.9 5.3,-90.6 69.1,-203.6 58.9,-104.4 181.1,-250.7 429.3,-354.7 180.6,-75.8 414.6,-111.5 662.3,-149.3 234,-35.7 475.9,-72.6 682,-146.5 269.2,-96 468.1,-242.5 564.4,-347.5 10.2,-11.1 -6.5,-26.4 -16.7,-15.3"
         style="fill:#86b1f2;fill-opacity:1;fill-rule:nonzero;stroke:none"
         id="path280" /><path
         d="m 12917.1,13440.2 c -404.8,441.3 -1224.7,423.7 -1682.3,601.6 -266.6,103.6 -398.9,249.7 -462.9,354.1 -69.9,113.8 -76,202.2 -76.2,205.9 -1,15 21.7,16.3 22.6,1.4 0.1,-1.6 6.6,-88 73.7,-196.8 62.3,-100.9 191.1,-242.5 451,-343.5 456.1,-177.3 1279.5,-159 1690.8,-607.3 4.2,-4.7 3.9,-11.8 -0.7,-16.1 -4.6,-4.2 -11.8,-3.9 -16,0.7"
         style="fill:#86b1f2;fill-opacity:1;fill-rule:nonzero;stroke:none"
         id="path282" /><path
         d="m 11157.1,14335.3 v 0 c -37.5,39.2 -85,153.2 -113.4,221.4 -38.2,91.6 -33.6,72.8 -48.1,80.2 -30.5,6 -4.8,-16 -247.9,-513 -100.7,131.7 -389.4,99.4 -388.5,-53.7 0.4,-79.1 83.9,-149.8 196.5,-149.2 78.2,0.4 148.5,36.3 179.1,91.3 l -0.2,0.1 c 8,14.5 113.7,230.4 200.8,405.3 30.3,-115.7 166.3,-199.9 251.2,-143.9 l 25.7,16.9 -26,16.4 c -9.1,5.7 -27.8,26.7 -29.2,28.2"
         style="fill:#466eb6;fill-opacity:1;fill-rule:nonzero;stroke:none"
         id="path284" /><path
         d="m 12727.1,13860.1 v 0 c -46.2,13.2 -133.8,79.6 -186.2,119.3 -55.4,41.9 -61.2,46.3 -74.9,40.5 -28.9,-9.7 1.1,-23.1 36.7,-510.6 -138.3,52.8 -343.9,-96.6 -273.9,-215.1 74,-125.4 322.6,-30.2 319.4,125.2 h -0.1 c -0.4,14.8 -15.8,262.2 -27,432.5 76.8,-72.3 217.2,-110.6 257.7,-29 l 13.6,27.5 c -35.5,2.7 -20.3,-3.4 -65.3,9.7"
         style="fill:#466eb6;fill-opacity:1;fill-rule:nonzero;stroke:none"
         id="path286" /><path
         d="m 11973.3,13856.7 c -0.6,20.6 -15.6,245.3 -33.8,521.2 -289.9,-30.8 -279.9,-33.6 -547,8.9 9,-141.8 18.6,-284.2 26.8,-398.7 -140.4,53.5 -314.7,-110.9 -245.6,-227.9 74.6,-126.3 308.7,6.2 305.6,160.8 0,0 -15.7,123.3 -29.1,320 l 451.5,-4.1 c 4.1,-60.9 9.1,-180.4 17.7,-297.1 -139.7,53.2 -334.7,-90.8 -265.3,-208.3 38.2,-64.7 137.5,-77 221.4,-27.4 60.7,35.8 99.2,95.7 98,152.6 h -0.2"
         style="fill:#466eb6;fill-opacity:1;fill-rule:nonzero;stroke:none"
         id="path288" /><path
         d="m 17821.7,15165.3 v 0 c -45.7,-14.5 -155.5,-7.6 -221,-3.4 -69.4,4.3 -76.6,4.8 -84.8,-7.5 -18.8,-24.1 -17,-23.7 281.9,-410.4 -144.4,-32.5 -202.6,-265.5 -78.8,-325.7 130.9,-63.6 285.6,153.1 197.1,280.9 l -0.2,-0.1 c -8.4,12.1 -138.3,180.3 -241.8,316 104.1,-17.8 222.6,57.4 211.3,147.7 l -3.9,30.6 c -31,-17.4 -15,-14.2 -59.8,-28.1"
         style="fill:#50bfa5;fill-opacity:1;fill-rule:nonzero;stroke:none"
         id="path290" /><path
         d="m 11954.4,16051.5 c 2.2,20.5 17.7,245.2 37,520.9 -291.5,8.8 -282,4.6 -540.8,82.8 -10.3,-141.6 -20,-284.1 -27.3,-398.7 -131.9,72.1 -326.8,-67.3 -274.2,-192.6 56.8,-135.2 315.7,-72.7 333.4,80.9 l -0.1,0.1 c 1.5,14.1 9.3,139 22.6,335.7 l 407,-60.1 c -4.1,-60.8 -9.3,-140.5 -16.6,-257.3 -131.2,71.6 -327,-66.8 -274.2,-192.6 29.1,-69.2 125.9,-94.9 215.7,-57.1 65,27.3 111.2,81.5 117.8,138 h -0.3"
         style="fill:#96d9c9;fill-opacity:1;fill-rule:nonzero;stroke:none"
         id="path292" /><path
         d="m 6719.26,14434.3 150.26,-121.9 177.36,86.4 158.75,-148.6 160.53,150.4 186.95,-160.1 164.88,120.2 205.05,-124.6 -47.17,-77.6 -153.31,93.1 -173.99,-126.8 -179.7,153.9 -163.21,-152.9 -175.19,164 -173.2,-84.4 -139.27,112.9 -102.15,-79.2 -55.67,71.8 159.08,123.4"
         style="fill:#9bc1f9;fill-opacity:1;fill-rule:nonzero;stroke:none"
         id="path294" /><path
         d="m 18297.3,11223.9 c 2.8,-14.6 8.1,-28.4 14.7,-41.7 24.1,22.6 59.9,40.7 112.6,39.7 6.1,19.2 12.2,38.5 18.4,57.7 -42.8,2 -106.6,-5.1 -145.7,-55.7"
         style="fill:#355389;fill-opacity:1;fill-rule:nonzero;stroke:none"
         id="path296" /><path
         d="m 18412.7,10961.9 c 26.6,77.5 53.9,159.8 81,241.4 -3.5,2.1 -5.8,3.3 -5.4,3.1 -21.2,9.5 -24.3,9.8 -24.1,9.8 -15.7,4.7 -28.6,5.3 -28.4,5.2 -3.9,0.3 -7.6,0.4 -11.2,0.5 -28.5,-89.1 -56,-177.4 -81.7,-258 23.1,-4.6 46.9,-5.1 69.8,-2"
         style="fill:#355389;fill-opacity:1;fill-rule:nonzero;stroke:none"
         id="path298" /><path
         d="m 18217.6,10623.7 c 0.4,0.5 -38.8,-66.5 -92.4,-60 0,0 -61.5,5.7 -28,67.6 -0.1,-0.2 1.7,4.9 1.7,5.1 3.8,11 -1.8,23.1 -13,27.7 -11.8,4.8 -23.3,-1.5 -30.4,-12 -3.8,-5.7 -9.1,-15.5 -10.5,-32.7 -8.5,-100.5 112.3,-132.7 182.5,-70.9 43.9,38.1 98.8,169.7 157.5,334.4 -21.8,1.2 -43.7,4.1 -65.2,8.8 -43.1,-133.2 -79.2,-235.5 -102.2,-268"
         style="fill:#355389;fill-opacity:1;fill-rule:nonzero;stroke:none"
         id="path300" /><path
         d="m 18342.9,10963.9 c -7.9,-24.9 -15.6,-49 -23.1,-72.2 21.5,-4.7 43.4,-7.6 65.2,-8.8 9.1,25.6 18.4,52 27.7,79 -22.9,-3.1 -46.7,-2.6 -69.8,2"
         style="fill:#355389;fill-opacity:1;fill-rule:nonzero;stroke:none"
         id="path302" /><path
         d="m 18443,11279.6 c 26.4,-1.2 44.9,-5.8 44.8,-5.8 9.3,-2.5 18.1,-5.5 26.4,-8.9 23.5,70.4 46.8,139.2 69.4,203 -32,-9.7 -61.4,-19.9 -88.4,-30.3 -17.5,-51.4 -34.9,-104.6 -52.2,-158"
         style="fill:#355389;fill-opacity:1;fill-rule:nonzero;stroke:none"
         id="path304" /><path
         d="m 18532.2,11543.6 c -12.3,-34.1 -24.6,-69.6 -37,-106 27,10.4 56.4,20.6 88.4,30.3 13,36.5 25.7,71.3 38.2,103.8 -29.6,-10.2 -59.5,-19.3 -89.6,-28.1"
         style="fill:#355389;fill-opacity:1;fill-rule:nonzero;stroke:none"
         id="path306" /><path
         d="m 18193,11133.9 c -4.3,33.8 -3,186 302.2,303.7 12.4,36.4 24.7,71.9 37,106 -35.5,-10.4 -71.1,-20.5 -106.1,-32 -84.5,-27.6 -171.6,-61.7 -236.7,-121.5 -84.8,-77.9 -106.5,-193.2 -81.1,-300.2 13.1,-55.7 42.8,-109 90.6,-144.9 35.2,-26.4 77.1,-43.6 120.9,-53.3 7.5,23.2 15.2,47.3 23.1,72.2 -71.5,14 -136.7,66.8 -149.9,170"
         style="fill:#355389;fill-opacity:1;fill-rule:nonzero;stroke:none"
         id="path308" /><path
         d="m 18886.5,11755.4 c -9.4,79.6 -91.7,205.3 -192.8,120.6 -45.8,-38.3 -102.6,-168.9 -161.5,-332.4 30.1,8.8 60,17.9 89.6,28.1 63.7,166.4 120,272.3 158.1,229.1 22.6,-25.7 32.6,-70.5 13.9,-114.8 -19.8,-47.3 -71.7,-74.6 -118.4,-94.1 -17.6,-7.4 -35.6,-14 -53.6,-20.2 -12.5,-32.5 -25.2,-67.3 -38.2,-103.8 13.8,4.3 28,8.4 42.8,12.5 92.8,25.5 187,84.3 223.6,137.2 0,-0.1 45.7,60.2 36.5,137.8"
         style="fill:#355389;fill-opacity:1;fill-rule:nonzero;stroke:none"
         id="path310" /><path
         d="m 18512.4,11190.2 c -3.1,2.7 22.9,-17.5 35.2,-43.8 -5.4,10.6 36,-48.7 -15.6,-119.1 -26.1,-35.8 -70.8,-58.7 -119.3,-65.4 -9.3,-27 -18.6,-53.4 -27.7,-79 3.5,-0.2 7,-0.4 10.5,-0.5 256.9,-8.5 312.2,304.2 118.7,382.5 -6.8,-20.4 -13.7,-41 -20.5,-61.6 5.6,-3.3 14.1,-8.7 18.7,-13.1"
         style="fill:#355389;fill-opacity:1;fill-rule:nonzero;stroke:none"
         id="path312" /><path
         d="m 18443,11279.6 c -6.2,-19.2 -12.3,-38.5 -18.4,-57.7 3.6,-0.1 7.3,-0.2 11.2,-0.5 -0.2,0.1 12.7,-0.5 28.4,-5.2 -0.2,0 2.9,-0.3 24.1,-9.8 -0.4,0.2 1.9,-1 5.4,-3.1 6.8,20.6 13.7,41.2 20.5,61.6 -8.3,3.4 -17.1,6.4 -26.4,8.9 0.1,0 -18.4,4.6 -44.8,5.8"
         style="fill:#355389;fill-opacity:1;fill-rule:nonzero;stroke:none"
         id="path314" /><path
         d="m 18393.1,11156.6 c -9.8,-44.5 -43.5,-75 -75.2,-68 -31.7,7 -49.5,48.8 -39.6,93.3 9.8,44.5 43.4,74.9 75.1,67.9 31.7,-6.9 49.5,-48.7 39.7,-93.2"
         style="fill:#355389;fill-opacity:1;fill-rule:nonzero;stroke:none"
         id="path316" /><path
         d="m 18162.1,10610.1 c -9.8,-44.5 -43.5,-74.9 -75.2,-67.9 -31.7,7 -49.5,48.7 -39.7,93.2 9.9,44.6 43.5,75 75.2,68 31.7,-7 49.5,-48.7 39.7,-93.3"
         style="fill:#355389;fill-opacity:1;fill-rule:nonzero;stroke:none"
         id="path318" /><path
         d="m 5866.28,4968.9 v 1143.6 c 0,1155.2 936.47,2091.7 2091.68,2091.7 h 1143.58 c 1155.16,0 2091.66,-936.5 2091.66,-2091.7 V 4968.9 c 0,-1155.2 -936.5,-2091.7 -2091.66,-2091.7 H 7957.96 c -1155.21,0 -2091.68,936.5 -2091.68,2091.7"
         style="fill:#b75742;fill-opacity:1;fill-rule:nonzero;stroke:none"
         id="path320" /><path
         d="m 7150.66,9103.2 c 6.34,206.9 -69.74,2240.5 444.34,3848.7 350.43,1098.3 740.41,1572.9 1207.61,1957.1 21.25,16.7 42.18,33.7 63.63,50.1 21.57,16.1 42.94,32.5 64.86,48 6.72,4.8 -24.33,-17.2 65.7,46.5 1524.4,1058.1 4613,1106.2 5909.4,-491.5 473.6,-574.8 787.4,-1501.6 924.6,-2240 239,-1283.4 171.6,-2687.4 138.2,-4069.3 h -624.9 c -112.3,1717.9 71.5,3875.8 -721.7,5458.2 l -29.7,58 c -35.2,41.1 -458,1071.2 -1823.8,1565 -1722.6,582.1 -3492.67,-262.6 -4085.82,-1827.6 C 8142.2,12118.9 8194.14,10492.5 8192.91,9103.2 H 7150.66"
         style="fill:#f47458;fill-opacity:1;fill-rule:nonzero;stroke:none"
         id="path322" /><path
         d="M 8586.76,7413.5 H 6685.74 v 2741.4 H 8586.76 V 7413.5"
         style="fill:#f47458;fill-opacity:1;fill-rule:nonzero;stroke:none"
         id="path324" /><path
         d="m 8586.76,8580.8 c -136.87,27 -278.36,41.2 -423.15,41.2 h -982.62 c -170.38,0 -336.18,-19.6 -495.25,-56.7 V 7413.5 h 1901.02 v 1167.3"
         style="fill:#b75742;fill-opacity:1;fill-rule:nonzero;stroke:none"
         id="path326" /><path
         d="m 8480.06,14850.6 c 44.24,-82.8 135.9,-120.8 206.71,-84.9 71.9,36.6 94.99,135.5 51.56,221 -43.43,85.5 -136.92,125.2 -208.83,88.7 -18.76,-9.6 -34.1,-23.4 -45.9,-40.1 l -114.19,245.5 418.96,73.5 195.26,-419.9 v 0 c 0.25,-0.5 0.42,-1 0.67,-1.5 43.43,-85.5 136.93,-125.2 208.83,-88.7 71.9,36.5 94.99,135.5 51.57,221 -43.43,85.5 -136.93,125.2 -208.84,88.6 -18.71,-9.5 -34.03,-23.3 -45.83,-39.9 l -209.12,449.7 c -6.76,14.6 -21.32,23.1 -34.67,20.4 l -521.79,-105.7 c -17.43,-3.6 -25.41,-24.4 -16.58,-43.4 l 271.78,-584.4 0.41,0.1"
         style="fill:#50bfa5;fill-opacity:1;fill-rule:nonzero;stroke:none"
         id="path328" /><path
         d="M 5302.07,4884.3 V 6197 c 0,1108.5 898.61,2007.2 2007.11,2007.2 H 8199.9 C 9308.41,8204.2 10207,7305.5 10207,6197 V 4884.3 c 0,-1108.5 -898.59,-2007.1 -2007.1,-2007.1 h -890.72 c -1108.5,0 -2007.11,898.6 -2007.11,2007.1"
         style="fill:#f47458;fill-opacity:1;fill-rule:nonzero;stroke:none"
         id="path330" /><path
         d="m 6068.78,5476.2 v 581 c 0,586.9 475.78,1062.7 1062.67,1062.7 h 580.99 c 586.89,0 1062.66,-475.8 1062.66,-1062.7 v -581 c 0,-586.8 -475.77,-1062.6 -1062.66,-1062.6 h -580.99 c -586.89,0 -1062.67,475.8 -1062.67,1062.6"
         style="fill:#b75742;fill-opacity:1;fill-rule:nonzero;stroke:none"
         id="path332" /><path
         d="m 5567.75,5476.2 v 581 c 0,586.9 475.78,1062.7 1062.67,1062.7 h 580.99 c 586.89,0 1062.66,-475.8 1062.66,-1062.7 v -581 c 0,-586.8 -475.77,-1062.6 -1062.66,-1062.6 h -580.99 c -586.89,0 -1062.67,475.8 -1062.67,1062.6"
         style="fill:#f47458;fill-opacity:1;fill-rule:nonzero;stroke:none"
         id="path334" /><path
         d="m 21263.8,10673.8 c 31,-83.2 84.7,-214.2 84.7,-214.2 1.5,-37.7 8.9,-194 18.3,-385.5 l 266,144.9 c 0,0 -40,309.2 -29.8,329.6 8.6,17.3 28.7,-0.6 99.7,132 20.5,38.3 17.7,102 17.7,102 0,0 -4.2,78.4 -22.5,83.6 -18.3,5.1 -37,-8.9 -41.7,-23 -4.7,-14.2 0.6,-45.3 -4.1,-59.5 -4.7,-14.2 -43.2,-35.2 -60.3,-36.4 -17.1,-1.1 -25.2,230.3 -25.2,230.3 0,0 1.8,66.1 4.1,88 2,18.6 12.2,73.7 12.2,73.7 0,0 10.2,79.4 -14.5,82.5 -14.5,1.8 -43,-65.2 -59.8,-134.6 -18.1,-74.8 -24.1,-152.5 -31.8,-152.4 -18.1,0.3 -23.6,127.1 -23.6,127.1 0,0 10.9,59.6 7.3,86.7 12.8,35.3 16.6,98.3 -13.5,100 -5.6,0.3 -35.2,-82.8 -35.2,-82.8 0,0 -8.8,-57 -14.7,-83.9 -10.3,-47.4 -4.1,-119.5 -8.6,-152.2 -3.7,-27.2 -11.1,-17.1 -13.8,-18.5 -2.1,-1.1 -2.6,35.7 -4.2,86.2 -0.8,25.4 -7.1,54.1 -3.5,83.6 3.4,27.4 2.6,65.8 1.6,89 -2.9,65.5 -43.1,54 -50.2,-7.1 -2.7,-23.2 -5.4,-48.6 -8.1,-74.3 -10.4,-100.1 1.4,-193.9 -9,-195.9 -13.6,-2.6 -24.9,169.3 -24.9,169.3 0,0 -32.1,92.1 -42.5,1.9 -12,-104.7 0.3,-187.5 1.1,-191.1 5.2,-24.6 -2.3,-115.7 28.8,-199"
         style="fill:#f8a492;fill-opacity:1;fill-rule:nonzero;stroke:none"
         id="path336" /><path
         d="m 22953.4,9724.8 c 0,0 -131.5,138.7 -237.3,-30.1 0,0 -81.6,45.8 -138.8,-35.7 0,0 -147.3,44.3 -183,-175.9 0,0 -75.8,14.3 -85.8,-75.8 -10,-90.1 35.8,-150.1 35.8,-150.1 0,0 -42.6,-32 -23.3,-114.8 16.5,-70.4 74.7,-81.1 74.7,-81.1 0,0 15.8,-118.7 67.2,-154.5 51.5,-35.7 121.6,-18.6 121.6,-18.6 0,0 18.6,-64.3 78.6,-58.6 60.1,5.7 134.5,62.9 201.7,37.2 67.2,-25.8 241.6,1.4 241.6,1.4 0,0 195.9,87.2 137.3,287.4 0,0 103,93 12.9,204.5 0,0 65.8,174.5 -64.4,277.4 -130.1,103 -238.8,87.3 -238.8,87.3"
         style="fill:#07345a;fill-opacity:1;fill-rule:nonzero;stroke:none"
         id="path338" /><path
         d="m 24092,10860.1 16.5,-266.7 -59.2,-454.1 -254.8,-2.5 c 0,0 56.8,287 17.7,355.1 -30.7,53.7 -68.6,136.6 -71.5,166.6 -9.7,102.4 351.3,201.6 351.3,201.6"
         style="fill:#f7a491;fill-opacity:1;fill-rule:nonzero;stroke:none"
         id="path340" /><path
         d="m 23762.9,10712.9 108.6,-206.7 c 32.2,-60.7 103.9,-58.7 132.3,4.3 l 42.8,119.9 c 0,0 -182.9,156 -283.7,82.5"
         style="fill:#f47458;fill-opacity:1;fill-rule:nonzero;stroke:none"
         id="path342" /><path
         d="m 22983.9,11108.1 544.1,-55.6 c 27.8,-2.8 52.3,-18.8 65.7,-42.9 l 261.9,-472.2 c 33.6,-60.6 123.3,-57 151.8,6.1 l 221.9,491.6 c 11.3,25.1 34.4,43 61.8,48.1 l 537.7,99 c 69,12.7 93.3,97.7 41,143.8 l -407,359.4 c -20.7,18.3 -31,45.5 -27.4,72.6 l 70.4,533.4 c 9,68.5 -65.7,117.4 -126.4,82.8 l -473.5,-269.5 c -24.1,-13.8 -53.6,-14.9 -78.7,-3.2 l -494.3,230.7 c -63.4,29.5 -133.8,-25.2 -119.1,-92.7 l 114.4,-526 c 5.8,-26.7 -2.1,-54.6 -21.3,-74.6 l -375.8,-390.8 c -48.2,-50.2 -17.1,-132.9 52.8,-140"
         style="fill:#f7cc7f;fill-opacity:1;fill-rule:nonzero;stroke:none"
         id="path344" /><path
         d="m 22047.5,3913.9 c 0,0 -143.3,-177.7 -179,-199.5 -35.7,-21.9 15.9,-280 113.2,-297 54.8,-9.5 82.4,66.5 82.4,66.5 l -12.9,58.7 204.8,210.9 -208.5,160.4"
         style="fill:#f7a491;fill-opacity:1;fill-rule:nonzero;stroke:none"
         id="path346" /><path
         d="m 22785.8,3870 c 0,0 -119.4,-194.5 -152,-220.7 -32.7,-26.3 51.5,-275.7 150.1,-280.1 55.6,-2.5 73.3,76.5 73.3,76.5 l -20.3,56.5 176.2,235.4 -227.3,132.4"
         style="fill:#f7a491;fill-opacity:1;fill-rule:nonzero;stroke:none"
         id="path348" /><path
         d="m 22640.9,3656.9 c 0,0 68.7,-87.5 106.1,-122.3 48.3,-45 110.2,-88.9 110.2,-88.9 0,0 70.1,-127.2 89.3,-171.6 42.6,-98.8 90.5,-209 83.6,-264.3 -2.2,-17.8 -42.1,-36.6 -75.4,-26.3 -138.4,42.5 -492.4,366.3 -537.1,453.2 -51.5,100.3 223.3,220.2 223.3,220.2"
         style="fill:#07345a;fill-opacity:1;fill-rule:nonzero;stroke:none"
         id="path350" /><path
         d="m 23651.3,6620 c -12.8,36 -25.2,69.3 -37.1,100.6 -147.2,-32.1 -313.5,-67.5 -484.6,-103.9 l -20.9,-627.1 c 0.1,48.4 128.7,-1000.2 128.7,-1000.2 0,0 -302.5,-728.5 -529.9,-1157.5 93.4,-116.5 118,-133 253.2,-212.4 352.9,423.1 803.9,1168.9 823.1,1297.7 11.1,74 21,1271.1 -132.5,1702.8"
         style="fill:#3c8f7c;fill-opacity:1;fill-rule:nonzero;stroke:none"
         id="path352" /><path
         d="m 22337.1,6438.7 c 45,-488.6 145,-1422.8 136.7,-1497.9 -25.2,-93.7 -451.9,-958.1 -532,-1083.9 63.6,-95.8 157.3,-185.9 263.1,-214.5 20.9,-5.7 741.8,1025.9 781.8,1108.8 45.3,93.8 120.7,605.2 122,1238.4 l 20.9,627.1 c -285.1,-60.8 -547.2,-120.4 -792.5,-178"
         style="fill:#50bfa5;fill-opacity:1;fill-rule:nonzero;stroke:none"
         id="path354" /><path
         d="m 23273.2,8666 -335.6,-46 c 0,0 -268.9,-6.6 -302.2,-6.6 -33.3,0 -244,-1224 -305,-1684.6 -61,-460.6 -13.8,-542.2 -13.8,-542.2 0,0 425.4,-95.7 740.2,-67.8 327.2,29 695.5,205.7 695.5,205.7 0,0 -263.7,864.9 -319.1,1141.3 -55.5,276.4 -160,1000.2 -160,1000.2"
         style="fill:#f47458;fill-opacity:1;fill-rule:nonzero;stroke:none"
         id="path356" /><path
         d="m 24086.8,10148.8 c 0,0 21.5,-912.6 -12.9,-982.4 -50.1,-101.6 -613.5,-821.6 -613.5,-821.6 0,0 269.2,-1126.3 382.3,-1515.2 11.4,-39.2 61.9,-292.2 61.9,-316.9 0,-54.7 -238.1,-124.1 -266.4,-120 -25.3,3.7 -233,1075.1 -365.7,1599.4 -44.9,177.6 -122,345.5 -227.5,495.3 l -92.2,131.1 707.8,709.4 c 0,0 87.3,789.7 87.3,855.2 0,17.1 304.5,30 338.9,-34.3"
         style="fill:#466eb6;fill-opacity:1;fill-rule:nonzero;stroke:none"
         id="path358" /><path
         d="m 22647.6,8615 -882.7,899.4 c 0,0 -123,850.5 -131.7,882.5 -8.6,31.4 -227.8,48.5 -316.1,57.1 -28.4,2.7 14.8,-905.9 57,-1058.2 50,-179.9 717.1,-999.6 717.1,-999.6 0,0 119.6,-444.1 90.8,-769.7 -47.8,-541 -176.8,-1285.1 -153.7,-1308.4 143.5,-90.4 694,-100.1 728.9,-43.9 384.8,619.7 -109.6,2340.8 -109.6,2340.8"
         style="fill:#466eb6;fill-opacity:1;fill-rule:nonzero;stroke:none"
         id="path360" /><path
         d="m 22931.2,8783.1 23.8,-176.7 c 0,0 53.4,-254.6 -15.3,-303.6 -68.6,-49.1 -291.8,310.8 -291.8,310.8 l 23.5,447.7 259.8,-278.2"
         style="fill:#f7a491;fill-opacity:1;fill-rule:nonzero;stroke:none"
         id="path362" /><path
         d="m 22663.8,8916.2 c 56.7,-152.7 191.7,-246.5 287.6,-282.9 l -20.2,149.8 -259.8,278.2 -7.6,-145.1"
         style="fill:#f47458;fill-opacity:1;fill-rule:nonzero;stroke:none"
         id="path364" /><path
         d="m 22306.2,9365.6 c 0,-68.2 38.8,-123.5 86.6,-123.5 47.8,0 86.6,55.3 86.6,123.5 0,68.2 -38.8,123.5 -86.6,123.5 -47.8,0 -86.6,-55.3 -86.6,-123.5"
         style="fill:#07345a;fill-opacity:1;fill-rule:nonzero;stroke:none"
         id="path366" /><path
         d="m 22566,9631 c 0,-39.2 47.2,-71 105.4,-71 58.2,0 105.3,31.8 105.3,71 0,39.1 -47.1,70.9 -105.3,70.9 -58.2,0 -105.4,-31.8 -105.4,-70.9"
         style="fill:#07345a;fill-opacity:1;fill-rule:nonzero;stroke:none"
         id="path368" /><path
         d="m 22830,9531.7 c 139.3,47.9 287.8,-44.6 309,-188.2 9.3,-62.4 17.6,-140.9 19.2,-226.7 3.7,-206.3 -103.1,-407.2 -196.8,-407.2 -93.7,0 -352.7,133.6 -362,426.6 -5.8,180.9 84.5,345.2 230.6,395.5"
         style="fill:#f7a491;fill-opacity:1;fill-rule:nonzero;stroke:none"
         id="path370" /><path
         d="m 22668.4,9113 c 0,-45.5 -30.2,-82.4 -67.4,-82.4 -37.2,0 -67.4,36.9 -67.4,82.4 0,45.5 30.2,82.4 67.4,82.4 37.2,0 67.4,-36.9 67.4,-82.4"
         style="fill:#f7a491;fill-opacity:1;fill-rule:nonzero;stroke:none"
         id="path372" /><path
         d="m 23236,9634.3 c 96.8,-76.6 130.7,-193.1 75.8,-260.2 -55,-67 -178,-59.2 -274.8,17.5 -96.8,76.6 -130.7,193.1 -75.7,260.2 54.9,67 177.9,59.2 274.7,-17.5"
         style="fill:#07345a;fill-opacity:1;fill-rule:nonzero;stroke:none"
         id="path374" /><path
         d="m 22982.9,9571.5 c 0,-33.4 -40.2,-60.4 -89.8,-60.4 -49.7,0 -89.9,27 -89.9,60.4 0,33.3 40.2,60.3 89.9,60.3 49.6,0 89.8,-27 89.8,-60.3"
         style="fill:#07345a;fill-opacity:1;fill-rule:nonzero;stroke:none"
         id="path376" /><path
         d="m 23250.3,9315 c 0,-42.8 -34.3,-77.5 -76.7,-77.5 -42.3,0 -76.7,34.7 -76.7,77.5 0,42.9 34.4,77.6 76.7,77.6 42.4,0 76.7,-34.7 76.7,-77.6"
         style="fill:#07345a;fill-opacity:1;fill-rule:nonzero;stroke:none"
         id="path378" /><path
         d="m 23811.3,10595 47.6,75.7 c 0,0 82.6,72.9 60.9,102 -36.2,48.5 -161.9,-69.1 -161.9,-69.1 0,0 -14,-105.4 53.4,-108.6"
         style="fill:#f7a491;fill-opacity:1;fill-rule:nonzero;stroke:none"
         id="path380" /><path
         d="m 24108.5,10593.4 c 0,0 22.2,180.6 17.9,186 -23.9,29.9 -99.6,79.9 -127.6,68.6 -27.9,-11.3 36.5,-107.2 36.5,-107.2 0,0 -40.3,-8.4 -48.5,-44 -8.2,-35.5 121.7,-103.4 121.7,-103.4"
         style="fill:#f7a491;fill-opacity:1;fill-rule:nonzero;stroke:none"
         id="path382" /><path
         d="m 21876.6,3721.1 c 0,0 56.8,-95.6 89.5,-134.9 42.2,-50.8 98,-102.3 98,-102.3 0,0 53.2,-135.1 66.6,-181.6 29.7,-103.4 63.2,-228.3 49.3,-282.3 -4.5,-17.3 -42.6,-50.4 -74.1,-30 -121.4,79.1 -445.7,449.3 -478.9,541.2 -38.3,106 249.6,189.9 249.6,189.9"
         style="fill:#07345a;fill-opacity:1;fill-rule:nonzero;stroke:none"
         id="path384" /></g></g></svg>
