<?xml version="1.0" encoding="utf-8"?>
<!-- Generator: Adobe Illustrator 18.0.0, SVG Export Plug-In . SVG Version: 6.00 Build 0)  -->
<!DOCTYPE svg PUBLIC "-//W3C//DTD SVG 1.1//EN" "http://www.w3.org/Graphics/SVG/1.1/DTD/svg11.dtd">
<svg version="1.1" xmlns="http://www.w3.org/2000/svg" xmlns:xlink="http://www.w3.org/1999/xlink" x="0px" y="0px"
	 viewBox="0 0 1400 980" enable-background="new 0 0 1400 980" xml:space="preserve">
<g id="Background">
	<rect x="-13.9" y="-12" fill="#E0EFD4" width="1436" height="1004"/>
</g>
<g id="Object">
	<g>
		<path fill="#C3E2C3" d="M590.2,266.1c6.6,0,12.8-2,18-5.4c0.5,2.7,1.1,5.3,1.8,7.9c-0.9-0.1-1.9-0.1-2.8-0.1
			c-18.2,0-33,14.8-33,33c0,18.2,14.8,33,33,33c12.1,0,22.6-6.5,28.4-16.2c5.4,6.6,10.8,11.9,15.3,15.8c-1.2,2.5-1.9,5.3-1.9,8.3
			v23.1c0,3.1,0.8,6.1,2.1,8.7c-1.3,2.6-2.1,5.5-2.1,8.7v23.1c0,5.6,2.5,10.7,6.4,14.2c6.5,28.3,31.9,49.2,61.8,49.2h5.4
			c29.9,0,55.3-20.9,61.8-49.2c3.9-3.5,6.4-8.5,6.4-14.2v-23.1c0-3.1-0.8-6.1-2.1-8.7c1.3-2.6,2.1-5.5,2.1-8.7v-23.1
			c0-3.1-0.7-6-2-8.5c5.2-4.6,11.7-11.2,18.1-19.6c5,11.8,16.7,20.2,30.4,20.2c18.2,0,33-14.8,33-33c0-18.2-14.8-33-33-33
			c-2.8,0-5.6,0.4-8.2,1c1.1-3.9,2-8.1,2.7-12.3c5.9,5.5,13.8,8.9,22.5,8.9c18.2,0,33-14.8,33-33c0-18.2-14.8-33-33-33
			c-9.7,0-18.4,4.2-24.4,10.8c-1-4.1-2.1-8-3.3-11.7c3.4,1.2,7,1.8,10.8,1.8c18.2,0,33-14.8,33-33c0-18.2-14.8-33-33-33
			c-15.2,0-28.1,10.4-31.9,24.4c-2.7-3.4-5.5-6.4-8.3-9.1c12.7-4.6,21.8-16.8,21.8-31c0-18.2-14.8-33-33-33
			c-11.7,0-22,6.1-27.9,15.4c-1.8-16.5-15.8-29.4-32.8-29.4c-18.2,0-33,14.8-33,33c0,6.2,1.7,12,4.7,17c-1.8,0.4-3.6,0.8-5.6,1.2
			c0.2-1.4,0.3-2.8,0.3-4.2c0-18.2-14.8-33-33-33c-18.2,0-33,14.8-33,33c0,12.9,7.5,24.1,18.3,29.5c-2.1,2-4.2,4.1-6.3,6.4
			c-5-11.9-16.8-20.3-30.4-20.3c-18.2,0-33,14.8-33,33c0,18.2,14.8,33,33,33c1.8,0,3.6-0.2,5.3-0.4c-0.7,2.1-1.3,4.3-1.9,6.6
			c-5.6-4.4-12.7-7.1-20.4-7.1c-18.2,0-33,14.8-33,33C557.2,251.3,572,266.1,590.2,266.1z M753,123c0.1,0.7,0.2,1.4,0.3,2.1
			c-0.5-0.1-0.9-0.3-1.4-0.4C752.2,124.1,752.6,123.6,753,123z"/>
		<path fill="#C3E2C3" d="M394.7,217.7c-6-7.3-13-12.6-19.9-16.5l1.7-2.3c0.4-0.5,0.7-1.1,1.1-1.7c0.5-0.6,1-1.1,1.4-1.8
			c0.1,0,0.2,0,0.2-0.1c4.2-1.3,12.1-3.6,18.4-12.2c9.1-12.5,7.2-27.3-4.7-36.1c-4.5-3.3-9.7-5.1-14.8-5.1c-8.1,0-15.5,4.1-21,11.6
			l-2,2.7c-3,4.1-3.8,9.2-2.5,13.8c-0.7,0.8-1.5,1.7-2.2,2.7c-0.7,1-1.3,2-1.9,3c-0.5,0.5-0.9,1-1.4,1.6l-3.3,4.5
			c-0.6,0.8-1.1,1.6-1.5,2.5c-4.4-4-9.4-7.1-14.9-9.4l0.5-1.6c0.2-0.6,0.4-1.3,0.5-1.9c0.3-0.7,0.6-1.4,0.7-2.1
			c0.1,0,0.1-0.1,0.2-0.1c3.6-2.5,10.4-7.3,13.6-17.3c2.7-8.3,1.4-14.7-0.1-18.6c-2.7-6.7-8.2-11.7-15.7-14.1
			c-2.7-0.9-5.5-1.3-8.2-1.3c-10.9,0-20,7.2-23.7,18.8l-1,3.1c-1.3,4.1-0.9,8.5,1,12.3c0.3,0.6,0.6,1.1,1,1.6
			c-0.5,1-0.9,2.1-1.2,3.2c-0.4,1.2-0.6,2.3-0.9,3.5c-0.3,0.6-0.6,1.3-0.8,2l-1.7,5.4c-0.4,1.3-0.6,2.6-0.7,3.9
			c-4.3,0.7-8.4,1.6-12,2.7c0.3-1.3,0.5-2.6,0.5-4v-5.6c0-0.7-0.1-1.3-0.1-2c0.1-0.7,0.1-1.5,0.1-2.2c0.1-0.1,0.1-0.1,0.2-0.2
			c2.7-3.5,7.6-10.1,7.6-20.7c0-15.5-10.3-26.3-25.1-26.3c-14.8,0-25.1,10.9-25.1,26.4v3.3c0,5.1,2.4,9.7,6.1,12.6
			c-0.1,1.1-0.2,2.2-0.2,3.4c0,1.3,0.1,2.4,0.3,3.6c-0.1,0.7-0.2,1.4-0.2,2.1v5.6c0,0.4,0,0.8,0.1,1.3c-6.9,0.1-13.6,1.4-19.9,3.8
			c-7.1,2.7-13.4,6.7-18.7,11.9c-4.8-0.9-9.9-1.3-15.1-1.3c-28.6,0-61.9,13.4-84.8,34.2c-16.7,15.2-23,42.3-16.1,69.2
			c7.7,30.3,30.1,52.6,59.8,59.9c4.8,1.2,9.4,2.1,14,2.7c16,11,31.5,16.5,46.2,16.5c4.6,0,9.1-0.5,13.4-1.6
			c7.3,7.4,16.8,12.3,25,16.4c12,6.1,23.2,11.8,29.1,22.8c20.3,38,52.9,39.9,59.2,39.9c0.3,0,0.5,0,0.7,0c0.2,0,0.4,0,0.5,0
			c6.1-0.3,11.7-3.4,15-8.5c3.3-5.1,4.1-11.5,1.9-17.1c-0.4-1.5,0.5-6.9,1.1-10.8c0.5-3,1-6.1,1.4-9.2c10.5-4.4,24-12.8,32.3-27.9
			c4-7.4,6.3-15.5,6.9-24.4c14-13.9,23.7-36.1,15.4-63.1C414,257.4,408.8,234.7,394.7,217.7z"/>
		<path fill="#C3E2C3" d="M1040.4,395.3h96.8c35.5,53.1,94.5,59.1,119.1,59.1c6.2,0,10.1-0.4,10.9-0.5v0c8.5-0.9,15.4-7.5,16.7-16
			c1.3-8.5-3.4-16.8-11.3-20.2c-10.9-4.7-19.6-13.6-26-22.3h35.7c10.4,0,19-8.5,19-19v-189c0-10.4-8.5-19-19-19h-242
			c-10.4,0-19,8.5-19,19v189C1021.5,386.8,1030,395.3,1040.4,395.3z"/>
		<path fill="#C3E2C3" d="M844.7,626.1h-67.9l36.7-53.8c5.1-7.5,4.2-17.6-2.3-24.1l-7.9-7.9c-3.5-3.5-8.4-5.6-13.4-5.6
			c-1.7,0-3.3,0.3-4.9,0.8c-1.5,0.4-5.3,1.5-8.8,5l-60.5,62.7c-1.6-0.1-3.2-0.2-4.7-0.2c-0.6,0-1.2,0-1.9,0l-57-67.4
			c-3.6-4.3-8.8-6.7-14.3-6.7c-0.6,0-1.2,0-1.9,0.1c-5.7,0.5-10.9,3.6-14.1,8.4l-7.2,10.8c-4.3,6.5-4.3,14.8,0.1,21.2l38.7,56.7
			h-76.1c-28.1,0-50.9,22.8-50.9,50.9v180.3c0,28.1,22.8,50.9,50.9,50.9h267.4c28.1,0,50.9-22.8,50.9-50.9V677
			C895.7,648.9,872.8,626.1,844.7,626.1z"/>
		<path fill="#C3E2C3" d="M1340.7,678.4c0.1-5-1.8-9.8-5.3-13.5l-36.9-38.5c-3.5-3.6-8.2-5.7-13.3-5.8c-0.1,0-0.2,0-0.4,0
			c-0.6,0-1.1,0-1.7,0.1c-4.5,0.5-8.4,2.2-11.5,5.2l-18.8,18c-0.5,0.5-1,1-1.4,1.5c-4.8-2.5-9.7-4.8-14.7-6.8c1.1-2.4,1.7-5,1.7-7.8
			v-38.5c0-10.4-8.5-19-19-19h-78.9c-10.4,0-19,8.5-19,19v38.5c0,2.8,0.6,5.4,1.7,7.8c-5,2-9.9,4.2-14.6,6.7c-0.4-0.5-0.9-1-1.4-1.5
			l-18.8-18c-3.1-3-7-4.7-11.5-5.2c-0.6-0.1-1.1-0.1-1.7-0.1c-0.1,0-0.2,0-0.4,0c-5.1,0.1-9.8,2.2-13.3,5.8l-36.9,38.5
			c-7.2,7.5-7,19.6,0.6,26.8l18.7,17.9c-11.7,21.9-17.7,46.3-17.7,71.6c0,84.7,68.9,153.6,153.6,153.6
			c84.7,0,153.6-68.9,153.6-153.6c0-25.3-6.1-49.6-17.7-71.5c0,0,18.8-18,18.8-18C1338.5,688.1,1340.6,683.4,1340.7,678.4z"/>
		<path fill="#C3E2C3" d="M377.9,564.3H124.7c-10.5,0-19,8.5-19,19v330.4c0,10.4,8.5,19,19,19h159.4c2.5,0,4.9-0.5,7.2-1.4
			c1.6-0.7,2.8-1.4,3.8-2.1c0.8-0.6,1.6-1.2,2.3-1.9c0,0,93.8-92.4,93.8-92.4c0.2-0.2,0.4-0.4,0.6-0.6c2-2.2,3.5-4.9,4.3-7.8
			c0.1-0.5,0.3-1,0.3-1.5c0.3-1.2,0.4-2.4,0.4-3.6v-238C396.8,572.8,388.3,564.3,377.9,564.3z"/>
	</g>
	<g>
		<path fill="#FFFFFF" d="M599.9,251.5c6.6,0,12.8-2,18-5.4c0.5,2.7,1.1,5.3,1.8,7.9c-0.9-0.1-1.9-0.1-2.8-0.1
			c-18.2,0-33,14.8-33,33c0,18.2,14.8,33,33,33c12.1,0,22.6-6.5,28.4-16.2c5.4,6.6,10.8,11.9,15.3,15.8c-1.2,2.5-1.9,5.3-1.9,8.3
			v23.1c0,3.1,0.8,6.1,2.1,8.7c-1.3,2.6-2.1,5.5-2.1,8.7v23.1c0,5.6,2.5,10.7,6.4,14.2c6.5,28.3,31.9,49.2,61.8,49.2h5.4
			c29.9,0,55.3-20.9,61.8-49.2c3.9-3.5,6.4-8.5,6.4-14.2v-23.1c0-3.1-0.8-6.1-2.1-8.7c1.3-2.6,2.1-5.5,2.1-8.7v-23.1
			c0-3.1-0.7-6-2-8.5c5.2-4.6,11.7-11.2,18.1-19.6c5,11.8,16.7,20.2,30.4,20.2c18.2,0,33-14.8,33-33c0-18.2-14.8-33-33-33
			c-2.8,0-5.6,0.4-8.2,1c1.1-3.9,2-8.1,2.7-12.3c5.9,5.5,13.8,8.9,22.5,8.9c18.2,0,33-14.8,33-33c0-18.2-14.8-33-33-33
			c-9.7,0-18.4,4.2-24.4,10.8c-1-4.1-2.1-8-3.3-11.7c3.4,1.2,7,1.8,10.8,1.8c18.2,0,33-14.8,33-33c0-18.2-14.8-33-33-33
			c-15.2,0-28.1,10.4-31.9,24.4c-2.7-3.4-5.5-6.4-8.3-9.1c12.7-4.6,21.8-16.8,21.8-31c0-18.2-14.8-33-33-33
			c-11.7,0-22,6.1-27.9,15.4c-1.8-16.5-15.8-29.4-32.8-29.4c-18.2,0-33,14.8-33,33c0,6.2,1.7,12,4.7,17c-1.8,0.4-3.6,0.8-5.6,1.2
			c0.2-1.4,0.3-2.8,0.3-4.2c0-18.2-14.8-33-33-33c-18.2,0-33,14.8-33,33c0,12.9,7.5,24.1,18.3,29.5c-2.1,2-4.2,4.1-6.3,6.4
			c-5-11.9-16.8-20.3-30.4-20.3c-18.2,0-33,14.8-33,33c0,18.2,14.8,33,33,33c1.8,0,3.6-0.2,5.3-0.4c-0.7,2.1-1.3,4.3-1.9,6.6
			c-5.6-4.4-12.7-7.1-20.4-7.1c-18.2,0-33,14.8-33,33C566.9,236.7,581.7,251.5,599.9,251.5z M762.7,108.3c0.1,0.7,0.2,1.4,0.3,2.1
			c-0.5-0.1-0.9-0.3-1.4-0.4C761.9,109.4,762.3,108.9,762.7,108.3z"/>
		<path fill="#FFFFFF" d="M404.4,203c-6-7.3-13-12.6-19.9-16.5l1.7-2.3c0.4-0.5,0.7-1.1,1.1-1.7c0.5-0.6,1-1.1,1.4-1.8
			c0.1,0,0.2,0,0.2-0.1c4.2-1.3,12.1-3.6,18.4-12.2c9.1-12.5,7.2-27.3-4.7-36.1c-4.5-3.3-9.7-5.1-14.8-5.1c-8.1,0-15.5,4.1-21,11.6
			l-2,2.7c-3,4.1-3.8,9.2-2.5,13.8c-0.7,0.8-1.5,1.7-2.2,2.7c-0.7,1-1.3,2-1.9,3c-0.5,0.5-0.9,1-1.4,1.6l-3.3,4.5
			c-0.6,0.8-1.1,1.6-1.5,2.5c-4.4-4-9.4-7.1-14.9-9.4l0.5-1.6c0.2-0.6,0.4-1.3,0.5-1.9c0.3-0.7,0.6-1.4,0.7-2.1
			c0.1,0,0.1-0.1,0.2-0.1c3.6-2.5,10.4-7.3,13.6-17.3c2.7-8.3,1.4-14.7-0.1-18.6c-2.7-6.7-8.2-11.7-15.7-14.1
			c-2.7-0.9-5.5-1.3-8.2-1.3c-10.9,0-20,7.2-23.7,18.8l-1,3.1c-1.3,4.1-0.9,8.5,1,12.3c0.3,0.6,0.6,1.1,1,1.6
			c-0.5,1-0.9,2.1-1.2,3.2c-0.4,1.2-0.6,2.3-0.9,3.5c-0.3,0.6-0.6,1.3-0.8,2l-1.7,5.4c-0.4,1.3-0.6,2.6-0.7,3.9
			c-4.3,0.7-8.4,1.6-12,2.7c0.3-1.3,0.5-2.6,0.5-4v-5.6c0-0.7-0.1-1.3-0.1-2c0.1-0.7,0.1-1.5,0.1-2.2c0.1-0.1,0.1-0.1,0.2-0.2
			c2.7-3.5,7.6-10.1,7.6-20.7c0-15.5-10.3-26.3-25.1-26.3c-14.8,0-25.1,10.9-25.1,26.4v3.3c0,5.1,2.4,9.7,6.1,12.6
			c-0.1,1.1-0.2,2.2-0.2,3.4c0,1.3,0.1,2.4,0.3,3.6c-0.1,0.7-0.2,1.4-0.2,2.1v5.6c0,0.4,0,0.8,0.1,1.3c-6.9,0.1-13.6,1.4-19.9,3.8
			c-7.1,2.7-13.4,6.7-18.7,11.9c-4.8-0.9-9.9-1.3-15.1-1.3c-28.6,0-61.9,13.4-84.8,34.2c-16.7,15.2-23,42.3-16.1,69.2
			c7.7,30.3,30.1,52.6,59.8,59.9c4.8,1.2,9.4,2.1,14,2.7c16,11,31.5,16.5,46.2,16.5c4.6,0,9.1-0.5,13.4-1.6
			c7.3,7.4,16.8,12.3,25,16.4c12,6.1,23.2,11.8,29.1,22.8c20.3,38,52.9,39.9,59.2,39.9c0.3,0,0.5,0,0.7,0c0.2,0,0.4,0,0.5,0
			c6.1-0.3,11.7-3.4,15-8.5c3.3-5.1,4.1-11.5,1.9-17.1c-0.4-1.5,0.5-6.9,1.1-10.8c0.5-3,1-6.1,1.4-9.2c10.5-4.4,24-12.8,32.3-27.9
			c4-7.4,6.3-15.5,6.9-24.4c14-13.9,23.7-36.1,15.4-63.1C423.7,242.7,418.5,220,404.4,203z"/>
		<path fill="#FFFFFF" d="M1050.2,380.6h96.8c35.5,53.1,94.5,59.1,119.1,59.1c6.2,0,10.1-0.4,10.9-0.5v0c8.5-0.9,15.4-7.5,16.7-16
			c1.3-8.5-3.4-16.8-11.3-20.2c-10.9-4.7-19.6-13.6-26-22.3h35.7c10.4,0,19-8.5,19-19v-189c0-10.4-8.5-19-19-19h-242
			c-10.4,0-19,8.5-19,19v189C1031.2,372.1,1039.7,380.6,1050.2,380.6z"/>
		<path fill="#FFFFFF" d="M854.4,611.4h-67.9l36.7-53.8c5.1-7.5,4.2-17.6-2.3-24.1l-7.9-7.9c-3.5-3.5-8.4-5.6-13.4-5.6
			c-1.7,0-3.3,0.3-4.9,0.8c-1.5,0.4-5.3,1.5-8.8,5l-60.5,62.7c-1.6-0.1-3.2-0.2-4.7-0.2c-0.6,0-1.2,0-1.9,0l-57-67.4
			c-3.6-4.3-8.8-6.7-14.3-6.7c-0.6,0-1.2,0-1.9,0.1c-5.7,0.5-10.9,3.6-14.1,8.4l-7.2,10.8c-4.3,6.5-4.3,14.8,0.1,21.2l38.7,56.7
			h-76.1c-28.1,0-50.9,22.8-50.9,50.9v180.3c0,28.1,22.8,50.9,50.9,50.9h267.4c28.1,0,50.9-22.8,50.9-50.9V662.3
			C905.4,634.2,882.5,611.4,854.4,611.4z"/>
		<path fill="#FFFFFF" d="M1350.4,663.7c0.1-5-1.8-9.8-5.3-13.5l-36.9-38.5c-3.5-3.6-8.2-5.7-13.3-5.8c-0.1,0-0.2,0-0.4,0
			c-0.6,0-1.1,0-1.7,0.1c-4.5,0.5-8.4,2.2-11.5,5.2l-18.8,18c-0.5,0.5-1,1-1.4,1.5c-4.8-2.5-9.7-4.8-14.7-6.8c1.1-2.4,1.7-5,1.7-7.8
			v-38.5c0-10.4-8.5-19-19-19h-78.9c-10.4,0-19,8.5-19,19V616c0,2.8,0.6,5.4,1.7,7.8c-5,2-9.9,4.2-14.6,6.7c-0.4-0.5-0.9-1-1.4-1.5
			l-18.8-18c-3.1-3-7-4.7-11.5-5.2c-0.6-0.1-1.1-0.1-1.7-0.1c-0.1,0-0.2,0-0.4,0c-5.1,0.1-9.8,2.2-13.3,5.8l-36.9,38.5
			c-7.2,7.5-7,19.6,0.6,26.8l18.7,17.9c-11.7,21.9-17.7,46.3-17.7,71.6c0,84.7,68.9,153.6,153.6,153.6s153.6-68.9,153.6-153.6
			c0-25.3-6.1-49.6-17.7-71.5c0,0,18.8-18,18.8-18C1348.2,673.4,1350.3,668.7,1350.4,663.7z"/>
		<path fill="#FFFFFF" d="M387.6,549.6H134.4c-10.5,0-19,8.5-19,19v330.4c0,10.4,8.5,19,19,19h159.4c2.5,0,4.9-0.5,7.2-1.4
			c1.6-0.7,2.8-1.4,3.8-2.1c0.8-0.6,1.6-1.2,2.3-1.9c0,0,93.8-92.4,93.8-92.4c0.2-0.2,0.4-0.4,0.6-0.6c2-2.2,3.5-4.9,4.3-7.8
			c0.1-0.5,0.3-1,0.3-1.5c0.3-1.2,0.4-2.4,0.4-3.6v-238C406.5,558.1,398,549.6,387.6,549.6z"/>
	</g>
	<g>
		<polygon fill="#FFF200" points="767.2,197.4 776.4,197.4 771.7,173.5 		"/>
		<path fill="#FFFBCC" d="M599.9,229.6c6.1,0,11.1-5,11.1-11.2s-5-11.1-11.1-11.1c-6.1,0-11.1,5-11.1,11.1S593.8,229.6,599.9,229.6z
			"/>
		<path fill="#FFF200" d="M821.3,218.6c-10.7-86.7-76.6-91.1-89.7-91.1c-1.1,0-1.8,0-2.1,0c-0.6,0-1.3,0-2.4,0
			c-13.1,0-79,4.4-89.7,91.4c-1.3,56.9,40,86.8,45.8,90.6h92.4C781.3,305.6,822.6,275.7,821.3,218.6z M752.6,168.3h4.6v41.3h-4.6
			V168.3z M718.6,168.3h4.6v41.3h-4.6V168.3z M695.4,168.3h9.2c6.5,0,9.2,3.3,9.2,9.4v3.4c0,4.5-1.6,7.4-5.1,8.5
			c3.8,1.1,5.2,4.2,5.2,8.6v6.4c0,1.8,0.1,3.5,0.8,5H710c-0.5-1.2-0.8-2.2-0.8-5v-6.5c0-4.7-2.2-6.1-6-6.1H700v17.6h-4.6V168.3z
			 M684.6,209.6H680v-37.1h-7.6v-4.2h19.8v4.2h-7.6V209.6z M711.2,279.7h-0.8c-2.6,0-4.3-0.9-5.2-2.7c-1.3,0.8-3,1.2-5,1.2
			c-6.3,0-9.4-4.1-9.4-10.4v-21.4c0-6.3,3.1-10.4,9.4-10.4c6.4,0,9.5,4.1,9.5,10.4v21.4c0,2.5-0.5,4.8-1.6,6.4
			c0.5,1,1.2,1.3,2.5,1.3h0.6V279.7z M733.1,267.9c0,6.2-2.9,10.4-9.3,10.4c-6.3,0-9.2-4.2-9.2-10.4v-31.3h4.5v31.6
			c0,3.7,1.5,6,4.8,6c3.3,0,4.8-2.2,4.8-6v-31.6h4.3V267.9z M726.8,168.3h4.7l6.7,35.9l6.7-35.9h4.2l-7.7,41.3h-6.8L726.8,168.3z
			 M742.2,277.8h-4.6v-41.3h4.6V277.8z M765.2,240.7l-14.2,33H765v4.2h-18.8v-4.1l14.2-33h-13.5v-4.2h18.2V240.7z M778.6,209.6
			l-1.6-8.3h-10.4l-1.6,8.3h-4.2l7.9-41.3h6.7l7.9,41.3H778.6z"/>
		<path fill="#FFF200" d="M700.1,240.3c-3.3,0-4.9,2.2-4.9,6v21.8c0,3.8,1.6,6,4.9,6c3.4,0,4.9-2.2,4.9-6v-21.8
			C705,242.6,703.5,240.3,700.1,240.3z"/>
		<path fill="#FFFBCC" d="M668.3,115.9c6.1,0,11.1-5,11.1-11.1c0-6.1-5-11.2-11.1-11.2c-6.1,0-11.1,5-11.1,11.2
			C657.1,110.9,662.1,115.9,668.3,115.9z"/>
		<path fill="#FFFBCC" d="M734.8,101.9c6.1,0,11.1-5,11.1-11.2c0-6.1-5-11.1-11.1-11.1c-6.1,0-11.1,5-11.1,11.1
			C723.6,96.9,728.6,101.9,734.8,101.9z"/>
		<path fill="#FFFBCC" d="M616.9,164.6c6.1,0,11.1-5,11.1-11.2s-5-11.1-11.1-11.1c-6.1,0-11.1,5-11.1,11.1S610.7,164.6,616.9,164.6z
			"/>
		<path fill="#FFFBCC" d="M616.9,275.7c-6.1,0-11.1,5-11.1,11.2c0,6.1,5,11.1,11.1,11.1c6.1,0,11.1-5,11.1-11.1
			C628,280.7,623,275.7,616.9,275.7z"/>
		<path fill="#FFFBCC" d="M795.5,115.9c6.1,0,11.1-5,11.1-11.1c0-6.1-5-11.2-11.1-11.2s-11.1,5-11.1,11.2
			C784.3,110.9,789.3,115.9,795.5,115.9z"/>
		<path fill="#FFFBCC" d="M863.8,229.6c6.1,0,11.1-5,11.1-11.2s-5-11.1-11.1-11.1c-6.1,0-11.1,5-11.1,11.1S857.7,229.6,863.8,229.6z
			"/>
		<path fill="#FFFBCC" d="M846.9,164.6c6.1,0,11.1-5,11.1-11.2s-5-11.1-11.1-11.1c-6.1,0-11.1,5-11.1,11.1S840.7,164.6,846.9,164.6z
			"/>
		<path fill="#7DA7D9" d="M776.7,371.3h-94.4c-0.4,0-0.8-0.1-1.1-0.2h-0.7v17.3h1.9h94.4h1.9V371h-0.7
			C777.5,371.2,777.1,371.3,776.7,371.3z"/>
		<rect x="685.2" y="315.3" fill="#7DA7D9" width="88.6" height="9.6"/>
		<rect x="685.2" y="353.7" fill="#7DA7D9" width="88.6" height="11.5"/>
		<polygon fill="#7DA7D9" points="682.3,330.7 680.4,330.7 680.4,348 682.3,348 776.7,348 778.5,348 778.5,330.7 776.7,330.7 		"/>
		<path fill="#FFF200" d="M709.2,182.1v-4c0-3.7-1.4-5.7-4.8-5.7H700v15.3h3.4C707,187.8,709.2,186.6,709.2,182.1z"/>
		<path fill="#7DA7D9" d="M726.8,432.8h5.4c22,0,40-17.1,41.5-38.7h-88.4C686.8,415.7,704.8,432.8,726.8,432.8z"/>
		<path fill="#FFFBCC" d="M846.9,298c6.1,0,11.1-5,11.1-11.1c0-6.1-5-11.2-11.1-11.2c-6.1,0-11.1,5-11.1,11.2
			C835.7,293,840.7,298,846.9,298z"/>
		<polygon fill="#EF373B" points="692.2,168.3 672.4,168.3 672.4,172.5 680,172.5 680,209.6 684.6,209.6 684.6,172.5 692.2,172.5 		
			"/>
		<path fill="#EF373B" d="M700,192h3.2c3.8,0,6,1.5,6,6.1v6.5c0,2.8,0.2,3.8,0.8,5h4.7c-0.8-1.4-0.8-3.1-0.8-5v-6.4
			c0-4.4-1.4-7.5-5.2-8.6c3.5-1.1,5.1-4,5.1-8.5v-3.4c0-6.1-2.7-9.4-9.2-9.4h-9.2v41.3h4.6V192z M700,172.5h4.5
			c3.4,0,4.8,1.9,4.8,5.7v4c0,4.5-2.2,5.7-5.8,5.7H700V172.5z"/>
		<rect x="718.6" y="168.3" fill="#EF373B" width="4.6" height="41.3"/>
		<polygon fill="#EF373B" points="749.1,168.3 744.8,168.3 738.1,204.3 731.4,168.3 726.8,168.3 734.5,209.6 741.3,209.6 		"/>
		<rect x="752.6" y="168.3" fill="#EF373B" width="4.6" height="41.3"/>
		<path fill="#EF373B" d="M768.6,168.3l-7.9,41.3h4.2l1.6-8.3H777l1.6,8.3h4.6l-7.9-41.3H768.6z M767.2,197.4l4.5-23.8l4.7,23.8
			H767.2z"/>
		<path fill="#EF373B" d="M708,274.3c1.1-1.7,1.6-3.9,1.6-6.4v-21.4c0-6.3-3.1-10.4-9.5-10.4c-6.3,0-9.4,4.1-9.4,10.4v21.4
			c0,6.2,3.1,10.4,9.4,10.4c2,0,3.7-0.5,5-1.2c0.9,1.7,2.7,2.7,5.2,2.7h0.8v-4.1h-0.6C709.3,275.6,708.5,275.3,708,274.3z
			 M705,268.1c0,3.8-1.5,6-4.9,6c-3.3,0-4.9-2.2-4.9-6v-21.8c0-3.7,1.6-6,4.9-6c3.4,0,4.9,2.2,4.9,6V268.1z"/>
		<path fill="#EF373B" d="M728.8,268.1c0,3.7-1.5,6-4.8,6c-3.4,0-4.8-2.2-4.8-6v-31.6h-4.5v31.3c0,6.2,2.9,10.4,9.2,10.4
			c6.4,0,9.3-4.2,9.3-10.4v-31.3h-4.3V268.1z"/>
		<rect x="737.6" y="236.5" fill="#EF373B" width="4.6" height="41.3"/>
		<polygon fill="#EF373B" points="746.9,240.7 760.4,240.7 746.3,273.7 746.3,277.8 765,277.8 765,273.7 750.9,273.7 765.2,240.7 
			765.2,236.5 746.9,236.5 		"/>
		<path fill="#EF373B" d="M827,218.1c-11.3-91.8-81.5-96.5-95.4-96.5c-1.3,0-2.1,0-2.1,0.1c-0.3,0-1.1-0.1-2.4-0.1
			c-14,0-84.1,4.7-95.5,96.8c-1.3,58.7,40,90.1,47.8,95.5v11h-1.9c-1.6,0-2.9,1.3-2.9,2.9v23.1c0,1.6,1.3,2.9,2.9,2.9h1.9v11.5h-1.9
			c-1.6,0-2.9,1.3-2.9,2.9v23.1c0,1.6,1.3,2.9,2.9,2.9h2c1.5,24.8,22.1,44.5,47.2,44.5h5.4c25.1,0,45.7-19.7,47.2-44.5h2
			c1.6,0,2.9-1.3,2.9-2.9v-23.1c0-1.6-1.3-2.9-2.9-2.9h-1.9v-11.5h1.9c1.6,0,2.9-1.3,2.9-2.9v-23.1c0-1.6-1.3-2.9-2.9-2.9h-1.9
			v-11.2C788.1,307.7,828.4,276.4,827,218.1z M732.2,432.8h-5.4c-22,0-40-17.1-41.5-38.7h88.4C772.2,415.7,754.2,432.8,732.2,432.8z
			 M778.5,388.4h-1.9h-94.4h-1.9V371h0.7c0.3,0.2,0.7,0.2,1.1,0.2h94.4c0.4,0,0.8-0.1,1.1-0.2h0.7V388.4z M685.2,365.3v-11.5h88.6
			v11.5H685.2z M778.5,348h-1.9h-94.4h-1.9v-17.3h1.9h94.4h1.9V348z M685.2,324.9v-9.6h88.6v9.6H685.2z M775.5,309.5h-92.4
			c-5.7-3.9-47.1-33.8-45.8-90.6c10.7-87,76.6-91.4,89.7-91.4c1.1,0,1.8,0,2.4,0c0.2,0,1,0,2.1,0c13.1,0,79,4.4,89.7,91.1
			C822.6,275.7,781.3,305.6,775.5,309.5z"/>
		<path fill="#EF373B" d="M616.9,269.9c-9.3,0-16.9,7.6-16.9,16.9c0,9.3,7.6,16.9,16.9,16.9s16.9-7.6,16.9-16.9
			C633.8,277.5,626.2,269.9,616.9,269.9z M616.9,298c-6.1,0-11.1-5-11.1-11.1c0-6.1,5-11.2,11.1-11.2c6.1,0,11.1,5,11.1,11.2
			C628,293,623,298,616.9,298z"/>
		<path fill="#EF373B" d="M599.9,235.4c9.3,0,16.9-7.6,16.9-16.9c0-9.3-7.6-16.9-16.9-16.9s-16.9,7.6-16.9,16.9
			C583,227.8,590.6,235.4,599.9,235.4z M599.9,207.3c6.1,0,11.1,5,11.1,11.1s-5,11.2-11.1,11.2c-6.1,0-11.1-5-11.1-11.2
			S593.8,207.3,599.9,207.3z"/>
		<path fill="#EF373B" d="M616.9,170.4c9.3,0,16.9-7.6,16.9-16.9c0-9.3-7.6-16.9-16.9-16.9s-16.9,7.6-16.9,16.9
			C599.9,162.8,607.5,170.4,616.9,170.4z M616.9,142.3c6.1,0,11.1,5,11.1,11.1s-5,11.2-11.1,11.2c-6.1,0-11.1-5-11.1-11.2
			S610.7,142.3,616.9,142.3z"/>
		<path fill="#EF373B" d="M668.3,121.7c9.3,0,16.9-7.6,16.9-16.9c0-9.3-7.6-16.9-16.9-16.9c-9.3,0-16.9,7.6-16.9,16.9
			C651.4,114.1,658.9,121.7,668.3,121.7z M668.3,93.6c6.1,0,11.1,5,11.1,11.2c0,6.1-5,11.1-11.1,11.1c-6.1,0-11.1-5-11.1-11.1
			C657.1,98.6,662.1,93.6,668.3,93.6z"/>
		<path fill="#EF373B" d="M846.9,303.8c9.3,0,16.9-7.6,16.9-16.9c0-9.3-7.6-16.9-16.9-16.9c-9.3,0-16.9,7.6-16.9,16.9
			C830,296.2,837.5,303.8,846.9,303.8z M846.9,275.7c6.1,0,11.1,5,11.1,11.2c0,6.1-5,11.1-11.1,11.1c-6.1,0-11.1-5-11.1-11.1
			C835.7,280.7,840.7,275.7,846.9,275.7z"/>
		<path fill="#EF373B" d="M846.9,218.5c0,9.3,7.6,16.9,16.9,16.9c9.3,0,16.9-7.6,16.9-16.9c0-9.3-7.6-16.9-16.9-16.9
			C854.5,201.5,846.9,209.1,846.9,218.5z M863.8,207.3c6.1,0,11.1,5,11.1,11.1s-5,11.2-11.1,11.2c-6.1,0-11.1-5-11.1-11.2
			S857.7,207.3,863.8,207.3z"/>
		<path fill="#EF373B" d="M846.9,170.4c9.3,0,16.9-7.6,16.9-16.9c0-9.3-7.6-16.9-16.9-16.9c-9.3,0-16.9,7.6-16.9,16.9
			C830,162.8,837.5,170.4,846.9,170.4z M846.9,142.3c6.1,0,11.1,5,11.1,11.1s-5,11.2-11.1,11.2c-6.1,0-11.1-5-11.1-11.2
			S840.7,142.3,846.9,142.3z"/>
		<path fill="#EF373B" d="M795.5,121.7c9.3,0,16.9-7.6,16.9-16.9c0-9.3-7.6-16.9-16.9-16.9s-16.9,7.6-16.9,16.9
			C778.5,114.1,786.1,121.7,795.5,121.7z M795.5,93.6c6.1,0,11.1,5,11.1,11.2c0,6.1-5,11.1-11.1,11.1s-11.1-5-11.1-11.1
			C784.3,98.6,789.3,93.6,795.5,93.6z"/>
		<path fill="#EF373B" d="M734.8,107.6c9.3,0,16.9-7.6,16.9-16.9c0-9.3-7.6-16.9-16.9-16.9c-9.3,0-16.9,7.6-16.9,16.9
			C717.9,100,725.5,107.6,734.8,107.6z M734.8,79.6c6.1,0,11.1,5,11.1,11.1c0,6.1-5,11.2-11.1,11.2c-6.1,0-11.1-5-11.1-11.2
			C723.6,84.6,728.6,79.6,734.8,79.6z"/>
	</g>
	<g>
		<path fill="#76C9B1" d="M343.7,237.8c-19.5,1.1-39.1,10.5-46.4,21.9c0.4,0.2,0.8,0.4,1.1,0.6c24.6,13.4,32,39.5,19.6,67.2
			c7.9,1.4,24.3,6.7,29.8,27.6c1.2,4.6,1.8,8.9,2.1,13c6.5-1.8,21.2-7.3,28.5-20.7c6.4-11.7,5.8-26.9-1.8-45.2
			c-0.6-1.5,0.1-3.2,1.6-3.8c1.5-0.6,3.2,0.1,3.8,1.6c2.9,6.9,4.7,13.3,5.7,19.5c7.8-7,23.5-26.4,4.3-58
			C378.5,239.3,356,237.1,343.7,237.8z"/>
		<path fill="#76C9B1" d="M313.6,332.7c-1,0-1.9-0.5-2.5-1.4c-0.5-0.9-0.6-1.9-0.1-2.8c13.3-26,7.3-50.8-15.4-63.2
			c-1.2-0.7-2.4-1.2-3.6-1.8c0,0,0,0,0,0c0,0,0,0,0,0c-16.5-7.3-33-4.5-39.9-2.7c2.3,4.3,3.3,7.5,3.4,7.6c0.5,1.5-0.4,3.1-1.9,3.6
			c-1.5,0.5-3.1-0.4-3.6-1.9c-0.4-1.2-9.6-29.6-36.4-27.5c-27.5,2-42.6,31.3-42.7,31.6c-0.5,1-1.5,1.6-2.6,1.6
			c-0.4,0-0.9-0.1-1.3-0.3c-1.4-0.7-2-2.4-1.3-3.9c0.7-1.3,16.6-32.5,47.5-34.8c18.4-1.2,29.6,9.5,35.9,18.8
			c6-1.8,24.1-5.8,42.9,1.6c6.3-10.5,20.8-19.3,37.3-23.2c-0.2-3.7-1.3-11.7-7.1-17.9c-5.6-6-14.2-9-25.6-9c-11.3,0-19.9,3-25.5,8.8
			c-7.6,7.9-7.2,18.5-7.2,18.6c0.1,1.6-1.2,2.9-2.8,3c-1.6,0-2.9-1.2-3-2.7c0-0.5-0.5-13.1,8.7-22.8c6.7-7.1,16.8-10.7,29.7-10.7
			c13.1,0,23.2,3.7,29.9,10.9c6.6,7.1,8.2,15.8,8.5,20.6c2.8-0.5,5.6-0.8,8.4-0.9c23.4-1.3,42.4,8.1,53.5,26.3
			c0.7,1.2,1.4,2.3,2,3.4c1.6-18.7-2.2-33.8-11.3-44.9c-15.1-18.3-39.9-19.4-40.1-19.4c-1,0-1.9-0.6-2.4-1.5
			c-14.3-26.8-46-17.7-58.5-12.8c4.5,2.8,7.2,5.1,7.6,5.4c1.2,1,1.3,2.9,0.3,4.1c-1,1.2-2.9,1.3-4.1,0.3
			c-0.3-0.2-25.2-21.2-49.9-11.9c-24.5,9.3-24.1,42.3-24.1,42.7c0,1.6-1.2,2.9-2.8,2.9c0,0,0,0-0.1,0c-1.6,0-2.9-1.3-2.9-2.8
			c0-0.9-0.2-15,6.3-28.1c-27.3-9.1-65.8,5.6-88.1,25.9c-10.6,9.6-14.5,28.8-9.7,47.7c5.8,22.6,21.7,38.7,43.8,44
			c25.4,6.2,37.5,2.7,43.3-1.3c5.3-3.7,5.8-8.2,5.8-8.4c0.2-1.6,1.6-2.7,3.2-2.6c1.6,0.2,2.7,1.5,2.6,3.1c0,0.3-0.7,7.2-8,12.4
			c-5.1,3.7-12.1,5.6-20.7,5.8c14.9,9.1,28.2,11.7,39.8,7.9c21.2-7.1,29.5-34.1,29.5-34.4c0.5-1.5,2.1-2.4,3.6-1.9
			c1.5,0.5,2.4,2.1,1.9,3.6c-0.3,1-6.3,20.4-21.5,31.9c2.6,8.9,12.5,13.9,23.9,19.7c13.8,7,29.4,14.9,38.5,32
			c12,22.5,29.1,27.2,36.6,28.1c-0.9-5.4,0.1-11.3,1.2-17.9c1.6-9.9,3.5-21.1-0.1-34.9C336.1,333.1,314.6,332.7,313.6,332.7z"/>
		<rect x="268.6" y="149.9" fill="#EF373B" width="4.3" height="5.6"/>
		<path fill="#EF373B" d="M266.8,124.5c0-3.6,1.3-6,4.6-6c3.3,0,4.6,2.3,4.6,6c0,9.4-7.6,10.7-7.6,19.6c0,0.9,0.1,1.6,0.3,2.3h4.1
			c-0.2-0.7-0.3-1.5-0.3-2.2c0-7.8,8.1-9.7,8.1-19.5c0-6.2-2.8-10.3-9.1-10.3c-6.2,0-9,4.2-9,10.3v3.3h4.2V124.5z"/>
		<path fill="#EF373B" d="M324.3,127.8c1.1-3.4,3.1-5.3,6.2-4.3c3.2,1,3.7,3.6,2.6,7.1c-2.9,8.9-10.5,7.9-13.2,16.3
			c-0.3,0.9-0.4,1.6-0.4,2.3l3.9,1.2c0-0.7,0.2-1.5,0.4-2.2c2.4-7.4,10.6-6.7,13.6-16.1c1.9-5.9,0.5-10.6-5.5-12.6
			c-5.9-1.9-9.8,1.2-11.7,7.1l-1,3.2l4,1.3L324.3,127.8z"/>
		<polygon fill="#EF373B" points="322.3,153.8 318.2,152.5 316.5,157.9 320.6,159.2 		"/>
		<path fill="#EF373B" d="M376.3,169.9c4.6-6.3,12.2-3.1,18-11c3.7-5,3.8-9.9-1.2-13.6c-5-3.7-9.7-1.9-13.4,3l-2,2.7l3.4,2.5
			l2.1-2.9c2.1-2.9,4.6-4,7.3-2.1c2.7,2,2.4,4.6,0.2,7.6c-5.5,7.6-12.5,4.2-17.7,11.3c-0.5,0.8-0.9,1.4-1.1,2.1l3.3,2.4
			C375.5,171.2,375.8,170.5,376.3,169.9z"/>
		
			<rect x="367.7" y="172.9" transform="matrix(0.8073 0.5902 -0.5902 0.8073 174.9622 -184.4096)" fill="#EF373B" width="4.3" height="5.6"/>
		<path fill="#EF373B" d="M403.8,269.7c3.6-23.7-0.4-42.7-11.8-56.4c-14.6-17.6-36.5-20.8-42.7-21.4c-19-32.9-60.9-16-69.2-12.3
			c-10.6-5.3-26-9.9-41.8-3.9c-8.5,3.2-14.4,8.8-18.5,15c-29.5-10.5-71.1,5.1-94.9,26.7c-12.1,11-16.7,32.5-11.4,53.4
			c6.2,24.4,24.2,42.4,48,48.2c5.9,1.4,11.2,2.4,16.3,2.9c0,0,0,0,0,0c14.5,10.5,27.9,15.8,40.1,15.8c4.4,0,8.6-0.7,12.7-2
			c2.4-0.8,4.7-1.9,6.8-3.1c3.9,10.2,14.7,15.8,26.2,21.7c13,6.6,27.7,14.1,36,29.6c16.1,30.2,41,31.4,45,31.4c0.3,0,0.5,0,0.5,0
			c0.9,0,1.8-0.5,2.3-1.3c0.5-0.8,0.6-1.7,0.3-2.6c-1.9-5.1-0.9-11.3,0.4-19c0.9-5.4,1.9-11.5,2-18.4c6.5-1.6,24.4-7.4,33.4-23.9
			c3.8-7,5.5-15,5-23.9c5.8-4.4,26.9-23.4,14.7-55.2C403.5,270.6,403.7,270.2,403.8,269.7z M342.4,391.4c-1.1,6.6-2.1,12.4-1.2,17.9
			c-7.5-1-24.5-5.6-36.6-28.1c-9.1-17-24.7-25-38.5-32c-11.5-5.8-21.3-10.9-23.9-19.7c15.2-11.5,21.2-30.9,21.5-31.9
			c0.5-1.5-0.4-3.1-1.9-3.6c-1.5-0.4-3.1,0.4-3.6,1.9c-0.1,0.3-8.4,27.3-29.5,34.4c-11.5,3.9-24.9,1.2-39.8-7.9
			c8.6-0.2,15.6-2.1,20.7-5.8c7.3-5.3,8-12.2,8-12.4c0.1-1.6-1-2.9-2.6-3.1c-1.6-0.2-3,1-3.2,2.6c0,0.2-0.6,4.8-5.8,8.4
			c-5.7,4-17.9,7.5-43.3,1.3c-22-5.3-38-21.4-43.8-44c-4.8-18.9-0.9-38,9.7-47.7c22.2-20.2,60.7-35,88.1-25.9
			c-6.5,13.1-6.4,27.2-6.3,28.1c0,1.6,1.3,2.8,2.9,2.8c0,0,0,0,0.1,0c1.6,0,2.9-1.4,2.8-2.9c0-0.3-0.4-33.4,24.1-42.7
			c24.8-9.4,49.7,11.6,49.9,11.9c1.2,1,3,0.9,4.1-0.3c1-1.2,0.9-3-0.3-4.1c-0.3-0.3-3.1-2.6-7.6-5.4c12.5-4.9,44.2-13.9,58.5,12.8
			c0.5,0.9,1.4,1.5,2.4,1.5c0.2,0,25,1.2,40.1,19.4c9.2,11.1,12.9,26.2,11.3,44.9c-0.6-1.1-1.3-2.3-2-3.4
			c-11.1-18.3-30.1-27.6-53.5-26.3c-2.8,0.2-5.6,0.5-8.4,0.9c-0.3-4.8-1.9-13.5-8.5-20.6c-6.7-7.2-16.8-10.9-29.9-10.9
			c-13,0-23,3.6-29.7,10.7c-9.2,9.7-8.8,22.3-8.7,22.8c0.1,1.6,1.4,2.8,3,2.7c1.6-0.1,2.8-1.4,2.8-3c0-0.1-0.4-10.8,7.2-18.6
			c5.6-5.8,14.2-8.8,25.5-8.8c11.4,0,20.1,3,25.6,9c5.8,6.2,6.9,14.1,7.1,17.9c-16.5,3.9-31,12.7-37.3,23.2
			c-18.8-7.4-36.9-3.4-42.9-1.6c-6.3-9.3-17.5-20.1-35.9-18.8c-30.9,2.3-46.8,33.4-47.5,34.8c-0.7,1.4-0.1,3.2,1.3,3.9
			c0.4,0.2,0.9,0.3,1.3,0.3c1.1,0,2.1-0.6,2.6-1.6c0.1-0.3,15.2-29.6,42.7-31.6c26.8-2,36.1,26.3,36.4,27.5c0.5,1.5,2.1,2.3,3.6,1.9
			c1.5-0.5,2.4-2.1,1.9-3.6c0-0.1-1.1-3.3-3.4-7.6c6.8-1.7,23.4-4.6,39.9,2.7c0,0,0,0,0,0c0,0,0,0,0,0c1.2,0.5,2.4,1.1,3.6,1.8
			c22.7,12.4,28.8,37.2,15.4,63.2c-0.5,0.9-0.4,2,0.1,2.8c0.5,0.9,1.5,1.4,2.5,1.4c0.9,0,22.4,0.4,28.6,23.8
			C345.9,370.3,344,381.5,342.4,391.4z M387.7,319.3c-1-6.1-2.9-12.6-5.7-19.5c-0.6-1.5-2.3-2.1-3.8-1.6c-1.5,0.6-2.2,2.3-1.6,3.8
			c7.6,18.3,8.2,33.5,1.8,45.2c-7.3,13.4-22,18.9-28.5,20.7c-0.3-4.1-0.9-8.4-2.1-13c-5.5-20.9-21.9-26.3-29.8-27.6
			c12.5-27.7,5-53.8-19.6-67.2c-0.4-0.2-0.8-0.4-1.1-0.6c7.3-11.4,26.9-20.8,46.4-21.9c12.3-0.7,34.8,1.5,48.3,23.6
			C411.2,292.9,395.5,312.3,387.7,319.3z"/>
	</g>
	<g>
		<path fill="#FFF200" d="M1160.1,360.2c27.9,50.4,80.4,57.2,103.9,57.6c-28.8-18.2-41.3-53.6-41.8-55.2c-0.3-0.9-0.2-1.9,0.4-2.6
			c0.5-0.8,1.4-1.2,2.3-1.2h64.4V175.5H1053v183.2h104.5C1158.6,358.7,1159.6,359.3,1160.1,360.2z M1190.5,331.8h-5.4v-48h5.4V331.8
			z M1217.2,288.6l-16.5,38.3h16.4v4.9h-21.8V327l16.5-38.3H1196v-4.9h21.2V288.6z M1220.7,214.1h7.8l9.2,48h-5.4l-1.9-9.7h-12.1
			l-1.9,9.7h-4.9L1220.7,214.1z M1202,214.1h5.4v48h-5.4V214.1z M1177.4,214.1l7.8,41.8l7.8-41.8h4.9l-9,48h-7.9l-9.1-48H1177.4z
			 M1162.5,214.1h5.4v48h-5.4V214.1z M1158.4,283.8h5.3v36.7c0,4.3,1.7,6.9,5.6,6.9c3.8,0,5.6-2.6,5.6-6.9v-36.7h5v36.4
			c0,7.3-3.4,12.1-10.8,12.1c-7.3,0-10.7-4.9-10.7-12.1V283.8z M1135.5,214.1h10.7c7.5,0,10.7,3.8,10.7,11v3.9c0,5.3-1.9,8.6-6,9.9
			c4.4,1.3,6,4.9,6,10v7.5c0,2.1,0.1,4.1,1,5.8h-5.4c-0.6-1.4-0.9-2.6-0.9-5.8v-7.5c0-5.4-2.5-7.1-7-7.1h-3.8v20.5h-5.4V214.1z
			 M1123,262.1h-5.4V219h-8.8v-4.9h23v4.9h-8.8V262.1z M1154.5,333.9h-0.9c-3,0-5-1.1-6.1-3.1c-1.5,0.9-3.5,1.4-5.8,1.4
			c-7.3,0-11-4.8-11-12.1v-24.8c0-7.3,3.6-12.1,11-12.1c7.4,0,11,4.7,11,12.1v24.8c0,2.9-0.6,5.6-1.9,7.5c0.5,1.2,1.4,1.5,2.9,1.5
			h0.7V333.9z"/>
		<polygon fill="#FFF200" points="1224.2,220.1 1218.9,247.8 1229.6,247.8 		"/>
		<path fill="#FFF200" d="M1151.6,230.2v-4.6c0-4.3-1.6-6.6-5.6-6.6h-5.2v17.8h4C1149.1,236.7,1151.6,235.4,1151.6,230.2z"/>
		<path fill="#FFF200" d="M1141.6,288.1c-3.8,0-5.7,2.6-5.7,6.9v25.4c0,4.4,1.9,6.9,5.7,6.9c3.9,0,5.7-2.5,5.7-6.9v-25.4
			C1147.3,290.7,1145.5,288.1,1141.6,288.1z"/>
		<polygon fill="#EF373B" points="1131.8,214.1 1108.8,214.1 1108.8,219 1117.6,219 1117.6,262.1 1123,262.1 1123,219 1131.8,219 		
			"/>
		<path fill="#EF373B" d="M1140.8,241.6h3.8c4.5,0,7,1.7,7,7.1v7.5c0,3.2,0.3,4.5,0.9,5.8h5.4c-0.9-1.6-1-3.6-1-5.8v-7.5
			c0-5.1-1.6-8.7-6-10c4.1-1.3,6-4.6,6-9.9v-3.9c0-7.1-3.2-11-10.7-11h-10.7v48h5.4V241.6z M1140.8,219h5.2c4,0,5.6,2.3,5.6,6.6v4.6
			c0,5.2-2.5,6.6-6.8,6.6h-4V219z"/>
		<rect x="1162.5" y="214.1" fill="#EF373B" width="5.4" height="48"/>
		<polygon fill="#EF373B" points="1188.9,262.1 1197.9,214.1 1193,214.1 1185.2,255.9 1177.4,214.1 1172,214.1 1181,262.1 		"/>
		<rect x="1202" y="214.1" fill="#EF373B" width="5.4" height="48"/>
		<path fill="#EF373B" d="M1218.3,252.4h12.1l1.9,9.7h5.4l-9.2-48h-7.8l-9.2,48h4.9L1218.3,252.4z M1224.2,220.1l5.4,27.7h-10.7
			L1224.2,220.1z"/>
		<path fill="#EF373B" d="M1150.8,327.7c1.2-1.9,1.9-4.5,1.9-7.5v-24.8c0-7.3-3.6-12.1-11-12.1c-7.3,0-11,4.7-11,12.1v24.8
			c0,7.3,3.6,12.1,11,12.1c2.3,0,4.3-0.5,5.8-1.4c1.1,2,3.1,3.1,6.1,3.1h0.9v-4.7h-0.7C1152.3,329.2,1151.4,328.8,1150.8,327.7z
			 M1147.3,320.4c0,4.4-1.8,6.9-5.7,6.9c-3.8,0-5.7-2.5-5.7-6.9v-25.4c0-4.3,1.9-6.9,5.7-6.9c3.9,0,5.7,2.6,5.7,6.9V320.4z"/>
		<path fill="#EF373B" d="M1169.1,332.3c7.4,0,10.8-4.9,10.8-12.1v-36.4h-5v36.7c0,4.3-1.7,6.9-5.6,6.9c-3.9,0-5.6-2.6-5.6-6.9
			v-36.7h-5.3v36.4C1158.4,327.4,1161.8,332.3,1169.1,332.3z"/>
		<rect x="1185.2" y="283.8" fill="#EF373B" width="5.4" height="48"/>
		<polygon fill="#EF373B" points="1196,288.6 1211.7,288.6 1195.2,327 1195.2,331.8 1217.1,331.8 1217.1,326.9 1200.7,326.9 
			1217.2,288.6 1217.2,283.8 1196,283.8 		"/>
		<path fill="#EF373B" d="M1050.2,364.5h105.7c30.4,53.3,87.1,59.1,110.2,59.1c5.7,0,9.1-0.4,9.2-0.4c1.3-0.1,2.3-1.1,2.5-2.4
			c0.2-1.3-0.5-2.6-1.7-3.1c-27.5-11.8-42.5-42.4-47-53.2h63.1c1.6,0,2.9-1.3,2.9-2.9v-189c0-1.6-1.3-2.9-2.9-2.9h-242
			c-1.6,0-2.9,1.3-2.9,2.9v189C1047.3,363.2,1048.6,364.5,1050.2,364.5z M1053,175.5h236.2v183.2h-64.4c-0.9,0-1.8,0.5-2.3,1.2
			c-0.5,0.8-0.7,1.7-0.4,2.6c0.6,1.7,13,37.1,41.8,55.2c-23.5-0.4-76-7.1-103.9-57.6c-0.5-0.9-1.5-1.5-2.5-1.5H1053V175.5z"/>
	</g>
	<g>
		<path fill="#7DA7D9" d="M754.6,619.4l49.2-72.1l-4.2-4.2l-62.1,64.3C744.7,610,750.6,614.1,754.6,619.4z"/>
		<path fill="#7DA7D9" d="M705.8,606.7L647.7,538l-4,6l48,70.4C695.6,611.1,700.4,608.4,705.8,606.7z"/>
		<path fill="#FFF200" d="M851.3,693.8c8.8,0,15.9-7.1,15.9-15.9s-7.1-15.9-15.9-15.9s-15.9,7.1-15.9,15.9S842.6,693.8,851.3,693.8z
			"/>
		<path fill="#FFF200" d="M851.3,749.6c8.8,0,15.9-7.1,15.9-15.9s-7.1-15.9-15.9-15.9s-15.9,7.1-15.9,15.9S842.6,749.6,851.3,749.6z
			"/>
		<path fill="#7DA7D9" d="M688.9,627.5h63.8c-4.3-10.1-17.2-17.3-31.9-17.3S693.1,617.4,688.9,627.5z"/>
		<rect x="835.1" y="773.2" fill="#FFF200" width="32.5" height="15.4"/>
		<path fill="#7DA7D9" d="M854.4,633.2h-97.9h-71.6h-97.9c-16,0-29.1,13-29.1,29.1v180.3c0,16,13,29.1,29.1,29.1h267.4
			c16,0,29.1-13,29.1-29.1V662.3C883.5,646.3,870.5,633.2,854.4,633.2z M851.3,656.3c11.9,0,21.6,9.7,21.6,21.6s-9.7,21.6-21.6,21.6
			c-11.9,0-21.6-9.7-21.6-21.6S839.4,656.3,851.3,656.3z M851.3,712.1c11.9,0,21.6,9.7,21.6,21.6s-9.7,21.6-21.6,21.6
			c-11.9,0-21.6-9.7-21.6-21.6S839.4,712.1,851.3,712.1z M817.7,817.9c0,15.9-12.9,28.9-28.9,28.9h-177c-15.9,0-28.9-12.9-28.9-28.9
			V687.1c0-15.9,12.9-28.9,28.9-28.9h177c15.9,0,28.9,12.9,28.9,28.9V817.9z M873.3,832.3c0,1.6-1.3,2.9-2.9,2.9h-38.2
			c-1.6,0-2.9-1.3-2.9-2.9v-21.2c0-1.6,1.3-2.9,2.9-2.9h38.2c1.6,0,2.9,1.3,2.9,2.9V832.3z M873.3,791.4c0,1.6-1.3,2.9-2.9,2.9
			h-38.2c-1.6,0-2.9-1.3-2.9-2.9v-21.2c0-1.6,1.3-2.9,2.9-2.9h38.2c1.6,0,2.9,1.3,2.9,2.9V791.4z"/>
		<path fill="#F47C69" d="M661.6,772.4c-3.6,0-5.3,2.4-5.3,6.4v23.6c0,4.1,1.7,6.4,5.3,6.4c3.6,0,5.3-2.4,5.3-6.4v-23.6
			C666.9,774.8,665.2,772.4,661.6,772.4z"/>
		<path fill="#F47C69" d="M671.9,709.6v-4.3c0-4-1.5-6.1-5.2-6.1h-4.8v16.5h3.7C669.6,715.7,671.9,714.5,671.9,709.6z"/>
		<path fill="#F47C69" d="M788.8,664h-177c-12.7,0-23.1,10.4-23.1,23.1v130.8c0,12.7,10.4,23.1,23.1,23.1h177
			c12.7,0,23.1-10.4,23.1-23.1V687.1C811.9,674.4,801.5,664,788.8,664z M718.7,694.7h5v44.6h-5V694.7z M682.1,694.7h5v44.6h-5V694.7
			z M657,694.7h9.9c7,0,9.9,3.6,9.9,10.2v3.6c0,4.9-1.7,8-5.5,9.2c4.1,1.2,5.6,4.5,5.6,9.3v6.9c0,2,0.1,3.8,0.9,5.3h-5
			c-0.6-1.3-0.8-2.4-0.8-5.4v-7c0-5-2.4-6.6-6.5-6.6h-3.5v19h-5V694.7z M645.3,739.3h-5v-40h-8.2v-4.5h21.4v4.5h-8.2V739.3z
			 M673.5,814.8h-0.8c-2.8,0-4.6-1-5.7-2.9c-1.4,0.8-3.2,1.3-5.4,1.3c-6.8,0-10.2-4.5-10.2-11.2v-23c0-6.8,3.4-11.2,10.2-11.2
			c6.9,0,10.3,4.4,10.3,11.2v23c0,2.7-0.6,5.2-1.7,6.9c0.5,1.1,1.3,1.4,2.7,1.4h0.6V814.8z M697.1,802.1c0,6.7-3.1,11.3-10,11.3
			c-6.8,0-9.9-4.5-9.9-11.3v-33.8h4.9v34.1c0,4,1.6,6.4,5.2,6.4c3.6,0,5.2-2.4,5.2-6.4v-34.1h4.6V802.1z M690.8,694.7h5l7.3,38.8
			l7.2-38.8h4.6l-8.3,44.6h-7.3L690.8,694.7z M706.9,812.9h-5v-44.6h5V812.9z M731.7,772.8l-15.3,35.6h15.2v4.5h-20.2v-4.5
			l15.3-35.6H712v-4.5h19.7V772.8z M746.8,739.3l-1.7-9h-11.3l-1.7,9h-4.6l8.5-44.6h7.2l8.5,44.6H746.8z"/>
		<rect x="835.1" y="814" fill="#FFF200" width="32.5" height="15.4"/>
		<polygon fill="#F47C69" points="734.4,726.1 744.4,726.1 739.3,700.3 		"/>
		<polygon fill="#EF373B" points="653.5,694.7 632.2,694.7 632.2,699.3 640.4,699.3 640.4,739.3 645.3,739.3 645.3,699.3 
			653.5,699.3 		"/>
		<path fill="#EF373B" d="M661.9,720.3h3.5c4.1,0,6.5,1.6,6.5,6.6v7c0,3,0.3,4.1,0.8,5.4h5c-0.8-1.5-0.9-3.4-0.9-5.3V727
			c0-4.8-1.5-8.1-5.6-9.3c3.8-1.2,5.5-4.3,5.5-9.2v-3.6c0-6.6-2.9-10.2-9.9-10.2H657v44.6h5V720.3z M661.9,699.3h4.8
			c3.7,0,5.2,2.1,5.2,6.1v4.3c0,4.8-2.4,6.1-6.3,6.1h-3.7V699.3z"/>
		<rect x="682.1" y="694.7" fill="#EF373B" width="5" height="44.6"/>
		<polygon fill="#EF373B" points="714.9,694.7 710.3,694.7 703.1,733.5 695.9,694.7 690.8,694.7 699.2,739.3 706.6,739.3 		"/>
		<rect x="718.7" y="694.7" fill="#EF373B" width="5" height="44.6"/>
		<path fill="#EF373B" d="M736,694.7l-8.5,44.6h4.6l1.7-9h11.3l1.7,9h5l-8.5-44.6H736z M734.4,726.1l4.9-25.7l5,25.7H734.4z"/>
		<path fill="#EF373B" d="M670.1,809.1c1.1-1.8,1.7-4.2,1.7-6.9v-23c0-6.8-3.4-11.2-10.3-11.2c-6.8,0-10.2,4.4-10.2,11.2v23
			c0,6.7,3.4,11.2,10.2,11.2c2.2,0,4-0.5,5.4-1.3c1,1.8,2.9,2.9,5.7,2.9h0.8v-4.4h-0.6C671.4,810.5,670.6,810.1,670.1,809.1z
			 M666.9,802.4c0,4.1-1.7,6.4-5.3,6.4c-3.6,0-5.3-2.4-5.3-6.4v-23.6c0-4,1.7-6.4,5.3-6.4c3.6,0,5.3,2.4,5.3,6.4V802.4z"/>
		<path fill="#EF373B" d="M692.4,802.4c0,4-1.6,6.4-5.2,6.4c-3.6,0-5.2-2.4-5.2-6.4v-34.1h-4.9v33.8c0,6.7,3.1,11.3,9.9,11.3
			c6.9,0,10-4.5,10-11.3v-33.8h-4.6V802.4z"/>
		<rect x="702" y="768.3" fill="#EF373B" width="5" height="44.6"/>
		<polygon fill="#EF373B" points="712,772.8 726.6,772.8 711.3,808.4 711.3,812.9 731.6,812.9 731.6,808.4 716.4,808.4 731.7,772.8 
			731.7,768.3 712,768.3 		"/>
		<path fill="#EF373B" d="M854.4,627.5h-95.8c-0.3-0.9-0.5-1.7-0.8-2.5l52.1-76.4c0.8-1.1,0.6-2.7-0.3-3.7l-7.9-7.9
			c-0.5-0.5-1.3-0.8-2-0.8c-0.8,0.3-1.5,0.3-2.1,0.9l-66.3,68.6c-3.4-0.7-6.9-1.2-10.5-1.2c-3,0-5.9,0.3-8.7,0.8l-62.5-73.9
			c-0.6-0.7-1.5-1.1-2.4-1c-0.9,0.1-1.7,0.5-2.2,1.3l-7.2,10.8c-0.7,1-0.6,2.3,0,3.2l49.8,73c-2.2,2.7-3.7,5.6-4.7,8.8h-95.8
			c-19.2,0-34.9,15.6-34.9,34.9v180.3c0,19.2,15.6,34.9,34.9,34.9h267.4c19.2,0,34.9-15.6,34.9-34.9V662.3
			C889.3,643.1,873.7,627.5,854.4,627.5z M799.7,543.1l4.2,4.2l-49.2,72.1c-4-5.3-9.9-9.4-17-12L799.7,543.1z M720.8,610.2
			c14.7,0,27.6,7.2,31.9,17.3h-63.8C693.1,617.4,706.1,610.2,720.8,610.2z M643.7,544l4-6l58.1,68.7c-5.4,1.7-10.2,4.4-14.1,7.7
			L643.7,544z M883.5,842.7c0,16-13,29.1-29.1,29.1H587.1c-16,0-29.1-13-29.1-29.1V662.3c0-16,13-29.1,29.1-29.1h97.9h71.6h97.9
			c16,0,29.1,13,29.1,29.1V842.7z"/>
		<path fill="#EF373B" d="M788.8,658.2h-177c-15.9,0-28.9,12.9-28.9,28.9v130.8c0,15.9,12.9,28.9,28.9,28.9h177
			c15.9,0,28.9-12.9,28.9-28.9V687.1C817.7,671.2,804.7,658.2,788.8,658.2z M811.9,817.9c0,12.7-10.4,23.1-23.1,23.1h-177
			c-12.7,0-23.1-10.4-23.1-23.1V687.1c0-12.7,10.4-23.1,23.1-23.1h177c12.7,0,23.1,10.4,23.1,23.1V817.9z"/>
		<path fill="#EF373B" d="M851.3,699.6c11.9,0,21.6-9.7,21.6-21.6s-9.7-21.6-21.6-21.6c-11.9,0-21.6,9.7-21.6,21.6
			S839.4,699.6,851.3,699.6z M851.3,662.1c8.8,0,15.9,7.1,15.9,15.9s-7.1,15.9-15.9,15.9s-15.9-7.1-15.9-15.9
			S842.6,662.1,851.3,662.1z"/>
		<path fill="#EF373B" d="M851.3,755.4c11.9,0,21.6-9.7,21.6-21.6s-9.7-21.6-21.6-21.6c-11.9,0-21.6,9.7-21.6,21.6
			S839.4,755.4,851.3,755.4z M851.3,717.9c8.8,0,15.9,7.1,15.9,15.9s-7.1,15.9-15.9,15.9s-15.9-7.1-15.9-15.9
			S842.6,717.9,851.3,717.9z"/>
		<path fill="#EF373B" d="M870.5,767.4h-38.2c-1.6,0-2.9,1.3-2.9,2.9v21.2c0,1.6,1.3,2.9,2.9,2.9h38.2c1.6,0,2.9-1.3,2.9-2.9v-21.2
			C873.3,768.7,872,767.4,870.5,767.4z M867.6,788.6h-32.5v-15.4h32.5V788.6z"/>
		<path fill="#EF373B" d="M870.5,808.3h-38.2c-1.6,0-2.9,1.3-2.9,2.9v21.2c0,1.6,1.3,2.9,2.9,2.9h38.2c1.6,0,2.9-1.3,2.9-2.9v-21.2
			C873.3,809.6,872,808.3,870.5,808.3z M867.6,829.4h-32.5V814h32.5V829.4z"/>
	</g>
	<g>
		<path fill="#FFF200" d="M1174,786c-1.1,1.1-2.9,1.1-4,0.1l-36.2-34.1l-19.8,21l58.6,55.2l86.5-86.5l-20.4-20.4L1174,786z"/>
		<polygon fill="#76C9B1" points="1093.6,649.5 1093.6,649.5 1100,642.8 1085.4,628.8 1052.5,663.2 1067.1,677.2 1073.2,670.8 
			1073.2,670.8 1073.2,670.8 1093.6,649.6 		"/>
		<path fill="#FFFBCC" d="M1101.5,661.2l-5.8-5.5l-16.4,17.1l5.4,5.2C1089.9,671.8,1095.5,666.2,1101.5,661.2z"/>
		<rect x="1153.3" y="580.4" fill="#76C9B1" width="73.1" height="32.7"/>
		<path fill="#FFFBCC" d="M1189.9,628.9c6.5,0,12.9,0.5,19.2,1.4v-11.5h-37.7v11.4C1177.4,629.4,1183.6,628.9,1189.9,628.9z"/>
		<path fill="#76C9B1" d="M1279.9,642.8l6.4,6.7c0,0,0,0,0,0c0,0,0,0,0,0l20.3,21.2c0,0,0,0,0,0s0,0,0,0l6.1,6.4l14.6-14l-32.9-34.4
			L1279.9,642.8z"/>
		<path fill="#FFFBCC" d="M1278.3,661.2c6,5.1,11.6,10.7,16.7,16.7l5.5-5.3l-16.4-17.1L1278.3,661.2z"/>
		<path fill="#76C9B1" d="M1189.9,668.4c-54.1,0-98.1,44-98.1,98.1s44,98.1,98.1,98.1c54.1,0,98.1-44,98.1-98.1
			S1244,668.4,1189.9,668.4z M1265.2,743.7l-90.5,90.5c-0.6,0.6-1.3,0.8-2,0.8c-0.7,0-1.4-0.3-2-0.8l-62.7-59.1
			c-0.6-0.5-0.9-1.3-0.9-2c0-0.8,0.3-1.5,0.8-2.1l23.8-25.2c1.1-1.2,2.9-1.2,4.1-0.1l36.2,34.1l64.8-64.7c1.1-1.1,3-1.1,4.1,0
			l24.5,24.5C1266.4,740.8,1266.4,742.6,1265.2,743.7z"/>
		<path fill="#F47C69" d="M1189.9,634.7c-72.7,0-131.8,59.1-131.8,131.8c0,72.7,59.1,131.8,131.8,131.8
			c72.7,0,131.8-59.1,131.8-131.8C1321.6,693.8,1262.5,634.7,1189.9,634.7z M1189.9,870.3c-57.3,0-103.9-46.6-103.9-103.9
			c0-57.3,46.6-103.9,103.9-103.9c57.3,0,103.9,46.6,103.9,103.9C1293.7,823.7,1247.1,870.3,1189.9,870.3z"/>
		<path fill="#EF373B" d="M1189.9,662.6c-57.3,0-103.9,46.6-103.9,103.9c0,57.3,46.6,103.9,103.9,103.9
			c57.3,0,103.9-46.6,103.9-103.9C1293.7,709.2,1247.1,662.6,1189.9,662.6z M1189.9,864.6c-54.1,0-98.1-44-98.1-98.1
			s44-98.1,98.1-98.1c54.1,0,98.1,44,98.1,98.1S1244,864.6,1189.9,864.6z"/>
		<path fill="#EF373B" d="M1296.7,622.7c-0.5-0.6-1.3-0.9-2-0.9c-0.7,0.1-1.5,0.3-2.1,0.8l-18.8,18c-1.2,1.1-1.2,2.9-0.1,4.1
			l6.4,6.7l-6.4,6.1c-16.9-13.1-37-22.3-58.9-26.3v-12.4h14.4c1.6,0,2.9-1.3,2.9-2.9v-38.5c0-1.6-1.3-2.9-2.9-2.9h-78.9
			c-1.6,0-2.9,1.3-2.9,2.9V616c0,1.6,1.3,2.9,2.9,2.9h15.1v12.3c-22.1,4-42.4,13.2-59.5,26.4l-6.3-6.1l6.4-6.7
			c1.1-1.1,1.1-3-0.1-4.1l-18.8-18c-0.5-0.5-1.3-0.7-2.1-0.8c-0.8,0-1.5,0.3-2,0.9l-36.9,38.5c-1.1,1.1-1.1,3,0.1,4.1l18.8,18
			c0.6,0.5,1.3,0.8,2,0.8c0.8,0,1.5-0.3,2.1-0.9l6.1-6.4l5.8,5.5c-18,23.3-28.8,52.4-28.8,84.1c0,75.8,61.7,137.5,137.5,137.5
			c75.8,0,137.5-61.7,137.5-137.5c0-31.6-10.7-60.7-28.7-84l5.8-5.6l6.1,6.4c0.6,0.6,1.3,0.9,2.1,0.9c0.7,0,1.4-0.3,2-0.8l18.8-18
			c0.6-0.5,0.9-1.3,0.9-2c0-0.8-0.3-1.5-0.8-2.1L1296.7,622.7z M1153.3,613.1v-32.7h73.1v32.7H1153.3z M1209.1,618.8v11.5
			c-6.3-0.9-12.7-1.4-19.2-1.4c-6.3,0-12.5,0.5-18.5,1.3v-11.4H1209.1z M1073.2,670.8C1073.2,670.8,1073.2,670.8,1073.2,670.8
			C1073.2,670.8,1073.2,670.8,1073.2,670.8l-6.1,6.4l-14.6-14l32.9-34.4l14.6,14l-6.4,6.7c0,0,0,0,0,0c0,0,0,0,0,0L1073.2,670.8z
			 M1079.4,672.7l16.4-17.1l5.8,5.5c-6.1,5.1-11.7,10.7-16.8,16.7L1079.4,672.7z M1321.6,766.5c0,72.7-59.1,131.8-131.8,131.8
			c-72.7,0-131.8-59.1-131.8-131.8c0-72.6,59.1-131.8,131.8-131.8C1262.5,634.7,1321.6,693.8,1321.6,766.5z M1295,678
			c-5.1-6-10.7-11.6-16.7-16.7l5.9-5.6l16.4,17.1L1295,678z M1312.8,677.2l-6.1-6.4c0,0,0,0,0,0s0,0,0,0l-20.3-21.2c0,0,0,0,0,0
			c0,0,0,0,0,0l-6.4-6.7l14.6-14l32.9,34.4L1312.8,677.2z"/>
		<path fill="#EF373B" d="M1236.7,715.2l-64.8,64.7l-36.2-34.1c-1.2-1.1-3-1-4.1,0.1l-23.8,25.2c-0.5,0.6-0.8,1.3-0.8,2.1
			c0,0.8,0.3,1.5,0.9,2l62.7,59.1c0.6,0.5,1.3,0.8,2,0.8c0.7,0,1.5-0.3,2-0.8l90.5-90.5c1.1-1.1,1.1-3,0-4.1l-24.5-24.5
			C1239.6,714,1237.8,714,1236.7,715.2z M1172.6,828.2l-58.6-55.2l19.8-21L1170,786c1.1,1.1,2.9,1,4-0.1l64.7-64.7l20.4,20.4
			L1172.6,828.2z"/>
	</g>
	<g>
		<path fill="#FFF200" d="M169.2,795.3l18.9,17.9l21.3-21.3h-43v2.8C167.4,794.4,168.4,794.6,169.2,795.3z"/>
		<polygon fill="#FFF200" points="212.4,844.3 212.4,823.9 192,844.3 		"/>
		<path fill="#FFFBCC" d="M137.3,896h153.6v-89.4c0-1.6,1.3-2.9,2.9-2.9h90.9V571.4H137.3V896z M284.4,832.1c0,1.6-1.3,2.9-2.9,2.9
			h-35c-1.6,0-2.9-1.3-2.9-2.9v-30.8c0-1.6,1.3-2.9,2.9-2.9h35c1.6,0,2.9,1.3,2.9,2.9V832.1z M357.3,738.8c0,1.6-1.3,2.9-2.9,2.9
			h-38.9V754c0,1.6-1.3,2.9-2.9,2.9h-66c-1.6,0-2.9-1.3-2.9-2.9v-30.8c0-1.6,1.3-2.9,2.9-2.9h107.8c1.6,0,2.9,1.3,2.9,2.9V738.8z
			 M357.3,645.1v15.6c0,1.6-1.3,2.9-2.9,2.9h-38.9v12.3c0,1.6-1.3,2.9-2.9,2.9h-66c-1.6,0-2.9-1.3-2.9-2.9v-30.8
			c0-1.6,1.3-2.9,2.9-2.9h107.8C356,642.2,357.3,643.5,357.3,645.1z M183.5,595.3c0-1.6,1.3-2.9,2.9-2.9h155.4
			c1.6,0,2.9,1.3,2.9,2.9v14.4c0,1.6-1.3,2.9-2.9,2.9H186.3c-1.6,0-2.9-1.3-2.9-2.9V595.3z M152.1,653l8.6-9.1v-11.2
			c0-1.6,1.3-2.9,2.9-2.9h51.6l7.6-7.6c1.1-1.1,3-1.1,4.1,0l13.4,13.4c1.1,1.1,1.1,3,0,4.1l-22.1,22.1v29.1c0,1.6-1.3,2.9-2.9,2.9
			h-51.8c-1.6,0-2.9-1.3-2.9-2.9V665l-8.4-8C151,656,151,654.1,152.1,653z M152.1,731.1l8.6-9.1v-11.2c0-1.6,1.3-2.9,2.9-2.9h51.6
			l7.6-7.6c1.1-1.1,3-1.1,4.1,0l13.4,13.4c1.1,1.1,1.1,3,0,4.1L218.2,740v29.1c0,1.6-1.3,2.9-2.9,2.9h-51.8c-1.6,0-2.9-1.3-2.9-2.9
			v-25.9l-8.4-8C151,734.1,151,732.3,152.1,731.1z M152.1,809.3l8.6-9.1V789c0-1.6,1.3-2.9,2.9-2.9h51.6l7.6-7.6
			c1.1-1.1,3-1.1,4.1,0l13.4,13.4c1.1,1.1,1.1,3,0,4.1l-22.1,22.1v29.1c0,1.6-1.3,2.9-2.9,2.9h-51.8c-1.6,0-2.9-1.3-2.9-2.9v-25.9
			l-8.4-8C151,812.2,151,810.4,152.1,809.3z"/>
		<path fill="#F47C69" d="M234.1,794l-9.3-9.3l-34.6,34.5c-1.1,1.1-2.9,1.1-4,0.1l-18.9-17.8l-9.1,9.6l30.3,28.5L234.1,794z"/>
		<polygon fill="#FFF200" points="166.4,844.3 185.1,844.3 166.4,826.7 		"/>
		<path fill="#FFF200" d="M169.2,717.2l18.9,17.9l21.3-21.3h-43v2.8C167.4,716.3,168.4,716.5,169.2,717.2z"/>
		<path fill="#FFF200" d="M309.7,660.7c0-1.6,1.3-2.9,2.9-2.9h38.9v-9.9H249.5v25h60.2V660.7z"/>
		<rect x="189.2" y="598.1" fill="#FFF200" width="149.7" height="8.7"/>
		<path fill="#FFF200" d="M249.5,751.1h60.2v-12.3c0-1.6,1.3-2.9,2.9-2.9h38.9v-9.9H249.5V751.1z"/>
		<polygon fill="#FFF200" points="212.4,766.2 212.4,745.8 192,766.2 		"/>
		<polygon fill="#FFFBCC" points="296.7,892 380.5,809.5 296.7,809.5 		"/>
		<rect x="249.5" y="804.2" fill="#FFF200" width="29.2" height="25"/>
		<polygon fill="#FFF200" points="166.4,766.2 185.1,766.2 166.4,748.6 		"/>
		<path fill="#F47C69" d="M234.1,637.8l-9.3-9.3L190.2,663c-1.1,1.1-2.9,1.1-4,0.1l-18.9-17.8l-9.1,9.6l30.3,28.5L234.1,637.8z"/>
		<polygon fill="#FFF200" points="166.4,688.1 185.1,688.1 166.4,670.5 		"/>
		<path fill="#FFF200" d="M169.2,639.1l18.9,17.9l21.3-21.3h-43v2.8C167.4,638.2,168.4,638.3,169.2,639.1z"/>
		<polygon fill="#FFF200" points="212.4,688.1 212.4,667.6 192,688.1 		"/>
		<path fill="#F47C69" d="M234.1,715.9l-9.3-9.3l-34.6,34.6c-1.1,1.1-2.9,1.1-4,0.1l-18.9-17.8l-9.1,9.6l30.3,28.5L234.1,715.9z"/>
		<path fill="#EF373B" d="M160.6,665v25.9c0,1.6,1.3,2.9,2.9,2.9h51.8c1.6,0,2.9-1.3,2.9-2.9v-29.1l22.1-22.1c1.1-1.1,1.1-3,0-4.1
			l-13.4-13.4c-1.1-1.1-3-1.1-4.1,0l-7.6,7.6h-51.6c-1.6,0-2.9,1.3-2.9,2.9v11.2l-8.6,9.1c-1.1,1.2-1,3,0.1,4.1L160.6,665z
			 M166.4,688.1v-17.6l18.7,17.6H166.4z M212.4,688.1H192l20.4-20.4V688.1z M166.4,635.6h43l-21.3,21.3l-18.9-17.9
			c-0.8-0.7-1.8-0.9-2.8-0.6V635.6z M167.3,645.2l18.9,17.8c1.1,1.1,2.9,1,4-0.1l34.6-34.6l9.3,9.3l-45.6,45.6l-30.3-28.5
			L167.3,645.2z"/>
		<path fill="#EF373B" d="M243.7,645.1v30.8c0,1.6,1.3,2.9,2.9,2.9h66c1.6,0,2.9-1.3,2.9-2.9v-12.3h38.9c1.6,0,2.9-1.3,2.9-2.9
			v-15.6c0-1.6-1.3-2.9-2.9-2.9H246.6C245,642.2,243.7,643.5,243.7,645.1z M249.5,647.9h102.1v9.9h-38.9c-1.6,0-2.9,1.3-2.9,2.9
			v12.3h-60.2V647.9z"/>
		<path fill="#EF373B" d="M160.6,743.2v25.9c0,1.6,1.3,2.9,2.9,2.9h51.8c1.6,0,2.9-1.3,2.9-2.9V740l22.1-22.1c1.1-1.1,1.1-3,0-4.1
			l-13.4-13.4c-1.1-1.1-3-1.1-4.1,0l-7.6,7.6h-51.6c-1.6,0-2.9,1.3-2.9,2.9v11.2l-8.6,9.1c-1.1,1.2-1,3,0.1,4.1L160.6,743.2z
			 M166.4,766.2v-17.6l18.7,17.6H166.4z M212.4,766.2H192l20.4-20.4V766.2z M166.4,713.8h43l-21.3,21.3l-18.9-17.9
			c-0.8-0.7-1.8-0.9-2.8-0.6V713.8z M167.3,723.4l18.9,17.8c1.1,1.1,2.9,1,4-0.1l34.6-34.6l9.3,9.3l-45.6,45.6L158.3,733
			L167.3,723.4z"/>
		<path fill="#EF373B" d="M354.4,720.3H246.6c-1.6,0-2.9,1.3-2.9,2.9V754c0,1.6,1.3,2.9,2.9,2.9h66c1.6,0,2.9-1.3,2.9-2.9v-12.3
			h38.9c1.6,0,2.9-1.3,2.9-2.9v-15.6C357.3,721.6,356,720.3,354.4,720.3z M351.5,735.9h-38.9c-1.6,0-2.9,1.3-2.9,2.9v12.3h-60.2v-25
			h102.1V735.9z"/>
		<path fill="#EF373B" d="M160.6,821.3v25.9c0,1.6,1.3,2.9,2.9,2.9h51.8c1.6,0,2.9-1.3,2.9-2.9v-29.1l22.1-22.1c1.1-1.1,1.1-3,0-4.1
			l-13.4-13.4c-1.1-1.1-3-1.1-4.1,0l-7.6,7.6h-51.6c-1.6,0-2.9,1.3-2.9,2.9v11.2l-8.6,9.1c-1.1,1.2-1,3,0.1,4.1L160.6,821.3z
			 M166.4,844.3v-17.6l18.7,17.6H166.4z M212.4,844.3H192l20.4-20.4V844.3z M166.4,791.9h43l-21.3,21.3l-18.9-17.9
			c-0.8-0.7-1.8-0.9-2.8-0.6V791.9z M167.3,801.5l18.9,17.8c1.1,1.1,2.9,1,4-0.1l34.6-34.5l9.3,9.3l-45.6,45.6l-30.3-28.5
			L167.3,801.5z"/>
		<path fill="#EF373B" d="M281.5,798.4h-35c-1.6,0-2.9,1.3-2.9,2.9v30.8c0,1.6,1.3,2.9,2.9,2.9h35c1.6,0,2.9-1.3,2.9-2.9v-30.8
			C284.4,799.7,283.1,798.4,281.5,798.4z M278.7,829.2h-29.2v-25h29.2V829.2z"/>
		<path fill="#EF373B" d="M387.6,565.7H134.4c-1.6,0-2.9,1.3-2.9,2.9v330.4c0,1.6,1.3,2.9,2.9,2.9h159.4c0.4,0,0.8-0.1,1.1-0.2
			c0.2-0.1,0.5-0.3,0.7-0.4c0.1-0.1,0.2-0.1,0.3-0.2l0,0c0,0,0,0,0,0l93.7-92.3c0,0,0,0,0,0c0.4-0.3,0.6-0.8,0.7-1.3
			c0-0.1,0.1-0.2,0.1-0.4c0-0.1,0.1-0.2,0.1-0.4v-238C390.5,567,389.2,565.7,387.6,565.7z M296.7,892v-82.5h83.8L296.7,892z
			 M384.7,803.7h-90.9c-1.6,0-2.9,1.3-2.9,2.9V896H137.3V571.4h247.4V803.7z"/>
		<path fill="#EF373B" d="M186.3,612.6h155.4c1.6,0,2.9-1.3,2.9-2.9v-14.4c0-1.6-1.3-2.9-2.9-2.9H186.3c-1.6,0-2.9,1.3-2.9,2.9v14.4
			C183.5,611.3,184.7,612.6,186.3,612.6z M189.2,598.1h149.7v8.7H189.2V598.1z"/>
	</g>
</g>
<g id="Designed_by_Vecteezy">
	<g>
		<g>
			<g>
				<path fill="#4D3F38" d="M732.3,937.7c0.8,0,1.6,0.7,1.6,0.7L720,968.2c-1.5,0-5.2,0.2-6.1,0.2c-0.8,0-1.6-0.7-1.6-0.7l-4.8-29.8
					c2.9,0,6.5-0.2,7.6-0.2c0.8,0,1.6,0.7,1.6,0.7l1.5,14.6c0.1,1.3,0.1,3,0.1,4.8c0.5-2,1-3.9,1.5-5.2l5.8-14.7
					C728.1,937.9,731.3,937.7,732.3,937.7L732.3,937.7z"/>
			</g>
			<g>
				<path fill="#4D3F38" d="M746.6,952.4c0,3.2-1.8,5.4-6.3,6.3l-4.7,1c0.4,2,1.6,3,3.8,3c2.6,0,4.4-2,4.4-2s1.3,0.7,1.3,2.3
					c0,2.7-4.1,5.6-9,5.6c-4.9,0-8.1-3.1-8.1-8.3c0-6,4.3-14.2,11.9-14.2C744,946.1,746.6,948.6,746.6,952.4L746.6,952.4z
					 M738.6,955.5c1-0.3,1.3-1.2,1.3-2.1c0-0.9-0.3-2.2-1.3-2.2c-1.9,0-2.7,3-3,5.3L738.6,955.5z"/>
			</g>
			<g>
				<path fill="#4D3F38" d="M759.4,946.1c3.8,0,6.7,2,6.7,4.7c0,3.3-4,4.5-4,4.5s-1.2-3.6-3.9-3.6c-1.8,0-2.9,1.8-2.9,5.8
					c0,3.6,1,5.2,3.3,5.2c2.4,0,3.9-1.6,3.9-1.6s1.3,0.7,1.3,2.2c0,2.6-4,5.3-8.6,5.3c-4.9,0-8-3.1-8-8.2
					C747.3,954.3,751.7,946.1,759.4,946.1L759.4,946.1z"/>
			</g>
			<g>
				<path fill="#4D3F38" d="M777.8,941.3c0.9,0,1.5,0.7,1.5,0.7l-0.7,4.5h4.8l-1.1,3.5c-0.4,1.1-0.9,1.7-2,1.7h-2.5l-1.4,8.9
					c-0.2,1.4,0.1,2.1,1.1,2.1c0.9,0,1.8-0.5,1.8-0.5s1.3,0.7,1.3,2.2c0,2.2-3.1,4.3-7,4.3c-4.1,0-5.8-2.5-5.1-7l1.6-9.9h-2.6
					l1.1-3.6c0.3-0.9,1.1-1.6,2-1.6h1.3l1.5-4.2C775.2,941.9,777,941.3,777.8,941.3L777.8,941.3z"/>
			</g>
			<g>
				<path fill="#4D3F38" d="M801.2,952.4c0,3.2-1.8,5.4-6.3,6.3l-4.7,1c0.4,2,1.6,3,3.8,3c2.6,0,4.4-2,4.4-2s1.3,0.7,1.3,2.3
					c0,2.7-4.1,5.6-9,5.6c-4.9,0-8.1-3.1-8.1-8.3c0-6,4.3-14.2,11.9-14.2C798.6,946.1,801.2,948.6,801.2,952.4L801.2,952.4z
					 M793.2,955.5c1-0.3,1.3-1.2,1.3-2.1c0-0.9-0.3-2.2-1.3-2.2c-1.9,0-2.7,3-3,5.3L793.2,955.5z"/>
			</g>
			<g>
				<path fill="#4D3F38" d="M820.5,952.4c0,3.2-1.8,5.4-6.3,6.3l-4.7,1c0.4,2,1.6,3,3.8,3c2.6,0,4.4-2,4.4-2s1.3,0.7,1.3,2.3
					c0,2.7-4.1,5.6-9,5.6c-4.9,0-8.1-3.1-8.1-8.3c0-6,4.3-14.2,11.9-14.2C817.9,946.1,820.5,948.6,820.5,952.4L820.5,952.4z
					 M812.5,955.5c1-0.3,1.3-1.2,1.3-2.1c0-0.9-0.3-2.2-1.3-2.2c-1.9,0-2.7,3-3,5.3L812.5,955.5z"/>
			</g>
			<g>
				<path fill="#4D3F38" d="M836.3,960.5c0,0,1.6,1.5,1.6,4c0,3.3-2.8,4.2-5.2,4.2c-3.1,0-5.3-1.5-7.6-2.3c-0.6,0.7-1.3,1.5-1.9,2.3
					c0,0-3.5-0.1-3.5-2.4c0-2.9,4.8-7.8,9.9-13.4c-0.6-0.1-1.2-0.2-1.7-0.2c-2.9,0-4.1,1.5-4.1,1.5s-1.5-1.7-1.4-4
					c0.2-3.1,3.1-4,5.5-4c2.5,0,4.3,1,6.1,1.7l1.5-1.7c0,0,3.5,0.1,3.5,2.5c0,2.8-4.6,7.6-9.6,13c1.1,0.3,2,0.5,3,0.5
					C835.1,962.2,836.3,960.5,836.3,960.5L836.3,960.5z"/>
			</g>
			<g>
				<path fill="#4D3F38" d="M858.7,966.7c-1.2,7.6-6.4,11.4-13,11.4c-4.2,0-7.3-2.2-7.3-4.8c0-1.7,1.4-2.5,1.4-2.5s1.4,1.3,4.2,1.3
					c2.6,0,6.2-1.1,6.8-5.1l0.5-3.1c-1.8,2.6-4.1,4.6-7.1,4.6c-3.3,0-4.8-2.7-3.9-8.3l0.9-6c0.6-3.7,0.7-6.7,0.7-6.7
					c2.4-0.4,5.5-1.5,6.6-1.5c0.8,0,1.6,0.7,1.6,0.7l-1.2,7.5l-1.1,6.9c-0.1,0.6,0,1,0.6,1c2.8,0,4.3-7.9,4.3-7.9
					c0.6-3.7,0.7-6.7,0.7-6.7c2.4-0.4,5.5-1.5,6.6-1.5c0.9,0,1.6,0.7,1.6,0.7l-1.2,7.5L858.7,966.7z"/>
			</g>
		</g>
		<g>
			<path fill="#4D3F38" d="M538.1,947.4h7.4c1.7,0,3,0.1,3.8,0.4c1.2,0.3,2.2,1,3,1.9c0.8,0.9,1.5,2,1.9,3.3
				c0.4,1.3,0.7,2.9,0.7,4.8c0,1.7-0.2,3.1-0.6,4.3c-0.5,1.5-1.2,2.7-2.2,3.6c-0.7,0.7-1.7,1.2-2.9,1.6c-0.9,0.3-2.1,0.4-3.6,0.4
				h-7.7V947.4z M542.2,950.8v13.4h3c1.1,0,2-0.1,2.5-0.2c0.7-0.2,1.2-0.4,1.6-0.8c0.4-0.4,0.8-1,1.1-1.9c0.3-0.9,0.4-2.1,0.4-3.7
				s-0.1-2.8-0.4-3.6s-0.7-1.5-1.2-2c-0.5-0.5-1.1-0.8-1.9-0.9c-0.6-0.1-1.7-0.2-3.3-0.2H542.2z"/>
			<path fill="#4D3F38" d="M566.4,962.9l3.9,0.6c-0.5,1.4-1.3,2.5-2.3,3.2s-2.4,1.1-4,1.1c-2.5,0-4.4-0.8-5.6-2.5
				c-1-1.3-1.4-3-1.4-5c0-2.4,0.6-4.3,1.9-5.7c1.3-1.4,2.9-2.1,4.8-2.1c2.2,0,3.9,0.7,5.1,2.2c1.3,1.4,1.9,3.6,1.8,6.6h-9.7
				c0,1.1,0.3,2,0.9,2.7c0.6,0.6,1.3,1,2.2,1c0.6,0,1.1-0.2,1.5-0.5C565.8,964.1,566.2,963.6,566.4,962.9z M566.6,959
				c0-1.1-0.3-2-0.9-2.6c-0.6-0.6-1.2-0.9-2-0.9c-0.8,0-1.5,0.3-2.1,0.9c-0.6,0.6-0.8,1.4-0.8,2.5H566.6z"/>
			<path fill="#4D3F38" d="M571.6,963.4l3.9-0.6c0.2,0.8,0.5,1.3,1,1.7c0.5,0.4,1.2,0.6,2.1,0.6c1,0,1.8-0.2,2.3-0.6
				c0.3-0.3,0.5-0.6,0.5-1c0-0.3-0.1-0.5-0.3-0.7c-0.2-0.2-0.6-0.4-1.3-0.5c-3.1-0.7-5.1-1.3-5.9-1.9c-1.2-0.8-1.7-1.9-1.7-3.3
				c0-1.3,0.5-2.3,1.5-3.2c1-0.9,2.6-1.3,4.7-1.3c2,0,3.5,0.3,4.5,1c1,0.7,1.6,1.6,2,2.9l-3.6,0.7c-0.2-0.6-0.5-1-0.9-1.3
				c-0.4-0.3-1.1-0.5-1.9-0.5c-1,0-1.7,0.1-2.2,0.4c-0.3,0.2-0.4,0.5-0.4,0.8c0,0.3,0.1,0.5,0.4,0.7c0.3,0.3,1.6,0.6,3.6,1.1
				c2.1,0.5,3.5,1,4.3,1.7c0.8,0.7,1.2,1.6,1.2,2.9c0,1.3-0.6,2.5-1.7,3.5c-1.1,1-2.8,1.4-5,1.4c-2,0-3.6-0.4-4.7-1.2
				C572.8,965.8,572,964.7,571.6,963.4z"/>
			<path fill="#4D3F38" d="M588.1,950.9v-3.6h3.9v3.6H588.1z M588.1,967.5v-14.6h3.9v14.6H588.1z"/>
			<path fill="#4D3F38" d="M595,968.5l4.4,0.5c0.1,0.5,0.2,0.9,0.5,1.1c0.4,0.3,0.9,0.4,1.7,0.4c1,0,1.8-0.2,2.3-0.5
				c0.3-0.2,0.6-0.5,0.8-1c0.1-0.3,0.2-0.9,0.2-1.8v-2.1c-1.2,1.6-2.6,2.4-4.4,2.4c-2,0-3.5-0.8-4.7-2.5c-0.9-1.3-1.3-2.9-1.3-4.9
				c0-2.4,0.6-4.3,1.8-5.6c1.2-1.3,2.6-1.9,4.4-1.9c1.8,0,3.3,0.8,4.5,2.4v-2.1h3.6V966c0,1.7-0.1,3-0.4,3.9s-0.7,1.5-1.2,2
				c-0.5,0.5-1.2,0.9-2.1,1.1c-0.9,0.3-1.9,0.4-3.3,0.4c-2.5,0-4.2-0.4-5.3-1.3c-1-0.8-1.6-1.9-1.6-3.2
				C595,968.8,595,968.7,595,968.5z M598.5,959.9c0,1.6,0.3,2.7,0.9,3.4c0.6,0.7,1.3,1.1,2.2,1.1c0.9,0,1.7-0.4,2.4-1.1
				c0.7-0.7,1-1.8,1-3.3c0-1.5-0.3-2.6-0.9-3.4c-0.6-0.7-1.4-1.1-2.4-1.1c-0.9,0-1.7,0.4-2.3,1.1
				C598.8,957.3,598.5,958.4,598.5,959.9z"/>
			<path fill="#4D3F38" d="M625.3,967.5h-3.9v-7.5c0-1.6-0.1-2.6-0.2-3.1c-0.2-0.5-0.4-0.8-0.8-1.1c-0.4-0.3-0.8-0.4-1.3-0.4
				c-0.7,0-1.3,0.2-1.8,0.6c-0.5,0.4-0.9,0.9-1.1,1.5c-0.2,0.6-0.3,1.7-0.3,3.4v6.6H612v-14.6h3.6v2.1c1.3-1.7,2.9-2.5,4.8-2.5
				c0.9,0,1.6,0.2,2.3,0.5c0.7,0.3,1.2,0.7,1.6,1.2c0.4,0.5,0.6,1,0.8,1.6c0.1,0.6,0.2,1.5,0.2,2.6V967.5z"/>
			<path fill="#4D3F38" d="M637.2,962.9l3.9,0.6c-0.5,1.4-1.3,2.5-2.3,3.2s-2.4,1.1-4,1.1c-2.5,0-4.4-0.8-5.6-2.5
				c-1-1.3-1.4-3-1.4-5c0-2.4,0.6-4.3,1.9-5.7c1.3-1.4,2.9-2.1,4.8-2.1c2.2,0,3.9,0.7,5.1,2.2c1.3,1.4,1.9,3.6,1.8,6.6h-9.7
				c0,1.1,0.3,2,0.9,2.7c0.6,0.6,1.3,1,2.2,1c0.6,0,1.1-0.2,1.5-0.5C636.6,964.1,636.9,963.6,637.2,962.9z M637.4,959
				c0-1.1-0.3-2-0.9-2.6c-0.6-0.6-1.2-0.9-2-0.9c-0.8,0-1.5,0.3-2.1,0.9c-0.6,0.6-0.8,1.4-0.8,2.5H637.4z"/>
			<path fill="#4D3F38" d="M657.2,967.5h-3.6v-2.1c-0.6,0.8-1.3,1.5-2.1,1.9c-0.8,0.4-1.6,0.6-2.5,0.6c-1.7,0-3.1-0.7-4.3-2
				c-1.2-1.4-1.8-3.2-1.8-5.7c0-2.5,0.6-4.4,1.7-5.7c1.2-1.3,2.6-1.9,4.4-1.9c1.6,0,3,0.7,4.2,2v-7.3h3.9V967.5z M646.9,959.9
				c0,1.6,0.2,2.7,0.6,3.4c0.6,1,1.5,1.5,2.6,1.5c0.9,0,1.6-0.4,2.3-1.1c0.6-0.8,0.9-1.9,0.9-3.4c0-1.7-0.3-2.9-0.9-3.6
				c-0.6-0.7-1.4-1.1-2.3-1.1c-0.9,0-1.7,0.4-2.3,1.1C647.2,957.4,646.9,958.5,646.9,959.9z"/>
			<path fill="#4D3F38" d="M667.6,967.5v-20.2h3.9v7.3c1.2-1.4,2.6-2,4.2-2c1.8,0,3.3,0.6,4.4,1.9c1.2,1.3,1.7,3.1,1.7,5.6
				c0,2.5-0.6,4.4-1.8,5.8c-1.2,1.3-2.6,2-4.3,2c-0.8,0-1.7-0.2-2.5-0.6c-0.8-0.4-1.5-1-2.1-1.9v2.1H667.6z M671.4,959.9
				c0,1.5,0.2,2.6,0.7,3.4c0.7,1,1.6,1.5,2.7,1.5c0.9,0,1.6-0.4,2.2-1.1c0.6-0.7,0.9-1.9,0.9-3.4c0-1.7-0.3-2.9-0.9-3.6
				c-0.6-0.7-1.4-1.1-2.3-1.1c-0.9,0-1.7,0.4-2.3,1.1C671.7,957.3,671.4,958.4,671.4,959.9z"/>
			<path fill="#4D3F38" d="M682.6,952.9h4.1l3.5,10.4l3.4-10.4h4l-5.2,14.1l-0.9,2.5c-0.3,0.9-0.7,1.5-1,2c-0.3,0.4-0.7,0.8-1.1,1.1
				c-0.4,0.3-0.9,0.5-1.5,0.7c-0.6,0.2-1.2,0.2-2,0.2c-0.7,0-1.5-0.1-2.2-0.2l-0.3-3c0.6,0.1,1.2,0.2,1.6,0.2c0.9,0,1.6-0.3,2-0.8
				c0.4-0.5,0.8-1.2,1-2L682.6,952.9z"/>
		</g>
	</g>
</g>
</svg>
