<svg xmlns="http://www.w3.org/2000/svg"><defs><style>.cls-1{fill:#bc3e19;}.cls-1,.cls-10,.cls-2,.cls-3,.cls-4,.cls-5,.cls-7,.cls-8,.cls-9{fill-rule:evenodd;}.cls-2{fill:#ea8d00;}.cls-3{fill:#787475;}.cls-4{fill:#f0cea5;}.cls-5{fill:#3f3d3a;}.cls-6,.cls-7{fill:#8d8988;}.cls-8{fill:#e0b682;}.cls-9{fill:#f7bf63;}.cls-10{fill:#fff;}</style></defs><g id="Layer_2" data-name="Layer 2"><g id="_2" data-name="2"><path class="cls-1" d="M38.14,25c3-3.34,6-10.28,6-10.28L38.35,12.1s-3.11,6.66-5.46,7.9c-1.27.45-7,.26-9.44-.75-7.75,1.4.05,10.62.05,10.62S32.44,31.28,38.14,25Z"/><path class="cls-2" d="M43,14.23,38.35,12.1s-3.11,6.66-5.46,7.9c-1.27.45-7,.26-9.44-.75A4.93,4.93,0,0,0,21,20.32a19.3,19.3,0,0,0,3.16,5.43s8.94,1.41,14.64-4.87A33,33,0,0,0,43,14.23Z"/><path class="cls-3" d="M43.92,14.11a16.26,16.26,0,0,0,.94-2.37,31.27,31.27,0,0,0-2.41-3.69,8.84,8.84,0,0,0-1.76,2.26,15.23,15.23,0,0,0-1.23,3.53c-.2,1.08,2.28,1.41,2.43,1.51A3.68,3.68,0,0,0,43.92,14.11Z"/><path class="cls-3" d="M40.92,9.86a.76.76,0,0,0,.19,1.05.75.75,0,0,0,1-.19l2-3.34c.24-.34.41-.66.07-.9s-.66.09-.9.43Z"/><path class="cls-3" d="M41.87,10.5a.78.78,0,0,0,1.28.89l2-3.46c.24-.35.42-.68.07-.93s-.68.09-.93.44Z"/><path class="cls-3" d="M42.56,11.32a.76.76,0,0,0,.19,1,.76.76,0,0,0,1-.19l2-3.34c.24-.34.41-.66.07-.9s-.66.09-.9.43Z"/><path class="cls-3" d="M43.21,12.37a.62.62,0,1,0,1,.69l2-3.3c.23-.34.42-.65.15-.84s-.58.14-.82.48Z"/><path class="cls-3" d="M41.92,13.33c.59.45.8,1.14.49,1.54l-2,2.62c-.31.4-1,.36-1.62-.09s-.8-1.14-.49-1.54l2-2.62C40.61,12.84,41.33,12.88,41.92,13.33Z"/><path class="cls-3" d="M41.38,11c-.18-.16-.27-1.19-.71-1.35s-.61,0-1.12.56c0,0-.47.84-.2,1.38C40.62,14.63,41.21,11.84,41.38,11Z"/><path class="cls-3" d="M40.55,7.73s.61.57.22,2.19c-.06.34-.84,0-1.43,1.67-.09-.39-.06-.59.4-2S40.17,7.1,40.55,7.73Z"/><path class="cls-4" d="M33.85,18.62a10.52,10.52,0,0,0,6.41,3.94c2.15-2.65,5-8,4.09-8.49a16.61,16.61,0,0,0-5.53-2.73C38.22,11,34.49,16.58,33.85,18.62Z"/><path class="cls-1" d="M26.85,37.77s1.57,6.89,1.23,19.56c-.16,5.72-1.87,17.33-1.87,17.33l-7.74-.27C19.2,70.1,20.55,61,19,52.21c-.72,8-2.07,16.38-4.06,22.12-.07.34-7.31.19-7.31.19s.3-8.31.91-16.07c.66-8.35.85-15.41.81-16.86-.07-2.78,14.8-1.92,14.8-1.92Z"/><path class="cls-2" d="M26.85,37.77s1.57,6.89,1.23,19.56C28,61.7,26.93,69.52,26.45,73l-5.93-.2c.73-4.29,2.74-20.59-1.62-21.93-.15,1.66-.24,3.32-.29,5a99.5,99.5,0,0,1-3.23,17.09c-2.15.07-5.72,0-5.72,0s4.15-18.46,3.25-33a71.83,71.83,0,0,1,11.21-.22Z"/><path class="cls-1" d="M6.12,20.4s1.47,4.88,1.78,6.86c1.3,3.66,1.26,20.49,1.26,20.49s7.21-.48,10.94-.65,7.26-.64,7.26-.64c.45-9.18,2.5-16-.91-24.74-1-2.56-4.2-4.59-9.45-4.66A12.77,12.77,0,0,0,6.12,20.4Z"/><path class="cls-2" d="M12.91,49.05c2.7,1,6.51,2.18,8.8,2.07,3.73-.17,5.65-4.66,5.65-4.66.45-9.18,2.5-16-.91-24.74A5.62,5.62,0,0,0,25,19.59a15.15,15.15,0,0,0-5.18-.88c-6.53-1.05-11,3.23-10.87,3.34a20.12,20.12,0,0,1,2.32,5.26C13.46,35.28,13,45.77,12.91,49.05Z"/><path class="cls-4" d="M19.12,66.22c-.7,3.07-2.63,11.45-1.38,15.15L33,81.26a2.45,2.45,0,0,0-.8-2.27,13.89,13.89,0,0,1-3.52-.84C25.42,77,27.46,69.6,28,67.07Z"/><path class="cls-5" d="M25.54,81.31l7.45,0a2.45,2.45,0,0,0-.8-2.27,13.89,13.89,0,0,1-3.52-.84A7.14,7.14,0,0,0,25.54,81.31Z"/><rect class="cls-6" x="17.74" y="81.31" width="15.61" height="0.96" transform="translate(-0.61 0.19) rotate(-0.43)"/><path class="cls-5" d="M18.83,67.5c4,.29,6,5.09,5.32,8.83a12.34,12.34,0,0,1-2.22,5l-3.09,0a5.41,5.41,0,0,0,1.49-2.06c.9-2.12-.69-4.52-2.7-5.26C18,71.62,18.45,69.21,18.83,67.5Z"/><path class="cls-3" d="M25.39,67.74a.27.27,0,0,0,.25.28l2.39.22A.24.24,0,0,0,28.3,68a.27.27,0,0,0-.24-.28l-2.39-.22a.25.25,0,0,0-.28.24Z"/><path class="cls-3" d="M25.15,68.79a.27.27,0,0,0,.24.28l2.39.22a.25.25,0,0,0,.28-.24.27.27,0,0,0-.25-.28l-2.39-.22a.25.25,0,0,0-.27.24Z"/><path class="cls-3" d="M24.9,69.84a.28.28,0,0,0,.25.29l2.39.21a.24.24,0,0,0,.27-.23.28.28,0,0,0-.24-.29l-2.39-.22a.26.26,0,0,0-.28.24Z"/><path class="cls-3" d="M24.66,70.89a.27.27,0,0,0,.24.29l2.39.22a.26.26,0,0,0,.28-.24.28.28,0,0,0-.25-.29l-2.39-.21a.24.24,0,0,0-.27.23Z"/><path class="cls-4" d="M8,66.23C7.3,69.29,5.37,77.66,6.61,81.37l15.26,0a2.48,2.48,0,0,0-.8-2.27,13.61,13.61,0,0,1-3.52-.86c-3.25-1.18-1.22-8.55-.71-11.08Z"/><path class="cls-5" d="M14.42,81.36h7.45a2.48,2.48,0,0,0-.8-2.27,13.61,13.61,0,0,1-3.52-.86A7,7,0,0,0,14.42,81.36Z"/><polygon class="cls-7" points="6.61 81.37 22.22 81.35 22.23 82.32 6.62 82.33 6.61 81.37"/><path class="cls-5" d="M7.7,67.51c4,.31,6,5.13,5.33,8.86a12.33,12.33,0,0,1-2.23,5H7.72a5.47,5.47,0,0,0,1.49-2.05c.9-2.11-.69-4.53-2.7-5.28C6.82,71.63,7.32,69.22,7.7,67.51Z"/><path class="cls-3" d="M14.27,67.79a.27.27,0,0,0,.24.28l2.39.24a.26.26,0,0,0,.28-.24.28.28,0,0,0-.25-.29l-2.39-.23a.24.24,0,0,0-.27.24Z"/><path class="cls-3" d="M14,68.84a.27.27,0,0,0,.25.28l2.39.24a.24.24,0,0,0,.27-.24.27.27,0,0,0-.24-.28L14.3,68.6a.25.25,0,0,0-.28.24Z"/><path class="cls-3" d="M13.78,69.89a.28.28,0,0,0,.24.29l2.39.23a.25.25,0,0,0,.28-.24.27.27,0,0,0-.25-.28l-2.39-.24a.25.25,0,0,0-.27.24Z"/><path class="cls-3" d="M13.53,70.94a.28.28,0,0,0,.25.29l2.39.23a.24.24,0,0,0,.27-.24.27.27,0,0,0-.24-.28l-2.39-.24a.25.25,0,0,0-.28.24Z"/><path class="cls-4" d="M26,30c-.05,3.62-.58,7.05-.63,10.67A34.27,34.27,0,0,1,21,46.05H19.68a30.7,30.7,0,0,0-4-5.37c-.41-4-1.26-7.93-1.78-10.71C17.6,29.89,22.22,30.1,26,30Z"/><path class="cls-4" d="M28.38,33.11c-5.84,1-12.59.8-19.86,0-.11-1.11-.26-2.62-.35-3.5a64.43,64.43,0,0,0,20.12.16C28.35,30.78,28.39,32.1,28.38,33.11Z"/><path class="cls-1" d="M0,32c-.16,4.5,2.08,11.7,2.08,11.7L8.22,42s-1.93-7.09-.94-9.55C8,31.23,9.9,30.62,11.49,30c5-6.06-3.25-11.19-3.25-11.19S.34,23.49,0,32Z"/><path class="cls-2" d="M0,32c-.12,3.33,1.08,8.15,1.71,10.42l4.49-1s-1.43-7.75-.44-10.2c.67-1.17,4.84-3.69,6.42-4.28a8.33,8.33,0,0,0,.86-1.26c-.29-3.94-4.84-6.77-4.84-6.77S.34,23.49,0,32Z"/><path class="cls-3" d="M2.66,44a17.7,17.7,0,0,0,.81,2.43A32.13,32.13,0,0,0,7.7,47.69a9,9,0,0,0-.12-2.86,14.53,14.53,0,0,0-1.34-3.49c-.54-1-2.65.4-2.83.41A3.71,3.71,0,0,0,2.66,44Z"/><path class="cls-3" d="M7.7,45.32a.75.75,0,0,0-.82-.68.76.76,0,0,0-.69.82l.67,3.82c0,.41.11.77.52.73s.45-.49.41-.91Z"/><path class="cls-3" d="M6.56,45.45a.78.78,0,0,0-.85-.71.77.77,0,0,0-.7.85l.68,3.95c0,.43.12.8.55.76s.46-.51.42-.94Z"/><path class="cls-3" d="M5.5,45.27a.75.75,0,1,0-1.5.14l.66,3.81c0,.42.11.77.53.73s.45-.49.41-.91Z"/><path class="cls-3" d="M4.33,44.88a.69.69,0,0,0-.67-.69.69.69,0,0,0-.53.8l.6,3.81c0,.41.1.77.43.74s.35-.48.31-.89Z"/><path class="cls-3" d="M4.69,43.32c-.73,0-1.35-.36-1.37-.87l-.14-3.3c0-.5.55-.94,1.29-1s1.35.35,1.37.86L6,42.34C6,42.84,5.43,43.28,4.69,43.32Z"/><path class="cls-3" d="M6.59,44.73c.25,0,1,.73,1.41.57s.49-.38.5-1.15c0,0-.18-.95-.74-1.19C4.84,41.48,6.2,44,6.59,44.73Z"/><path class="cls-3" d="M9.36,46.71s-.83,0-1.59-1.53c-.17-.3.65-.54,0-2.2.31.24.42.42,1,1.76S10.05,47,9.36,46.71Z"/><path class="cls-4" d="M7.44,34.07A10.5,10.5,0,0,0,0,35.19c.07,3.42,1.38,9.35,2.36,9.13a16.65,16.65,0,0,0,6-1.48C9,42.68,8.27,36,7.44,34.07Z"/><path class="cls-8" d="M6.76,34.91a9.23,9.23,0,0,0-4.4.59c.05,2.83,1.14,7.74,1.95,7.55a9.37,9.37,0,0,0,3.2-.89C8.05,42,7.45,36.54,6.76,34.91Z"/><path class="cls-4" d="M6.77,19.87c3.71,1.53,4.43,5.75,4.73,10.35a58,58,0,0,0,16.8-.29,27.5,27.5,0,0,0-1.85-8.21c-1-2.56-2.6-5.44-7.85-5.51-4-.63-9.71.38-11.46,1.72-2.33,1.8-1.82,3.24-2.13,3.5Z"/><path class="cls-8" d="M15.81,0C10.32,0,7,3.7,6.37,7a11.85,11.85,0,0,0,2.2,9c.92,1.11-1.14.85-1.43,1.9.5-.44,3-.29,5.16,2.09,3.39,3.7,13.05,5.41,10.46-1.6l-.86-1.34a10.06,10.06,0,0,0,3.84-7.92C25.74,3.61,21.29,0,15.81,0Z"/><path class="cls-4" d="M15.81,0A9.59,9.59,0,0,0,7.32,4.56,12.57,12.57,0,0,0,19.94,17a13.47,13.47,0,0,0,2.3-.21,10.05,10.05,0,0,0,3.5-7.64C25.74,3.61,21.29,0,15.81,0Z"/><path class="cls-1" d="M10,10.4l.25,2.52c2.55,3.55,10.15,5.78,12.58,3.31a10,10,0,0,0,2.9-7.07,10.24,10.24,0,0,0-.11-1.49C23.11,5.22,12.71,5.61,10,10.4Z"/><path class="cls-2" d="M10.47,10.54l.26,2.14c2.34,2.76,8.75,5.3,12.54,3.1a10.06,10.06,0,0,0,2.47-6.62q0-.39,0-.75C22.75,6,13.79,6.29,10.47,10.54Z"/><path class="cls-9" d="M12,13.86a5.12,5.12,0,0,1,0-.56c0-3.25,3.27-5.88,7.3-5.88a7.72,7.72,0,0,1,6.39,3,10.1,10.1,0,0,1-2.39,5.33C20,17.66,14.89,16.08,12,13.86Z"/><path class="cls-10" d="M24.92,11.18c-3-2.58-7.36-2.24-10.18-1.37A6.7,6.7,0,0,1,24.92,11.18Z"/><path class="cls-8" d="M18.06,3H14.72a6.59,6.59,0,0,1,1.7,3.16Z"/><path class="cls-8" d="M23.46,3H17.18a1,1,0,0,0-1,1V5.58a1,1,0,0,0,.21.61,15.47,15.47,0,0,1,7.58.2,1,1,0,0,0,.44-.81V4A1,1,0,0,0,23.46,3Z"/><path class="cls-9" d="M23.27,3.3H17.45a.85.85,0,0,0-.9.78V5.34a.67.67,0,0,0,.2.48,16.57,16.57,0,0,1,7,.17.76.76,0,0,0,.4-.65V4.08A.85.85,0,0,0,23.27,3.3Z"/><path class="cls-2" d="M22.48,5.3a.76.76,0,0,1-.7-.81.7.7,0,1,1,1.39,0A.76.76,0,0,1,22.48,5.3Z"/><path class="cls-4" d="M22.48,5A.49.49,0,0,1,22,4.49a.45.45,0,1,1,.89,0A.49.49,0,0,1,22.48,5Z"/><path class="cls-2" d="M20.44,5.3a.76.76,0,0,1-.7-.81.7.7,0,1,1,1.39,0A.76.76,0,0,1,20.44,5.3Z"/><path class="cls-2" d="M18.2,5.3a.76.76,0,0,1-.7-.81.71.71,0,1,1,1.4,0A.76.76,0,0,1,18.2,5.3Z"/><path class="cls-4" d="M20.44,5A.49.49,0,0,1,20,4.49a.45.45,0,1,1,.89,0A.49.49,0,0,1,20.44,5Z"/><path class="cls-4" d="M18.2,5a.49.49,0,0,1-.45-.52A.49.49,0,0,1,18.2,4a.48.48,0,0,1,.45.51A.49.49,0,0,1,18.2,5Z"/><path class="cls-8" d="M10.78,21.18a18.51,18.51,0,0,1,2,7.78,38.2,38.2,0,0,0,14.22,0,17.23,17.23,0,0,0-2-8.23C24.29,27,16.1,26,10.78,21.18Z"/><path class="cls-4" d="M24.13,26.24A17,17,0,0,1,15,25.9c.14.79.22,1.93.36,2.72a26.4,26.4,0,0,0,9.21,0Z"/><path class="cls-8" d="M24.39,30.41c0,2.52-.45,7-.49,9.55a23.67,23.67,0,0,1-3,3.75H20A21.11,21.11,0,0,0,17.16,40c-.28-2.77-.93-7.39-1.29-9.32A23.58,23.58,0,0,0,24.39,30.41Z"/><polygon class="cls-8" points="14.34 32.45 12.26 32.25 11.96 30.48 13.92 30.26 14.34 32.45"/><polygon class="cls-8" points="25.86 32.48 27.92 32.29 27.99 30.52 26 30.3 25.86 32.48"/><path class="cls-8" d="M42.5,15.05A9.3,9.3,0,0,0,39,12.39c-2,2.06-4.61,6.33-3.9,6.76A9.33,9.33,0,0,0,38,20.76C38.44,21,41.85,16.7,42.5,15.05Z"/><path class="cls-4" d="M2.54,24.42a11,11,0,0,1,4.31,4c.46-.67,1.47-1,1.93-1.69A13.11,13.11,0,0,0,4,22.49C3.55,23.15,3,23.76,2.54,24.42Z"/><path class="cls-4" d="M26.79,20c1.09.65,1.55,1.34,1.94,3.37.72-.37,1.77-.22,2.49-.59a3.7,3.7,0,0,0-.93-2.55A32.68,32.68,0,0,0,26.79,20Z"/><path class="cls-5" d="M23.44,31.34v1.24a11.4,11.4,0,0,1-1.25.31V31.55c.42-.06.83-.13,1.25-.21Zm-5.3.33V33c-.41-.06-.83-.13-1.24-.23V31.53c.41.06.83.1,1.24.14Zm1.77,0v1.4c-.42,0-.83,0-1.25,0V31.7Zm1.76.58V33c-.41.05-.83.09-1.24.11v-1.4l1.24-.08Z"/><path class="cls-5" d="M3.49,43l-.61.14-.6.15c-.22-.37-.42-.75-.6-1.13L2.33,42,3,41.85c.15.39.32.78.5,1.16ZM1.92,37.94l-.66.16-.65.16Q.55,37.63.55,37l.6-.15.61-.15c0,.42.09.83.16,1.24Zm.38,1.73-.68.16L.94,40c-.1-.41-.19-.81-.26-1.22l.67-.16L2,38.46c.08.4.18.8.28,1.21Zm-.16,1.85-.66.16c-.15-.39-.28-.79-.41-1.18l.68-.17.69-.16c.11.4.24.79.37,1.19Z"/></g></g></svg>