<svg id="Layer_1" data-name="Layer 1" xmlns="http://www.w3.org/2000/svg" xmlns:xlink="http://www.w3.org/1999/xlink" viewBox="0 0 545.46 214.05"><defs><style>.cls-1{fill:none;}.cls-2{clip-path:url(#clip-path);}.cls-3{clip-path:url(#clip-path-2);}.cls-4{fill:#9cb4c9;}.cls-13,.cls-14,.cls-17,.cls-18,.cls-33,.cls-34,.cls-39,.cls-4,.cls-41,.cls-6,.cls-8{fill-rule:evenodd;}.cls-5{fill:#fff;}.cls-6{fill:#a4c4d3;}.cls-7{fill:#78a8bc;}.cls-8{fill:#5a94ab;}.cls-9{fill:#a9bad0;}.cls-10{fill:#d6dfe5;}.cls-11{fill:#9c9eba;}.cls-12,.cls-13{fill:#2b6fa3;}.cls-14{fill:#5687c0;}.cls-15,.cls-18{fill:#867b77;}.cls-16{fill:#ceccc8;}.cls-17,.cls-19{fill:#5b4d49;}.cls-20{fill:#a09490;}.cls-21{fill:#8a847e;}.cls-22{fill:#b7aeaa;}.cls-23{fill:#e1dedb;}.cls-24{fill:#bab6b3;}.cls-25{fill:#d8d7d5;}.cls-26{fill:#cdcac8;}.cls-27{fill:#e6e8e7;}.cls-28{fill:#bebbb9;}.cls-29{fill:#d1d0cf;}.cls-30{fill:#a19c98;}.cls-31{fill:#76706b;}.cls-32{fill:#bebab8;}.cls-33{fill:#d5b000;}.cls-34,.cls-36{fill:#fadb00;}.cls-35{fill:#e8bf00;}.cls-37{fill:#383026;}.cls-38{fill:#867e6e;}.cls-39{fill:#a09d9e;}.cls-40{fill:#e20714;}.cls-41,.cls-43{fill:#1aa6df;}.cls-42{fill:#dcdddc;}</style><clipPath id="clip-path" transform="translate(0.76 4.86)"><rect class="cls-1" x="0.48" width="410.26" height="204.49"/></clipPath><clipPath id="clip-path-2" transform="translate(0.76 4.86)"><rect class="cls-1" x="-310.85" y="-4.7" width="855.54" height="213.89"/></clipPath></defs><g id="Layer_2" data-name="Layer 2"><g id="_2" data-name=" 2"><g id="_3" data-name=" 3"><g class="cls-2"><g class="cls-3"><polygon class="cls-4" points="0 0 0 213.99 545.45 214.05 545.45 0 0 0"/><path class="cls-5" d="M243.14,57.2H38.7C20.42,52.85,11.58,48.53,11.58,44s8.84-8.86,27-13.21H243.14a.48.48,0,0,1,.48.48V56.72a.48.48,0,0,1-.46.48ZM38.7,31.73C17.1,36.91,12.54,41.26,12.54,44s4.56,7.08,26.27,12.27H242.66V31.73Z" transform="translate(0.76 4.86)"/><path class="cls-5" d="M243.55,65.93l-102.23-5.2h-.12l-25-8.1A1.69,1.69,0,0,1,115,51.08a1.57,1.57,0,0,1,1.23-1.66l25.09-4,102.27-1.66h.19c3.11,1.24,5.14,5.5,5.17,10.85,0,4.54-1.56,9.78-5.17,11.26A.35.35,0,0,1,243.55,65.93ZM141.48,59.77l102,5.23c3.13-1.37,4.5-6.16,4.48-10.34,0-4.9-1.78-8.78-4.48-9.92L141.35,46.35l-25,4c-.28,0-.43.38-.42.68a.77.77,0,0,0,.58.66Z" transform="translate(0.76 4.86)"/><path class="cls-5" d="M243.55,44.7,141.34,43.05l-25.16-4A1.57,1.57,0,0,1,115,37.39a1.69,1.69,0,0,1,1.24-1.55l25-8.09a.24.24,0,0,1,.12,0l102.17-5.23a.53.53,0,0,1,.36.13A.56.56,0,0,1,244,23V44.23a.49.49,0,0,1-.15.34A.51.51,0,0,1,243.55,44.7Zm-102.07-16-25,8.07a.8.8,0,0,0-.58.67.62.62,0,0,0,.42.68l25.09,4,101.65,1.64V23.5Z" transform="translate(0.76 4.86)"/><path class="cls-5" d="M74.18,57.2h-17a.47.47,0,0,1-.48-.48V31.25a.49.49,0,0,1,.48-.48h17a.49.49,0,0,1,.34.14.48.48,0,0,1,.14.34V56.72A.48.48,0,0,1,74.18,57.2Zm-16.55-1H73.7V31.73H57.63Z" transform="translate(0.76 4.86)"/><path class="cls-5" d="M55.48,57.2h-1a.48.48,0,0,1-.48-.48V31.25a.48.48,0,0,1,.47-.48h1a.49.49,0,0,1,.34.14.48.48,0,0,1,.14.34V56.72A.48.48,0,0,1,55.48,57.2Zm-.55-1H55V31.73h-.06Z" transform="translate(0.76 4.86)"/><path class="cls-5" d="M30.8,49.72a5.73,5.73,0,1,1,5.68-5.78V44A5.74,5.74,0,0,1,30.8,49.72Zm0-10.5A4.77,4.77,0,1,0,35.57,44,4.77,4.77,0,0,0,30.8,39.22Z" transform="translate(0.76 4.86)"/><path class="cls-5" d="M57.59,56.11a.5.5,0,1,1-.11-1l15-3.59L58.76,44.8a.46.46,0,0,1-.27-.43.49.49,0,0,1,.28-.44l13.9-6.46L57.14,33a.49.49,0,0,1-.33-.6.47.47,0,0,1,.57-.34h0l16.78,4.82a.48.48,0,0,1,.32.61.5.5,0,0,1-.25.3L60.1,44.38l14,6.9a.48.48,0,0,1,.26.49.5.5,0,0,1-.37.42L57.7,56.1Z" transform="translate(0.76 4.86)"/><path class="cls-5" d="M40.09,57.2h-1a.48.48,0,0,1-.48-.48V31.25a.47.47,0,0,1,.48-.48h1a.49.49,0,0,1,.34.14.48.48,0,0,1,.14.34V56.72A.48.48,0,0,1,40.09,57.2Zm-.55-1h.07V31.73h-.06Z" transform="translate(0.76 4.86)"/><path class="cls-5" d="M108.89,57.3h-1a.44.44,0,0,1-.33-.14.48.48,0,0,1-.14-.34V31.35a.47.47,0,0,1,.46-.48h1a.48.48,0,0,1,.48.48h0V56.82a.48.48,0,0,1-.46.48Zm-.54-1h.06V31.83h-.06Z" transform="translate(0.76 4.86)"/><path class="cls-5" d="M106.05,57.2h-1a.47.47,0,0,1-.48-.48h0V31.25a.49.49,0,0,1,.48-.48h1a.49.49,0,0,1,.34.14.48.48,0,0,1,.14.34V56.72a.48.48,0,0,1-.46.48Zm-.54-1h.06V31.73h-.09Z" transform="translate(0.76 4.86)"/><path class="cls-5" d="M142.14,60.73h-.57a.48.48,0,0,1-.48-.48V45.91a.47.47,0,0,1,.48-.48h.57a.49.49,0,0,1,.34.15.45.45,0,0,1,.15.33V60.25a.48.48,0,0,1-.48.48Z" transform="translate(0.76 4.86)"/><path class="cls-5" d="M142.14,43h-.57a.48.48,0,0,1-.48-.48V28.2a.47.47,0,0,1,.47-.49h.58a.51.51,0,0,1,.49.49V42.53a.48.48,0,0,1-.49.47Z" transform="translate(0.76 4.86)"/><path class="cls-5" d="M197.91,63.66h-.73a.48.48,0,0,1-.34-.82c3.37-3.34,2.88-14.2,0-17.53a.46.46,0,0,1-.08-.51.49.49,0,0,1,.44-.28h.73a.55.55,0,0,1,.34.13c3.58,3.52,3.58,15,0,18.85A.5.5,0,0,1,197.91,63.66Z" transform="translate(0.76 4.86)"/><path class="cls-5" d="M197.91,44.13h-.73a.47.47,0,0,1-.48-.48V25.48a.47.47,0,0,1,.46-.48h.75a.44.44,0,0,1,.34.14.48.48,0,0,1,.14.34V43.65A.48.48,0,0,1,197.91,44.13Z" transform="translate(0.76 4.86)"/><polygon class="cls-6" points="0 167.5 0 213.99 545.45 214.05 545.45 167.5 0 167.5"/><rect class="cls-7" y="159.95" width="545.46" height="7.56"/><path class="cls-8" d="M24.48,172.65c-9.46,0-18.17.19-25.24.52v4.31c7.08.33,15.79.52,25.24.52,23.54,0,42.68-1.18,42.68-2.66S48.05,172.65,24.48,172.65Z" transform="translate(0.76 4.86)"/><rect class="cls-9" x="43.01" y="147.63" width="15.42" height="32.73"/><rect class="cls-10" x="56.49" y="147.63" width="10.43" height="32.73"/><rect class="cls-11" x="56.49" y="147.63" width="10.33" height="2.93"/><rect class="cls-12" x="6.74" y="151.16" width="26.22" height="1.7"/><path class="cls-13" d="M6,147.82c0,1.5,5.87,2.72,13.1,2.72s13.12-1.22,13.12-2.72-5.87-2.72-13.12-2.72S6,146.31,6,147.82Z" transform="translate(0.76 4.86)"/><path class="cls-14" d="M6,146.3c0,1.5,5.87,2.72,13.1,2.72s13.12-1.22,13.12-2.72-5.87-2.72-13.12-2.72S6,144.8,6,146.3Z" transform="translate(0.76 4.86)"/><rect class="cls-15" x="18.74" y="126.4" width="0.94" height="49.43"/><rect class="cls-16" x="19.5" y="126.4" width="1.25" height="49.43"/><path class="cls-17" d="M12.72,171.82a1.38,1.38,0,1,0,1.38-1.38,1.38,1.38,0,0,0-1.38,1.38Z" transform="translate(0.76 4.86)"/><path class="cls-18" d="M13.17,171.82a1.38,1.38,0,1,0,1.38-1.38,1.38,1.38,0,0,0-1.38,1.38Z" transform="translate(0.76 4.86)"/><path class="cls-17" d="M22.22,171.82a1.38,1.38,0,1,0,1.38-1.38,1.38,1.38,0,0,0-1.38,1.38Z" transform="translate(0.76 4.86)"/><path class="cls-18" d="M22.66,171.82a1.39,1.39,0,1,0,1.4-1.38h0a1.38,1.38,0,0,0-1.39,1.37Z" transform="translate(0.76 4.86)"/><rect class="cls-19" x="12.32" y="174.32" width="13.78" height="1.43"/><rect class="cls-20" x="13.08" y="174.32" width="14" height="1.43"/><path class="cls-13" d="M3.94,127.47c0,2.94,5,5.33,11.17,5.33s11.17-2.39,11.17-5.33-4.74-3.37-10.91-3.37S3.94,124.54,3.94,127.47Z" transform="translate(0.76 4.86)"/><path class="cls-14" d="M5.63,127.47c0,2.94,5,5.33,11.17,5.33S28,130.41,28,127.47s-4.73-3.37-10.9-3.37S5.63,124.54,5.63,127.47Z" transform="translate(0.76 4.86)"/><rect class="cls-21" y="147.27" width="0.73" height="33.29"/><rect class="cls-22" y="147.27" width="1.48" height="33.29"/><rect class="cls-9" y="144.93" width="48.51" height="2.93"/><rect class="cls-23" x="50.03" y="141.58" width="14.48" height="3.39"/><rect class="cls-5" x="59.12" y="141.58" width="9.29" height="3.39"/><rect class="cls-24" x="32.38" y="132.79" width="1.81" height="11.68"/><rect class="cls-25" x="32.79" y="132.79" width="2.22" height="11.68"/><rect class="cls-26" x="17.94" y="120.76" width="30.47" height="18.69"/><rect class="cls-27" x="18.99" y="120.76" width="30.47" height="18.69"/><rect class="cls-28" x="29.37" y="129.4" width="7.82" height="7.83"/><rect class="cls-29" x="30.19" y="129.4" width="7.82" height="7.83"/><rect class="cls-25" x="23.84" y="143.88" width="19.96" height="1.05"/><path class="cls-8" d="M124.35,178.62c42.06,0,76.17,1.6,76.17,3.58s-34.11,3.56-76.17,3.56-76.18-1.6-76.18-3.56S82.29,178.62,124.35,178.62Z" transform="translate(0.76 4.86)"/><rect class="cls-15" x="123.65" y="149.33" width="1.25" height="34.33"/><rect class="cls-16" x="122.22" y="149.33" width="1.66" height="34.33"/><path class="cls-17" d="M131.07,180.63a1.85,1.85,0,0,1-1.83,1.85,1.84,1.84,0,1,1,0-3.68h0A1.84,1.84,0,0,1,131.07,180.63Z" transform="translate(0.76 4.86)"/><path class="cls-18" d="M130.48,180.63a1.85,1.85,0,0,1-1.83,1.85,1.84,1.84,0,1,1,0-3.68h0A1.85,1.85,0,0,1,130.48,180.63Z" transform="translate(0.76 4.86)"/><path class="cls-17" d="M118.48,180.63a1.85,1.85,0,0,1-1.83,1.85,1.84,1.84,0,1,1,0-3.68h0A1.85,1.85,0,0,1,118.48,180.63Z" transform="translate(0.76 4.86)"/><path class="cls-18" d="M117.85,180.63a1.85,1.85,0,1,1-1.71-1.7,1.84,1.84,0,0,1,1.71,1.7Z" transform="translate(0.76 4.86)"/><rect class="cls-19" x="115.04" y="182.36" width="18.33" height="1.9"/><rect class="cls-20" x="113.74" y="182.36" width="18.63" height="1.9"/><rect class="cls-30" x="79.36" y="79.48" width="89.51" height="73.83"/><rect class="cls-31" x="168.87" y="79.48" width="4.75" height="73.83"/><rect class="cls-20" x="78.38" y="152.28" width="96.23" height="2.58"/><rect class="cls-32" x="77.44" y="152.28" width="92.24" height="2.58"/><rect class="cls-5" x="83.61" y="86.23" width="82.65" height="49.23"/><path class="cls-33" d="M88.81,84.53a2,2,0,1,1-2-2A2,2,0,0,1,88.81,84.53Z" transform="translate(0.76 4.86)"/><path class="cls-34" d="M88.33,84.53a2,2,0,1,1-2-2A2,2,0,0,1,88.33,84.53Z" transform="translate(0.76 4.86)"/><path class="cls-33" d="M162.61,84.53a2,2,0,1,1-2-2A2,2,0,0,1,162.61,84.53Z" transform="translate(0.76 4.86)"/><path class="cls-34" d="M162.13,84.53a2,2,0,1,1-2-2A2,2,0,0,1,162.13,84.53Z" transform="translate(0.76 4.86)"/><path class="cls-33" d="M91,131.26a2,2,0,1,1-2-2A2,2,0,0,1,91,131.26Z" transform="translate(0.76 4.86)"/><path class="cls-34" d="M90.48,131.26a2,2,0,1,1-2-2A2,2,0,0,1,90.48,131.26Z" transform="translate(0.76 4.86)"/><rect class="cls-35" x="92.27" y="149.71" width="8.43" height="2.57"/><rect class="cls-36" x="91.65" y="149.71" width="8.43" height="2.57"/><rect class="cls-37" x="90.83" y="149.63" width="0.78" height="2.65"/><rect class="cls-38" x="101.29" y="149.63" width="3.04" height="2.65"/><rect class="cls-37" x="100.43" y="149.63" width="3.04" height="2.65"/><path class="cls-39" d="M102.34,111.34a2.83,2.83,0,1,1-3.69,1.56,2.83,2.83,0,0,1,3.69-1.56Z" transform="translate(0.76 4.86)"/><path class="cls-40" d="M101.28,119a5,5,0,0,1,0-10.07,5.09,5.09,0,0,1,1.89.37,5,5,0,0,1-1.89,9.7Zm0-9.57a4.53,4.53,0,0,0-1.7,8.73,4.3,4.3,0,0,0,1.7.34,4.54,4.54,0,1,0,.42-9.07A2.94,2.94,0,0,0,101.28,109.43Z" transform="translate(0.76 4.86)"/><path class="cls-40" d="M116,125.39c-7.45,0-15.12-2.72-18.93-8.76l.41-.26c5.38,8.5,18.6,10.26,27.76,7,8.56-3,12.91-9.49,11.94-17.76l.49,0c1,8.38-3.6,15.22-12.26,18.28A28.44,28.44,0,0,1,116,125.39Z" transform="translate(0.76 4.86)"/><path class="cls-39" d="M135.19,105.23a1.08,1.08,0,1,1-.8,2,1,1,0,0,1-.62-1.27.42.42,0,0,1,0-.1,1.05,1.05,0,0,1,1.35-.64Z" transform="translate(0.76 4.86)"/><path class="cls-40" d="M134.79,109.12a2.86,2.86,0,0,1-1.09-.21,2.91,2.91,0,1,1,3.78-1.61h0A2.89,2.89,0,0,1,134.79,109.12Zm0-5.32a2.42,2.42,0,1,0,.9.18A2.33,2.33,0,0,0,134.79,103.8Z" transform="translate(0.76 4.86)"/><path class="cls-40" d="M135.57,109l-.12-.48c1.6-.4,2.75-3.07,3-6.79.34-6.45-2.31-14.53-9-17l.17-.46c6.88,2.58,9.63,10.89,9.27,17.51C138.68,105.77,137.41,108.54,135.57,109Z" transform="translate(0.76 4.86)"/><polygon class="cls-41" points="127.25 87.64 128.82 87.66 130.4 87.67 129.59 89.02 128.81 90.37 128.03 89.01 127.25 87.64"/><rect class="cls-42" x="144.85" y="96.98" width="18.08" height="0.68"/><rect class="cls-42" x="144.85" y="98.45" width="18.08" height="0.69"/><rect class="cls-42" x="144.85" y="99.92" width="18.08" height="0.68"/><rect class="cls-42" x="144.85" y="101.39" width="18.08" height="0.69"/><rect class="cls-42" x="144.85" y="102.85" width="18.08" height="0.68"/><rect class="cls-42" x="144.85" y="104.32" width="18.08" height="0.69"/><rect class="cls-42" x="144.85" y="105.79" width="18.08" height="0.68"/><rect class="cls-42" x="144.85" y="107.26" width="18.08" height="0.69"/><rect class="cls-42" x="144.85" y="108.73" width="18.08" height="0.68"/><rect class="cls-42" x="144.85" y="110.2" width="18.08" height="0.68"/><rect class="cls-42" x="144.85" y="111.66" width="18.08" height="0.68"/><rect class="cls-42" x="144.85" y="113.13" width="15.25" height="0.68"/><rect class="cls-42" x="144.85" y="116.07" width="18.08" height="0.68"/><rect class="cls-42" x="144.85" y="117.54" width="18.08" height="0.68"/><rect class="cls-42" x="144.85" y="119.01" width="18.08" height="0.68"/><rect class="cls-42" x="144.85" y="120.48" width="18.08" height="0.68"/><rect class="cls-42" x="144.85" y="121.94" width="18.08" height="0.68"/><rect class="cls-42" x="144.85" y="123.41" width="18.08" height="0.68"/><rect class="cls-42" x="144.85" y="124.88" width="18.08" height="0.68"/><rect class="cls-42" x="144.85" y="126.35" width="9.77" height="0.68"/><path class="cls-43" d="M99.7,107.77a2.31,2.31,0,0,1-.39.31,2.38,2.38,0,0,1-.45.23,2.9,2.9,0,0,1-.48.14h-.47a1.85,1.85,0,0,1-.47,0,1.21,1.21,0,0,1-.38-.18.85.85,0,0,1-.36-.73,1.2,1.2,0,0,1,.08-.42.92.92,0,0,1,.24-.35,1.33,1.33,0,0,1,.41-.25,1.72,1.72,0,0,1,.6-.1,1.09,1.09,0,0,1-.4-.07.75.75,0,0,1-.28-.18.56.56,0,0,1-.17-.26.87.87,0,0,1-.06-.32.77.77,0,0,1,.06-.3.57.57,0,0,1,.15-.23,1.37,1.37,0,0,1,.22-.19l.29-.13.32-.08h.33a2.83,2.83,0,0,1,.5,0,2.41,2.41,0,0,1,.42.16,1,1,0,0,1,.3.28.62.62,0,0,1,.11.37.43.43,0,0,1,0,.16l-.12.13a.51.51,0,0,1-.16.09h-.13v-.07a.54.54,0,0,1,0-.18,1.43,1.43,0,0,1,.07-.28l-.16-.09a1.34,1.34,0,0,0-.26-.09,1.5,1.5,0,0,0-.29-.06h-.59a.63.63,0,0,0-.23.08.43.43,0,0,0-.22.39.31.31,0,0,0,0,.19.26.26,0,0,0,.11.14A.42.42,0,0,0,98,106l.18.06.19.06a.58.58,0,0,1,.17.06.57.57,0,0,1,.13.08.25.25,0,0,1,.08.12.14.14,0,0,0,0,.09v.09a.25.25,0,0,1,0,.19.32.32,0,0,1-.17.06h-.3a1.82,1.82,0,0,0-.33,0,1,1,0,0,0-.29.13.64.64,0,0,0-.2.2.44.44,0,0,0-.08.29.57.57,0,0,0,0,.26.48.48,0,0,0,.12.16.56.56,0,0,0,.19.09.88.88,0,0,0,.23,0h.32a2,2,0,0,0,.33-.08l.32-.12.29-.15.24-.17a1.29,1.29,0,0,0,.16-.17Z" transform="translate(0.76 4.86)"/><path class="cls-43" d="M101.81,107.76l-.13.16a1.07,1.07,0,0,1-.19.18,1.28,1.28,0,0,1-.21.14.53.53,0,0,1-.24.06.32.32,0,0,1-.23-.09.9.9,0,0,1-.17-.26,1.36,1.36,0,0,1-.12.12l-.16.11a1.34,1.34,0,0,1,0-.4.57.57,0,0,0,.08-.13,1.18,1.18,0,0,0,.07-.2v-.16l.16-.7a.48.48,0,0,0-.17,0,.91.91,0,0,0-.16.11,4.17,4.17,0,0,1,0-.5.73.73,0,0,1,.3-.06H101v.39a2.38,2.38,0,0,1,0,.26.56.56,0,0,1-.06.29,1.31,1.31,0,0,0,0,.28.38.38,0,0,0,0,.15s0,.06.08.06H101l.1-.06.1-.08.1-.1a2.43,2.43,0,0,0,.2-.25Zm-1.48.43-.16.07h-.39a.43.43,0,0,1-.17-.12.76.76,0,0,1-.12-.19.53.53,0,0,1,0-.25.92.92,0,0,1,0-.33,1.78,1.78,0,0,1,.14-.36,1.68,1.68,0,0,1,.2-.34,1.31,1.31,0,0,1,.23-.24,1.24,1.24,0,0,1,.27-.17v.53a.76.76,0,0,0-.11.14,1.34,1.34,0,0,0-.12.24,1.17,1.17,0,0,0-.09.24.67.67,0,0,0,0,.2v.1a.14.14,0,0,0,0,.09v.07h.09a.2.2,0,0,0,.14-.06h0Z" transform="translate(0.76 4.86)"/><path class="cls-43" d="M101.64,107.85a.81.81,0,0,1,0-.22,1.13,1.13,0,0,1,0-.26,1.31,1.31,0,0,1,0-.28.59.59,0,0,1,.06-.31l.07-.27v-.18a.09.09,0,0,1,0-.07,0,0,0,0,1,0-.05h.17a.06.06,0,0,1,0,.06v.58a1,1,0,0,0,.12-.23,1.09,1.09,0,0,1,.14-.23.57.57,0,0,1,.16-.15.36.36,0,0,1,.2-.06h.15v.42a.49.49,0,0,0,0,.17v.11a.29.29,0,0,0,0,.13.11.11,0,0,0,0,.08H103l.18-.09.2-.14v.49l-.12.08-.15.08-.16.07a.54.54,0,0,1-.18,0,.39.39,0,0,1-.26-.07.35.35,0,0,1-.15-.17.49.49,0,0,1-.08-.23,1.13,1.13,0,0,1,0-.26l-.41,1-.06.14a.14.14,0,0,0,0,.09h-.13a.17.17,0,0,1-.14,0,.22.22,0,0,1-.09-.1.33.33,0,0,1,0-.14Z" transform="translate(0.76 4.86)"/><path class="cls-43" d="M105.22,107.82l-.36.2-.28.15-.22.09h-.07v-.46a.33.33,0,0,0,.14,0l.15,0,.16-.09.18-.11.16-.13a.93.93,0,0,0,.14-.14v.55Zm-.93-3.27a.31.31,0,0,1,.19-.06.26.26,0,0,1,.17.05.58.58,0,0,1,.13.14c0,.06,0,.13.08.19a1,1,0,0,1,0,.24v.21a.26.26,0,0,1-.08.23c-.08.07-.08.16-.13.24l-.14.24h.63a.06.06,0,0,1,.06,0,.21.21,0,0,1,0,.11.29.29,0,0,1,0,.13.14.14,0,0,1-.09,0h-.8v-.61l.13-.25c0-.08.07-.16.09-.23V105h0V105h-.07s-.07,0-.11.1v.06Zm0,3.73h-.11a.39.39,0,0,1-.28-.1.63.63,0,0,1-.2-.28,1.39,1.39,0,0,1-.13-.44,5.81,5.81,0,0,1,0-.59,1.22,1.22,0,0,1,0-.27v-.29H103a.06.06,0,0,1,0-.06h.6a2,2,0,0,1,.14-.55,3.26,3.26,0,0,1,.2-.48,1.12,1.12,0,0,1,.24-.33.27.27,0,0,1,.08-.07v.57a.21.21,0,0,1-.08.19c-.08.07-.06.21-.09.33l-.09.35h.13c0-.07.09-.14.13-.22v.61a.75.75,0,0,0-.14.17L104,107v.6a.17.17,0,0,0,0,.1.61.61,0,0,0,0,.19.22.22,0,0,0,.06.13.18.18,0,0,0,.1.07h.1Z" transform="translate(0.76 4.86)"/><path class="cls-43" d="M105.86,106.9l.12-.16.29-.31a1.81,1.81,0,0,1,.3-.25.35.35,0,0,1,.22-.08h.06a.11.11,0,0,1,0,.08.24.24,0,0,1,0,.12,1.31,1.31,0,0,1,0,.28,2.07,2.07,0,0,1-.15.34,1.14,1.14,0,0,0-.15.34.81.81,0,0,0,0,.31.33.33,0,0,0,0,.14h.29l.12-.08.1-.09a2.73,2.73,0,0,0,.23-.25v.57l-.09.07a.38.38,0,0,0-.13.09l-.15.09-.17.08-.17.07h-.16a.37.37,0,0,1-.21-.06.4.4,0,0,1-.14-.15.72.72,0,0,1-.09-.2.74.74,0,0,1,0-.21.38.38,0,0,1,0-.15v-.17a.51.51,0,0,1,.07-.17.16.16,0,0,1,.06-.15v-.1a0,0,0,0,1,0-.05.28.28,0,0,0-.17.11,1.12,1.12,0,0,0-.19.24.45.45,0,0,0-.1.14v-.47Zm0-2.57v.76a1.59,1.59,0,0,1,.15-.29c.07-.12.13-.18.16-.18s0,.06,0,.16a1.91,1.91,0,0,1-.06.33,2,2,0,0,1-.18.55l-.1.23v.87l0-.11c.07-.12.13-.24.2-.38s.12-.27.19-.41a3.61,3.61,0,0,0,.16-.42,2.64,2.64,0,0,0,.12-.4,2,2,0,0,0,0-.35v-.2a.29.29,0,0,0-.18-.24.31.31,0,0,0-.19,0A.67.67,0,0,0,105.86,104.33Zm-.07,2.66.07-.09v.47l-.12.18a2.71,2.71,0,0,0-.21.37.89.89,0,0,0-.08.17l-.06.11-.06.07h-.09a.11.11,0,0,1-.11,0,.15.15,0,0,1-.06-.1.33.33,0,0,1,0-.14V107a2,2,0,0,1,.06-.59l.09-.61a3.75,3.75,0,0,1,.13-.58,1.8,1.8,0,0,1,.22-.49,1,1,0,0,1,.29-.33v.75l-.11.24-.06.24a1,1,0,0,0,0,.25v.47a1.17,1.17,0,0,1-.07.49l.12-.29c0-.1.09-.21.14-.31l.1-.23v.81l-.11.2Z" transform="translate(0.76 4.86)"/><path class="cls-43" d="M127.11,102.46v.11a.16.16,0,0,1-.08.06h-.39l-.07-.06a.11.11,0,0,1,0-.08v-.16a.38.38,0,0,1,0-.15,2.07,2.07,0,0,1,.1-.46,1.82,1.82,0,0,1,.11-.4c0-.12.06-.24.08-.37V99.8h0v-.06h-.11a.56.56,0,0,0-.15.1.64.64,0,0,0-.15.13l-.14.18h-.06c0-.08,0-.09,0-.11a0,0,0,0,1,0-.05,1.85,1.85,0,0,1,.18-.44,1.05,1.05,0,0,1,.2-.27.86.86,0,0,1,.22-.15H127a.41.41,0,0,1,.22,0,.35.35,0,0,1,.13.14.57.57,0,0,1,.07.22,1.31,1.31,0,0,1,0,.28,1.31,1.31,0,0,1,0,.28v.34l-.06.35a1.67,1.67,0,0,1-.08.32,3.68,3.68,0,0,1,.16-.54,3,3,0,0,1,0-.52,2.38,2.38,0,0,1,.23-.41,1.59,1.59,0,0,1,.26-.32.86.86,0,0,1,.26-.2.5.5,0,0,1,.27-.07.28.28,0,0,1,.18,0,.35.35,0,0,1,.14.13.88.88,0,0,1,.1.22,1.82,1.82,0,0,1,0,.33v0a.11.11,0,0,0,0,.08.17.17,0,0,0,0,.1.21.21,0,0,0,0,.11v.28c.11-.22.17-.4.25-.57a1.94,1.94,0,0,1,.27-.43,1.23,1.23,0,0,1,.33-.26.65.65,0,0,1,.36-.1.4.4,0,0,1,.23.08.56.56,0,0,1,.16.21,1.54,1.54,0,0,1,.11.3,2.29,2.29,0,0,1,0,.37,2.41,2.41,0,0,1,0,.38.7.7,0,0,1-.08.4c-.08.13,0,.26-.07.39l-.06.36a.63.63,0,0,1,0,.31.81.81,0,0,0,0,.22.16.16,0,0,0,.13.18h.05a.17.17,0,0,0,.1,0l.11-.07.11-.1.1-.12.22-.31a.18.18,0,0,0,.07.17l.09.25a2.2,2.2,0,0,1-.21.32l-.23.21a1.34,1.34,0,0,1-.24.12,1,1,0,0,1-.24,0,.41.41,0,0,1-.22,0,.62.62,0,0,1-.19-.12.41.41,0,0,1-.14-.2.5.5,0,0,1,0-.27,2.29,2.29,0,0,1,0-.37l.06-.34L130,101a2.29,2.29,0,0,1,.07-.36l.06-.35a1.5,1.5,0,0,0,0-.3v-.31a.16.16,0,0,0-.06-.08.14.14,0,0,0-.09,0,.36.36,0,0,0-.23.08.8.8,0,0,0-.2.21,1.32,1.32,0,0,0-.18.33,2.9,2.9,0,0,0-.16.41,3.45,3.45,0,0,0-.12.46,2.43,2.43,0,0,1-.11.49,2.66,2.66,0,0,0-.1.49,1,1,0,0,1-.07.44.41.41,0,0,1,0,.09.23.23,0,0,1-.07.07h-.16a.14.14,0,0,1-.09,0l-.08,0v-.1a.29.29,0,0,1,0-.13.21.21,0,0,1,0-.19,1.8,1.8,0,0,1,.06-.32.83.83,0,0,1,.08-.42,1.5,1.5,0,0,0,.09-.46c0-.15.06-.3.08-.45a1.48,1.48,0,0,0,0-.42v-.41a.26.26,0,0,0-.07-.11h-.12a.2.2,0,0,0-.15.08l-.17.22a2.21,2.21,0,0,0-.18.34c-.07.13-.13.26-.2.41s-.12.3-.18.47a4,4,0,0,0-.15.49l-.12.48A1,1,0,0,0,127.11,102.46Z" transform="translate(0.76 4.86)"/><path class="cls-43" d="M132.35,101a1.17,1.17,0,0,1,.1.26,1.5,1.5,0,0,1,0,.3,1.13,1.13,0,0,1,0,.26,2.25,2.25,0,0,1-.08.24,1.71,1.71,0,0,1-.13.23.91.91,0,0,1-.17.17.57.57,0,0,1-.21.13h-.13v-.4a.26.26,0,0,0,.11-.07l.12-.18a2.76,2.76,0,0,0,.08-.27,1.31,1.31,0,0,0,0-.28v-.18l0-.15-.07-.1h-.21v-.41h.2a1.26,1.26,0,0,1,.38.06,1.41,1.41,0,0,1,.32.17,1.2,1.2,0,0,1,.29.26c.09.11.18.21.25.31v.29l-.15-.16-.21-.2-.22-.18-.18-.13Zm-.62,1.62h-.11a.72.72,0,0,1-.32-.08.73.73,0,0,1-.22-.21.79.79,0,0,1-.12-.3,1,1,0,0,1,0-.34,1.3,1.3,0,0,1,.07-.48.94.94,0,0,1,.2-.35.75.75,0,0,1,.32-.23.81.81,0,0,1,.22-.07V101h-.07a.62.62,0,0,0-.14.19,1.14,1.14,0,0,0-.09.26.81.81,0,0,0,0,.31.49.49,0,0,0,0,.17.29.29,0,0,0,0,.13.32.32,0,0,0,.1.1.33.33,0,0,0,.14,0,2.07,2.07,0,0,1,0,.5Z" transform="translate(0.76 4.86)"/><path class="cls-43" d="M134.18,101a1.14,1.14,0,0,1,.09.26,1.5,1.5,0,0,1,0,.3,1.13,1.13,0,0,1,0,.26,2.17,2.17,0,0,1-.07.24,1.71,1.71,0,0,1-.13.23,1.37,1.37,0,0,1-.17.17,1.2,1.2,0,0,1-.21.13h-.13v-.4a.26.26,0,0,0,.11-.07,1.08,1.08,0,0,0,.11-.18,1.43,1.43,0,0,0,.09-.27,1.31,1.31,0,0,0,0-.28v-.33a.39.39,0,0,0-.08-.1h-.2v-.41h.2a1.26,1.26,0,0,1,.38.06,1.41,1.41,0,0,1,.32.17,2.35,2.35,0,0,1,.29.26l.25.31v.29s-.1-.1-.16-.16l-.2-.2-.22-.18-.18-.13Zm-.62,1.62h-.08a.72.72,0,0,1-.32-.08.6.6,0,0,1-.21-.21.81.81,0,0,1-.13-.3,1.93,1.93,0,0,1,0-.34,1.59,1.59,0,0,1,.07-.48,1.13,1.13,0,0,1,.21-.35.79.79,0,0,1,.31-.23.88.88,0,0,1,.23-.07V101h-.08a.5.5,0,0,0-.13.19.64.64,0,0,0-.1.26,1.61,1.61,0,0,0,0,.31.49.49,0,0,0,0,.17.31.31,0,0,0,.06.13s.06.07.09.1a.38.38,0,0,0,.15,0,2.08,2.08,0,0,1-.07.5Z" transform="translate(0.76 4.86)"/><path class="cls-43" d="M134.71,102.23a1.82,1.82,0,0,1,0-.33v-.4a.8.8,0,0,1,.06-.39,1.09,1.09,0,0,1,.07-.3.38.38,0,0,1,.08-.17.28.28,0,0,1,.18-.06.17.17,0,0,1,.16.07.28.28,0,0,1,0,.18v.5a.29.29,0,0,0,0,.13v.06a.14.14,0,0,0,.09-.08l.06-.15a.53.53,0,0,1,.08-.17.13.13,0,0,1,.07-.14l.07-.13v-.08a.46.46,0,0,1,.16-.15.6.6,0,0,1,.19,0,.2.2,0,0,1,.17.09.5.5,0,0,1,.06.24v.81a.54.54,0,0,0,0,.18.74.74,0,0,0,0,.21.1.1,0,0,0,.11.09h.07l.09,0,.09-.07s.05,0,.14-.08l.41-.27v.48l-.11.08-.2.11-.33.17-.21.09h-.22c-.08,0-.14,0-.2-.17a1.18,1.18,0,0,1-.08-.49,1.22,1.22,0,0,1,0-.27v-.32a10,10,0,0,0-.59,1.1.27.27,0,0,1-.09.12.24.24,0,0,1-.12,0,.26.26,0,0,1-.23-.13.38.38,0,0,1,0-.15Z" transform="translate(0.76 4.86)"/></g></g></g></g></g></svg>