<svg xmlns="http://www.w3.org/2000/svg" viewBox="0 0 686.1 280.68"><defs><style>.cls-1,.cls-8{fill:#f0b700;}.cls-2{fill:#f1c966;}.cls-10,.cls-12,.cls-2,.cls-3,.cls-4,.cls-6,.cls-7,.cls-8,.cls-9{fill-rule:evenodd;}.cls-3{fill:#f4da8e;}.cls-4{fill:#f9e6b3;}.cls-12,.cls-5{fill:#a34018;}.cls-11,.cls-6{fill:#bc3e19;}.cls-7{fill:#ea8d00;}.cls-9{fill:#d16d16;}.cls-10{fill:#d57d12;}.cls-13{opacity:0.49;}</style></defs><g id="Layer_2" data-name="Layer 2"><g id="Ñëîé_1" data-name="Ñëîé 1"><rect class="cls-1" width="686.1" height="228.1"/><path class="cls-2" d="M686.1,95.47V228.1H0V96.38C78.72,49.19,203.44,18.69,343.82,18.69,483.29,18.69,607.3,48.8,686.1,95.47Z"/><path class="cls-3" d="M686.1,139.28V228.1H0V140.16C77.66,95.75,202.75,66.92,343.82,66.92,484,66.92,608.33,95.36,686.1,139.28Z"/><path class="cls-4" d="M686.1,186.57V228.1H0V187.6c62.53-42.35,193-71.49,343.82-71.49C493.41,116.11,623,144.78,686.1,186.57Z"/><rect class="cls-5" y="207.43" width="686.1" height="73.24"/><path class="cls-6" d="M643.45,219.54c-30.48,0-62.78-4.74-89.69,1.66,11.82,0,34.59-2.45,44.22,2.48,3.42,1.75,40.1,4.82,31.15,5.81-35.07,3.88-72.67,0-108.39,0-2.22,0-11.22,0-7.47,5,2.85,3.81-4.57,1.66-8.73,1.66-16,0-31.86-.83-48-.83-4.2,0-33.26,1.44-23.05-.83,4.87-1.08,9.75-3,15-3.31,9-.62,14.09-8,21.81-10L97.16,219.54c6,0,41.27,5,27.41,5-6.19,0-12.08,1.66-18.69,1.66-19.34,0-40.19-1.45-58.55,2.49-17.7,3.8-31.56,1.67-47.33.2v51.82H686.1V217.57C672,218.57,657.56,219.54,643.45,219.54Z"/><polygon class="cls-7" points="411.14 207.64 384.23 197.81 380.24 199.52 359.43 189.35 355.85 191.52 331.05 178.49 327.89 179.86 314.44 173.46 295.1 183.86 289.63 181.35 272.4 190.26 260.78 185.78 225.31 207.52 411.14 207.64"/><path class="cls-8" d="M290.06,181,272,190.22l-11.11-4.71-25,15.55,16.39-4,16.61,3.54-13-5.85,7.78-1.37,9.46,2.17-3.79-3.08,20.61,6.85-12.41-7.43,8-3.54,10.72,2.06-5.67-5a115.68,115.68,0,0,0,18.71,5.48Z"/><path class="cls-8" d="M315.28,173.35l12,6.4,4-1.6,24.38,12.92,4-1.94,18.29,9c-17.74-6.63-18.49-3.59-26.7-4.92l8.42,7.27c-11.41-6.66-19-6.32-25.74-5.84l10,7.6-22.7-14.17,6.72.68c-1.07-1.44-4.94-3.5-10.09-5.83l5.89.69Z"/><polygon class="cls-9" points="686.1 182.81 659.67 170.8 651.93 175.17 598.18 148.93 591.35 151.69 562.2 138.79 520.29 159.75 508.45 154.68 471.1 172.64 445.94 163.61 369.07 207.41 686.1 207.59 686.1 182.81"/><path class="cls-8" d="M509.36,153.9,471.1,172.56l-25-9.5-54.26,31.33,35.52-8,36,7.14-28.25-11.79L452,179l20.5,4.37-8.2-6.21L508.91,191,482,176l17.31-7.14L522.57,173l-12.3-10.13c11.91,4.5,25.7,8.05,40.54,11.05Z"/><path class="cls-8" d="M562.2,138.58l28.86,12.89,7.58-3.22,52.83,26,8.65-3.92,26,11.93v1.86c-25.5-7.46-28.8-3.19-44.19-5.5l18.24,14.64c-24.72-13.41-41.09-12.72-55.76-11.76L626,196.83l-49.19-28.55,14.58,1.38c-2.34-2.91-10.73-7-21.86-11.74l12.75,1.38Z"/><polygon class="cls-10" points="541.34 207.64 463.97 180.07 452.49 184.88 392.65 156.35 382.37 162.44 311.05 125.9 301.98 129.75 263.3 111.8 207.69 140.97 191.97 133.91 142.41 158.91 109.02 146.35 7.02 207.32 541.34 207.64"/><path class="cls-8" d="M193.18,132.83l-51.42,25.85-32.48-13.09-72,43.61L84.4,178.09,132.15,188l-37.49-16.4L117,167.77l27.2,6.09-10.88-8.65,59.24,19.23L156.92,163.6l23-9.93,30.83,5.76-16.32-14.1c15.8,6.26,34.1,11.19,53.8,15.39Z"/><path class="cls-8" d="M263.3,111.5l38.12,17.95L311.65,125l70.12,36.22,11.48-5.45,52.59,25.32c-51-18.59-53.15-10.06-76.77-13.78l24.22,20.37c-32.81-18.66-54.54-17.7-74-16.36l28.63,21.31-65.28-39.75L302,154.77c-3.1-4.06-14.23-9.82-29-16.35l16.92,1.92Z"/><rect class="cls-11" x="101.9" y="255.79" width="385.57" height="20.43"/><path class="cls-12" d="M668.91,261h-3.69l-2.2-2.13-4.27,4.38-2.2-2.13L654.36,259l-4.28,4.39-2.19-2.14-8.11-.12c-18.28-.39-36.89-1.44-54.42-1h-.28l-1.44,0-2.88.28-1.45,0h-.15l-1.45-.05-2.87.44-1.45-.05-.31,0-1.46-.08-2.84.67-1.46-.08-.76.08q-4.35.48-8.55,1.18c2.07,0,4.46-.05,7-.12l4.7-.12,1.45.45,2.87-1,1.46.45,1.44.49,2.89-1,1.44.49,2.16.39,4.35-.68,2.16.39c5.66.26,10.72.87,14.17,2.12s41.83,3.56,32.48,4.29c-13.68,1.07-27.73,1.34-41.91,1.26H592.9l-1.25,0h-1.09l-2.13-2-4.4,3.88-2.13-2-2.14-2-4.39,3.88-2.14-2-.51,0-1.39-2.12-3,4.11L567,269.38l-5.59-.15c-12.7-.32-25.36-.63-37.79-.63-2.31,0-11.7,0-7.8,3.67,3,2.81-4.76,1.23-9.09,1.23-16.7,0-33.25-.61-50-.61-4.38,0-34.69,1.06-24-.62,5.07-.79,10.17-2.18,15.6-2.45,9.42-.45,14.69-5.9,22.74-7.35l-74.24-.23h-4.33L390.21,260l-4.34,4.4-2.16-2.21L381.55,260l-4.35,4.39L375,262.17h-.45L373.15,260l-2.9,4.39-1.44-2.2-5.56,0-197-.62H162L160.58,260l-2.9,3-1.44-1.53L154.8,260l-2.9,3-1.44-1.53L149,259.94l-2.9,3-1.44-1.52-2.16-1.4-4.34,2.76L136,261.42l-2.17-1.4-4.34,2.77-2.16-1.4-45.64-.14c6.27,0,43.06,3.67,28.6,3.67-6.47,0-12.61,1.23-19.5,1.23-20.18,0-41.93-1.08-61.08,1.84l-1.91.27-1.22.14-.61.07-.62.07-.61.07h-.09l-.61.07-.48.06-2.33-2-4,4.61-2.33-2-2.2-2.13-4.26,4.4-2.2-2.14-5.56-.14-.72,0v11.3H686.1v-20.4c-5.51.26-11.05.49-16.57.66Z"/><g class="cls-13"><path class="cls-3" d="M0,22.06H13.57c8.23,0,13.81-1.85,22.43-1.19,5.23.4,21.5,3.87,26.91,1.19,12.85-.79,25.48-1.84,37.67-.6,6.68.68,21,6.41,27.81,3,15.18-7.72,28.28,5.4,42.16,5.93,24.53.94,41.83-1,67.27,2.38,25,1.24,56.13-2,78.94,2.37,19.46,3.72,36.49,4.15,57.41,4.15-26.1,11.1-68.38-.43-99.57,4.16C264.1,45,246.36,46.29,236,44c-17.22-3.8-26.91,3.16-39.47,5.93-16.49,0-30.6-2.37-46.64-2.37-14.36,0-29.75,3-45.75,3-13.64,0-19.23-2.49-33.19.59,26-2.58,58.72,7.12,87,7.12,21.75,0,40.07,2.37,60.1,2.37-35,11.95-84.67-1.45-124.68,5.34C69.41,70,30.88,69.79,0,69.6Z"/></g><g class="cls-13"><path class="cls-4" d="M686.1,58.25H667.42c-6.24,0-10.42,3.56-15.93,3.56-11.17,0-20.91-2.38-31.27-2.38-7.82,0-16,4.75-23.6,4.75-22.83,0-45-2.29-65.5,4.15-8.29,2.61-22.06-6.52-33-6.52C491.86,61.81,486.26,66,478,66c-74.74,0-147.08,8.9-221.27,8.9,6.54,9.34,7.44,4.75,15.93,4.75,5.3,0,8.07,3.56,11.8,3.56,8.61,0,39.25-3.93,43.66-.6,27.25,1.91,52.59,0,79.07,0,7.64,0,11.85,7.39,18.88,8.31,15.27,2,40.17.59,56.65.59,11.3,0,23.59-.52,34.22,2.37C533,98.22,538.67,87,555.9,95.62c5.91,3,36.61,1.69,37.29,5.15-10.85-1.78-27.82,5.53-40.83,5.53-18.39,0-32.71,4.75-47.79,4.75-10.6,0-22.35-1.78-33-1.78-8.74,0-12.51,3.56-19.48,3.56,11.46.64,25.22,6.53,34.82,6.53,3.91,0,17.57-3.56,18.88-3,8.75,3.94,20.37,7.76,28.32,3.56,6.77-3.58,14.11,0,21.83,0,12.26,0,20.51-1.7,32.45-.59,10.46,1,21.31,5.09,31.87,2.37,9.62-2.48,19.09,5.47,24.78,1.19,4-1.49,13.1-3.09,17.7-1.78,3.43,1,6.38,3.84,10,4.15,2.56.21,7.93.36,13.37.88Z"/></g></g></g></svg>