<svg xmlns="http://www.w3.org/2000/svg" viewBox="0 0 57.77 79.27"><defs><style>.cls-1{fill:#f4af72;}.cls-1,.cls-10,.cls-11,.cls-12,.cls-13,.cls-14,.cls-15,.cls-16,.cls-17,.cls-18,.cls-19,.cls-2,.cls-20,.cls-21,.cls-22,.cls-3,.cls-4,.cls-5,.cls-6,.cls-7,.cls-8,.cls-9{fill-rule:evenodd;}.cls-2{fill:#f7bd8e;}.cls-3{fill:#6d6763;}.cls-4{fill:#293537;}.cls-5{fill:#1a1b1c;}.cls-6{fill:#2d3c3e;}.cls-7{fill:#3c3b39;}.cls-8{fill:#edeeee;}.cls-9{fill:#cac9c9;}.cls-10{fill:#b2a19e;}.cls-11{fill:#dfdcd9;}.cls-12{fill:#e3061b;}.cls-13{fill:#de0c15;}.cls-14{fill:#f9efee;}.cls-15{fill:#294646;}.cls-16{fill:#ed7857;}.cls-17{fill:#412b2b;}.cls-18{fill:#4d2e2e;}.cls-19{fill:#fff;}.cls-20{fill:#663827;}.cls-21{fill:#ed7657;}.cls-22{fill:#ac3a19;}</style></defs><g id="Layer_2" data-name="Layer 2"><g id="_2" data-name="2"><path class="cls-1" d="M52.11,14.49l.79-.24c.68.66,1.82.25,3.07-.88.09-.08.56-2.36.56-2.36a9.25,9.25,0,0,1-.92-.65A10.47,10.47,0,0,0,54,9.85a1.63,1.63,0,0,0-1.56.38c-.67.47-1,1.75-1.38,2.23s.48,1.73.54,1.84.55.08.56.19Z"/><path class="cls-1" d="M54.49,9.9a.54.54,0,0,0,.47,1l2.41-1.39c.27-.13.49-.26.36-.54s-.44-.18-.71,0Z"/><path class="cls-2" d="M56.54,11.63c.14-.08.13-.35,0-.62s-.37-.41-.52-.33l-1.19.9c-.14.08-.25.17-.11.43s.32.23.46.16Z"/><path class="cls-2" d="M53.68,9.68c-.16,0-.27.24-.35.53s0,.56.13.6L55,11c.15,0,.29.06.37-.23s-.06-.39-.22-.43Z"/><path class="cls-2" d="M56.91,12.58c.15-.08.14-.36,0-.62s-.38-.41-.52-.34l-1.2.91c-.14.08-.25.17-.1.43a.3.3,0,0,0,.46.15Z"/><path class="cls-2" d="M56.82,13.4a.34.34,0,0,0,.07-.47.35.35,0,0,0-.44-.19l-1.23.85c-.14.08-.25.16-.15.34s.27.14.41.06Z"/><path class="cls-2" d="M53.46,10.81l-.39.8s-.11.81-.15.91c-.19.5-1.21.74-1.21.74l-.75,0-.07-.65s.19-.29.39-.54.43-1.25.74-1.55,1.45-1,1.66-.88a2.19,2.19,0,0,1,.43.77Z"/><path class="cls-3" d="M34.85,71.58,34.52,74s-2.28.14-2.33-.12a21.88,21.88,0,0,1,.43-2.56Z"/><path class="cls-3" d="M24.88,71.58,24.55,74s-2.28.14-2.33-.12a24.21,24.21,0,0,1,.43-2.56Z"/><path class="cls-4" d="M36.83,38.65s4.65,5.42,4.31,18c-.16,5.68-4.83,15.86-4.83,15.86l-5,0s4.4-8.29,4.75-14.9a20.66,20.66,0,0,0-3.24-12.24c-.42-.28-3.86,0-3.86,0s-.17,6.17-.83,12.46c-.74,7.09-2,14.41-2,14.59-.07.35-4.84.08-4.84.08a133.63,133.63,0,0,0,2.07-14.81c.66-8.3.46-17.32.42-18.75-.07-2.77,13.08-.28,13.08-.28Z"/><path class="cls-5" d="M32.88,45.35a.87.87,0,0,0-.28-.08,8.55,8.55,0,0,1,2.51.08,20.58,20.58,0,0,1,3.24,12.24c-.36,6.62-4.74,14.9-4.74,14.9H31.38s4.39-8.28,4.75-14.9a20.62,20.62,0,0,0-3.25-12.24Z"/><path class="cls-5" d="M23.19,58.89c.12-3,.58-16.36.65-18.28l-.13-1.27,13.12-.69,1.34,2.62-11.53.55c0,4.2-.05,10.84-.35,13.61-.47,4.47-2.9,17.16-2.9,17.16l-2.14-.11s1.8-10.34,1.94-13.59Z"/><path class="cls-6" d="M30.53,17.86s7.45-.52,9.11-.76c0-.14,2.83,3.35,2.28,3.82-1.68,1.45-5.54,1.72-7.61,1.76-.8-.94-1.32-1.54-1.33-1.57s-.9-2.91-.9-2.91a3.79,3.79,0,0,0-1.54-.34Z"/><path class="cls-6" d="M53.12,15.18l-2.54-3.31c.7-.64-6,4.58-9.06,5-2.9.4-4.45.48-4.45.48S36,19,38.73,20.88c1.12,2.59,6.54-.93,9-2.31s5.38-3.39,5.38-3.39Z"/><path class="cls-7" d="M41.32,76.55c1.39,1.12.76,2.24.76,2.24a14.63,14.63,0,0,1-3.59.48A13.09,13.09,0,0,1,33.87,78l.06.63H31.07a4.41,4.41,0,0,1-.22-2.79,5.84,5.84,0,0,1,1.08-2.19,14.07,14.07,0,0,0,2.52.23c.45-.12,2.17,1.61,3,2s2.93-.07,3.83.66Z"/><path class="cls-5" d="M40.57,79.1a12.34,12.34,0,0,1-2.08.17A13.09,13.09,0,0,1,33.87,78l.06.63H32.56l-.28-.13,0,.13H31.07a4.41,4.41,0,0,1-.22-2.79,7.79,7.79,0,0,1,.63-1.53,6.09,6.09,0,0,0,1.39.07c.45-.11,2.16,1.62,3,2s2.93-.07,3.83.66a1.87,1.87,0,0,1,.83,2Z"/><path class="cls-7" d="M31.38,76.55c1.39,1.12.76,2.24.76,2.24a14.63,14.63,0,0,1-3.59.48A13.09,13.09,0,0,1,23.93,78l.06.63H21.13a4.49,4.49,0,0,1-.22-2.79A5.84,5.84,0,0,1,22,73.68a14.07,14.07,0,0,0,2.52.23c.45-.12,2.17,1.61,3,2s2.93-.07,3.83.66Z"/><path class="cls-5" d="M30.37,79.14a11.72,11.72,0,0,1-1.82.13A13.09,13.09,0,0,1,23.93,78l.06.63H21.13a4.49,4.49,0,0,1-.22-2.79,7.38,7.38,0,0,1,.56-1.39,7.47,7.47,0,0,0,1.6.25c.45-.08,2,1.81,2.84,2.25s2.92.2,3.75,1a2.27,2.27,0,0,1,.71,1.15Z"/><path class="cls-8" d="M2.84,38l33.88,13-1.6,4.16L1.24,42.19C-1.08,41.3.08,37,2.84,38Z"/><path class="cls-8" d="M3.34,38.23,36.72,51.08l-1.6,4.16L1.85,42.42C.84,41.14,1.62,38.46,3.34,38.23Z"/><path class="cls-9" d="M36.72,51.08A2.23,2.23,0,1,0,38,54,2.22,2.22,0,0,0,36.72,51.08Z"/><path class="cls-8" d="M2.84,38l33.88,13-1.6,4.16L1.24,42.19C-1.08,41.3.08,37,2.84,38Z"/><path class="cls-8" d="M3.34,38.23,36.72,51.08l-1.6,4.16L1.85,42.42C.84,41.14,1.62,38.46,3.34,38.23Z"/><path class="cls-9" d="M36.72,51.08A2.23,2.23,0,1,0,38,54,2.22,2.22,0,0,0,36.72,51.08Z"/><path class="cls-2" d="M17,45.87a11.88,11.88,0,0,0,.27,1.7,21.43,21.43,0,0,0,2.68,1.32A6,6,0,0,0,20.14,47a10.36,10.36,0,0,0-.5-2.47c-.26-.7-1.81,0-1.94,0A2.44,2.44,0,0,0,17,45.87Z"/><path class="cls-2" d="M20.16,47.31a.51.51,0,0,0-.47-.55.51.51,0,0,0-.55.47l0,2.62c0,.28,0,.53.27.55s.35-.28.37-.56Z"/><path class="cls-2" d="M19.39,47.26a.53.53,0,0,0-.49-.56.52.52,0,0,0-.56.49v2.7c0,.3,0,.55.28.57s.37-.28.39-.58Z"/><path class="cls-2" d="M18.7,47a.51.51,0,1,0-1-.07v2.62c0,.28,0,.53.27.55s.36-.28.38-.56Z"/><path class="cls-2" d="M18,46.63a.46.46,0,0,0-.37-.53c-.22,0-.41.2-.44.48l0,2.61c0,.28,0,.52.2.54s.29-.29.31-.57Z"/><path class="cls-2" d="M18.38,45.63c-.49-.06-.86-.38-.82-.72l.28-2.22c0-.34.47-.57,1-.51s.86.39.81.73l-.27,2.22C19.31,45.47,18.88,45.69,18.38,45.63Z"/><path class="cls-2" d="M19.55,46.77a2.19,2.19,0,0,0,.84.11c.25-.05.45,0,.55-.53,0,0,0-.65-.36-.87C18.8,44.16,19.37,46.23,19.55,46.77Z"/><path class="cls-2" d="M21.25,48.21s-.56-.12-.9-1.2c-.07-.22.59-.24.35-1.42.18.19.15.28.36,1.23S21.68,48.44,21.25,48.21Z"/><path class="cls-5" d="M25.24,22.24c-4,7.23-4.81,22.24-4.78,22.32s-3.22.59-3.57,0c-1.28-2.34,2.89-22.37,3.76-24.64a.5.5,0,0,1,.05-.13c0,.38,0,.59,0,.58s2.59,1,4.52,1.91Z"/><path class="cls-6" d="M16.74,44.35c-.4-2.22,1-15.58,3.91-24.47a1.64,1.64,0,0,1,1.26-1,13.82,13.82,0,0,1,3,.3s-4.43,9.25-6.48,25.6C18.47,44.84,16.84,44.85,16.74,44.35Z"/><path class="cls-10" d="M17.11,43.73a.44.44,0,1,0,.44-.44.45.45,0,0,0-.44.44Z"/><path class="cls-6" d="M20.73,19.71a36.59,36.59,0,0,1,2.21,6.17c.31,2,.52,13.39.52,13.39a75.9,75.9,0,0,0,8.14.17,22.85,22.85,0,0,0,5.64-.82s-2.91-15.78-2.91-15.89.7-3,.7-3-1.42-2.35-6.65-2.42-7.76,2.27-7.65,2.37Z"/><path class="cls-11" d="M31,17.62,29.94,28.68,24.78,17.79A9.73,9.73,0,0,1,28,17.16a10.43,10.43,0,0,1,3,.46Z"/><path class="cls-12" d="M29.94,28.68l.29-2.53-.85-4.38s-.09.25-.73.25-.79-.2-.79-.2L28.15,25Z"/><path class="cls-1" d="M26.71,19a1.48,1.48,0,0,0,1.77,1.08,1.49,1.49,0,0,0,1.46-1.47l-.24-2a1.49,1.49,0,0,0-1.77-1.07A1.47,1.47,0,0,0,26.47,17Z"/><path class="cls-13" d="M29.77,20.35l-1.33-.27-1.32.14.74,1.6.22.22a.75.75,0,0,0,1.1,0l.2-.23Z"/><path class="cls-14" d="M28.48,20.09a13.62,13.62,0,0,0-1.75,2.46c-.06.49-1.88-4.77-1.88-4.77a9.47,9.47,0,0,1,1.63-.63,8.18,8.18,0,0,0,2,2.94Z"/><path class="cls-14" d="M28.44,20.08s1.95,1.23,2.11,1.69.15-4.28.15-4.28-.92-.33-.92-.22a7.8,7.8,0,0,1-1.34,2.81Z"/><path class="cls-15" d="M29.77,28.35l-6.39-8.19,1.55-.31a24.28,24.28,0,0,1-2.63-1,21.44,21.44,0,0,1,3-1.31Z"/><polygon class="cls-15" points="30 28.66 33.09 19.9 31.53 19.59 33.45 18.63 30.75 17.53 30 28.66"/><path class="cls-10" d="M29.57,30.8a.44.44,0,0,0,.44.44.44.44,0,0,0,.44-.44.44.44,0,0,0-.44-.44.43.43,0,0,0-.44.44Z"/><path class="cls-10" d="M29.88,33.18a.43.43,0,0,0,.44.44.44.44,0,0,0,.44-.44.44.44,0,0,0-.44-.44.44.44,0,0,0-.44.44Z"/><path class="cls-10" d="M30.08,35.67a.45.45,0,0,0,.89,0,.45.45,0,0,0-.89,0Z"/><path class="cls-10" d="M30.39,38a.45.45,0,1,0,.89,0,.45.45,0,0,0-.89,0Z"/><path class="cls-2" d="M19.58,10.55a1.44,1.44,0,0,0,1.24,1.61c.78.09,2.2-.2,2.3-1s-1.18-1.81-2-1.9a1.44,1.44,0,0,0-1.58,1.28Z"/><path class="cls-2" d="M21.66,10.41c.33,3.57,3.4,6.94,7.09,6.84s6.4-3.63,6.3-7.22-1-7.34-4.71-7.24-9.45-.59-8.68,7.62Z"/><path class="cls-1" d="M23.22,3.47c-.65,1.11-.39,3.56-.17,5.92.34,3.57,3.11,7.25,6.8,7a7.22,7.22,0,0,0,3.59-1.5,6.26,6.26,0,0,1-4.68,2.51c-3.7.1-6.76-3.26-7.1-6.84-.45-4.8-.74-6.42,1.56-7.07Z"/><path class="cls-16" d="M21.18,11.66a.27.27,0,1,0-.16-.51.43.43,0,0,1-.3-.81.26.26,0,0,0,.15-.35.28.28,0,0,0-.36-.15,1,1,0,0,0,.4,1.87A.86.86,0,0,0,21.18,11.66Z"/><path class="cls-17" d="M25.75,9.73a.32.32,0,0,1-.17,0,.28.28,0,0,1-.19-.34,1.79,1.79,0,0,1,2.19-1.24.27.27,0,0,1-.14.53,1.23,1.23,0,0,0-1.52.86.28.28,0,0,1-.17.18Zm8.07-.63A.28.28,0,0,1,33.5,9a1.25,1.25,0,0,0-1.7-.41.25.25,0,0,1-.37-.09.26.26,0,0,1,.09-.37A1.79,1.79,0,0,1,34,8.69a.29.29,0,0,1-.1.38Z"/><path class="cls-18" d="M26.35,10.52c0,.47.29.84.59.82s.53-.41.51-.88-.29-.84-.6-.83S26.33,10,26.35,10.52Z"/><path class="cls-19" d="M26.85,10.13c0,.14.09.25.2.25a.24.24,0,0,0,.17-.27c0-.14-.1-.25-.2-.24S26.84,10,26.85,10.13Z"/><path class="cls-16" d="M29.93,12.46l-.14,0a1,1,0,0,1-.81-.21.28.28,0,0,1,0-.38.28.28,0,0,1,.39,0,.42.42,0,0,0,.69-.4.28.28,0,0,1,.23-.31.29.29,0,0,1,.32.23A1,1,0,0,1,29.93,12.46Z"/><path class="cls-20" d="M21.5,2.9C27.19-3,37.31.56,35.12,9.31c0,0-.83-3.72-3.5-3.52-.74-.22-1.71.43-3.64,0-.83-.2-3.36-.48-4.37.24.49.54,0,2.4,0,2.61-.38,1.88-1.78.12-1.49,3.36,0,.36-.95-1.79-1.33-2.26s-.67-.36-.67-.36S19.29,5.19,21.5,2.9Z"/><path class="cls-21" d="M32.13,13.27c-2.51,1.24-3.56,0-3.92.59s-.15,2.12,1,1.8S31.27,14,32.13,13.27Z"/><path class="cls-19" d="M30.71,13.77a4.94,4.94,0,0,1-.8.35,4.48,4.48,0,0,1-1.83.28.83.83,0,0,1,.13-.54C28.49,13.41,29.2,14.07,30.71,13.77Z"/><path class="cls-18" d="M32.05,9.71c0,.48.29.85.59.83s.53-.41.51-.88-.3-.84-.6-.83S32,9.24,32.05,9.71Z"/><path class="cls-19" d="M32.55,9.33a.23.23,0,0,0,.2.25c.1,0,.17-.13.17-.27s-.1-.25-.2-.25S32.54,9.19,32.55,9.33Z"/><path class="cls-22" d="M23.35,3.65C28,4.89,30.15,1.4,34.11,5.27,31.32,3.4,27.75,5.81,23.35,3.65Z"/></g></g></svg>