<svg xmlns="http://www.w3.org/2000/svg" viewBox="0 0 112.06 72.2"><defs><style>.cls-1,.cls-2{fill:#32517a;}.cls-1,.cls-12,.cls-13,.cls-14,.cls-15,.cls-17,.cls-19,.cls-20,.cls-21,.cls-22,.cls-23,.cls-3,.cls-5,.cls-8,.cls-9{fill-rule:evenodd;}.cls-3,.cls-4{fill:#ebf0f4;}.cls-11,.cls-5{fill:#9ab2c8;}.cls-6,.cls-8{fill:#f0b700;}.cls-15,.cls-7{fill:#803820;}.cls-10,.cls-9{fill:#bc3e19;}.cls-12{fill:#f7b80b;}.cls-13{fill:#b1cadb;}.cls-14{fill:#a5421f;}.cls-16,.cls-17{fill:#ea8d00;}.cls-18,.cls-22{fill:#fff;}.cls-19{fill:#de5713;}.cls-20{fill:#ef8500;}.cls-21{fill:#f5af00;}.cls-23{fill:#d16d16;}</style></defs><g id="Layer_2" data-name="Layer 2"><g id="_2" data-name="2"><path class="cls-1" d="M21.49,19.22a.27.27,0,0,1,.28.28V38.78a.27.27,0,0,1-.28.28.28.28,0,0,1-.28-.28V19.5A.28.28,0,0,1,21.49,19.22Z"/><rect class="cls-2" x="60.73" y="38.54" width="29.65" height="0.62"/><polygon class="cls-3" points="60.73 38.54 89.35 38.54 109.09 0 80.47 0 60.73 38.54"/><polygon class="cls-1" points="62.19 37.76 88.69 37.76 107.63 0.79 81.13 0.79 62.19 37.76"/><polygon class="cls-4" points="64.56 38.15 64.27 38 83.67 0.31 83.96 0.45 64.56 38.15"/><rect class="cls-4" x="55.96" y="19.1" width="42.34" height="0.32" transform="translate(24.77 79.08) rotate(-62.83)"/><polygon class="cls-4" points="70.61 38.18 70.32 38.03 89.68 0.42 89.97 0.57 70.61 38.18"/><path class="cls-4" d="M73.64,38.2l-.29-.15,0-.07L92.65.54l0-.06L93,.63Z"/><polygon class="cls-4" points="76.66 38.22 76.37 38.07 95.69 0.54 95.98 0.69 76.66 38.22"/><rect class="cls-4" x="68.11" y="19.25" width="42.16" height="0.32" transform="translate(31.19 89.89) rotate(-62.83)"/><polygon class="cls-4" points="82.71 38.25 82.42 38.1 101.69 0.65 101.98 0.8 82.71 38.25"/><rect class="cls-4" x="74.18" y="19.33" width="42.07" height="0.32" transform="translate(34.38 95.29) rotate(-62.82)"/><rect class="cls-4" x="80.05" y="2.73" width="26.93" height="0.32"/><rect class="cls-4" x="78.84" y="5.04" width="26.93" height="0.32"/><rect class="cls-4" x="77.64" y="7.36" width="26.93" height="0.32"/><rect class="cls-4" x="76.43" y="9.68" width="26.93" height="0.32"/><rect class="cls-4" x="75.22" y="11.99" width="26.93" height="0.32"/><rect class="cls-4" x="74.02" y="14.31" width="26.93" height="0.32"/><rect class="cls-4" x="72.81" y="16.63" width="26.93" height="0.32"/><rect class="cls-4" x="71.6" y="18.94" width="26.93" height="0.32"/><rect class="cls-4" x="70.4" y="21.26" width="26.93" height="0.32"/><rect class="cls-4" x="69.19" y="23.58" width="26.93" height="0.32"/><rect class="cls-4" x="67.99" y="25.89" width="26.93" height="0.32"/><rect class="cls-4" x="66.78" y="28.21" width="26.93" height="0.32"/><rect class="cls-4" x="65.57" y="30.53" width="26.93" height="0.32"/><rect class="cls-4" x="64.37" y="32.84" width="26.93" height="0.32"/><rect class="cls-4" x="63.16" y="35.16" width="26.93" height="0.32"/><path class="cls-3" d="M66.5,28.42v1.23a.28.28,0,0,0,.3.26h3a.29.29,0,0,0,.3-.27V28.42a.29.29,0,0,0-.3-.27h-3A.28.28,0,0,0,66.5,28.42Z"/><path class="cls-3" d="M68.5,27.39a.82.82,0,0,0,.94.68l4.07-.63,5.26,2.21L73.36,31l-4-1a.82.82,0,0,0-1,.6.83.83,0,0,0,.61,1c1.6.39,3.21.79,4.83,1.17l5-2.6v-.7l.06.09.08-.51L74.1,25.7l-4.92.75A.82.82,0,0,0,68.5,27.39Z"/><path class="cls-5" d="M67.13,28.53h3a.29.29,0,0,1,.3.26V30a.29.29,0,0,1-.31.27h-3a.29.29,0,0,1-.3-.27V28.79A.28.28,0,0,1,67.13,28.53Z"/><path class="cls-5" d="M69.29,32a.82.82,0,0,1,.39-1.6l4,1,5.14-1.56,0,.52-4.74,2.82Z"/><path class="cls-5" d="M69.51,26.82a.82.82,0,0,0,.25,1.62l4.07-.63,5,2,.08-.51-4.48-3.22Z"/><path class="cls-1" d="M69.6,27.17a.44.44,0,1,1,0,.87.43.43,0,0,1-.43-.43A.44.44,0,0,1,69.6,27.17Z"/><path class="cls-1" d="M69.6,30.69a.44.44,0,0,1,.44.43.44.44,0,1,1-.88,0A.44.44,0,0,1,69.6,30.69Z"/><rect class="cls-6" x="38.46" y="24.84" width="2.66" height="3.82" rx="0.62"/><path class="cls-7" d="M34.3,29a.66.66,0,0,1-.48-.22.65.65,0,0,1-.06-.74c.93-1.56,2.74-2.35,5.37-2.35a.63.63,0,0,1,.62.51.62.62,0,0,1-.36.7L34.55,29A.74.74,0,0,1,34.3,29Z"/><path class="cls-8" d="M65.82,25H64c-.37,0-1.32,2-1.32,2.42v4a1.9,1.9,0,0,0,1.71,2h.41a1.9,1.9,0,0,0,1.71-2v-4C66.5,27,66.2,25,65.82,25Z"/><rect class="cls-2" x="51.09" y="27.84" width="12.12" height="3.25"/><path class="cls-9" d="M66.15,25h-1.3c-.37,0-1.17,2.13-1.17,2.58v3.84a1.9,1.9,0,0,0,1.72,2h.41a1.9,1.9,0,0,0,1.71-2V27.61C67.52,27.16,66.52,25,66.15,25Z"/><rect class="cls-2" x="37.28" y="33.16" width="1.24" height="8.57"/><path class="cls-8" d="M31.41,27.51H54V28.9c0,1.68-1.37,2.41-3,2.41H36.9c-1.58,0-2.88,1.82-3,3.38l-.69,6.63L25,39.79l3.47-10.21A3,3,0,0,1,31.41,27.51Z"/><path class="cls-9" d="M34.14,27.51H56.78V28.9A3.06,3.06,0,0,1,53.72,32H37.88a3,3,0,0,0-3,2.74l-.68,6.63-6.39-1.53,3.48-10.21A3,3,0,0,1,34.14,27.51Z"/><path class="cls-9" d="M50.25,25.62H65.16V27H50.25c-.16,0-.3-.25-.3-.57v-.25C50,25.88,50.09,25.62,50.25,25.62Z"/><path class="cls-8" d="M50.25,25.62H65.16v1.11H50.25c-.16,0-.3-.25-.3-.55S50.09,25.62,50.25,25.62Z"/><path class="cls-8" d="M65.35,27.34c.39,0,.7-.46.7-1s-.31-1-.7-1-.7.46-.7,1S65,27.34,65.35,27.34Z"/><path class="cls-8" d="M54.14,30.41a.93.93,0,1,0-.73-.91A.83.83,0,0,0,54.14,30.41Z"/><path class="cls-9" d="M54.31,30.53a.79.79,0,0,0,.68-.86.7.7,0,1,0-1.36,0A.79.79,0,0,0,54.31,30.53Z"/><path class="cls-9" d="M65.35,26.59c.1,0,.19-.12.19-.27s-.09-.28-.19-.28-.19.13-.19.28S65.25,26.59,65.35,26.59Z"/><path class="cls-8" d="M33.25,33.15a.93.93,0,1,0-.73-.91A.83.83,0,0,0,33.25,33.15Z"/><path class="cls-9" d="M33.42,33.27a.79.79,0,0,0,.69-.86.7.7,0,1,0-1.37,0A.79.79,0,0,0,33.42,33.27Z"/><path class="cls-8" d="M38,31.44a.93.93,0,1,0-.73-.91A.83.83,0,0,0,38,31.44Z"/><path class="cls-9" d="M38.2,31.55a.78.78,0,0,0,.69-.85.7.7,0,1,0-1.37,0A.78.78,0,0,0,38.2,31.55Z"/><rect class="cls-10" x="36.37" y="31.38" width="3.05" height="1.86" rx="0.63"/><rect class="cls-10" x="39.79" y="24.84" width="2.66" height="3.82" rx="0.62"/><path class="cls-5" d="M50.6,26H42.44v.73H50.6a.29.29,0,0,0,.3-.3v-.13A.3.3,0,0,0,50.6,26Z"/><rect class="cls-11" x="37.45" y="33.52" width="0.64" height="8.22"/><path class="cls-12" d="M65.58,27.76a1.51,1.51,0,0,1,1.28,1.67,1.34,1.34,0,1,1-2.6-.06A1.47,1.47,0,0,1,65.58,27.76Z"/><path class="cls-9" d="M66.78,28.65a2,2,0,0,1,.16.83,1.54,1.54,0,0,1-1.37,1.67,1.27,1.27,0,0,1-1-.68,2.23,2.23,0,0,1-.16-.83A1.54,1.54,0,0,1,65.73,28,1.27,1.27,0,0,1,66.78,28.65Z"/><path class="cls-12" d="M65.57,28.51a.82.82,0,0,1,.69.91.81.81,0,0,1-.71.87.92.92,0,0,1,0-1.78Z"/><path class="cls-9" d="M66.18,28.91a1.11,1.11,0,0,1,.14.56.84.84,0,0,1-.74.9.66.66,0,0,1-.43-.2,1.11,1.11,0,0,1-.14-.56.84.84,0,0,1,.74-.9A.66.66,0,0,1,66.18,28.91Z"/><path class="cls-13" d="M56,72.2c30.86,0,56-.68,56-1.52s-25.17-1.53-56-1.53S0,69.84,0,70.68,25.17,72.2,56,72.2Z"/><path class="cls-14" d="M22.14,56.24a2.09,2.09,0,0,0-.5,0c-2.28.22-4.08,3.32-4.08,7.12s1.8,6.89,4.07,7.12h6.79V56.24Z"/><path class="cls-15" d="M28.42,70.49c2.39,0,4.33-3.2,4.33-7.13s-1.94-7.13-4.33-7.13-4.32,3.2-4.32,7.13S26,70.49,28.42,70.49Z"/><ellipse class="cls-16" cx="28.42" cy="63.36" rx="3.54" ry="5.84"/><ellipse class="cls-10" cx="28.42" cy="63.36" rx="3.18" ry="5.25"/><ellipse class="cls-16" cx="27.95" cy="63.36" rx="2.71" ry="5.2"/><path class="cls-9" d="M28.9,65.19c.69,0,1.25-.82,1.25-1.83s-.56-1.83-1.25-1.83-1.25.82-1.25,1.83S28.21,65.19,28.9,65.19Z"/><path class="cls-17" d="M29.21,64.52c.39,0,.7-.52.7-1.16s-.31-1.16-.7-1.16-.7.52-.7,1.16S28.82,64.52,29.21,64.52Z"/><path class="cls-9" d="M29.52,62.64a.41.41,0,0,0-.33-.2c-.29,0-.53.38-.53.86a1.27,1.27,0,0,0,0,.34.44.44,0,0,0,.34.2c.29,0,.52-.39.52-.87A1.15,1.15,0,0,0,29.52,62.64Z"/><path class="cls-14" d="M12,56.24a2.09,2.09,0,0,0-.5,0c-2.27.22-4.07,3.32-4.07,7.12s1.8,6.89,4.06,7.12h6.8V56.24Z"/><path class="cls-15" d="M18.29,70.49c2.38,0,4.32-3.2,4.32-7.13s-1.94-7.13-4.32-7.13S14,59.43,14,63.36,15.91,70.49,18.29,70.49Z"/><ellipse class="cls-16" cx="18.29" cy="63.36" rx="3.54" ry="5.84"/><ellipse class="cls-10" cx="18.29" cy="63.36" rx="3.18" ry="5.25"/><path class="cls-17" d="M17.82,58.16c-1.54.38-2.71,2.56-2.71,5.2s1.17,4.82,2.71,5.19c1.53-.37,2.71-2.56,2.71-5.19S19.35,58.54,17.82,58.16Z"/><path class="cls-9" d="M18.76,65.19c.7,0,1.26-.82,1.26-1.83s-.56-1.83-1.26-1.83-1.25.82-1.25,1.83S18.07,65.19,18.76,65.19Z"/><path class="cls-17" d="M19.08,64.52c.38,0,.7-.52.7-1.16s-.32-1.16-.7-1.16-.71.52-.71,1.16S18.69,64.52,19.08,64.52Z"/><path class="cls-9" d="M19.39,62.64a.43.43,0,0,0-.34-.2c-.29,0-.52.38-.52.86a1.27,1.27,0,0,0,0,.34.42.42,0,0,0,.33.2c.29,0,.53-.39.53-.87A1.66,1.66,0,0,0,19.39,62.64Z"/><path class="cls-2" d="M24.1,64.26H19.43a.9.9,0,0,1-.81-.51.87.87,0,0,1,.1-1l8.69-11a.91.91,0,0,1,1.15-.22A.89.89,0,0,1,29,52.66l-4,11A.91.91,0,0,1,24.1,64.26Zm-2.81-1.8h2.18l1.88-5.14Z"/><path class="cls-2" d="M34.08,64.26H29.41a.9.9,0,0,1-.8-1.33l6-11a.9.9,0,0,1,1.69.54l-1.3,11A.91.91,0,0,1,34.08,64.26Zm-3.16-1.8h2.36l.66-5.55Z"/><path class="cls-14" d="M43.65,56.24a2.09,2.09,0,0,0-.5,0c-2.28.22-4.07,3.32-4.07,7.12s1.79,6.89,4.06,7.12h6.8V56.24Z"/><path class="cls-14" d="M49.93,70.49c2.39,0,4.33-3.2,4.33-7.13s-1.94-7.13-4.33-7.13-4.32,3.2-4.32,7.13S47.55,70.49,49.93,70.49Z"/><path class="cls-17" d="M49.93,69.2c2,0,3.55-2.62,3.55-5.84s-1.59-5.85-3.55-5.85-3.54,2.63-3.54,5.85S48,69.2,49.93,69.2Z"/><path class="cls-9" d="M49.93,68.61c1.76,0,3.19-2.36,3.19-5.25s-1.43-5.25-3.19-5.25-3.18,2.35-3.18,5.25S48.18,68.61,49.93,68.61Z"/><ellipse class="cls-16" cx="49.46" cy="63.36" rx="2.71" ry="5.2"/><path class="cls-9" d="M50.41,65.19c.69,0,1.25-.82,1.25-1.83s-.56-1.83-1.25-1.83-1.25.82-1.25,1.83S49.72,65.19,50.41,65.19Z"/><path class="cls-17" d="M50.72,64.52c.39,0,.7-.52.7-1.16s-.31-1.16-.7-1.16-.7.52-.7,1.16S50.33,64.52,50.72,64.52Z"/><path class="cls-9" d="M51,62.64a.41.41,0,0,0-.33-.2c-.29,0-.53.38-.53.86a1.27,1.27,0,0,0,0,.34.44.44,0,0,0,.34.2c.29,0,.52-.39.52-.87A1.15,1.15,0,0,0,51,62.64Z"/><path class="cls-2" d="M54.6,64.41H49.9a1,1,0,0,1-.87-.47,1.06,1.06,0,0,1-.09-1l4.65-11a1.05,1.05,0,0,1,2,.4v10.8a.76.76,0,0,1,0,.21A1,1,0,0,1,54.6,64.41Zm-3.12-2.1h2.05V57.5Z"/><path class="cls-2" d="M64.58,64.38h-4.7a1,1,0,0,1-1-1.25l2.52-11a1,1,0,0,1,2,0L65.52,63a1,1,0,0,1,.08.39A1,1,0,0,1,64.58,64.38Zm-3.42-2h2.16l-1-5.08Z"/><path class="cls-15" d="M53.78,56.24a2.09,2.09,0,0,0-.5,0c-2.27.22-4.07,3.32-4.07,7.12s1.8,6.89,4.06,7.12h6.8V56.24Z"/><path class="cls-14" d="M60.07,70.49c2.38,0,4.32-3.2,4.32-7.13s-1.94-7.13-4.32-7.13-4.32,3.2-4.32,7.13S57.69,70.49,60.07,70.49Z"/><ellipse class="cls-16" cx="60.07" cy="63.36" rx="3.54" ry="5.84"/><ellipse class="cls-10" cx="60.07" cy="63.36" rx="3.18" ry="5.25"/><path class="cls-17" d="M59.6,58.16c-1.54.38-2.72,2.56-2.72,5.2s1.18,4.82,2.72,5.19c1.53-.37,2.71-2.56,2.71-5.19S61.13,58.54,59.6,58.16Z"/><path class="cls-9" d="M60.54,65.19c.69,0,1.26-.82,1.26-1.83s-.57-1.83-1.26-1.83-1.25.82-1.25,1.83S59.85,65.19,60.54,65.19Z"/><path class="cls-17" d="M60.86,64.52c.38,0,.7-.52.7-1.16s-.32-1.16-.7-1.16-.71.52-.71,1.16S60.47,64.52,60.86,64.52Z"/><path class="cls-9" d="M61.16,62.64a.4.4,0,0,0-.33-.2c-.29,0-.52.38-.52.86a1.27,1.27,0,0,0,0,.34.42.42,0,0,0,.33.2c.29,0,.53-.39.53-.87A1.14,1.14,0,0,0,61.16,62.64Z"/><rect class="cls-16" x="16.67" y="25" width="1.67" height="10.15"/><rect class="cls-10" x="18.34" y="25" width="1.99" height="10.15"/><rect class="cls-11" x="16.67" y="24.4" width="3.71" height="0.6"/><rect class="cls-2" x="17.9" y="13.43" width="1.15" height="10.97"/><polygon class="cls-9" points="22.17 10.61 16.21 10.61 16.21 12.78 17.66 14.59 22.17 14.59 22.17 10.61"/><rect class="cls-2" x="14.82" y="11.47" width="1.62" height="1"/><polygon class="cls-8" points="14.58 10.61 16.74 10.61 16.74 12.43 18.44 14.58 17.66 14.59 16.21 12.86 16.21 11.71 14.97 11.71 14.97 13.58 15.25 13.58 15.25 14.17 14.58 14.17 14.58 10.61"/><polygon class="cls-5" points="16.21 12.18 13.26 12.18 13.26 14.36 17.47 14.36 16.21 12.86 16.21 12.18"/><polygon class="cls-9" points="42.15 49.53 89.48 49.53 85.53 54.4 38.2 54.4 42.15 49.53"/><rect class="cls-16" x="42.15" y="38.98" width="47.33" height="10.55"/><rect class="cls-6" x="14.11" y="38.98" width="28.04" height="10.55"/><polygon class="cls-17" points="13.81 49.53 42.15 49.53 46.68 54.4 18.34 54.4 13.81 49.53"/><path class="cls-15" d="M52,51.15H83.89c.53,0,.61.44.17,1a2.75,2.75,0,0,1-1.78,1H50.34c-.54,0-.62-.44-.17-1A2.73,2.73,0,0,1,52,51.15Z"/><path class="cls-2" d="M49.26,64.26H43.64a.91.91,0,0,1-.81-.5.89.89,0,0,1,.09-.94l8.26-11a.9.9,0,0,1,1.6.75l-2.65,11A.9.9,0,0,1,49.26,64.26Zm-3.81-1.8h3.09L50,56.38Z"/><path class="cls-2" d="M60.58,64.45H55A1.09,1.09,0,0,1,54,63l4.41-11a1.09,1.09,0,0,1,2.1.28l1.21,11a1.1,1.1,0,0,1-.28.85A1.08,1.08,0,0,1,60.58,64.45Zm-4-2.18h2.78l-.59-5.46Z"/><path class="cls-2" d="M93.37,65.15H87.75a1.8,1.8,0,0,1-1.54-.87l-6.61-11A1.79,1.79,0,0,1,82.33,51L94.57,62a1.8,1.8,0,0,1-1.2,3.13Z"/><path class="cls-2" d="M81.87,64.74H76.25a1.39,1.39,0,0,1-1.38-1.28l-.82-11A1.38,1.38,0,0,1,75,51a1.4,1.4,0,0,1,1.61.62l6.44,11a1.39,1.39,0,0,1-1.2,2.08ZM77.54,62h1.91l-2.19-3.74Z"/><path class="cls-15" d="M60.32,56.24a2.09,2.09,0,0,0-.5,0c-2.28.22-4.07,3.32-4.07,7.12s1.79,6.89,4.06,7.12h6.8V56.24Z"/><path class="cls-14" d="M66.61,70.49c2.38,0,4.32-3.2,4.32-7.13S69,56.23,66.61,56.23s-4.33,3.2-4.33,7.13S64.23,70.49,66.61,70.49Z"/><path class="cls-17" d="M66.61,69.2c2,0,3.54-2.62,3.54-5.84s-1.59-5.85-3.54-5.85-3.55,2.63-3.55,5.85S64.66,69.2,66.61,69.2Z"/><ellipse class="cls-10" cx="66.61" cy="63.36" rx="3.18" ry="5.25"/><path class="cls-17" d="M66.13,58.16c-1.53.38-2.71,2.56-2.71,5.2s1.18,4.82,2.71,5.19c1.54-.37,2.72-2.56,2.72-5.19S67.67,58.54,66.13,58.16Z"/><path class="cls-9" d="M67.08,65.19c.69,0,1.25-.82,1.25-1.83s-.56-1.83-1.25-1.83-1.25.82-1.25,1.83S66.39,65.19,67.08,65.19Z"/><path class="cls-17" d="M67.39,64.52c.39,0,.71-.52.71-1.16s-.32-1.16-.71-1.16-.7.52-.7,1.16S67,64.52,67.39,64.52Z"/><path class="cls-9" d="M67.7,62.64a.4.4,0,0,0-.33-.2c-.29,0-.53.38-.53.86a1.86,1.86,0,0,0,0,.34.44.44,0,0,0,.34.2c.29,0,.52-.39.52-.87A1.15,1.15,0,0,0,67.7,62.64Z"/><path class="cls-15" d="M50.19,56.24a2.17,2.17,0,0,0-.51,0c-2.27.22-4.07,3.32-4.07,7.12s1.8,6.89,4.06,7.12h6.8V56.24Z"/><path class="cls-14" d="M56.47,70.49c2.38,0,4.33-3.2,4.33-7.13s-1.95-7.13-4.33-7.13-4.32,3.2-4.32,7.13S54.09,70.49,56.47,70.49Z"/><path class="cls-17" d="M56.47,69.2c2,0,3.55-2.62,3.55-5.84s-1.6-5.85-3.55-5.85-3.54,2.63-3.54,5.85S54.52,69.2,56.47,69.2Z"/><path class="cls-9" d="M56.47,68.61c1.76,0,3.19-2.36,3.19-5.25s-1.43-5.25-3.19-5.25-3.18,2.35-3.18,5.25S54.72,68.61,56.47,68.61Z"/><ellipse class="cls-16" cx="56" cy="63.36" rx="2.71" ry="5.2"/><path class="cls-9" d="M57,65.19c.69,0,1.25-.82,1.25-1.83s-.56-1.83-1.25-1.83-1.26.82-1.26,1.83S56.26,65.19,57,65.19Z"/><path class="cls-17" d="M57.26,64.52c.39,0,.7-.52.7-1.16s-.31-1.16-.7-1.16-.71.52-.71,1.16S56.87,64.52,57.26,64.52Z"/><path class="cls-9" d="M57.57,62.64a.42.42,0,0,0-.34-.2c-.29,0-.52.38-.52.86a1.27,1.27,0,0,0,0,.34.44.44,0,0,0,.33.2c.29,0,.53-.39.53-.87A1.66,1.66,0,0,0,57.57,62.64Z"/><path class="cls-15" d="M92,56.24a2.17,2.17,0,0,0-.51,0c-2.27.22-4.07,3.32-4.07,7.12s1.8,6.89,4.06,7.12h6.8V56.24Z"/><path class="cls-14" d="M98.25,70.49c2.38,0,4.33-3.2,4.33-7.13s-2-7.13-4.33-7.13-4.32,3.2-4.32,7.13S95.87,70.49,98.25,70.49Z"/><path class="cls-17" d="M98.25,69.2c2,0,3.54-2.62,3.54-5.84s-1.59-5.85-3.54-5.85-3.54,2.63-3.54,5.85S96.3,69.2,98.25,69.2Z"/><path class="cls-9" d="M98.25,68.61c1.76,0,3.19-2.36,3.19-5.25s-1.43-5.25-3.19-5.25-3.18,2.35-3.18,5.25S96.5,68.61,98.25,68.61Z"/><ellipse class="cls-16" cx="97.78" cy="63.36" rx="2.71" ry="5.2"/><path class="cls-9" d="M98.73,65.19c.69,0,1.25-.82,1.25-1.83s-.56-1.83-1.25-1.83-1.26.82-1.26,1.83S98,65.19,98.73,65.19Z"/><path class="cls-17" d="M99,64.52c.39,0,.7-.52.7-1.16s-.31-1.16-.7-1.16-.71.52-.71,1.16S98.65,64.52,99,64.52Z"/><path class="cls-9" d="M99.35,62.64a.42.42,0,0,0-.34-.2c-.29,0-.52.38-.52.86a1.27,1.27,0,0,0,0,.34.44.44,0,0,0,.33.2c.29,0,.53-.39.53-.87A1.66,1.66,0,0,0,99.35,62.64Z"/><path class="cls-15" d="M81.83,56.24a2.09,2.09,0,0,0-.5,0c-2.28.22-4.07,3.32-4.07,7.12s1.79,6.89,4.06,7.12h6.8V56.24Z"/><path class="cls-14" d="M88.12,70.49c2.38,0,4.32-3.2,4.32-7.13s-1.94-7.13-4.32-7.13-4.33,3.2-4.33,7.13S85.74,70.49,88.12,70.49Z"/><path class="cls-17" d="M88.12,69.2c1.95,0,3.54-2.62,3.54-5.84s-1.59-5.85-3.54-5.85-3.55,2.63-3.55,5.85S86.17,69.2,88.12,69.2Z"/><path class="cls-9" d="M88.12,68.61c1.75,0,3.18-2.36,3.18-5.25s-1.43-5.25-3.18-5.25-3.19,2.35-3.19,5.25S86.36,68.61,88.12,68.61Z"/><path class="cls-17" d="M87.65,58.16c-1.54.38-2.72,2.56-2.72,5.2s1.18,4.82,2.72,5.19c1.53-.37,2.71-2.56,2.71-5.19S89.18,58.54,87.65,58.16Z"/><path class="cls-9" d="M88.59,65.19c.69,0,1.26-.82,1.26-1.83s-.57-1.83-1.26-1.83-1.25.82-1.25,1.83S87.9,65.19,88.59,65.19Z"/><path class="cls-17" d="M88.9,64.52c.39,0,.71-.52.71-1.16s-.32-1.16-.71-1.16-.7.52-.7,1.16S88.52,64.52,88.9,64.52Z"/><path class="cls-9" d="M89.21,62.64a.41.41,0,0,0-.33-.2c-.29,0-.53.38-.53.86a1.86,1.86,0,0,0,0,.34.46.46,0,0,0,.34.2c.29,0,.52-.39.52-.87A1.15,1.15,0,0,0,89.21,62.64Z"/><path class="cls-17" d="M41.73,35.16H44c2.75,0,9.19,2.92,11.93,3.9H42.19Z"/><path class="cls-8" d="M15.5,35.16H42.21a.6.6,0,0,1,.52.32.91.91,0,0,1,.1.69l-.66,2.89H14.11l.77-3.32A.67.67,0,0,1,15.5,35.16Z"/><path class="cls-5" d="M41.35,39H14.9l.51-2.69a.64.64,0,0,1,.65-.52H41a.81.81,0,0,1,.61.28.72.72,0,0,1,.18.63Z"/><path class="cls-1" d="M16.94,38.77c.49,0,.89-.63.89-1.41S17.43,36,16.94,36s-.9.63-.9,1.41S16.44,38.77,16.94,38.77Z"/><path class="cls-3" d="M16.94,38.36c.35,0,.63-.45.63-1s-.28-1-.63-1-.64.45-.64,1S16.59,38.36,16.94,38.36Z"/><path class="cls-1" d="M18.67,38.77c.5,0,.9-.63.9-1.41s-.4-1.41-.9-1.41-.89.63-.89,1.41S18.18,38.77,18.67,38.77Z"/><path class="cls-3" d="M18.67,38.36c.35,0,.64-.45.64-1s-.29-1-.64-1-.63.45-.63,1S18.32,38.36,18.67,38.36Z"/><path class="cls-1" d="M20.57,38.77c.49,0,.89-.63.89-1.41S21.06,36,20.57,36s-.9.63-.9,1.41S20.08,38.77,20.57,38.77Z"/><path class="cls-3" d="M20.57,38.36c.35,0,.63-.45.63-1s-.28-1-.63-1-.64.45-.64,1S20.22,38.36,20.57,38.36Z"/><path class="cls-9" d="M25.49,38.77c.49,0,.89-.63.89-1.41S26,36,25.49,36s-.9.63-.9,1.41S25,38.77,25.49,38.77Z"/><path class="cls-8" d="M25.49,38.36c.34,0,.63-.45.63-1s-.29-1-.63-1-.64.45-.64,1S25.14,38.36,25.49,38.36Z"/><path class="cls-9" d="M28.89,38.77c.5,0,.9-.63.9-1.41s-.4-1.41-.9-1.41-.89.63-.89,1.41S28.4,38.77,28.89,38.77Z"/><path class="cls-8" d="M28.89,38.36c.35,0,.64-.45.64-1s-.29-1-.64-1-.63.45-.63,1S28.54,38.36,28.89,38.36Z"/><path class="cls-1" d="M36.37,38.77c.5,0,.9-.63.9-1.41s-.4-1.41-.9-1.41-.89.63-.89,1.41S35.88,38.77,36.37,38.77Z"/><path class="cls-3" d="M36.37,38.36c.35,0,.64-.45.64-1s-.29-1-.64-1-.63.45-.63,1S36,38.36,36.37,38.36Z"/><path class="cls-1" d="M38.11,38.77c.49,0,.89-.63.89-1.41S38.6,36,38.11,36s-.9.63-.9,1.41S37.62,38.77,38.11,38.77Z"/><path class="cls-3" d="M38.11,38.36c.35,0,.63-.45.63-1s-.28-1-.63-1-.64.45-.64,1S37.76,38.36,38.11,38.36Z"/><path class="cls-1" d="M40,38.77c.5,0,.9-.63.9-1.41S40.5,36,40,36s-.89.63-.89,1.41S39.51,38.77,40,38.77Z"/><path class="cls-3" d="M40,38.36c.35,0,.64-.45.64-1s-.29-1-.64-1-.63.45-.63,1S39.66,38.36,40,38.36Z"/><path class="cls-18" d="M48.58,44.17v-.34h.55v.38a1.14,1.14,0,0,0,.06.45.19.19,0,0,0,.2.13c.1,0,.17,0,.2-.1a1,1,0,0,0,0-.35,1,1,0,0,0-.09-.43,1.38,1.38,0,0,0-.27-.37L49,43.25a2.08,2.08,0,0,1-.31-.44,1.13,1.13,0,0,1-.11-.51,1.09,1.09,0,0,1,.19-.71.77.77,0,0,1,.63-.23.62.62,0,0,1,.6.27,1.53,1.53,0,0,1,.16.79v.24h-.54v-.28a1,1,0,0,0,0-.4.17.17,0,0,0-.18-.12.23.23,0,0,0-.2.09.51.51,0,0,0-.06.28.6.6,0,0,0,.06.29,1.9,1.9,0,0,0,.23.28l.31.34a2,2,0,0,1,.36.52,1.4,1.4,0,0,1,.12.58A1.44,1.44,0,0,1,50,45a.72.72,0,0,1-.63.25.69.69,0,0,1-.64-.28A1.73,1.73,0,0,1,48.58,44.17Z"/><path class="cls-18" d="M51.46,41.41c.35,0,.56.09.66.27a1.57,1.57,0,0,1,.18.81v.08a2,2,0,0,1-.16.87.64.64,0,0,1-.61.29h-.07v-.48a.23.23,0,0,0,.2-.14,2.14,2.14,0,0,0,.05-.55v-.07a1.42,1.42,0,0,0-.06-.49.21.21,0,0,0-.19-.14Zm-.83,3.84V41.41h.83v.45h-.25v1.39h.21a2,2,0,0,1,0,.48h-.25v1.52Z"/><path class="cls-18" d="M53.72,44.09l-.25-1.88v-.8h.37l.58,3.84h-.54l-.1-.69h-.31v-.47Zm-.25-1.88v-.05l-.24,1.93h.25v.47h-.31l-.08.69h-.56l.55-3.84h.4Z"/><path class="cls-18" d="M56.45,44.2a1.43,1.43,0,0,1-.2.83.75.75,0,0,1-.63.26A.73.73,0,0,1,55,45a1.38,1.38,0,0,1-.21-.82V42.51c0-.57.14-.93.45-1.07a1,1,0,0,1,.4-.08q.81,0,.81,1v.53h-.57v-.49a1.07,1.07,0,0,0,0-.42.19.19,0,0,0-.2-.13.22.22,0,0,0-.2.13,1.17,1.17,0,0,0-.05.42v1.79a1.25,1.25,0,0,0,.05.45.2.2,0,0,0,.2.13.2.2,0,0,0,.2-.13,1.54,1.54,0,0,0,0-.45v-.55h.58Z"/><polygon class="cls-18" points="56.92 45.25 56.92 41.41 58.21 41.41 58.21 41.91 57.51 41.91 57.51 43.03 58.18 43.03 58.18 43.52 57.51 43.52 57.51 44.74 58.24 44.74 58.24 45.25 56.92 45.25"/><path class="cls-19" d="M86.67,41.3H84.74c-.26,0-.48.16-.48.35V44c0,.19.22.35.48.35h1.93c.27,0,.49-.16.49-.35V41.65C87.16,41.46,86.94,41.3,86.67,41.3Z"/><path class="cls-20" d="M87.3,41.3H85.37c-.26,0-.48.16-.48.35V44c0,.19.22.35.48.35H87.3c.27,0,.48-.16.48-.35V41.65C87.78,41.46,87.57,41.3,87.3,41.3Z"/><path class="cls-21" d="M87.08,42.13H85.6c-.21,0-.37.12-.37.27v1.31c0,.15.16.27.37.27h1.48c.2,0,.37-.12.37-.27V42.4C87.45,42.25,87.28,42.13,87.08,42.13Z"/><path class="cls-19" d="M85.45,43.9h1.77a.89.89,0,0,0-1.77,0Z"/><path class="cls-19" d="M46.71,38.86H44.78c-.26,0-.48.16-.48.35v2.33c0,.19.22.35.48.35h1.93c.27,0,.49-.16.49-.35V39.21C47.2,39,47,38.86,46.71,38.86Z"/><path class="cls-20" d="M47.34,38.86H45.41c-.27,0-.48.16-.48.35v2.33c0,.19.21.35.48.35h1.93c.27,0,.48-.16.48-.35V39.21C47.82,39,47.61,38.86,47.34,38.86Z"/><path class="cls-21" d="M47.11,39.69H45.64c-.21,0-.37.12-.37.27v1.31c0,.15.16.27.37.27h1.47c.21,0,.37-.12.37-.27V40C47.48,39.81,47.32,39.69,47.11,39.69Z"/><path class="cls-19" d="M45.49,41.46h1.77a.89.89,0,0,0-1.77,0Z"/><path class="cls-6" d="M48.3,47.24a.67.67,0,1,1,0-1.33H87.63a.67.67,0,1,1,0,1.33Z"/><path class="cls-10" d="M47.68,46.32a.67.67,0,0,1,.62-.41H87.63a.67.67,0,0,1,.62.41.66.66,0,0,1-.62.42H48.3A.66.66,0,0,1,47.68,46.32Z"/><path class="cls-22" d="M27,41.26l2,3.51L29.78,46H24.27L25,44.77l2-3.51ZM30.36,47l.72,1.25H23L23.68,47Z"/><polygon class="cls-5" points="109.09 0 89.35 38.54 90.38 39.17 109.81 0.59 109.09 0"/><path class="cls-1" d="M13.26,14.36c.39,0,.7-.49.7-1.09s-.31-1.09-.7-1.09-.71.49-.71,1.09S12.87,14.36,13.26,14.36Z"/><path class="cls-5" d="M13.26,14c.26,0,.47-.32.47-.72s-.21-.73-.47-.73-.47.33-.47.73S13,14,13.26,14Z"/><path class="cls-3" d="M13.08,13.28c.08,0,.15-.14.15-.31s-.07-.32-.15-.32-.16.14-.16.32S13,13.28,13.08,13.28Z"/><path class="cls-23" d="M78,41.2h4.54a.52.52,0,0,1,.44.57v2.84a.52.52,0,0,1-.44.57H78a.53.53,0,0,1-.45-.57V41.77A.53.53,0,0,1,78,41.2Z"/></g></g></svg>