<svg xmlns="http://www.w3.org/2000/svg" xmlns:xlink="http://www.w3.org/1999/xlink" viewBox="0 0 90.42 115.25"><defs><style>.cls-1{fill:#708caa;}.cls-1,.cls-10,.cls-12,.cls-13,.cls-14,.cls-16,.cls-2,.cls-3,.cls-4,.cls-5,.cls-6,.cls-7,.cls-9{fill-rule:evenodd;}.cls-2{fill:#c6d3e2;}.cls-20,.cls-3{fill:#e8f2fb;}.cls-4{fill:#e08709;}.cls-19,.cls-5{fill:#32517a;}.cls-15,.cls-6{fill:#1a3a65;}.cls-7,.cls-8{fill:#ebf0f4;}.cls-9{fill:#9ab2c8;}.cls-10,.cls-11{fill:#9cb4c9;}.cls-12{fill:#e1eef7;}.cls-13,.cls-17{fill:#fff;}.cls-14{fill:url(#GradientFill_3);}.cls-16{fill:#bbc9d9;}.cls-18{fill:#f5f9fd;}</style><linearGradient id="GradientFill_3" x1="88.93" y1="63.9" x2="88.93" y2="51.38" gradientTransform="matrix(-1, 0, 0, 1, 96.55, 0)" gradientUnits="userSpaceOnUse"><stop offset="0" stop-color="#d63b17"/><stop offset="1" stop-color="#fadb20"/></linearGradient></defs><g id="Layer_2" data-name="Layer 2"><g id="_2" data-name="2"><path class="cls-1" d="M86.38,48a13.79,13.79,0,1,0,0,19.5A13.79,13.79,0,0,0,86.38,48Z"/><path class="cls-2" d="M86.38,48a13.79,13.79,0,0,0-19.51,0c-.21.21-.42.43-.62.66A13.8,13.8,0,0,0,88.93,63.25c.22-.22.42-.44.62-.66A13.77,13.77,0,0,0,86.38,48Z"/><path class="cls-3" d="M86.38,48a13.79,13.79,0,0,0-17.86-1.41A13.8,13.8,0,0,0,90.19,60.28,13.78,13.78,0,0,0,86.38,48Z"/><path class="cls-4" d="M65.46,47.74c-1.11,2.06-1.84,5.73-1.84,9.91s.73,7.85,1.84,9.91v2.36l2.42-.59v0c2-.56,3.53-5.55,3.53-11.63S69.86,46.58,67.88,46V46h-.36l-2.42-.61Z"/><path class="cls-5" d="M65.13,70c-2.14,0-3.89-5.53-3.89-12.31S63,45.34,65.13,45.34,69,50.87,69,57.65,67.28,70,65.13,70Z"/><path class="cls-6" d="M65,68.28c-1.75,0-3.18-4.78-3.18-10.63S63.2,47,65,47s3.17,4.77,3.17,10.62S66.7,68.28,65,68.28Z"/><polygon class="cls-5" points="35.35 45.79 17.88 45.79 17.88 46.16 34.56 46.16 35.35 45.79"/><polygon class="cls-7" points="35.35 45.79 18.49 45.79 6.85 23.08 23.71 23.08 35.35 45.79"/><polygon class="cls-5" points="34.49 45.33 18.87 45.33 7.71 23.54 23.33 23.54 34.49 45.33"/><polygon class="cls-8" points="33.09 45.55 33.26 45.47 21.83 23.26 21.66 23.35 33.09 45.55"/><polygon class="cls-8" points="31.31 45.56 31.48 45.48 20.06 23.29 19.89 23.38 31.31 45.56"/><polygon class="cls-8" points="29.53 45.58 29.7 45.49 18.29 23.33 18.12 23.41 29.53 45.58"/><path class="cls-8" d="M27.74,45.59l.17-.09,0-.06-11.34-22s-.19.06-.19.06Z"/><polygon class="cls-8" points="25.96 45.6 26.13 45.51 14.75 23.39 14.58 23.48 25.96 45.6"/><polygon class="cls-8" points="24.18 45.61 24.35 45.52 12.98 23.43 12.81 23.52 24.18 45.61"/><polygon class="cls-8" points="22.4 45.62 22.57 45.53 11.21 23.46 11.04 23.55 22.4 45.62"/><polygon class="cls-8" points="20.61 45.63 20.78 45.54 9.44 23.5 9.27 23.59 20.61 45.63"/><rect class="cls-8" x="8.1" y="24.68" width="15.87" height="0.19"/><rect class="cls-8" x="8.81" y="26.05" width="15.87" height="0.19"/><rect class="cls-8" x="9.52" y="27.41" width="15.87" height="0.19"/><rect class="cls-8" x="10.23" y="28.78" width="15.87" height="0.19"/><rect class="cls-8" x="10.94" y="30.14" width="15.87" height="0.19"/><rect class="cls-8" x="11.65" y="31.51" width="15.87" height="0.19"/><rect class="cls-8" x="12.36" y="32.88" width="15.87" height="0.19"/><rect class="cls-8" x="13.07" y="34.24" width="15.87" height="0.19"/><rect class="cls-8" x="13.78" y="35.6" width="15.87" height="0.19"/><rect class="cls-8" x="14.49" y="36.97" width="15.87" height="0.19"/><rect class="cls-8" x="15.2" y="38.34" width="15.87" height="0.19"/><rect class="cls-8" x="15.92" y="39.7" width="15.87" height="0.19"/><rect class="cls-8" x="16.63" y="41.06" width="15.87" height="0.19"/><rect class="cls-8" x="17.34" y="42.43" width="15.87" height="0.19"/><rect class="cls-8" x="18.05" y="43.79" width="15.87" height="0.19"/><polygon class="cls-9" points="6.85 23.08 18.49 45.79 17.88 46.16 6.43 23.43 6.85 23.08"/><polygon class="cls-7" points="35.35 0.37 17.88 0.37 17.88 0 34.56 0 35.35 0.37"/><polygon class="cls-10" points="35.35 0.37 18.49 0.37 6.85 23.08 23.71 23.08 35.35 0.37"/><polygon class="cls-5" points="34.49 0.83 18.87 0.83 7.71 22.61 23.33 22.61 34.49 0.83"/><rect class="cls-11" x="14.97" y="11.64" width="24.98" height="0.22" transform="translate(4.45 30.79) rotate(-62.77)"/><rect class="cls-11" x="13.21" y="11.62" width="24.95" height="0.22" transform="translate(3.5 29.2) rotate(-62.77)"/><rect class="cls-11" x="11.45" y="11.6" width="24.92" height="0.22" transform="translate(2.56 27.61) rotate(-62.77)"/><path class="cls-11" d="M16.53,22.8,27.93.66l-.2-.1L16.34,22.7Z"/><polygon class="cls-11" points="14.76 22.77 26.14 0.65 25.95 0.55 14.57 22.67 14.76 22.77"/><polygon class="cls-11" points="12.99 22.73 24.36 0.64 24.17 0.54 12.8 22.63 12.99 22.73"/><polygon class="cls-11" points="11.22 22.7 22.58 0.63 22.38 0.53 11.03 22.6 11.22 22.7"/><polygon class="cls-11" points="9.45 22.66 20.8 0.62 20.6 0.52 9.26 22.57 9.45 22.66"/><rect class="cls-11" x="8.1" y="21.26" width="15.87" height="0.22"/><rect class="cls-11" x="8.81" y="19.9" width="15.87" height="0.22"/><rect class="cls-11" x="9.52" y="18.53" width="15.87" height="0.22"/><rect class="cls-11" x="10.23" y="17.17" width="15.87" height="0.22"/><rect class="cls-11" x="10.94" y="15.8" width="15.87" height="0.22"/><rect class="cls-11" x="11.65" y="14.44" width="15.87" height="0.22"/><rect class="cls-11" x="12.36" y="13.07" width="15.87" height="0.22"/><rect class="cls-11" x="13.07" y="11.71" width="15.87" height="0.22"/><rect class="cls-11" x="13.78" y="10.34" width="15.87" height="0.22"/><rect class="cls-11" x="14.49" y="8.98" width="15.87" height="0.22"/><rect class="cls-11" x="15.2" y="7.61" width="15.87" height="0.22"/><rect class="cls-11" x="15.92" y="6.25" width="15.87" height="0.22"/><rect class="cls-11" x="16.63" y="4.88" width="15.87" height="0.22"/><rect class="cls-11" x="17.34" y="3.52" width="15.87" height="0.22"/><rect class="cls-11" x="18.05" y="2.15" width="15.87" height="0.22"/><polygon class="cls-5" points="6.85 23.08 18.49 0.37 17.88 0 6.43 22.73 6.85 23.08"/><polygon class="cls-5" points="35.35 114.89 17.88 114.89 17.88 115.25 34.56 115.25 35.35 114.89"/><polygon class="cls-7" points="35.35 114.89 18.49 114.89 6.85 92.18 23.71 92.18 35.35 114.89"/><polygon class="cls-5" points="34.49 114.42 18.87 114.42 7.71 92.64 23.33 92.64 34.49 114.42"/><polygon class="cls-8" points="33.09 114.65 33.26 114.56 21.83 92.36 21.66 92.44 33.09 114.65"/><polygon class="cls-8" points="31.31 114.66 31.48 114.58 20.06 92.39 19.89 92.48 31.31 114.66"/><polygon class="cls-8" points="29.53 114.67 29.7 114.58 18.29 92.42 18.12 92.51 29.53 114.67"/><path class="cls-8" d="M27.74,114.68l.17-.08q-5.68-11.07-11.39-22.14l-.17.09Z"/><polygon class="cls-8" points="25.96 114.69 26.13 114.61 14.75 92.49 14.58 92.58 25.96 114.69"/><polygon class="cls-8" points="24.18 114.7 24.35 114.62 12.98 92.53 12.81 92.61 24.18 114.7"/><polygon class="cls-8" points="22.4 114.72 22.57 114.63 11.21 92.56 11.04 92.65 22.4 114.72"/><polygon class="cls-8" points="20.61 114.73 20.78 114.64 9.44 92.6 9.27 92.68 20.61 114.73"/><rect class="cls-8" x="8.1" y="93.78" width="15.87" height="0.19"/><rect class="cls-8" x="8.81" y="95.15" width="15.87" height="0.19"/><rect class="cls-8" x="9.52" y="96.51" width="15.87" height="0.19"/><rect class="cls-8" x="10.23" y="97.88" width="15.87" height="0.19"/><rect class="cls-8" x="10.94" y="99.24" width="15.87" height="0.19"/><rect class="cls-8" x="11.65" y="100.61" width="15.87" height="0.19"/><rect class="cls-8" x="12.36" y="101.97" width="15.87" height="0.19"/><rect class="cls-8" x="13.07" y="103.34" width="15.87" height="0.19"/><rect class="cls-8" x="13.78" y="104.7" width="15.87" height="0.19"/><rect class="cls-8" x="14.49" y="106.07" width="15.87" height="0.19"/><rect class="cls-8" x="15.2" y="107.43" width="15.87" height="0.19"/><rect class="cls-8" x="15.92" y="108.8" width="15.87" height="0.19"/><rect class="cls-8" x="16.63" y="110.16" width="15.87" height="0.19"/><rect class="cls-8" x="17.34" y="111.53" width="15.87" height="0.19"/><rect class="cls-8" x="18.05" y="112.89" width="15.87" height="0.19"/><polygon class="cls-9" points="6.85 92.18 18.49 114.89 17.88 115.25 6.43 92.52 6.85 92.18"/><polygon class="cls-7" points="35.35 69.47 17.88 69.47 17.88 69.1 34.56 69.1 35.35 69.47"/><polygon class="cls-10" points="35.35 69.47 18.49 69.47 6.85 92.18 23.71 92.18 35.35 69.47"/><polygon class="cls-5" points="34.49 69.93 18.87 69.93 7.71 91.71 23.33 91.71 34.49 69.93"/><rect class="cls-11" x="14.97" y="80.74" width="24.98" height="0.22" transform="translate(-56.99 68.27) rotate(-62.77)"/><rect class="cls-11" x="13.21" y="80.72" width="24.95" height="0.22" transform="translate(-57.94 66.68) rotate(-62.77)"/><rect class="cls-11" x="11.45" y="80.69" width="24.92" height="0.22" transform="translate(-58.88 65.09) rotate(-62.77)"/><path class="cls-11" d="M16.53,91.9q5.71-11.1,11.4-22.14l-.2-.1L16.34,91.8Z"/><polygon class="cls-11" points="14.76 91.86 26.14 69.75 25.95 69.65 14.57 91.77 14.76 91.86"/><polygon class="cls-11" points="12.99 91.83 24.36 69.74 24.17 69.64 12.8 91.73 12.99 91.83"/><polygon class="cls-11" points="11.22 91.8 22.58 69.73 22.38 69.63 11.03 91.7 11.22 91.8"/><polygon class="cls-11" points="9.45 91.76 20.8 69.72 20.6 69.62 9.26 91.66 9.45 91.76"/><rect class="cls-11" x="8.1" y="90.36" width="15.87" height="0.22"/><rect class="cls-11" x="8.81" y="89" width="15.87" height="0.22"/><rect class="cls-11" x="9.52" y="87.63" width="15.87" height="0.22"/><rect class="cls-11" x="10.23" y="86.27" width="15.87" height="0.22"/><rect class="cls-11" x="10.94" y="84.9" width="15.87" height="0.22"/><rect class="cls-11" x="11.65" y="83.54" width="15.87" height="0.22"/><rect class="cls-11" x="12.36" y="82.17" width="15.87" height="0.22"/><rect class="cls-11" x="13.07" y="80.81" width="15.87" height="0.22"/><rect class="cls-11" x="13.78" y="79.44" width="15.87" height="0.22"/><rect class="cls-11" x="14.49" y="78.08" width="15.87" height="0.22"/><rect class="cls-11" x="15.2" y="76.71" width="15.87" height="0.22"/><rect class="cls-11" x="15.92" y="75.35" width="15.87" height="0.22"/><rect class="cls-11" x="16.63" y="73.98" width="15.87" height="0.22"/><rect class="cls-11" x="17.34" y="72.62" width="15.87" height="0.22"/><rect class="cls-11" x="18.05" y="71.25" width="15.87" height="0.22"/><polygon class="cls-5" points="6.85 92.18 18.49 69.47 17.88 69.1 6.43 91.83 6.85 92.18"/><path class="cls-5" d="M63.77,46.9H61.25c1.51,1.47,2.6,5.73,2.6,10.75s-1.09,9.28-2.6,10.76h2.51c2,0,3.59-4.83,3.59-10.76s-1.6-10.74-3.58-10.75Z"/><path class="cls-1" d="M60.31,46.11H9V69.19H60.3c2.13,0,3.85-5.18,3.85-11.54s-1.72-11.52-3.84-11.54Z"/><path class="cls-12" d="M60.31,46.11H9V64.53H63.39a29,29,0,0,0,.76-6.88c0-6.36-1.72-11.52-3.84-11.54Z"/><path class="cls-13" d="M84.58,57.65c-.58.35-1.16.7-1.75,1s-1.2.69-1.81,1l-1.36.74a17.4,17.4,0,0,0,0-5.64l1.36.74,1.81,1,1.75,1Zm-5.68,0a17.31,17.31,0,0,1-.38,3.42L77,61.81a13.36,13.36,0,0,0,.5-2.08,15.52,15.52,0,0,0,0-4.16A13,13,0,0,0,77,53.5c.51.24,1,.49,1.49.74A17.21,17.21,0,0,1,78.9,57.65Z"/><path class="cls-2" d="M60.31,46.11H9V64.53H63.39a29,29,0,0,0,.76-6.88c0-6.36-1.72-11.52-3.84-11.54Z"/><path class="cls-12" d="M60.31,46.11H9V57.8H64.15v-.15c0-6.36-1.72-11.52-3.84-11.54Z"/><path class="cls-5" d="M8.81,69.19C6.69,69.19,5,64,5,57.65S6.69,46.11,8.81,46.11s3.85,5.18,3.85,11.54S10.93,69.19,8.81,69.19Z"/><path class="cls-14" d="M5.9,49.34a19.12,19.12,0,0,0-1.54,8.31A19.12,19.12,0,0,0,5.9,66v2l2-.5c1.66-.51,3-4.69,3-9.79s-1.3-9.28-3-9.75c0,0-.31,0-.31,0l-2-.51Z"/><path class="cls-5" d="M5.62,68c-1.79,0-3.26-4.63-3.26-10.32S3.83,47.33,5.62,47.33,8.89,52,8.89,57.65,7.42,68,5.62,68Z"/><ellipse class="cls-15" cx="5.47" cy="57.65" rx="2.66" ry="8.91"/><path class="cls-16" d="M1.1,55.08a7.23,7.23,0,0,0,0,5.18v.62L4,60.26c.44-.12.79-1.24.79-2.59S4.41,55.2,4,55.07l-3-.62Z"/><path class="cls-1" d="M1,60.89c-.56,0-1-1.45-1-3.22s.46-3.22,1-3.22,1,1.44,1,3.22S1.58,60.89,1,60.89Z"/><path class="cls-6" d="M1,60.45c-.46,0-.83-1.25-.83-2.78s.37-2.78.83-2.78.83,1.25.83,2.78S1.43,60.45,1,60.45Z"/><path class="cls-12" d="M2.85,49.44a7.25,7.25,0,0,0,0,5.19v.62l2.87-.62c.44-.12.78-1.24.78-2.6s-.34-2.47-.78-2.59l-3-.62Z"/><path class="cls-1" d="M2.76,55.25c-.56,0-1-1.44-1-3.22s.45-3.22,1-3.22,1,1.45,1,3.22S3.33,55.25,2.76,55.25Z"/><path class="cls-6" d="M2.72,54.81c-.46,0-.84-1.25-.84-2.78s.38-2.78.84-2.78.83,1.25.83,2.78S3.17,54.81,2.72,54.81Z"/><path class="cls-1" d="M2.85,60.45a7.23,7.23,0,0,0,0,5.18v.62l2.87-.62c.44-.12.78-1.24.78-2.59s-.34-2.47-.78-2.6l-3-.62Z"/><path class="cls-5" d="M2.76,66.26c-.56,0-1-1.45-1-3.22s.45-3.22,1-3.22,1,1.44,1,3.22S3.33,66.26,2.76,66.26Z"/><path class="cls-6" d="M2.72,65.82c-.46,0-.84-1.25-.84-2.78s.38-2.78.84-2.78.83,1.25.83,2.78S3.17,65.82,2.72,65.82Z"/><path class="cls-16" d="M4.08,55.08a7.23,7.23,0,0,0,0,5.18v.62L7,60.26c.44-.12.79-1.24.79-2.59S7.39,55.2,7,55.07l-3-.62Z"/><path class="cls-1" d="M4,60.89c-.56,0-1-1.45-1-3.22s.46-3.22,1-3.22,1,1.44,1,3.22S4.56,60.89,4,60.89Z"/><path class="cls-6" d="M4,60.45c-.46,0-.83-1.25-.83-2.78s.37-2.78.83-2.78.83,1.25.83,2.78S4.41,60.45,4,60.45Z"/><path class="cls-4" d="M57.18,46.11H54.47c1.62,1.58,2.8,6.15,2.8,11.54s-1.18,10-2.8,11.54h2.7C59.3,69.17,61,64,61,57.65S59.3,46.13,57.18,46.11Z"/><path class="cls-17" d="M51.12,64A2,2,0,0,1,50,63.77a.84.84,0,0,1-.22-.92,1.36,1.36,0,0,1,.55-.93,2.34,2.34,0,0,1,1.21-.26,1.76,1.76,0,0,1,.81.18,2.17,2.17,0,0,1,.68.52l.41.46a2.27,2.27,0,0,0,.34.32.78.78,0,0,0,.41.09s0,.79,0,.79l-.32,0a1.38,1.38,0,0,1-.71-.17,1.57,1.57,0,0,1-.52-.45L52.28,63a1.42,1.42,0,0,0-.47-.4,1.2,1.2,0,0,0-.59-.13,1.4,1.4,0,0,0-.53.07.37.37,0,0,0-.21.29c0,.15,0,.25.13.3a1.75,1.75,0,0,0,.64.08h.56c-.06.27-.12.54-.19.81Zm3.05-2.3h-.36c-.05.27-.09.53-.14.79h.5v-.79Zm0-.69H50.1l.09-.86h2.23c0-.15,0-.31,0-.46a1,1,0,0,1,.49-.88,2.76,2.76,0,0,1,1.22-.24v.86a2.64,2.64,0,0,0-.78.08.38.38,0,0,0-.24.35,2.64,2.64,0,0,1,0,.29h1s0,.86,0,.86Zm0-3.3-1,.15-2.84.4c0-.28,0-.55,0-.83l1-.12c0-.3,0-.6,0-.9l-1-.14c0-.26,0-.52,0-.79l2.84.43,1,.15v.72l-.73-.09L52,56.53v.73l1.42-.17.73-.09v.74Zm0-2.75H51.82a2.17,2.17,0,0,1-1.23-.3,1.24,1.24,0,0,1-.5-.93,1,1,0,0,1,.28-.91,1.83,1.83,0,0,1,1.17-.29h.8c0,.28.08.56.11.84h-.81a1.93,1.93,0,0,0-.64.07.26.26,0,0,0-.17.3.31.31,0,0,0,.22.28,1.79,1.79,0,0,0,.66.09h2.46V55Zm0-1.59v-.83h-.74l.12.83ZM52.7,51.87H49.89c-.13-.64-.27-1.28-.43-1.92h.74c.09.35.18.71.26,1.06h1.79c-.08-.32-.16-.65-.25-1h.72c.09.32.17.65.25,1h1.2v.86ZM54.17,64v-.79a.83.83,0,0,0,.41-.09.39.39,0,0,0,.19-.28.21.21,0,0,0-.12-.27,1.35,1.35,0,0,0-.48-.07v-.79a2.07,2.07,0,0,1,1.1.23c.24.16.32.45.23.89a1.4,1.4,0,0,1-.55.92,1.8,1.8,0,0,1-.78.25Zm0-13h.43c-.08-.34-.17-.68-.26-1h.74c.16.62.31,1.25.44,1.88H54.17V51Zm0,1.56a2,2,0,0,1,1.21.3,1.19,1.19,0,0,1,.49.88,1.36,1.36,0,0,1-.06.59.91.91,0,0,1-.51.49,2.66,2.66,0,0,1-1,.16h-.11v-.85h.18a1.53,1.53,0,0,0,.61-.09.25.25,0,0,0,.16-.29.31.31,0,0,0-.22-.29,1.94,1.94,0,0,0-.63-.07h-.1v-.83Zm0,3.52,1.8.27c0,.38,0,.75,0,1.13l-1.81.25V57l.69-.08s-.69-.11-.69-.11v-.72Zm.07,2.51h.11a2.41,2.41,0,0,1,1.19.26.9.9,0,0,1,.34.89c0,.43-.09.86-.14,1.29H54.17v-.86h1l0-.3a.31.31,0,0,0-.19-.34,2.32,2.32,0,0,0-.71-.08H54.2a8.24,8.24,0,0,1,0-.86Z"/><path class="cls-18" d="M36.5,48.85a.58.58,0,0,0,.59-.59.59.59,0,0,0-.59-.59H16a.6.6,0,0,0-.59.59.59.59,0,0,0,.59.59Z"/><path class="cls-19" d="M37.05,47.87a.7.7,0,0,0-.55-.2H16a.69.69,0,0,0-.54.2.73.73,0,0,0,.54.19H36.5A.74.74,0,0,0,37.05,47.87Z"/><path class="cls-18" d="M38,54.79a.58.58,0,0,0,.58-.59.59.59,0,0,0-.58-.59H17.49a.59.59,0,0,0-.59.59.58.58,0,0,0,.59.59Z"/><path class="cls-19" d="M38.58,53.88a.61.61,0,0,0-.54-.27H17.49a.62.62,0,0,0-.55.27.62.62,0,0,0,.55.27H38A.61.61,0,0,0,38.58,53.88Z"/><path class="cls-20" d="M38,60.73a.58.58,0,0,0,.59-.59.59.59,0,0,0-.59-.59H17.42a.6.6,0,0,0-.59.59.59.59,0,0,0,.59.59Z"/><path class="cls-19" d="M38.52,59.92a.61.61,0,0,0-.55-.37H17.42a.58.58,0,0,0-.54.37.57.57,0,0,0,.54.37H38A.59.59,0,0,0,38.52,59.92Z"/><path class="cls-20" d="M36.82,66.67a.59.59,0,1,0,0-1.17H16.27a.59.59,0,1,0,0,1.17Z"/><path class="cls-19" d="M37.37,66a.6.6,0,0,0-.55-.45H16.27a.45.45,0,1,0,0,.89H36.82A.6.6,0,0,0,37.37,66Z"/></g></g></svg>