<svg xmlns="http://www.w3.org/2000/svg" viewBox="0 0 26 79.24"><defs><style>.cls-1{fill:#b4b4b3;}.cls-1,.cls-10,.cls-11,.cls-12,.cls-13,.cls-14,.cls-15,.cls-16,.cls-19,.cls-2,.cls-3,.cls-4,.cls-5,.cls-6,.cls-7,.cls-8,.cls-9{fill-rule:evenodd;}.cls-2{fill:#93301c;}.cls-3{fill:#772a29;}.cls-4{fill:#f7bd8e;}.cls-5{fill:#f4afa3;}.cls-6{fill:#f4af72;}.cls-17,.cls-7{fill:#edeeee;}.cls-8{fill:#fff;}.cls-18,.cls-9{fill:#00679c;}.cls-10{fill:#9b3918;}.cls-11{fill:#5b2e30;}.cls-12{fill:#432c2c;}.cls-13{fill:#ed7657;}.cls-14{fill:#4e2f2e;}.cls-15{fill:#3d2a2a;}.cls-16{fill:#2d3c3e;}.cls-19{fill:#c9c5c2;}.cls-20{fill:#ecdaa9;}</style></defs><g id="Layer_2" data-name="Layer 2"><g id="_2" data-name="2"><path class="cls-1" d="M18.57,71.76l-.33,2.36S16,74.25,15.91,74a23.77,23.77,0,0,1,.44-2.55Z"/><path class="cls-1" d="M8.65,71.76l-.33,2.36S6.05,74.25,6,74a21.68,21.68,0,0,1,.43-2.55Z"/><path class="cls-2" d="M19,38.31s2.73,4.81,2.39,17.34c-.16,5.65-1.73,17.14-1.73,17.14L15,72.65s1.09-6.42,1.45-13c.37-6.83-.27-13.83-.49-14-.41-.28-3.3,0-3.3,0s-.18,6.13-.83,12.39c-.73,7.06-2,14.34-2,14.53-.06.34-4.82.06-4.82.06A135,135,0,0,0,7.1,57.92c.65-8.26.45-17.23.41-18.66C7.44,36.51,19,38.31,19,38.31Z"/><path class="cls-3" d="M13.6,45.59l-6,.31c0,2.41-.07,5.25-.22,8.16q2.64-1.34,5-2.27c.23-3.53.31-6.12.31-6.12l.92-.08Zm.76,0a4.28,4.28,0,0,1,1.62.11,26.17,26.17,0,0,1,.48,4.78,18.56,18.56,0,0,1,4.83-.65c-.1-1.74-.26-3.26-.45-4.58Z"/><path class="cls-3" d="M16.71,72.69s1.81-11.95,1.63-16.18c-.46-11.09-2.22-10.71-2.22-10.71s.48,10.78.35,13.84-1.45,13-1.45,13Z"/><path class="cls-4" d="M20.62,41.22a1.91,1.91,0,0,1-.79.13c-.23,0-.42,0-.52-.48,0,0,0-.61.32-.83C21.25,38.77,20.78,40.72,20.62,41.22Z"/><path class="cls-5" d="M19.07,42.61s.51-.12.8-1.14c.07-.2-.55-.21-.36-1.32-.17.19-.13.27-.3,1.17S18.67,42.85,19.07,42.61Z"/><path class="cls-6" d="M20.15,44.86a10,10,0,0,1,.56-1.27,3.83,3.83,0,0,1,1.16-.34s.32-.07-.76.88C20.49,44.68,20.16,45.33,20.15,44.86Z"/><path class="cls-4" d="M21.82,39.85A10.14,10.14,0,0,1,22,41.07a7.66,7.66,0,0,1,.07,1s0,.43.06.77-.82.8-.82.8l-1.63.74c-.21.09-.22-.13-.16-.38s.93-.68,1.2-.78a3.3,3.3,0,0,0-1.1.34c-.2.17-.3-.38.2-.66L21,42.29a2.19,2.19,0,0,1-.16-.48,10.21,10.21,0,0,0-.46-1.34c-.49-.79,0-1.1,0-1.65l.84-.73Z"/><path class="cls-7" d="M15.59,32.38c2.08,4.28,3.72,8.49,3.72,8.49L22.17,39s-2.26-6.83-3-9.36-.74-7.25-.81-9.2c-.29-1.76-3.84-.38-3.84-.38S12,25.05,15.59,32.38Z"/><path class="cls-3" d="M7,59.13c.13-3,.58-16.28.65-18.19l-.13-1.27c6.87.12,14.74,2.57,2.91,2.48,0,4.17-.05,10.77-.34,13.53-.47,4.45-2.88,17.08-2.88,17.08L5,72.65S6.82,62.36,7,59.13Z"/><path class="cls-8" d="M4.69,20.29a37.53,37.53,0,0,1,2,6c.31,2-.58,23.94-.58,23.94s6.75-.42,10.44-.59,5.12-1,5.12-1S17.24,27.09,18.37,25c0-.1.37-4.76.37-4.76s-1.41-2.34-6.61-2.41S4.58,20.19,4.69,20.29Z"/><path class="cls-7" d="M4.69,20.29a37.53,37.53,0,0,1,2,6c.31,2-.58,23.94-.58,23.94s5.61-.34,9.3-.51a20.79,20.79,0,0,0,2.28-.23S13.8,26.05,14.84,23.65c0-.11.17-5.33.17-5.33a1.41,1.41,0,0,0-.19-.26,13.64,13.64,0,0,0-2.69-.28C6.93,17.71,4.58,20.19,4.69,20.29Z"/><path class="cls-7" d="M9,18.08c3.33-.15,2.32,4.89.52,5.31L13.67,29s.9,9,.8,10.8c-2.17.42-7.23-.19-7.23-.19S5.08,20.13,4.69,20.29C5.26,19.49,7.8,18.37,9,18.08Z"/><path class="cls-9" d="M14.75,18.06l-1.07,11L8.54,18.23a9.55,9.55,0,0,1,3.24-.62A9.83,9.83,0,0,1,14.75,18.06Z"/><path class="cls-3" d="M13.66,29.07,14,26.55l-.84-4.37s-.1.26-.73.26-.79-.2-.79-.2l.29,3.12Z"/><path class="cls-3" d="M13.49,20.77l-1.32-.27-1.31.14.73,1.6.22.22a.74.74,0,0,0,1.1-.05l.2-.23Z"/><path class="cls-9" d="M12.21,20.51A13.51,13.51,0,0,0,10.47,23c-.07.49-1.87-4.74-1.87-4.74a8.54,8.54,0,0,1,1.61-.63,8.24,8.24,0,0,0,2,2.92Z"/><path class="cls-9" d="M12.17,20.5s1.94,1.23,2.1,1.69a36.49,36.49,0,0,0,.14-4.26s-.91-.33-.91-.22A7.78,7.78,0,0,1,12.17,20.5Z"/><path class="cls-7" d="M15.2,18.47c-1.06-.28-.77,1.65-.77,1.65l-.93,8.55,1,11.13,2.77-12.71-.07-8Z"/><path class="cls-6" d="M10.47,19.45a1.47,1.47,0,0,0,1.76,1.07c.89-.11,1.54-.76,1.45-1.46l-.24-2A1.47,1.47,0,0,0,11.68,16a1.46,1.46,0,0,0-1.45,1.45Z"/><path class="cls-8" d="M13.51,28.73,7.15,20.59l1.55-.31a25.44,25.44,0,0,1-2.63-1,21.44,21.44,0,0,1,3-1.31Z"/><polygon class="cls-8" points="13.51 28.73 16.81 20.33 15.26 20.02 17.17 19.06 14.48 17.97 13.51 28.73"/><path class="cls-8" d="M13.29,29.88a.47.47,0,0,0,.47.47.48.48,0,1,0,0-1A.47.47,0,0,0,13.29,29.88Z"/><path class="cls-10" d="M25.1,76.52c1.38,1.12.76,2.24.76,2.24a14.63,14.63,0,0,1-3.59.48A13.09,13.09,0,0,1,17.66,78l.06.63H14.87a4.39,4.39,0,0,1-.22-2.78,5.75,5.75,0,0,1,1.07-2.19,14.07,14.07,0,0,0,2.52.23c.45-.11,2.16,1.61,3,2S24.2,75.8,25.1,76.52Z"/><path class="cls-11" d="M24.35,79.07a12.25,12.25,0,0,1-2.08.17A13.09,13.09,0,0,1,17.66,78l.06.63H16.35l-.27-.13v.13H14.87a4.39,4.39,0,0,1-.22-2.78,6.44,6.44,0,0,1,.63-1.52,6.49,6.49,0,0,0,1.38.06c.45-.11,2.16,1.61,3,2s2.93-.07,3.83.65A1.88,1.88,0,0,1,24.35,79.07Z"/><path class="cls-10" d="M15.18,76.52c1.38,1.12.76,2.24.76,2.24a14.63,14.63,0,0,1-3.59.48A13.09,13.09,0,0,1,7.74,78l.06.63H5a4.39,4.39,0,0,1-.22-2.78A5.92,5.92,0,0,1,5.8,73.66a14.07,14.07,0,0,0,2.52.23c.45-.11,2.16,1.61,3,2S14.28,75.8,15.18,76.52Z"/><path class="cls-11" d="M14.17,79.11a11.72,11.72,0,0,1-1.82.13A13.09,13.09,0,0,1,7.74,78l.06.63H5a4.39,4.39,0,0,1-.22-2.78,6.8,6.8,0,0,1,.55-1.39,6.81,6.81,0,0,0,1.6.24c.45-.07,2,1.81,2.83,2.25s2.93.2,3.75,1A2.34,2.34,0,0,1,14.17,79.11Z"/><path class="cls-5" d="M3,10.12a1.48,1.48,0,0,0,1.19,1.71c.79.13,2.25-.09,2.39-.89S5.43,9,4.64,8.9A1.46,1.46,0,0,0,3,10.12Z"/><path class="cls-4" d="M5.09,10.09c.16,3.65,3.11,7.25,6.89,7.33s6.7-3.37,6.79-7-.66-7.55-4.43-7.63S4.72,1.67,5.09,10.09Z"/><path class="cls-6" d="M7,3.08c-.72,1.11-.58,3.62-.48,6,.16,3.65,2.8,7.55,6.58,7.46a7.32,7.32,0,0,0,3.74-1.35A6.39,6.39,0,0,1,12,17.56c-3.77-.08-6.72-3.68-6.89-7.34C4.87,5.3,4.66,3.63,7,3.08Z"/><path class="cls-12" d="M17.5,9.39l.13,0A.27.27,0,0,0,17.75,9a1.8,1.8,0,0,0-1.05-.9,1.84,1.84,0,0,0-1.38.12.27.27,0,0,0-.12.37.26.26,0,0,0,.37.12,1.28,1.28,0,0,1,1-.08,1.35,1.35,0,0,1,.73.62.26.26,0,0,0,.24.15Zm-8-.15a1.26,1.26,0,0,1,1.61-.75A.28.28,0,0,0,11.33,8,1.82,1.82,0,0,0,9,9.05a.29.29,0,0,0,.17.36h.09A.27.27,0,0,0,9.54,9.24Z"/><path class="cls-13" d="M13.15,14H13a3,3,0,0,0-2.09,1,.28.28,0,0,0,0,.4.28.28,0,0,0,.39,0,2.47,2.47,0,0,1,1.7-.79,2.41,2.41,0,0,1,1.77.65.28.28,0,0,0,.39,0,.27.27,0,0,0,0-.39A3,3,0,0,0,13.15,14Z"/><path class="cls-14" d="M15.43,10.35c0,.48.23.87.54.88s.56-.38.57-.86-.23-.87-.54-.88S15.44,9.87,15.43,10.35Z"/><path class="cls-8" d="M16,9.92c0,.14.07.26.18.26a.23.23,0,0,0,.19-.25c0-.15-.08-.26-.18-.27S16,9.78,16,9.92Z"/><path class="cls-14" d="M9.91,10.25c0,.48.23.88.54.88s.56-.38.57-.85-.23-.88-.53-.88S9.92,9.77,9.91,10.25Z"/><path class="cls-8" d="M10.44,9.9c0,.14.08.26.18.26s.19-.11.2-.25-.08-.26-.19-.26S10.45,9.76,10.44,9.9Z"/><path class="cls-13" d="M13.35,12.7a1,1,0,0,1-.68-.27.28.28,0,0,1,0-.39.27.27,0,0,1,.39,0,.44.44,0,0,0,.74-.36.27.27,0,0,1,.25-.29.27.27,0,0,1,.3.25,1,1,0,0,1-.86,1.06Z"/><path class="cls-15" d="M3.53,3c1-2.39,13.22-6.41,15.2,2.54a4.43,4.43,0,0,1-.22,1.71s-.6-3.57-3.17-3.07c-1.21.24-2.76,1.11-4.64.64a12.17,12.17,0,0,0-2.86-.54,2.28,2.28,0,0,0-2,1.49,2.57,2.57,0,0,0-.14.61A27.23,27.23,0,0,0,6.12,10c0,.35-.58.66-.59.67-.34.18-.47-1-.89-1.38S4,9,4,9A7.54,7.54,0,0,1,3.53,3Z"/><path class="cls-16" d="M11.16,12.57A1.55,1.55,0,0,1,9.64,11.1L4.59,9.38a.13.13,0,0,1-.08-.18.15.15,0,0,1,.18-.09l5,1.69a1.55,1.55,0,0,1,1.53-1.32v.28a1.32,1.32,0,0,0-.88.35,1.23,1.23,0,0,0-.38.89,1.25,1.25,0,0,0,1.26,1.29v.29Zm3.32-1.86a1.27,1.27,0,0,1,.36-.61,1.26,1.26,0,0,1,.87-.35V9.47a1.56,1.56,0,0,0-1.43.95,1.25,1.25,0,0,0-.74-.28,1.45,1.45,0,0,0-.91.31,1.56,1.56,0,0,0-1.44-1s0,.28,0,.28a1.27,1.27,0,0,1,0,2.53v.29a1.53,1.53,0,0,0,1.52-1.83,1.24,1.24,0,0,1,.82-.33,1,1,0,0,1,.66.3,1.15,1.15,0,0,0,0,.26,1.52,1.52,0,0,0,.43,1.11,1.6,1.6,0,0,0,1.12.48s0-.29,0-.29a1.22,1.22,0,0,1-.88-.39,1.2,1.2,0,0,1-.32-1.17Zm1.23,1.86a1.51,1.51,0,0,0,1.07-.43,1.5,1.5,0,0,0,.45-1.4L18.84,8.6l0-.2-.2,0-1.48,2a1.54,1.54,0,0,0-1.42-.93s0,.28,0,.28A1.28,1.28,0,0,1,17,11a1.25,1.25,0,0,1-.4.89,1.22,1.22,0,0,1-.87.35Z"/><path class="cls-13" d="M4.37,11.5a1,1,0,0,1-.94-.7A1,1,0,0,1,4,9.58a.27.27,0,0,1,.35.16.29.29,0,0,1-.16.36.43.43,0,0,0-.27.54.43.43,0,0,0,.52.29.27.27,0,0,1,.34.2.26.26,0,0,1-.2.33A.69.69,0,0,1,4.37,11.5Z"/><rect class="cls-17" x="11.17" y="31.33" width="2.3" height="12.35"/><rect class="cls-18" x="0.87" y="31.33" width="10.3" height="12.35"/><rect class="cls-18" x="13.47" y="31.33" width="0.35" height="12.35"/><rect class="cls-18" x="0.87" y="43.68" width="12.95" height="0.31"/><path class="cls-19" d="M11.34,43.68s0-12.35,0-12.35,0,12.35,0,12.35Zm.13,0s0-12.35-.05-12.35,0,12.35.05,12.35Zm.12,0s0-12.35-.05-12.35,0,12.35.05,12.35Zm.12,0s0-12.35,0-12.35,0,12.35,0,12.35Zm.13,0s0-12.35-.05-12.35,0,12.35.05,12.35Zm.12,0s0-12.35-.05-12.35,0,12.35.05,12.35Zm.12,0s0-12.35,0-12.35,0,12.35,0,12.35Zm.13,0s0-12.35-.05-12.35,0,12.35.05,12.35Zm.12,0s0-12.35,0-12.35,0,12.35,0,12.35Zm.12,0s0-12.35,0-12.35,0,12.35,0,12.35Zm.13,0s0-12.35-.05-12.35,0,12.35.05,12.35Zm.12,0s0-12.35,0-12.35,0,12.35,0,12.35Zm.13,0s0-12.35-.05-12.35,0,12.35.05,12.35Zm.12,0s0-12.35,0-12.35,0,12.35,0,12.35Zm.12,0s0-12.35,0-12.35,0,12.35,0,12.35Zm.13,0s0-12.35,0-12.35,0,12.35,0,12.35Zm.08-12.35s0,12.35,0,12.35S13.32,31.33,13.28,31.33Z"/><rect class="cls-20" x="2.81" y="34.23" width="3.91" height="6.55"/><path class="cls-6" d="M5.37,43.1a3.18,3.18,0,0,0,1,1.84c.9-.09,2.06.23,2.51-.43a4.08,4.08,0,0,1-.72-1.58c.11-.17.64-1,.55-1a3.22,3.22,0,0,0-1.59-.57c-.41.08-.42,0-.73-.28l-1.72.77C4.92,42.25,5.37,42.36,5.37,43.1Z"/><path class="cls-4" d="M8.27,43.33c-.13-.62,0-.51.41-.36.19-.23.5-.4.18-.93,0,0-.76-.75-1.28-.76C4.93,41.49,7.69,43,8.27,43.33Z"/><path class="cls-4" d="M10.44,43.36s-.6.33-1.76-.39c-.24-.13.34-.67-.8-1.56.32,0,.36.14,1.3.84S11,43.24,10.44,43.36Z"/><path class="cls-6" d="M10.28,44.71c-.31-.54-2.06-.57-2.35-.59s-1.25.82-1.25.82-.09.13,1.91,0C9.75,44.86,10.56,45.22,10.28,44.71Z"/><path class="cls-4" d="M10.5,44.18c.23-.57-1.61,0-1.78-.19a3.23,3.23,0,0,1-.46-.7A5.34,5.34,0,0,0,7,41.48c-.33-.19-.56-.07-.62,0A20,20,0,0,0,8,44.75C8.71,44.91,10.29,44.72,10.5,44.18Z"/><path class="cls-7" d="M0,31.72c.23,4.76,4.44,10.74,4.44,10.74L8.9,40.82S4.07,33.2,4.43,30.6s.87-5.12,2.25-6.07c.53-.63-1.11-5-1.11-5S.49,21.56,0,31.72Z"/><path class="cls-8" d="M6.42,41.71l2.57-1S4.07,33.2,4.43,30.6s1-3,2.21-4.75c.31-.21.42-3.11-.24-4.26C4.11,23.4,1.92,27.33,2.65,32.67,3.06,35.63,5.7,40,6.42,41.71Z"/><path class="cls-8" d="M4.08,40.77a.47.47,0,1,0,.47-.47A.47.47,0,0,0,4.08,40.77Z"/><path class="cls-8" d="M14.13,34a.48.48,0,0,0,.95,0,.49.49,0,0,0-.48-.48A.48.48,0,0,0,14.13,34Z"/><path class="cls-8" d="M14.62,37.91a.47.47,0,1,0,.47-.48A.48.48,0,0,0,14.62,37.91Z"/><path class="cls-8" d="M14.8,41.86a.48.48,0,0,0,.48.47.47.47,0,1,0-.48-.47Z"/></g></g></svg>