<svg xmlns="http://www.w3.org/2000/svg" xmlns:xlink="http://www.w3.org/1999/xlink" viewBox="0 0 74.16 75.78"><defs><style>.cls-1{fill:none;}.cls-2{fill:#966c3c;}.cls-3{fill:#1a2e36;}.cls-4{fill:#fff;}.cls-5{clip-path:url(#clip-path);}.cls-6{fill:#f3722c;opacity:0.5;}.cls-7{fill:#cc314a;}</style><clipPath id="clip-path"><path id="SVGID" class="cls-1" d="M60.05,6.64a3.72,3.72,0,1,1-4.27-3.06A3.73,3.73,0,0,1,60.05,6.64Z"/></clipPath></defs><g id="Layer_2" data-name="Layer 2"><g id="OBJECTS"><path class="cls-2" d="M62,34.75s1.66,5,6.08,4.43,5.26,3.32,4.57,4-1.11-.55-1.8-1.24c.83,2.49-.56,3.87-1.52,1,.82,2.49-1,2.63-1.66.55C63,46,59.64,41.52,59,38.06"/><path class="cls-3" d="M39.59,67.9c.18.49.27,1,.45,1.39a1.41,1.41,0,0,0,.85,1,.84.84,0,0,1-.78-.16,1.64,1.64,0,0,1-.47-.67A2.46,2.46,0,0,1,39.59,67.9Z"/><path class="cls-2" d="M53.74,48.69s-.38,11.11-.2,19.58c1.65,0,2.66,3.44-.3,4.3-8.46,2.07-12.64.61-14.37-.43a1.67,1.67,0,0,1-.39-2.28,14.58,14.58,0,0,1,1.06-1.53c-.31-2,1.83-21,1.35-21.57"/><path class="cls-3" d="M47.86,69.54a11.33,11.33,0,0,1,1.29.26,2,2,0,0,1,1.14.81A2,2,0,0,1,50.45,72,3.76,3.76,0,0,1,50,73.23c.05-.43.15-.85.16-1.27A1.67,1.67,0,0,0,49,70.1,10.5,10.5,0,0,1,47.86,69.54Z"/><path class="cls-3" d="M50.91,69.09a12.28,12.28,0,0,1,1.29.26,1.7,1.7,0,0,1,1.29,2.2A3.76,3.76,0,0,1,53,72.78a11.3,11.3,0,0,0,.16-1.27,2,2,0,0,0-.2-1.14,1.8,1.8,0,0,0-.89-.72A9.61,9.61,0,0,1,50.91,69.09Z"/><path class="cls-3" d="M48.24,61.86a10.52,10.52,0,0,0,2-.57,3.67,3.67,0,0,0,.86-.49,4,4,0,0,0,.72-.75,2,2,0,0,1-.5,1,2.82,2.82,0,0,1-.92.64A3.5,3.5,0,0,1,48.24,61.86Z"/><path class="cls-3" d="M49.17,60.23a1.8,1.8,0,0,1,.91-.6,1.85,1.85,0,0,1,.58-.05c.19,0,.43.14.47.35a.7.7,0,0,0-.47,0,4,4,0,0,0-.46.13A4.6,4.6,0,0,1,49.17,60.23Z"/><path class="cls-3" d="M48.82,58.61A2,2,0,0,1,50,58a1.56,1.56,0,0,1,.71.06.82.82,0,0,1,.5.48,1.69,1.69,0,0,0-1.14-.12C49.66,58.43,49.28,58.56,48.82,58.61Z"/><path class="cls-2" d="M62.42,15.88c7.19-1.13,12.82-2,11.56-9s-6.49-3.85-10.57-5.4S47.9-2.3,47.9,5.88s4.09,23.84,0,23.84S30.57,23.94,23,48.61c-2.85,7-9.29,12.16-18.72,11.3-7.9-3.38-4,2.86,5.61,3.78s17.41.21,24-6.35C51.57,57.34,70.07,53.44,62.42,15.88Z"/><path class="cls-4" d="M60.05,6.64a3.72,3.72,0,1,1-4.27-3.06A3.73,3.73,0,0,1,60.05,6.64Z"/><g class="cls-5"><path class="cls-3" d="M57.9,7a3.71,3.71,0,1,1-4.27-3.07A3.71,3.71,0,0,1,57.9,7Z"/></g><path class="cls-3" d="M68.42,12.05a2.44,2.44,0,0,0,.48.72.62.62,0,0,0,.65.15,1.15,1.15,0,0,0,.61-.45,3.42,3.42,0,0,0,.43-.78,1.48,1.48,0,0,1-.92,1.64,1,1,0,0,1-1-.34A1.42,1.42,0,0,1,68.42,12.05Z"/><path class="cls-3" d="M68,9.16a4,4,0,0,1-1.36-.47A2.61,2.61,0,0,1,66,8.23a1.47,1.47,0,0,1-.24-.34.49.49,0,0,1,0-.56.57.57,0,0,1,.52-.13,1.08,1.08,0,0,1,.39.18,3,3,0,0,1,.53.53A5.32,5.32,0,0,1,68,9.16Zm0,0c-.32-.35-.62-.71-1-1a3.18,3.18,0,0,0-.5-.42c-.18-.12-.35-.14-.39-.08a.67.67,0,0,0,.18.34,4.17,4.17,0,0,0,.48.45A8.72,8.72,0,0,0,68,9.16Z"/><path class="cls-3" d="M69.33,8.94a4,4,0,0,1,.23-1.36,1.69,1.69,0,0,1,.35-.64.7.7,0,0,1,.82-.24.55.55,0,0,1,.22.17.48.48,0,0,1,.07.29,1,1,0,0,1-.15.4,2.45,2.45,0,0,1-.45.55A5.51,5.51,0,0,1,69.33,8.94Zm0,0c.28-.36.58-.7.85-1a4.3,4.3,0,0,0,.35-.52.42.42,0,0,0,.08-.23s0,0,0,0c-.22-.16-.52.24-.71.62S69.5,8.52,69.33,8.94Z"/><path class="cls-3" d="M53.71,2.73a2.8,2.8,0,0,1,.84-1.07,2.29,2.29,0,0,1,1.32-.48,2.88,2.88,0,0,1,2.3,1.37,4,4,0,0,0-2.29-.94A3.21,3.21,0,0,0,53.71,2.73Z"/><path class="cls-3" d="M28.64,70.07c.19.49.27,1,.45,1.39a1.43,1.43,0,0,0,.86,1,.83.83,0,0,1-.78-.16,1.73,1.73,0,0,1-.48-.67A2.61,2.61,0,0,1,28.64,70.07Z"/><path class="cls-2" d="M42.8,50.86S42.42,62,42.6,70.44c1.64,0,2.65,3.43-.3,4.29-8.46,2.08-12.64.62-14.37-.43A1.65,1.65,0,0,1,27.54,72a11.47,11.47,0,0,1,1.05-1.53c-.31-2,1.83-21,1.36-21.58"/><path class="cls-3" d="M42.8,50.86q0,4.91,0,9.79l0,9.78-.14-.13a1.54,1.54,0,0,1,1.13.6,2.19,2.19,0,0,1,.49,1.15,2.28,2.28,0,0,1-.89,2.18,2.19,2.19,0,0,0,.73-2.15,2.31,2.31,0,0,0-.5-1,1.29,1.29,0,0,0-1-.47.14.14,0,0,1-.14-.14c-.13-3.26-.15-6.53-.08-9.79S42.57,54.12,42.8,50.86Z"/><path class="cls-3" d="M36.92,71.71a12.2,12.2,0,0,1,1.29.25,1.73,1.73,0,0,1,1.3,2.21A4.11,4.11,0,0,1,39,75.4a11.91,11.91,0,0,0,.16-1.27A2,2,0,0,0,39,73a1.8,1.8,0,0,0-.89-.72A9.61,9.61,0,0,1,36.92,71.71Z"/><path class="cls-3" d="M40,71.26a11.73,11.73,0,0,1,1.29.25,2,2,0,0,1,1.14.82,2.05,2.05,0,0,1,.16,1.39A4.09,4.09,0,0,1,42.07,75c0-.44.14-.86.15-1.27a1.64,1.64,0,0,0-1.09-1.86A10.37,10.37,0,0,1,40,71.26Z"/><path class="cls-3" d="M37.29,64a10.31,10.31,0,0,0,2-.57,4.14,4.14,0,0,0,.87-.49,4.24,4.24,0,0,0,.71-.75,2,2,0,0,1-.49,1,3.24,3.24,0,0,1-.92.64A3.6,3.6,0,0,1,37.29,64Z"/><path class="cls-3" d="M38.22,62.4a1.77,1.77,0,0,1,.92-.6,1.54,1.54,0,0,1,.57,0c.19,0,.44.13.48.34a.72.72,0,0,0-.48,0l-.46.12A4.48,4.48,0,0,1,38.22,62.4Z"/><path class="cls-3" d="M37.88,60.77a2,2,0,0,1,1.17-.63,1.52,1.52,0,0,1,.7.06.86.86,0,0,1,.51.48,1.66,1.66,0,0,0-1.15-.12C38.72,60.6,38.33,60.73,37.88,60.77Z"/><path class="cls-6" d="M40.5,35.5c.54,1.09-.89,2.9-3.2,4.06s-4.62,1.2-5.17.11.89-2.9,3.2-4.06S40,34.41,40.5,35.5Z"/><path class="cls-6" d="M41.74,30.79c.37.75-.61,2-2.2,2.79s-3.18.82-3.55.08.61-2,2.2-2.79S41.36,30,41.74,30.79Z"/><path class="cls-6" d="M33.06,35.47c.25.51-.41,1.35-1.49,1.89s-2.14.55-2.39,0,.41-1.35,1.48-1.89S32.81,35,33.06,35.47Z"/><path class="cls-6" d="M45.31,33.1c.26.5-.41,1.34-1.48,1.88s-2.15.56-2.4.05.41-1.35,1.48-1.88S45.06,32.59,45.31,33.1Z"/><path class="cls-6" d="M31.2,40.14c.25.5-.41,1.35-1.49,1.88s-2.14.56-2.39,0,.41-1.35,1.48-1.88S31,39.63,31.2,40.14Z"/><path class="cls-3" d="M29.77,53.94a31.2,31.2,0,0,1-.1,3.75,31.26,31.26,0,0,1-.53,3.71,34.26,34.26,0,0,1,.63-7.46Z"/><path class="cls-7" d="M57.36,38.12s0,5.25,4.38,6.12,3.93,4.81,3.06,5.25-.88-.88-1.31-1.75c0,2.62-1.75,3.5-1.75.44,0,2.62-1.75,2.18-1.75,0-5.25.87-7-4.38-6.56-7.88"/><path class="cls-2" d="M57.36,38.12s0,5.25,4.38,6.12,3.93,4.81,3.06,5.25-.88-.88-1.31-1.75c0,2.62-1.75,3.5-1.75.44,0,2.62-1.75,2.18-1.75,0-5.25.87-7-4.38-6.56-7.88"/><path class="cls-3" d="M60,48.18a5.4,5.4,0,0,1-3-.1,5,5,0,0,1-2.42-1.89,7.48,7.48,0,0,1-1.13-2.85,8,8,0,0,1,0-3,11.31,11.31,0,0,0,.3,3A7.74,7.74,0,0,0,54.89,46a4.83,4.83,0,0,0,2.19,1.83A6.44,6.44,0,0,0,60,48.18Z"/><path class="cls-3" d="M57.36,38.12a14,14,0,0,0,.47,2,8.18,8.18,0,0,0,.83,1.8A5,5,0,0,0,60,43.32a6.2,6.2,0,0,0,1.77.92,4.38,4.38,0,0,1-2-.65A4.89,4.89,0,0,1,58.3,42.1,6.7,6.7,0,0,1,57.36,38.12Z"/><path class="cls-3" d="M42.65,56.59l3-.58c1-.21,2-.41,3-.68a27.06,27.06,0,0,0,2.95-.88,13.91,13.91,0,0,0,2.79-1.31,9.42,9.42,0,0,1-2.67,1.61,19.41,19.41,0,0,1-3,1A28.56,28.56,0,0,1,42.65,56.59Z"/><path class="cls-3" d="M64.09,35.54a20.79,20.79,0,0,1-.45,4,13.35,13.35,0,0,1-1.35,3.8c.36-1.29.67-2.58.93-3.89S63.75,36.85,64.09,35.54Z"/><path class="cls-3" d="M57.36,15.27c1.14.09,2.25.24,3.36.29.56.06,1.12.06,1.68.07s1.12,0,1.69,0A9.26,9.26,0,0,1,60.7,16,11.26,11.26,0,0,1,57.36,15.27Z"/></g></g></svg>