<svg xmlns="http://www.w3.org/2000/svg" viewBox="0 0 500 500"><defs><style>.cls-1{fill:#96cffa;}.cls-2{fill:#f9c74f;}.cls-3{fill:#f9d378;}.cls-4{fill:#f8961e;}.cls-5{fill:#f4ddab;}.cls-6{fill:#f4d490;}.cls-7{fill:#277da1;}.cls-8{fill:#43aa8b;}.cls-9{fill:#d1efff;}.cls-10{fill:#90be6d;}.cls-11{fill:#e3b548;}.cls-12{fill:#fff;}.cls-13{fill:#f94144;}</style></defs><g id="Layer_2" data-name="Layer 2"><g id="BACKGROUND"><rect class="cls-1" width="500" height="500"/><path class="cls-2" d="M0,84.9c25.36-51.18,55.27-34.24,65.61-7.76s27-22,52.43,7,48.05-14.28,76,33.63l14.63,25.9H0Z"/><path class="cls-3" d="M44.36,69.06a33.23,33.23,0,0,0,12.88-6.2C46.39,50.05,29.68,45.7,13.15,64.49,21.41,70.91,34,70.54,44.36,69.06Z"/><path class="cls-3" d="M117.14,83.19c-11.72-12.61-21.54-9-29.72-4.23a16.16,16.16,0,0,0,1.94,1.1C99,86.47,108.59,86.59,117.14,83.19Z"/><path class="cls-4" d="M394,114.88c12,0,36-51.16,56.65-52.49s26,56.57,42.68,59.28C457.36,121.67,394,114.88,394,114.88Z"/><path class="cls-2" d="M151.63,129c46.1,0,149.43-39.1,178.58-39.52s44.43,25.4,169.79,25.4v64.84Z"/><path class="cls-5" d="M500,500H0V133.63C20.37,121.09,51.75,106,90.69,105.06c32-.79,51.17,8.37,81.34,16.66,32.16,8.84,71.44,10.34,150,13.34,46.67,1.78,107,2.36,178-1.43Z"/><path class="cls-6" d="M333.36,203.72C266.51,209,238.48,230.2,172,218.77c-29.51-5.07-46.58-13-81.34-12.39C51.75,207.09,20.37,218.3,0,227.62v24c71,2.82,131.3,2.38,178,1.06,78.56-2.23,117.84-3.35,150-9.91,30.17-6.16,49.39-13,81.34-12.39,38.94.71,70.32,11.92,90.69,21.24v-24C429,202.59,372.48,200.61,333.36,203.72Z"/><path class="cls-6" d="M166.64,340.67c66.85-5.32,94.88-26.47,161.33-15.05,29.51,5.07,46.58,13,81.34,12.39,38.94-.71,70.32-11.92,90.69-21.24v-24c-70.95-2.82-131.3-2.39-178-1.06-78.56,2.23-117.84,3.34-150,9.91-30.17,6.16-49.39,13-81.34,12.39C51.75,313.26,20.37,302.05,0,292.73v24C71.05,341.8,127.52,343.79,166.64,340.67Z"/><path class="cls-7" d="M58.56,405S42.67,394,46,389.72s13.91,13.61,13.91,13.61-12.18-17.28-7.18-20.59,10.85,18.15,10.85,18.15-7.69-22,.42-23.1,4.29,23.34,4.29,23.34.59-17.24,6.87-18.12-2.76,17-2.76,17,3.74-11.64,8-11.09S77.35,400,77.35,400Z"/><path class="cls-8" d="M421.84,401.62s15-11.83,11.53-15.93-12.92,14.38-12.92,14.38,11.06-17.94,6-20.95-9.73,18.73-9.73,18.73,6.47-22.37-1.48-23-3.1,23.52-3.1,23.52-1.37-17.16-7.53-17.67,3.48,16.83,3.48,16.83-4.19-11.39-8.36-10.6,3.53,10.86,3.53,10.86Z"/><path class="cls-9" d="M500,500H0V400.57c18.08-1.85,45.38-4.13,78.69-4.85,40.61-.88,68,1,88,2,109,5.29,135.23-10.74,244.67-5.33,23.45,1.16,53.57,3.44,88.64,8.18Z"/><path class="cls-2" d="M82.24,133.63H114.4s-.35-4.89-5.19-3.23c.48-6.34-8.45-5.33-11.15-3-1.7-11-13.44-7.91-12.74-1.79C79,120.06,69.12,130.2,82.24,133.63Z"/><path class="cls-10" d="M7,229.82H43.72s.89-10.6-9.07-8.18c1.71-11.58-12.1-10.95-14.7-5.94C16.69,204.72-4,216.59,7,229.82Z"/><path class="cls-10" d="M350.35,337.91H387s.9-10.6-9.06-8.19c1.7-11.58-12.11-11-14.7-5.93C360,312.81,339.35,324.68,350.35,337.91Z"/><path class="cls-8" d="M13.3,232.11c-.32-.46-5.61-7.34-4-13.33,3.31.63,5.35,9.14,5.35,9.14s-1.77-7.74,0-12.09c2.76,1.6,3.36,13.2,3.36,13.2s1.33-7,3.7-7.94c2.48,3.62-1.66,11-1.66,11Z"/><path class="cls-2" d="M358.56,340.88c-.32-.45-5.62-7.34-4-13.33,3.3.64,5.34,9.14,5.34,9.14s-1.77-7.74,0-12.09c2.76,1.6,3.36,13.2,3.36,13.2s1.33-7,3.7-7.94c2.48,3.62-1.65,11-1.65,11Z"/><path class="cls-2" d="M393,176.53c-.44-.62-7.62-10-5.38-18.08,4.49.85,7.25,12.39,7.25,12.39s-2.4-10.5,0-16.4c3.75,2.17,4.57,17.91,4.57,17.91s1.8-9.5,5-10.78c3.36,4.91-2.25,15-2.25,15Z"/><path class="cls-8" d="M322.86,284.84c-.43-.62-7.61-10-5.37-18.08,4.49.86,7.25,12.39,7.25,12.39s-2.4-10.49,0-16.4c3.75,2.17,4.56,17.92,4.56,17.92s1.8-9.5,5-10.78c3.37,4.91-2.25,14.95-2.25,14.95Z"/><path class="cls-8" d="M100,228.05h41.84s-1.06-6.17-9.08-4.08c-3.35-6.91-12-6-14.67-2.79-2.68-10.12-12.14-6.94-12.41-1.86-8.27-9.93-14.1-2.1-11.52,2.32C87,218.72,78.87,228.05,100,228.05Z"/><path class="cls-8" d="M447.27,243.87h41.84s-1.06-6.17-9.08-4.08c-3.35-6.92-12-6-14.67-2.79-2.68-10.13-12.14-6.94-12.41-1.87-8.27-9.92-14.1-2.09-11.52,2.33C434.35,234.54,426.19,243.87,447.27,243.87Z"/><path class="cls-8" d="M208.69,153.63h32.9s5.19-12.49-6.52-5.53c4.62-15-6.67-12.27-9.36-1.66,0-17.72-12.82-9.48-7.25,1.23C209.69,140.39,198,139.2,208.69,153.63Z"/><path class="cls-2" d="M7.65,387.54h32.9S45.73,375.06,34,382c4.63-15-6.66-12.26-9.35-1.65,0-17.72-12.82-9.49-7.25,1.23C8.65,374.3-3,373.12,7.65,387.54Z"/><path class="cls-7" d="M305.67,161.72s-12.63-14.66-8.3-18,10,16.76,10,16.76-7.41-19.88-1.72-21.82S311.58,159,311.58,159s-1.86-23.29,6.29-22.3-1.78,23.74-1.78,23.74,5-16.58,11.28-15.84-7,15.84-7,15.84,6.6-10.34,10.64-8.72-5.82,10-5.82,10Z"/><path class="cls-10" d="M378.53,180.9H401s1.79-7.48-3.94-3.74c-.05-9.1-6.31-5.6-7.35-2-1.7-11.08-8.42-5.25-6.56,1C376.69,170.72,371.71,170.74,378.53,180.9Z"/><path class="cls-10" d="M184.89,395.24h22.48s1.79-7.48-3.93-3.74c-.06-9.11-6.32-5.6-7.35-2-1.71-11.09-8.43-5.26-6.57,1C183.05,385.06,178.06,385.08,184.89,395.24Z"/><path class="cls-10" d="M16.33,348.51H38.81s1.79-7.48-3.93-3.74c-.06-9.11-6.31-5.61-7.35-2-1.71-11.09-8.43-5.26-6.57,1C14.49,338.33,9.51,338.35,16.33,348.51Z"/><path class="cls-8" d="M468.73,177.45s-10.28-7-10.49-16.7c5.79,4,12,14.15,12,14.15s-11.85-15.43-6.54-23.14c3,4.63,8.36,19.71,8.36,19.71s-6.58-16.93-1.82-21.5c3.1,5.42,5.79,22.74,5.79,22.74s-3-20.51,2.48-23.92a77.29,77.29,0,0,1,0,24s3.83-18.68,9.5-21.06c-3.34,14.3-5.34,21.06-5.34,21.06s5.67-12.89,9-13.33a190.2,190.2,0,0,1-6.48,18.08Z"/><path class="cls-2" d="M19.83,268.25s-10.28-7-10.49-16.7c5.79,4,12,14.15,12,14.15s-11.86-15.43-6.55-23.14c3,4.63,8.36,19.71,8.36,19.71s-6.58-16.92-1.81-21.5c3.09,5.42,5.78,22.74,5.78,22.74s-3-20.51,2.49-23.92a77.29,77.29,0,0,1,0,24s3.82-18.68,9.49-21.06c-3.33,14.3-5.33,21.06-5.33,21.06s5.66-12.89,9-13.33a187.74,187.74,0,0,1-6.49,18.08Z"/><path class="cls-2" d="M472.84,344.87s-10.29-7-10.5-16.7c5.79,4,12,14.15,12,14.15s-11.86-15.43-6.55-23.14c3,4.63,8.36,19.71,8.36,19.71s-6.57-16.92-1.81-21.5c3.1,5.42,5.78,22.74,5.78,22.74s-3-20.51,2.49-23.92a77.29,77.29,0,0,1,0,24s3.83-18.68,9.49-21.06c-3.33,14.3-5.33,21.06-5.33,21.06s5.67-12.89,9-13.33A190.2,190.2,0,0,1,489.32,345Z"/><path class="cls-2" d="M224.72,327.22s-10.29-7-10.5-16.7c5.79,4,12,14.15,12,14.15s-11.86-15.43-6.55-23.13c3,4.62,8.36,19.7,8.36,19.7s-6.58-16.92-1.81-21.5c3.1,5.42,5.78,22.74,5.78,22.74s-3-20.51,2.49-23.91a77.24,77.24,0,0,1,0,24s3.83-18.68,9.49-21c-3.33,14.29-5.33,21-5.33,21s5.67-12.89,9-13.33a190.2,190.2,0,0,1-6.48,18.08Z"/><path class="cls-8" d="M303.88,168.67h41.85s-1.07-6.17-9.08-4.08c-3.36-6.91-12-6-14.67-2.79-2.69-10.12-12.14-6.93-12.41-1.86-8.28-9.93-14.11-2.1-11.53,2.32C291,159.34,282.81,168.67,303.88,168.67Z"/><path class="cls-2" d="M209.77,168.88c.92-4.72,5.34-6.7,6.49-5.48,5.31-5.26,11.32-7.09,15,4.59C224.11,170.87,209.77,168.88,209.77,168.88Z"/><path class="cls-11" d="M233.86,169c-.25,1.35-3.39,1.75-4.29,1.87-2.16.27-5.83.12-6.16-1.19s3-4.3,6.25-3.93C231.86,166,234.09,167.8,233.86,169Z"/><path class="cls-2" d="M343.21,262.87c.92-4.71,5.34-6.69,6.49-5.47,5.3-5.26,11.32-7.09,15,4.59C357.55,264.87,343.21,262.87,343.21,262.87Z"/><path class="cls-11" d="M352,263c-.25,1.35-3.39,1.75-4.29,1.86-2.17.28-5.83.12-6.16-1.18s3-4.31,6.25-3.93C350,260,352.24,261.8,352,263Z"/><path class="cls-2" d="M254.62,226.88c.93-4.72,5.35-6.7,6.49-5.48,5.31-5.25,11.33-7.08,15,4.59C269,228.87,254.62,226.88,254.62,226.88Z"/><path class="cls-11" d="M261.27,227c-.25,1.36-3.39,1.75-4.3,1.87-2.16.27-5.82.12-6.15-1.18s3-4.31,6.25-3.94C259.26,224,261.49,225.8,261.27,227Z"/><path class="cls-2" d="M384.64,218.84c.92-4.71,5.34-6.69,6.49-5.47,5.3-5.26,11.32-7.09,15,4.59C399,220.84,384.64,218.84,384.64,218.84Z"/><path class="cls-11" d="M399.71,219c-.25,1.35-3.39,1.75-4.29,1.86-2.16.28-5.83.12-6.16-1.18s3-4.31,6.25-3.93C397.71,216,399.94,217.77,399.71,219Z"/><path class="cls-2" d="M472.91,387.78c.92-4.71,5.34-6.7,6.49-5.47,5.31-5.26,11.32-7.09,15,4.58C487.25,389.78,472.91,387.78,472.91,387.78Z"/><path class="cls-11" d="M492.24,387.94c-.25,1.35-3.39,1.75-4.29,1.86-2.17.27-5.83.12-6.16-1.18s3-4.31,6.25-3.93C490.24,384.94,492.47,386.71,492.24,387.94Z"/><path class="cls-2" d="M90.94,388.79c.92-4.72,5.34-6.7,6.49-5.48,5.31-5.25,11.32-7.08,15,4.59C105.28,390.78,90.94,388.79,90.94,388.79Z"/><path class="cls-11" d="M116.64,389c-.25,1.35-3.39,1.75-4.3,1.86-2.16.27-5.82.12-6.15-1.18s3-4.31,6.25-3.94C114.63,386,116.86,387.71,116.64,389Z"/><path class="cls-12" d="M16,19.75c5.86,0,10.77-.3,14.81,0s12-2.11,15.54-1.65,15-.06,15-.06S65,5.56,46.36,7.56c-9.69,1-8.2,8.5-17.1,4s-8.14,3.28-15,3.89S5.67,19.75,16,19.75Z"/><path class="cls-12" d="M132.32,81.55c4.16-.14,6.54,2.26,13.29,1.51s12.68-1.77,16.84-1.51,10.21,1.41,11.31,0-1,.55-4.18-4-2.7-10.5-11-5.75-5.76-2.47-12.76,2.76S131.4,79.42,127.5,80,124.77,81.79,132.32,81.55Z"/><path class="cls-12" d="M108.09,13.56c5.27-.25,11.84,1.5,14.3,0s14.38.25,18,0,1.09.25-2.37-2.5-6.65-6.44-13.8-3.72S116.14,9,111.13,10.28,96.83,13,108.09,13.56Z"/><path class="cls-12" d="M342.2,82.58c2.66,1.23,10.17.88,13.42.8s20.32,2,21,.71-6-.67-8.38-4.23-3.73-6.73-8.82-4.52-6.93-.62-10.39,1.8S332.3,81.69,342.2,82.58Z"/><path class="cls-12" d="M454.66,18.56c4.7,1,7,1.64,11.74,1.19s8.72-1.19,13.22-.94,11.46,1,12.07.94c5.59-.14,9.23-3.27-5.26-6.4-4.85-1-4.89-10-12.36-5s-8.91.25-14.68,4-7.82,1.75-11.55,3.75S446.2,19.56,454.66,18.56Z"/><path class="cls-7" d="M341,302.93c-2.6.22-1.05,7.38-5.5,9.74,2.71-3.3-.17-10.47-1.83-12-4.36-4-5.08-1.16-3.28.32s5.53,6.9,3.47,11.24c-.65-9.59-12.65-17.8-13.72-14.66s10.36,6.52,12.29,15.16c-6.6-8.46-11.52-10-12.21-8.56s.24,2.26,11.27,10.85c-2.93,1.11-11-5.63-12-4.43s5.27,8.86,14.09,6.08c.27.55.48,1.06.67,1.56a9.13,9.13,0,0,1,.93-.1c-.24-.6-.5-1.2-.8-1.81C342.87,312.33,343.63,302.71,341,302.93Z"/><path class="cls-7" d="M22.6,325.06c-1.16-2.33-7.24,1.76-11.08-1.52,4.07,1.31,9.67-4,10.48-6.13,2.13-5.54-.79-5.14-1.5-2.93s-4.37,7.7-9.16,7.38c8.67-4.14,11.86-18.33,8.55-18.17s-2.24,12-9.55,17c5.42-9.26,5-14.39,3.45-14.5s-2,1.06-5.92,14.47c-2.11-2.31,1.15-12.33-.33-12.81S1.25,316,7.09,323.22c-.41.44-.81.83-1.2,1.19a9.28,9.28,0,0,1,.44.83c.46-.44.93-.91,1.38-1.42C14.54,330.24,23.77,327.39,22.6,325.06Z"/><path class="cls-7" d="M425.29,241.1c-1.16-2.33-7.24,1.76-11.08-1.51,4.06,1.3,9.67-4,10.48-6.13,2.13-5.54-.79-5.15-1.5-2.93s-4.38,7.69-9.17,7.37c8.67-4.14,11.87-18.32,8.56-18.16s-2.24,12-9.55,17c5.42-9.26,5-14.4,3.44-14.51s-2,1.06-5.92,14.48c-2.11-2.31,1.16-12.34-.32-12.81s-6.29,8.16-.45,15.34c-.41.44-.81.83-1.2,1.19a9.28,9.28,0,0,1,.44.83q.69-.66,1.38-1.41C417.23,246.28,426.45,243.43,425.29,241.1Z"/><path class="cls-13" d="M190.68,347.74c-1.17-2.33-7.24,1.75-11.08-1.52,4.06,1.31,9.66-4,10.48-6.13,2.13-5.54-.79-5.15-1.51-2.93s-4.37,7.69-9.16,7.37c8.67-4.14,11.87-18.32,8.56-18.16s-2.25,12-9.55,17c5.42-9.26,5-14.4,3.44-14.5s-2,1.05-5.92,14.47c-2.11-2.31,1.16-12.34-.32-12.81s-6.3,8.16-.45,15.34c-.42.45-.81.84-1.21,1.2a5,5,0,0,1,.44.83c.47-.45.93-.92,1.39-1.42C182.62,352.91,191.84,350.06,190.68,347.74Z"/><path class="cls-10" d="M362.3,189.13c-1.16-2.33-7.24,1.76-11.08-1.51,4.06,1.3,9.67-4,10.48-6.14,2.13-5.54-.79-5.14-1.5-2.92s-4.38,7.69-9.16,7.37c8.66-4.14,11.86-18.32,8.55-18.17s-2.24,12-9.55,17c5.42-9.27,5-14.4,3.44-14.51s-2,1.06-5.92,14.47c-2.11-2.3,1.16-12.33-.32-12.81s-6.29,8.17-.45,15.35c-.41.44-.81.83-1.2,1.19a9.28,9.28,0,0,1,.44.83c.46-.44.92-.91,1.38-1.42C354.24,194.31,363.46,191.46,362.3,189.13Z"/></g></g></svg>