<svg xmlns="http://www.w3.org/2000/svg" xmlns:xlink="http://www.w3.org/1999/xlink" viewBox="0 0 103.38 69.94"><defs><style>.cls-1{fill:none;}.cls-2{fill:#90be6d;}.cls-3{fill:#1a2e36;}.cls-4{fill:#fff;}.cls-5{clip-path:url(#clip-path);}.cls-6{fill:#43aa8b;}</style><clipPath id="clip-path"><circle id="SVGID" class="cls-1" cx="92.5" cy="6.78" r="2.72"/></clipPath></defs><g id="Layer_2" data-name="Layer 2"><g id="OBJECTS"><path class="cls-2" d="M61.88,56s-.69,10.69.25,11.27S72,68.71,71.71,66.2,69.43,64,69.43,64l1-10.35"/><path class="cls-3" d="M66.93,65.35a.74.74,0,0,1,.79.21,1.85,1.85,0,0,1,.4.74,2.79,2.79,0,0,1-.1,1.57c-.16-.51-.18-1-.31-1.47a2.17,2.17,0,0,0-.24-.63A.86.86,0,0,0,66.93,65.35Z"/><path class="cls-3" d="M69.5,65a1.86,1.86,0,0,1,1.06,1,1.81,1.81,0,0,1,0,1.46c-.07-.24-.11-.46-.18-.68a2.57,2.57,0,0,0-.23-.6A6.77,6.77,0,0,0,69.5,65Z"/><path class="cls-2" d="M69.47,32.51C72.16,21.16,82.69-.6,92.5,0c0,0,13,3.07,10.57,9.82-2.45,8.58-13.48,2.45-13.48,2.45a46.38,46.38,0,0,0-9.08,22.53c-1.35,11.58-6,25.28-28.09,24s-23.91-4.9-30,.62S7.67,68.67.32,67.44c-2.45-.61,9.8-1.22,19-15.32S35,31,46,31,67.22,35.53,69.47,32.51Z"/><circle class="cls-4" cx="92.5" cy="6.78" r="2.72"/><g class="cls-5"><path class="cls-3" d="M88.52,6.78a2.72,2.72,0,1,0,2.72-2.72A2.72,2.72,0,0,0,88.52,6.78Z"/></g><path class="cls-6" d="M46.72,34.53c-.07.92,1.66,1.79,3.85,1.95s4-.47,4.08-1.39-1.66-1.8-3.85-2S46.78,33.61,46.72,34.53Z"/><path class="cls-6" d="M37.09,35.35c.26.88,2.18,1.09,4.29.46S45,34,44.71,33.06,42.52,32,40.42,32.6,36.82,34.46,37.09,35.35Z"/><path class="cls-6" d="M43.39,39.13c.16.54,1.32.66,2.58.28s2.17-1.12,2-1.65-1.32-.66-2.58-.28S43.23,38.6,43.39,39.13Z"/><path class="cls-6" d="M40.79,42c0,.56,1,1.09,2.31,1.18s2.42-.28,2.46-.84-1-1.08-2.32-1.17S40.82,41.49,40.79,42Z"/><path class="cls-6" d="M47.93,42.21c.1.54,1.23.8,2.53.58s2.28-.86,2.19-1.41-1.23-.8-2.53-.58S47.84,41.66,47.93,42.21Z"/><path class="cls-6" d="M52.6,39.55c.16.53,1.32.66,2.58.28s2.17-1.12,2-1.65-1.32-.66-2.59-.28S52.44,39,52.6,39.55Z"/><path class="cls-6" d="M35.68,38.71c-.13.54.81,1.23,2.1,1.53s2.43.11,2.56-.43-.81-1.22-2.1-1.53S35.81,38.17,35.68,38.71Z"/><path class="cls-2" d="M51,58s-.69,10.68.25,11.27,9.84,1.44,9.58-1.07S58.51,66,58.51,66l1-10.36"/><path class="cls-3" d="M50.9,57.49a8.32,8.32,0,0,1-.09,3.67,7.21,7.21,0,0,1-.17-1.84A7.7,7.7,0,0,1,50.9,57.49Z"/><path class="cls-3" d="M59.28,58a2.32,2.32,0,0,1,.12,1,2.48,2.48,0,0,1-.31,1,2.6,2.6,0,0,1,.19-2Z"/><path class="cls-3" d="M56,67.4a.73.73,0,0,1,.79.2,1.92,1.92,0,0,1,.4.74,2.83,2.83,0,0,1-.1,1.58c-.15-.52-.18-1-.31-1.47a2.23,2.23,0,0,0-.24-.64A.88.88,0,0,0,56,67.4Z"/><path class="cls-3" d="M58.58,67.05a1.86,1.86,0,0,1,1.08,2.45c-.07-.24-.11-.46-.18-.67a2.64,2.64,0,0,0-.23-.61A6.36,6.36,0,0,0,58.58,67.05Z"/><path class="cls-2" d="M35.12,53.47s-.69,15.25.24,15.84,9.84,1.44,9.58-1.07S42.67,66,42.67,66l1-10.36"/><path class="cls-3" d="M35.1,55.66A8.32,8.32,0,0,1,35,59.33a7.21,7.21,0,0,1-.17-1.84A7.7,7.7,0,0,1,35.1,55.66Z"/><path class="cls-3" d="M43.44,58a2.6,2.6,0,0,1-.19,2,2.32,2.32,0,0,1-.12-1A2.48,2.48,0,0,1,43.44,58Z"/><path class="cls-3" d="M40.16,67.4a.72.72,0,0,1,.79.2,1.79,1.79,0,0,1,.4.74,2.83,2.83,0,0,1-.09,1.58c-.16-.52-.18-1-.32-1.47a2.23,2.23,0,0,0-.24-.64A.86.86,0,0,0,40.16,67.4Z"/><path class="cls-3" d="M42.73,67.05a1.8,1.8,0,0,1,1.06,1,1.71,1.71,0,0,1,0,1.45c-.07-.24-.1-.46-.17-.67a4,4,0,0,0-.23-.61A7.07,7.07,0,0,0,42.73,67.05Z"/><path class="cls-3" d="M61.64,58.48c.87-.37,1.76-.69,2.65-1s1.8-.55,2.68-.87a12.72,12.72,0,0,0,2.52-1.14,15.18,15.18,0,0,0,2.23-1.71,9.4,9.4,0,0,1-2,2A11.11,11.11,0,0,1,67.11,57C65.29,57.6,63.48,58.05,61.64,58.48Z"/><path class="cls-3" d="M96.68,9.5a3.91,3.91,0,0,0,.81,1,1.72,1.72,0,0,0,1.12.39,2,2,0,0,0,1.13-.37,1.69,1.69,0,0,0,.7-1,1.45,1.45,0,0,1-.49,1.28,2.08,2.08,0,0,1-1.34.54,1.91,1.91,0,0,1-1.34-.57A2.46,2.46,0,0,1,96.68,9.5Z"/><path class="cls-3" d="M54.89,64.13c.42,0,.78.05,1.14.05a2.84,2.84,0,0,0,1.08-.05.81.81,0,0,1-.48.39,1.72,1.72,0,0,1-.63.09A1.9,1.9,0,0,1,54.89,64.13Z"/><path class="cls-3" d="M54.27,62.81a2.78,2.78,0,0,1,1.38-.6,2,2,0,0,1,1.46.33,8.09,8.09,0,0,0-1.41.09C55.24,62.67,54.78,62.78,54.27,62.81Z"/><path class="cls-3" d="M66.13,61.89a10.2,10.2,0,0,1,1.14.06,3.09,3.09,0,0,0,1.08-.06.93.93,0,0,1-.49.4,1.68,1.68,0,0,1-.63.08A1.81,1.81,0,0,1,66.13,61.89Z"/><path class="cls-3" d="M65.5,60.58a2.64,2.64,0,0,1,1.38-.6,1.92,1.92,0,0,1,1.47.33,8.21,8.21,0,0,0-1.42.09C66.47,60.44,66,60.55,65.5,60.58Z"/><path class="cls-3" d="M39.36,63.54c.42,0,.78.06,1.14.06a3.08,3.08,0,0,0,1.08-.06.86.86,0,0,1-.49.4,1.63,1.63,0,0,1-.62.08A1.78,1.78,0,0,1,39.36,63.54Z"/><path class="cls-3" d="M38.74,62.23a2.61,2.61,0,0,1,1.37-.6,2,2,0,0,1,1.47.33,8,8,0,0,0-1.41.09C39.7,62.09,39.25,62.2,38.74,62.23Z"/><path class="cls-3" d="M86.8,10.31A24.36,24.36,0,0,0,89.28,12c.42.26.86.49,1.31.71s.9.43,1.36.66a7.79,7.79,0,0,1-2.88-1A7.25,7.25,0,0,1,86.8,10.31Z"/></g></g></svg>