<svg xmlns="http://www.w3.org/2000/svg" xmlns:xlink="http://www.w3.org/1999/xlink" viewBox="0 0 81.75 50.24"><defs><style>.cls-1{fill:none;}.cls-2{fill:#277da1;}.cls-3{fill:#1a2e36;}.cls-4,.cls-7{fill:#43aa8b;}.cls-5{fill:#fff;}.cls-6{clip-path:url(#clip-path);}.cls-7{opacity:0.5;}</style><clipPath id="clip-path"><path id="SVGID" class="cls-1" d="M66.39,24.4a3.22,3.22,0,1,0,3.21-3.22A3.22,3.22,0,0,0,66.39,24.4Z"/></clipPath></defs><g id="Layer_2" data-name="Layer 2"><g id="OBJECTS"><path class="cls-2" d="M53.52,34.5s-.7,10.69.24,11.27,9.84,1.45,9.58-1.06-2.27-2.21-2.27-2.21l1-10.35"/><path class="cls-3" d="M58.56,43.86a.73.73,0,0,1,.79.21,1.73,1.73,0,0,1,.4.74,2.79,2.79,0,0,1-.09,1.57c-.16-.51-.18-1-.32-1.47a2.17,2.17,0,0,0-.24-.63A.84.84,0,0,0,58.56,43.86Z"/><path class="cls-3" d="M61.13,43.51a1.83,1.83,0,0,1,1.06,1,1.73,1.73,0,0,1,0,1.46c-.07-.24-.1-.46-.17-.68a3.92,3.92,0,0,0-.23-.6A7.58,7.58,0,0,0,61.13,43.51Z"/><path class="cls-4" d="M61.66,23.15c7.15-5.84,2.64-9.35-.85-7.84,2.75-8.36-4.51-7.12-5.2-4.89,2.65-6.66-6.44-7.27-7.14-5-.08-7.33-9-5.74-9.19-2.34-5.87-6.58-8.79-.94-7.85,2.52-3.2-3.59-8.55.65-5.91,4.21-3.93-.79-7.55,3-4.85,5.4-5.62-.89-7.42.72-4.37,7.13C49.61-3.62,61.66,23.15,61.66,23.15Z"/><path class="cls-2" d="M41.47,4.86c12,0,17.41,15,26.42,15s14.41,3.6,13.81,9-7.8,6.6-14.41,3.6-4.2,7.21-25.82,6C20.87,37.35,4.57,24.8.06,14.71a.62.62,0,0,1,.81-.83c7.27,3.16,18,4.61,22,1.79C27.05,12.67,31.26,4.86,41.47,4.86Z"/><path class="cls-5" d="M66.39,24.4a3.22,3.22,0,1,0,3.21-3.22A3.22,3.22,0,0,0,66.39,24.4Z"/><g class="cls-6"><path class="cls-3" d="M64.9,24.4a3.22,3.22,0,1,0,3.22-3.22A3.22,3.22,0,0,0,64.9,24.4Z"/></g><path class="cls-2" d="M43.44,38.34s-.69,10.69.25,11.27,9.83,1.45,9.58-1.06S51,46.34,51,46.34L52,36"/><path class="cls-3" d="M43.42,36a7.94,7.94,0,0,1-.09,3.67A7.94,7.94,0,0,1,43.42,36Z"/><path class="cls-3" d="M51.76,38.27a2.57,2.57,0,0,1-.19,2,2.27,2.27,0,0,1-.12-1A2.43,2.43,0,0,1,51.76,38.27Z"/><path class="cls-3" d="M48.48,47.7a.73.73,0,0,1,.79.21,1.73,1.73,0,0,1,.4.74,2.79,2.79,0,0,1-.09,1.57c-.16-.51-.18-1-.32-1.47a1.92,1.92,0,0,0-.24-.63A.84.84,0,0,0,48.48,47.7Z"/><path class="cls-3" d="M51.06,47.35a1.89,1.89,0,0,1,1.06,1,1.77,1.77,0,0,1,0,1.46c-.07-.24-.1-.46-.17-.68a3.1,3.1,0,0,0-.23-.6A7.49,7.49,0,0,0,51.06,47.35Z"/><path class="cls-2" d="M29,33.56s-.68,14.33.26,14.91,9.84,1.45,9.58-1.06-2.27-2.21-2.27-2.21l1-10.35"/><path class="cls-3" d="M29,34.82a7.68,7.68,0,0,1,.16,1.84,7.22,7.22,0,0,1-.26,1.83,8.13,8.13,0,0,1,.1-3.67Z"/><path class="cls-3" d="M37.38,37.13a2.44,2.44,0,0,1,.11,1,2.29,2.29,0,0,1-.31,1,2.53,2.53,0,0,1,.2-2Z"/><path class="cls-3" d="M34.1,46.56a.73.73,0,0,1,.79.21,1.85,1.85,0,0,1,.4.74,2.88,2.88,0,0,1-.09,1.57c-.16-.51-.19-1-.32-1.47a2.17,2.17,0,0,0-.24-.63A.87.87,0,0,0,34.1,46.56Z"/><path class="cls-3" d="M36.67,46.21a1.86,1.86,0,0,1,1.06,1,1.73,1.73,0,0,1,0,1.46c-.07-.24-.1-.46-.17-.67a3.67,3.67,0,0,0-.23-.61A7.58,7.58,0,0,0,36.67,46.21Z"/><path class="cls-3" d="M79.48,26.93A1.56,1.56,0,0,1,79,28.1a1.66,1.66,0,0,1-1.26.41A2.17,2.17,0,0,1,76.58,28,1.78,1.78,0,0,1,76,26.93a2.5,2.5,0,0,0,1.86,1.16,1.43,1.43,0,0,0,1-.24A2,2,0,0,0,79.48,26.93Z"/><path class="cls-3" d="M62.23,33.15a21.06,21.06,0,0,1-4.11,3.09,15.13,15.13,0,0,1-2.33,1.12,7.84,7.84,0,0,1-2.52.54,11.77,11.77,0,0,0,2.4-.84,23.91,23.91,0,0,0,2.24-1.18c.75-.41,1.46-.87,2.17-1.33Z"/><path class="cls-2" d="M73.16,21c-1.64-3.2-5.67-3.73-6.77,0"/><path class="cls-7" d="M45.16,7.3c3.33,1.12,3.43,2.73,0,1.48S42.77,6.5,45.16,7.3Z"/><path class="cls-7" d="M38.89,6.68c4-.5,3.32.86,0,1.79S36.46,7,38.89,6.68Z"/><path class="cls-7" d="M42.27,11.58c3.17.43,2.89-2.14,0-2.89S38.14,11,42.27,11.58Z"/><path class="cls-7" d="M34.65,9.24c2.29-.56,1.43-1.3,0-1.11S32.16,9.84,34.65,9.24Z"/><path class="cls-7" d="M36.67,11.05c1.7-.19,2.12-2,0-1.67S34.58,11.28,36.67,11.05Z"/><path class="cls-7" d="M47,11.07c2.5,1.22,2.82.21.75-.57S47,11.07,47,11.07Z"/><path class="cls-7" d="M49.92,9.38c1.95,1.12,1.21-.35-.33-1.25S48,8.25,49.92,9.38Z"/><path class="cls-7" d="M32.21,11.07c1-.79,1.41-1.56-.54-.87S31.29,11.78,32.21,11.07Z"/><path class="cls-3" d="M59.91,41a1.75,1.75,0,0,1-1.1.48,1.68,1.68,0,0,1-.63-.08.93.93,0,0,1-.49-.4,3.09,3.09,0,0,0,1.08.06C59.14,41.07,59.49,41,59.91,41Z"/><path class="cls-3" d="M60.54,39.7c-.52,0-1-.14-1.43-.18a8.21,8.21,0,0,0-1.42-.09,2,2,0,0,1,1.47-.33A2.73,2.73,0,0,1,60.54,39.7Z"/><path class="cls-3" d="M49.28,44.34a1.78,1.78,0,0,1-1.11.48,1.66,1.66,0,0,1-.62-.08.84.84,0,0,1-.49-.4,2.68,2.68,0,0,0,1.08.06C48.5,44.4,48.86,44.32,49.28,44.34Z"/><path class="cls-3" d="M49.9,43c-.51,0-1-.14-1.43-.18a8,8,0,0,0-1.41-.09,2,2,0,0,1,1.47-.33A2.66,2.66,0,0,1,49.9,43Z"/><path class="cls-3" d="M35.41,43.34a1.9,1.9,0,0,1-1.11.48,1.67,1.67,0,0,1-.62-.09.87.87,0,0,1-.49-.39,2.85,2.85,0,0,0,1.08,0C34.63,43.39,35,43.31,35.41,43.34Z"/><path class="cls-3" d="M36,42c-.51,0-1-.14-1.43-.18a8,8,0,0,0-1.41-.09,2,2,0,0,1,1.47-.33A2.78,2.78,0,0,1,36,42Z"/></g></g></svg>