<svg xmlns="http://www.w3.org/2000/svg" xmlns:xlink="http://www.w3.org/1999/xlink" viewBox="0 0 77.15 112.45"><defs><style>.cls-1{fill:none;}.cls-2{fill:#1a2e36;}.cls-3{fill:#f3722c;}.cls-4{fill:#fff;}.cls-5{clip-path:url(#clip-path);}.cls-6{fill:#f9c74f;}.cls-7{fill:#f8961e;}</style><clipPath id="clip-path"><path id="SVGID" class="cls-1" d="M65,4.92A2.94,2.94,0,0,1,59.23,6,2.94,2.94,0,0,1,65,4.92Z"/></clipPath></defs><g id="Layer_2" data-name="Layer 2"><g id="OBJECTS"><path class="cls-2" d="M57.52,104.11c.23.47.36.93.59,1.35a1.64,1.64,0,0,0,.93,1,.94.94,0,0,1-.79-.15,1.86,1.86,0,0,1-.52-.64A2.54,2.54,0,0,1,57.52,104.11Z"/><path class="cls-3" d="M69.37,85.33s.77,10.86,1.82,19.14c1.61,0,3,3.36.15,4.2-8.05,2-12.29.6-14.09-.42a1.75,1.75,0,0,1-.62-2.23,11.52,11.52,0,0,1,.88-1.49c-.51-1.92.36-18-.17-18.57"/><path class="cls-2" d="M65.77,105.71a11.27,11.27,0,0,1,1.29.24,2.14,2.14,0,0,1,1.17.74,2.08,2.08,0,0,1,.33,1.35,3.69,3.69,0,0,1-.35,1.28,3.79,3.79,0,0,0-.32-2.38C67.46,106.3,66.52,106.17,65.77,105.71Z"/><path class="cls-2" d="M68.7,105.27a11.68,11.68,0,0,1,1.29.24,2.18,2.18,0,0,1,1.17.74,2.08,2.08,0,0,1,.33,1.35,3.69,3.69,0,0,1-.35,1.28,3.79,3.79,0,0,0-.32-2.38C70.39,105.86,69.45,105.73,68.7,105.27Z"/><path class="cls-2" d="M65.28,97.59a13.33,13.33,0,0,0,1.86.11,2.91,2.91,0,0,0,1.7-.54,1.68,1.68,0,0,1-.69.71,2.63,2.63,0,0,1-1,.25A3.27,3.27,0,0,1,65.28,97.59Z"/><path class="cls-2" d="M65.93,96.48A2,2,0,0,1,67,96a1.87,1.87,0,0,1,.62,0,.61.61,0,0,1,.46.44.82.82,0,0,0-.51-.12,3.19,3.19,0,0,0-.52.06A6.68,6.68,0,0,1,65.93,96.48Z"/><path class="cls-2" d="M65.49,95a2,2,0,0,1,1.24-.63,1.72,1.72,0,0,1,.74.09A1,1,0,0,1,68,95a1.93,1.93,0,0,0-1.21-.17C66.37,94.82,66,95,65.49,95Z"/><path class="cls-3" d="M63.08,14.18c.22,8.93,6.24,52.27,7,60.2,1.21,13.15-1.28,22.15-30,19s-36.54-9.7-40-34.8C-.85,50,7.58,75.77,16.68,74.38c8-1.23,1.9-14.12,12.7-17.24,17.9-5.18,24.23,8.07,23.46-9.23C51.94,27.46,48.17,2.53,57.79.35,63.7-1,64.82,1.84,69.5,3s8,3.73,7.63,6.84S70.87,19,63.08,14.18Z"/><path class="cls-2" d="M40.78,106.86c.24.47.37.94.59,1.35a1.67,1.67,0,0,0,.93,1,.94.94,0,0,1-.79-.15,1.69,1.69,0,0,1-.52-.64A2.54,2.54,0,0,1,40.78,106.86Z"/><path class="cls-3" d="M52.64,88.08s.77,10.86,1.82,19.14c1.61,0,2.95,3.36.15,4.2-8.06,2-12.29.6-14.09-.42a1.72,1.72,0,0,1-.62-2.23,11.52,11.52,0,0,1,.88-1.49c-.51-1.92.35-18-.17-18.57"/><path class="cls-2" d="M49,108.46a12.13,12.13,0,0,1,1.29.24,2.3,2.3,0,0,1,1.17.75,2.1,2.1,0,0,1,.33,1.34,3.69,3.69,0,0,1-.35,1.28,3.69,3.69,0,0,0-.33-2.37C50.73,109.05,49.78,108.92,49,108.46Z"/><path class="cls-2" d="M52,108a12.13,12.13,0,0,1,1.29.24,2.23,2.23,0,0,1,1.16.75,2,2,0,0,1,.33,1.35,3.47,3.47,0,0,1-.34,1.27,3.69,3.69,0,0,0-.33-2.37C53.66,108.61,52.71,108.48,52,108Z"/><path class="cls-2" d="M47,101.49a12.15,12.15,0,0,0,2.09,0,3.15,3.15,0,0,0,1.85-.76,1.78,1.78,0,0,1-.73.83,2.93,2.93,0,0,1-1.07.35A3.74,3.74,0,0,1,47,101.49Z"/><path class="cls-2" d="M47.83,100.41a2.09,2.09,0,0,1,1-.65,1.72,1.72,0,0,1,.64,0,.62.62,0,0,1,.53.38.83.83,0,0,0-.53,0,3.37,3.37,0,0,0-.53.12A7.14,7.14,0,0,1,47.83,100.41Z"/><path class="cls-2" d="M47.28,98.81a2.35,2.35,0,0,1,1.36-.67,2,2,0,0,1,.8.1,1.08,1.08,0,0,1,.57.54,2,2,0,0,0-1.32-.21C48.23,98.59,47.79,98.74,47.28,98.81Z"/><path class="cls-2" d="M20.78,106.42c.18.48.26.94.44,1.36a1.4,1.4,0,0,0,.83,1,.82.82,0,0,1-.76-.15,1.61,1.61,0,0,1-.47-.66A2.44,2.44,0,0,1,20.78,106.42Z"/><path class="cls-3" d="M34.62,87.65s-.38,10.86-.2,19.13c1.61,0,2.6,3.36-.3,4.2-8.27,2-12.35.6-14-.41a1.63,1.63,0,0,1-.39-2.23,14,14,0,0,1,1-1.5c-.31-1.91,1.79-20.49,1.32-21.09"/><path class="cls-2" d="M28.87,108c.42.08.84.13,1.26.25a2,2,0,0,1,1.12.8,2,2,0,0,1,.15,1.36,3.65,3.65,0,0,1-.48,1.21,11.26,11.26,0,0,0,.16-1.25,1.87,1.87,0,0,0-.2-1.11,1.76,1.76,0,0,0-.87-.7A10,10,0,0,1,28.87,108Z"/><path class="cls-2" d="M31.84,107.58c.43.08.84.13,1.26.25a1.94,1.94,0,0,1,1.12.8,1.91,1.91,0,0,1,.15,1.36,3.63,3.63,0,0,1-.47,1.21c.05-.43.14-.84.15-1.25a1.87,1.87,0,0,0-.2-1.11,1.73,1.73,0,0,0-.86-.7A9.36,9.36,0,0,1,31.84,107.58Z"/><path class="cls-2" d="M29.23,100.52a10.53,10.53,0,0,0,1.95-.56,3.73,3.73,0,0,0,.85-.48,4.06,4.06,0,0,0,.7-.73,2,2,0,0,1-.48,1,3,3,0,0,1-.9.63A3.43,3.43,0,0,1,29.23,100.52Z"/><path class="cls-2" d="M30.14,98.93a1.75,1.75,0,0,1,.89-.6,1.79,1.79,0,0,1,.57,0c.18,0,.43.13.46.34a.73.73,0,0,0-.46,0,3.81,3.81,0,0,0-.45.13A4.42,4.42,0,0,1,30.14,98.93Z"/><path class="cls-2" d="M29.8,97.34A2,2,0,0,1,31,96.71a1.64,1.64,0,0,1,.69.06.83.83,0,0,1,.49.48A1.63,1.63,0,0,0,31,97.13C30.63,97.17,30.25,97.3,29.8,97.34Z"/><path class="cls-4" d="M65,4.92A2.94,2.94,0,0,1,59.23,6,2.94,2.94,0,0,1,65,4.92Z"/><g class="cls-5"><path class="cls-2" d="M66.07,4.1a2.95,2.95,0,0,1-5.79,1.1,2.95,2.95,0,0,1,5.79-1.1Z"/></g><path class="cls-2" d="M63.85,11.07a2.11,2.11,0,0,0,.48.65.61.61,0,0,0,.62.1c.45-.12.74-.61,1-1.14a1.39,1.39,0,0,1-.85,1.55.9.9,0,0,1-1-.28A1.21,1.21,0,0,1,63.85,11.07Z"/><path class="cls-2" d="M71,9.72a3.88,3.88,0,0,1-1.31-.39,2,2,0,0,1-.58-.4,1.58,1.58,0,0,1-.24-.31.45.45,0,0,1,0-.54.7.7,0,0,1,.87,0,2.18,2.18,0,0,1,.52.48A4.75,4.75,0,0,1,71,9.72Zm0,0c-.32-.32-.62-.65-.94-.93a3.15,3.15,0,0,0-.49-.37c-.17-.1-.33-.11-.36-.05a.77.77,0,0,0,.18.29,4.7,4.7,0,0,0,.47.4A11.34,11.34,0,0,0,71,9.72Z"/><path class="cls-2" d="M74,9.14a3.75,3.75,0,0,1,.19-1.28,1.61,1.61,0,0,1,.34-.61A.67.67,0,0,1,75.27,7c.06,0,.16.09.23.16a.51.51,0,0,1,.06.28.84.84,0,0,1-.14.38,2.21,2.21,0,0,1-.43.52A4.58,4.58,0,0,1,74,9.14Zm0,0c.26-.34.54-.66.79-1,.11-.17.24-.33.33-.5a.46.46,0,0,0,.07-.21c0-.05,0,0,0,0-.22-.14-.49.22-.67.58A12,12,0,0,0,74,9.14Z"/><path class="cls-6" d="M39.59,68.17c-8.08,5.08-10.89-.57-5.71-4.31S46.33,63.93,39.59,68.17Z"/><path class="cls-6" d="M41.92,69.65c-3.88,1.88.09,5.19,4.27,1.52S47.46,67,41.92,69.65Z"/><path class="cls-6" d="M45.72,62.78C43,64,38,61.11,43.06,59.57S50.19,60.79,45.72,62.78Z"/><path class="cls-6" d="M30.46,64.92c-4.94,2.79-6.63-2-1.27-4.35S35.53,62.06,30.46,64.92Z"/><path class="cls-6" d="M25.09,72c-4.09-3.09-1.24-4.59,2.12-3.71A2.22,2.22,0,1,1,25.09,72Z"/><path class="cls-7" d="M58.62,2.82C60,.89,61.94.65,63.86,2.45"/><path class="cls-2" d="M69.37,85.33a8.84,8.84,0,0,1-1.78,3.37,12.7,12.7,0,0,1-2.89,2.53,16,16,0,0,1-3.5,1.59c-.6.19-1.23.31-1.85.47l-1.89.25,1.84-.45c.6-.2,1.22-.35,1.8-.58a17.22,17.22,0,0,0,3.37-1.64,13.42,13.42,0,0,0,2.87-2.39A10.57,10.57,0,0,0,69.37,85.33Z"/><path class="cls-2" d="M52.81,90.36a11.93,11.93,0,0,1,.45,2.2,11.07,11.07,0,0,1,0,2.23,11.83,11.83,0,0,1-.45-2.19A11.17,11.17,0,0,1,52.81,90.36Z"/><path class="cls-2" d="M40.78,90.36a8.17,8.17,0,0,1,0,3.68,7.7,7.7,0,0,1-.21-1.84A8.31,8.31,0,0,1,40.78,90.36Z"/><path class="cls-2" d="M34.54,90.36a6.12,6.12,0,0,1,0,3.18,5.86,5.86,0,0,1,0-3.18Z"/><path class="cls-2" d="M22.05,88.18a8.09,8.09,0,0,1,.08,1.9A8,8,0,0,1,21.78,92a8.09,8.09,0,0,1-.08-1.9A8.21,8.21,0,0,1,22.05,88.18Z"/></g></g></svg>