<svg id="Layer_1" data-name="Layer 1" xmlns="http://www.w3.org/2000/svg" xmlns:xlink="http://www.w3.org/1999/xlink" viewBox="0 0 83 50.65"><defs><style>.cls-1{fill:none;}.cls-2{fill:#1a2e36;}.cls-3{fill:#5371b6;}.cls-4{fill:#fff;}.cls-5{clip-path:url(#clip-path);}</style><clipPath id="clip-path" transform="translate(0 0)"><path class="cls-1" d="M57.09,7.67a2.35,2.35,0,1,0,3.22-.78,2.33,2.33,0,0,0-3.22.78Z"/></clipPath></defs><g id="Layer_2" data-name="Layer 2"><g id="OBJECTS"><path class="cls-2" d="M78.41,20.31s-15-9.16-18-8.4S59.73,18.34,78.41,20.31Z" transform="translate(0 0)"/><path class="cls-3" d="M52.73,21.44c-4.63,1.27-11.52-.63-11.52-.63L35.47,8.37S22.05,6.18,19.94,6.59,0,12.48,0,12.48s21.63,1.25,24.94,8C29.27,19.14,41.33,32.36,41.8,36c5.58-2.73,7.55-3.7,6.46.25,10.67-6.1,16.95-3.28,20.67.8,6.07-.55,12.22,13.6,12.22,13.6s2.62-14.27,1.61-17.1S76.69,26,76.69,26s-8,1.93-11,1.28a8.07,8.07,0,0,1-6.16-6A3.41,3.41,0,0,0,58,19.65C56.44,18.91,54.25,19.58,52.73,21.44Z" transform="translate(0 0)"/><path class="cls-2" d="M68.93,37a31.26,31.26,0,0,0,4-4.75A54.72,54.72,0,0,0,76.2,27l.26.27a18.21,18.21,0,0,1-4.13,1.37A16.66,16.66,0,0,1,68,29a13.73,13.73,0,0,1-4.25-.9A14.63,14.63,0,0,1,60,25.87a14.26,14.26,0,0,0,8,2.79,18,18,0,0,0,8.25-1.77h0a.2.2,0,0,1,.26.08h0a.17.17,0,0,1,0,.17,40.47,40.47,0,0,1-3.32,5.32A24.08,24.08,0,0,1,68.93,37Z" transform="translate(0 0)"/><path class="cls-2" d="M81.15,50.65c.28-4.17.53-8.35.65-12.52V35a4.82,4.82,0,0,0-.1-.75,6.07,6.07,0,0,0-.29-.7,13.65,13.65,0,0,0-.73-1.36,51.83,51.83,0,0,0-3.72-5A19.44,19.44,0,0,1,81,32a6.41,6.41,0,0,1,1,3v3.14C81.86,42.32,81.51,46.48,81.15,50.65Z" transform="translate(0 0)"/><path class="cls-2" d="M34.9,9.62l2,5.34c.69,1.78,1.33,3.57,2,5.33.18.44.36.88.56,1.3a1.64,1.64,0,0,0,.35.52,3,3,0,0,0,.56.36,10.84,10.84,0,0,0,2.67.81,46.62,46.62,0,0,0,5.65.7h0a.09.09,0,0,1,.09.09h0a9.87,9.87,0,0,1-.8,3.07,11.51,11.51,0,0,1-1.62,2.72,13.07,13.07,0,0,1-2.26,2.2,15.81,15.81,0,0,1-2.7,1.64A16.12,16.12,0,0,0,44.14,32a12.28,12.28,0,0,0,2.22-2.22,11.49,11.49,0,0,0,1.56-2.72,10.08,10.08,0,0,0,.74-3l.1.1a36.53,36.53,0,0,1-5.71-.53,10.91,10.91,0,0,1-2.79-.82,3.31,3.31,0,0,1-.64-.41,1.75,1.75,0,0,1-.46-.65c-.21-.44-.38-.88-.56-1.33C37.22,16.88,36,13.26,34.9,9.62Z" transform="translate(0 0)"/><path class="cls-2" d="M0,12.48c2.75-.83,5.51-1.64,8.29-2.37s5.56-1.44,8.39-2A33,33,0,0,1,21,7.49a34.62,34.62,0,0,1,4.32.21c2.87.27,5.72.65,8.56,1.07A.17.17,0,0,1,34,9h0a.17.17,0,0,1,0,.1,55.89,55.89,0,0,0-5,5.32,26.61,26.61,0,0,0-4,6.11,26.52,26.52,0,0,1,3.8-6.26,53.53,53.53,0,0,1,5-5.43l.1.31c-2.84-.4-5.69-.76-8.55-1A42.13,42.13,0,0,0,21,7.9a33.6,33.6,0,0,0-4.23.58C14,9,11.16,9.68,8.37,10.36S2.77,11.73,0,12.48Z" transform="translate(0 0)"/><path class="cls-3" d="M41.45,34.85a2.08,2.08,0,0,0-1.06,1.67c-.14.68-.45,1-.87,1s-.33.89.7.39c-.65.78-.4,1.3.77.51-.77,1.3-.07,1.69.82.54s.35-2.8,1.69-4.08" transform="translate(0 0)"/><path class="cls-3" d="M48.46,34.89a2.09,2.09,0,0,0-1.05,1.67c-.14.68-.45,1-.87,1s-.33.88.7.38c-.65.78-.4,1.3.77.51-.77,1.31-.07,1.69.82.54s.35-2.8,1.69-4.08" transform="translate(0 0)"/><path class="cls-3" d="M34,8.5c.14,0,.7-1.78,1.47-1.86s-.23,1.05-.23,1.05,1.52-1,2-.33S36,8.21,36,8.21s1.25-.08,1.3.59-1.44.14-2.09.43" transform="translate(0 0)"/><path class="cls-3" d="M76.39,26.25c.13,0,.8-1.7,1.53-1.7s-.3,1-.3,1,1.52-.83,1.89-.14-1.23.73-1.23.73,1.2.05,1.2.72-1.39,0-2,.21" transform="translate(0 0)"/><path class="cls-2" d="M51.38,24.19a17.4,17.4,0,0,1-2.7.06A16.15,16.15,0,0,1,46,23.88a17.53,17.53,0,0,1,2.71-.06A16,16,0,0,1,51.38,24.19Z" transform="translate(0 0)"/><path class="cls-3" d="M52.73,21.44A13.19,13.19,0,0,0,57,13l2.92.73s-1,5.36,0,8.65C56.42,23.49,52.73,21.44,52.73,21.44Z" transform="translate(0 0)"/><path class="cls-4" d="M75.1,17.08c-.7,1.44-1.49,1.51-1.22.35-.87,1.12-1.52.74-1.28-.09-.76,1-2,1.09-1.49-.34-.76,1-1.77,1.19-1.39-.09-.85.95-1.94.74-1.35-.56-.77,1-1.55.8-1.26-.52-1.3.93-1.64.84-1.5-.28-1,1.06-1.89.35-1.5-.61S75.1,17.08,75.1,17.08Z" transform="translate(0 0)"/><path class="cls-3" d="M56.59,15.4s15.82,7.43,21.82,4.91c-.62-.56-16.11-2.51-19-7.36,8.65,3.56,9.8,3.21,14.38,4S79.93,18.11,83,18c-.49-2.54-6.42-4.58-9.85-5S63.86,8,60.28,5.35,48-1.29,46.91.41s8,5.93,6.81,9a4.41,4.41,0,0,0,.07,3.82A4.41,4.41,0,0,0,56.59,15.4Z" transform="translate(0 0)"/><path class="cls-4" d="M57.09,7.67a2.35,2.35,0,1,0,3.22-.78,2.33,2.33,0,0,0-3.22.78Z" transform="translate(0 0)"/><g class="cls-5"><path class="cls-2" d="M58.24,8.38a2.35,2.35,0,1,0,3.23-.77A2.33,2.33,0,0,0,58.24,8.38Z" transform="translate(0 0)"/></g><path class="cls-2" d="M61.79,6.55a11.75,11.75,0,0,0-2.48-1.11,4.4,4.4,0,0,0-2.59-.07,3.57,3.57,0,0,0-2,1.54,6.42,6.42,0,0,0-1,2.52,5.18,5.18,0,0,1,.68-2.69A3.87,3.87,0,0,1,56.59,5a4.47,4.47,0,0,1,2.82.17A7.88,7.88,0,0,1,61.79,6.55Z" transform="translate(0 0)"/><path class="cls-3" d="M59.73,21.31c1.84,7-4.6,14.44-10.94,13" transform="translate(0 0)"/><path class="cls-2" d="M59.73,21.31a9.75,9.75,0,0,1,.17,5,11.35,11.35,0,0,1-2.19,4.54,10.32,10.32,0,0,1-4,3.07,7.43,7.43,0,0,1-4.94.39,8,8,0,0,0,4.81-.69,10.43,10.43,0,0,0,3.78-3A11.26,11.26,0,0,0,59.73,21.31Z" transform="translate(0 0)"/></g></g></svg>