<svg xmlns="http://www.w3.org/2000/svg" viewBox="0 0 880.12 907.13"><defs><style>.cls-1{fill:#707272;}.cls-2{fill:#909493;}.cls-3{fill:#a0a5a5;}.cls-4{fill:#adb3b3;}.cls-5{fill:#bebfb6;}.cls-6{fill:#818483;}.cls-7{fill:#a0a3a2;}.cls-8{fill:#fff;opacity:0.35;}</style></defs><g id="Layer_2" data-name="Layer 2"><g id="Layer_1-2" data-name="Layer 1"><path class="cls-1" d="M76.35,0,0,70S21.21,260,17,308.17,0,483.07,0,483.07V856.46l85.64,50.67s262.6-109.91,302.89-124.8,289-156.93,289-156.93L871.64,483.07l8.48-64.84c-21.33-44-191-143.3-242.8-173.1-57.41-33-155-66.68-280.05-128.49C215.62,46.66,76.35,0,76.35,0Z"/><path class="cls-2" d="M92.43,23.75l-71.95,66s20,179.11,16,224.46S20.48,479,20.48,479V830.87l80.71,47.75S348.66,775,386.63,761,659,613.12,659,613.12L841.91,479l8-61.1c-20.1-41.45-180-135-228.81-163.13-54.11-31.13-146-62.84-263.92-121.09C223.69,67.72,92.43,23.75,92.43,23.75Z"/><path class="cls-3" d="M849.9,417.89c-20.1-41.45-180-135-228.81-163.13-54.11-31.13-146-62.84-263.92-121.09C223.69,67.72,92.43,23.75,92.43,23.75l-71.95,66s20,179.11,16,224.46S20.48,479,20.48,479V830.87l.42.25C41,818.72,61.29,793.5,76.4,779.64c23.06-21.15,45.64-42.84,67.49-65.25,24.72-25.36,48.56-51.68,75.32-74.88,33.32-28.89,70.74-52.57,108-76.14,87.93-55.6,177.11-111.8,276.3-143.17,22.36-7.07,45.4-12.88,68.84-13.08,53.57-.44,106.06,28.33,158.71,18.42a79.44,79.44,0,0,0,18.61-6Z"/><path class="cls-4" d="M167.39,117.22l-56.22,51.53s15.62,139.94,12.49,175.38-12.49,128.78-12.49,128.78V747.84l63.06,37.31s193.35-80.93,223-91.89S610,577.71,610,577.71l143-104.8,6.24-47.74c-15.7-32.39-140.65-105.52-178.78-127.46-42.27-24.32-114.1-49.1-206.2-94.6C269.94,151.57,167.39,117.22,167.39,117.22Z"/><path class="cls-5" d="M125.16,600.15V495.35s9.37-93.35,12.49-128.78-12.49-175.38-12.49-175.38l56.22-51.53S283.93,174,388.22,225.55c92.1,45.5,163.93,70.28,206.2,94.6,32.18,18.52,126.18,73.49,164.19,109.66l.6-4.64c-15.7-32.39-140.65-105.52-178.78-127.46-42.27-24.32-114.1-49.1-206.2-94.6-104.29-51.54-206.84-85.89-206.84-85.89l-56.22,51.53s15.62,139.94,12.49,175.38-12.49,128.78-12.49,128.78V747.84l14,8.28Z"/><path class="cls-4" d="M41.52,82.89C38.1,86,34.45,89.59,34,94.21c-.65,6.22,4.66,11.36,9.87,14.82,17.3,11.47,38.67,16.38,54.47,29.85,5.46,4.65,11.36,10.67,18.44,9.56,4.11-.64,7.41-3.63,10.45-6.48,8.45-7.93,17.63-17.87,15.82-29.32-1.08-6.84-5.94-12.36-10.13-17.88A117.62,117.62,0,0,1,117.6,68C115,61.63,113,55,109.42,49.12,99,31.79,89.36,39,77.55,49.85Z"/><path class="cls-4" d="M35.48,425.83c-1.3,5.52-2.7,11.17-1.93,16.79s4.26,11.25,9.72,12.75c2.91.8,6,.35,9-.33a58.81,58.81,0,0,0,33.94-22.47c11-15.1,14-34.38,16.81-52.85l6.75-45.32c1-6.76,2-13.72.4-20.37S103.68,301,97,299.8c-4.19-.77-8.47.49-12.54,1.78-8.25,2.6-28.95,5.62-34.19,12.74-4.94,6.73-2,25.36-2.66,33.59A514,514,0,0,1,35.48,425.83Z"/><path class="cls-4" d="M32.47,771.24c.36,3.46.9,7,2.77,10,2.87,4.53,8.59,6.74,13.94,6.35s10.33-3,14.45-6.49c11.73-9.8,16.92-25.16,21.59-39.71s9.29-29,10.61-44.14c1.29-14.77-.66-29.6-1.59-44.4-2.66-42,2.85-84.24-.61-126.17-.49-5.94-1.53-12.56-6.28-16.15a6.88,6.88,0,0,0-4.9-1.58c-3.84.49-5.62,5-6.4,8.75-3.93,19.09-1.78,38.82-1.55,58.3a295.36,295.36,0,0,1-8.71,74.67c-2.77,11.09-6.22,22.13-12,32-4.34,7.46-9.93,14.15-14.08,21.73C30.22,721.77,30.44,752,32.47,771.24Z"/><path class="cls-4" d="M635.78,308.67c1,8.61,9.89,13.66,17.59,17.65a334.3,334.3,0,0,1,41.91,25.73,221.2,221.2,0,0,1,27.31,22.78c5.17,5.16,10,10.69,15.73,15.26,17.54,14,41,17.53,63.25,20.54,6,.81,13.43,1,16.63-4.15,3.36-5.39-.7-12.38-5.43-16.6-11.56-10.29-27.17-14.37-41.33-20.62-33-14.57-58.77-41.36-85.18-66-7.55-7-21.19-19.77-32.78-17C645.27,288.33,634.77,300,635.78,308.67Z"/><path class="cls-4" d="M140.4,62l20.47,24c4.77,5.58,9.56,11.2,15.22,15.89,16.24,13.44,37.79,18,57.9,24.27,43.71,13.71,83.48,37.44,125.11,56.56,3.62,1.67,7.44,3.34,11.42,3.17s8.17-2.79,8.75-6.73c.44-3-1.22-5.89-3-8.31-8.28-11.09-20.66-18.26-32.81-24.9-44-24-89.47-45.18-134.94-66.29L160.42,57.34c-4.2-1.94-17-10.73-21.62-8.73C132.58,51.3,137.2,58.26,140.4,62Z"/><path class="cls-6" d="M57.88,829.43c-.68,1.11-1.37,2.39-1,3.65A4.92,4.92,0,0,0,59,835.51l27.54,19.84c3.75,2.7,7.61,5.45,12.08,6.6,10.82,2.8,21.82-4.59,28.58-13.49s11-19.59,18.43-28c4.58-5.18,10.6-10,11.57-16.81.92-6.51-3.18-12.71-8-17.22C110.73,750.08,77.31,797.63,57.88,829.43Z"/><path class="cls-6" d="M626.81,575c-20.35,11.59-42.24,23.2-54.22,43.32,17,5.61,34.69-4.85,49.67-14.63A1764.39,1764.39,0,0,1,809.65,497.16c4-2,8.6-4.82,8.57-9.27-.05-6.11-8.19-8.09-14.29-8-38.75.58-53.85,9.33-83.27,32.28A780.46,780.46,0,0,1,626.81,575Z"/><path class="cls-6" d="M248,770.37c36.34-13.58,74.41-23.36,108.17-42.45,21.36-12.08,41.05-27.91,64.59-34.85,1.14,4.75-3,9-6.88,12-55,42.89-125.27,61.23-183.69,99.31-10.91,7.11-21.41,14.91-32.93,21-6.74,3.54-26.57,15.13-33.77,9.61-11.11-8.5,7.2-21.18,13-26C197.51,791.54,222.67,779.83,248,770.37Z"/><path class="cls-1" d="M446.9,675.67c-9.35-6.09-9.38-19.69-15.2-29.22-4.69-7.68-13-12.34-21.15-16.1a198.76,198.76,0,0,0-63.84-17.27c10-10.7,20.21-21.84,25-35.67s2.46-31.21-9.26-40c8.22-4.11,16.39,7,16.23,16.18s-4,18.79-.49,27.29,13.12,12.54,22.16,13.43,18.18-.67,27.21.26c3,.3,6.23,1.1,7.77,3.64,2.24,3.7-.55,8.26-1.39,12.5-2.42,12.23,11.6,21,23.66,24.14a138.22,138.22,0,0,0,34.29,4.47c6.06,0,13,0,16.93,4.68,5,6,1.56,15.72,5.72,22.31,1.91,3,5.17,4.94,7.46,7.68,7.24,8.67,2.69,22-4,31.11-9.81,13.41-40.2,38.3-54.68,18.28-7.56-10.46,1.1-18.61.86-28.51C463.79,679.9,458.79,683.41,446.9,675.67Z"/><path class="cls-1" d="M503.16,239.26c-.16,7.11,2.2,14.15,1.63,21.25-1.19,14.77-14.69,25.65-28.47,31.11s-28.91,7.43-42,14.33q4.59,12.85,9.17,25.72a21.46,21.46,0,0,1,1.62,6.79c.07,3.37-1.42,6.54-2.88,9.58q-9.94,20.68-19.88,41.39l33.33-24.07c5.54-4,11.29-8.23,14.44-14.3s2.81-14.55-2.64-18.69a98.7,98.7,0,0,1,44-11.07c7.14-.1,15.16.28,20.39-4.58,10.46-9.75-.93-27.32,2.07-41.3L573.59,258c8.38-3.67,18.07-9.18,18.34-18.32.24-7.93-7-13.94-13.92-17.76C555.55,209.58,504.07,198.48,503.16,239.26Z"/><path class="cls-1" d="M28.62,569.41c6.88-2,14.21,0,21.25,1.43s15,2.06,20.77-2.2c3.7-2.72,6.23-7.27,10.64-8.54,2.48-.72,5.12-.25,7.66.19,11.77,2,23.86,3.21,35.65,1.24a68.6,68.6,0,0,0,49.9-37.78c3.35-7.11,6.6-15.87,14.26-17.67,7.29-1.72,14.05,4.11,19,9.75a185.38,185.38,0,0,1,31.51,50.79,70.49,70.49,0,0,0-28.09-26.14c-2.41-1.23-5.18-2.34-7.75-1.51-3.34,1.08-4.86,4.86-5.91,8.21A417.82,417.82,0,0,0,186.32,591c-1.44-4.39-8.15-2-11.36,1.34-9.33,9.62-18.63,22.14-32,22.28-6.15.07-12.1-2.65-18.24-2.34-13.67.69-21.72,15-29.23,26.41s-22.38,22.51-33.61,14.69c-3.18-2.21-5.76-5.83-9.61-6.21-3.51-.34-6.57,2.18-9.19,4.54L17.26,675c-1.81,1.64-4.4,3.36-6.46,2a5.56,5.56,0,0,1-1.92-3.25,112.88,112.88,0,0,1-1.74-58.26C9.69,604.59,16.46,573,28.62,569.41Z"/><path class="cls-7" d="M594.13,427.26c.58,8,4.35,15.53,5,23.54,1.64,21.65-19.78,41.07-15.25,62.31,2.81,13.22,16,22.77,29.52,23.49S640,530.37,649,520.26s14.19-23.06,17.35-36.21a141.92,141.92,0,0,0,3.75-40.14c-1-20.23-11.71-44.3-33.65-49.28C616,390,592.56,405.23,594.13,427.26Z"/><path class="cls-7" d="M502.8,377.1c-4.37,8.36-6.16,18.94-1.35,27.06C506.06,412,516,415.59,525,414.35s16.93-6.69,22.95-13.46c5.27-5.93,9.54-13.14,16.48-17,4.37-2.42,9.39-3.26,14.25-4.39,7.17-1.66,14.54-4.24,19.39-9.78s6.14-14.76,1-20.07c-3-3.12-7.42-4.31-11.67-5.07C557.92,339.33,517.84,348.4,502.8,377.1Z"/><path class="cls-7" d="M699.83,437.91c-6.67-.45-11.91,5.44-15.61,11-4.35,6.56-8.31,14.21-7,22,2.08,11.92,17.32,18.43,28.47,13.72S723,467,722.33,454.88c-.17-3-.87-6.31-3.26-8.15-4.91-3.8-12.87,1.13-18-2.35Z"/><path class="cls-7" d="M163.8,699.34c-1.14,7.28-.68,15.22,3.52,21.27s12,9.43,19.47,9.95,15-1.34,22.19-3.59a204.8,204.8,0,0,0,37.71-16.07c10.33-5.69,20.51-12.63,26.44-22.83s6.42-24.34-1.63-33c-6.52-7-16.83-8.85-26.39-9.07C211.72,645.26,169.54,662.74,163.8,699.34Z"/><path class="cls-7" d="M335.17,628.79a57.47,57.47,0,0,0-32.25,38c-.61,2.41-1,5.22.54,7.19,1.16,1.49,3.11,2.08,4.94,2.54a97.19,97.19,0,0,0,55.12-2.55c7-2.45,14.28-6.26,17.21-13.08,4.06-9.46-2.47-20.79-11.56-25.64s-19.89-4.9-30.19-4.85Z"/><path class="cls-7" d="M219.37,197.26c-2.55,3.58-4.48,8.13-3.14,12.32,1.2,3.77,4.71,6.27,8.16,8.22,12.71,7.18,27.23,10.53,40.47,16.69a103.39,103.39,0,0,1,27.91,19.09c9.76,9.35,20.43,21.67,33.74,19.34,9.14-1.59,15.85-10.5,16.79-19.72s-3-18.41-8.8-25.64-13.34-12.83-20.8-18.33l-20.55-15.18c-5.19-3.83-10.47-7.71-16.53-9.89C259.34,177.94,230.61,181.5,219.37,197.26Z"/><path class="cls-7" d="M139.92,208.31c-3.24,16.82,4.47,34.88,18,45.44,5.67,4.44,12.52,7.74,19.72,7.9s14.72-3.28,18.17-9.6c8.65-15.84-11.55-35.14-5.93-52.28,1.68-5.11,5.5-9.26,7.55-14.24s1.45-11.94-3.45-14.17C174,162.31,143.31,190.68,139.92,208.31Z"/><path class="cls-7" d="M247.15,253.05c-17.37-1.19-33.91,14.85-33.26,32.25a16.84,16.84,0,0,0,2.72,9.27c2.46,3.43,6.57,5.21,10.54,6.64,7.08,2.54,14.53,4.45,22,4s15.11-3.55,19.71-9.49c5.78-7.47,5.76-18.51,1-26.67s-13.55-13.49-22.81-15.28Z"/><path class="cls-8" d="M165.47,225.58c-12.1,24.75-10.45,53.75-7.92,81.18,2.86,31,6.57,62.26,17,91.59,4.07,11.4,12.88,24.53,24.73,22.06,8.45-1.76,13.06-10.76,16-18.89,10.32-28.8,14.36-59.71,12.95-90.27-.56-12-1.94-24.17.11-36s8.22-23.75,18.95-29.2c14.19-7.22,33.35-7.1,29.54-28.55-2.33-13.09-16.29-27.57-28.77-31.56C219.41,176.72,177.82,200.34,165.47,225.58Z"/><path class="cls-8" d="M200.53,444.1c-9.18-.19-18.73-.3-27.05,3.58s-15,13-12.82,22c2.55,10.63,15.17,15.13,26.06,16.2,8.79.86,18.05.57,25.88-3.53s13.73-12.85,12.21-21.55c-2-11.37-15.79-17.53-27.05-15Z"/><path class="cls-8" d="M555.31,509.73c-23.15,7.39-48.29,13.7-64.67,31.66-4.74,5.19-8.71,11.74-8.36,18.77.62,12.51,15,20.55,27.49,19.25s23.19-9,33.47-16.17a670.89,670.89,0,0,1,144.44-76.36c17-6.45,45.15-16.92,43.09-39.95-2.16-24.11-26.13-16.21-40.22-7.64C646,466.45,605.77,493.6,555.31,509.73Z"/></g></g></svg>