<svg id="Layer_1" data-name="Layer 1" xmlns="http://www.w3.org/2000/svg" xmlns:xlink="http://www.w3.org/1999/xlink" viewBox="0 0 88.82 71.19"><defs><style>.cls-1{fill:none;}.cls-2{fill:#cc314a;}.cls-3{fill:#1a2e36;}.cls-4{fill:#fff;}.cls-5{clip-path:url(#clip-path);}.cls-6{fill:#eaac4a;}</style><clipPath id="clip-path" transform="translate(0 0.01)"><path class="cls-1" d="M60.4,4.88h0A4.41,4.41,0,1,1,56,9.29,4.4,4.4,0,0,1,60.41,4.88Z"/></clipPath></defs><g id="Layer_2" data-name="Layer 2"><g id="OBJECTS"><path class="cls-2" d="M38.73,49.17c3.61,7.83.09,7.63,1.78,14.39,1.89,7.37,16.06,5.24,15.65,1.7-.93-8.16-12.76.55-9.2-7.32,17.65-9.84,4.65-19.62,4.65-19.62" transform="translate(0 0.01)"/><path class="cls-3" d="M39.42,51.24a17.15,17.15,0,0,1-.65-2.11,7.65,7.65,0,0,1,1,2,6.51,6.51,0,0,1,.38,2.19A16,16,0,0,1,39.42,51.24Z" transform="translate(0 0.01)"/><path class="cls-3" d="M51.2,66a3.43,3.43,0,0,1,.25,1.14v.6a5.43,5.43,0,0,1-.13.58,7.83,7.83,0,0,0-.5-2.19,3.2,3.2,0,0,0-1.49-1.59A2.27,2.27,0,0,1,51.2,66Z" transform="translate(0 0.01)"/><path class="cls-3" d="M54.91,65.19a3.16,3.16,0,0,1,.23,1,2,2,0,0,1-.25,1,4.18,4.18,0,0,0-.08-1,4,4,0,0,0-.29-.88,12.4,12.4,0,0,0-1-1.68A3.39,3.39,0,0,1,54.91,65.19Z" transform="translate(0 0.01)"/><path class="cls-2" d="M81,27.82A29,29,0,0,1,70.82,27c-1-.27-8.12-3-8.69-2.7-6.52,3.83-6.38,8.7-10.89,18.82-3.25,7.3-7.14,9-12.72,10.7C31,56.16,2.61,53.41,0,28.88c-.18-1.33,11.11,15,23.25,14.23-.94-5,.48-12.78,10.06-18.51s13.41-3.67,13.24-9.8c-.31-10.48,9.69-18,18.11-13.48,3.44,1.85,7.56,3.47,11.16,5,3,1.3,6.55,1.43,9.28,3.44a8.49,8.49,0,0,1,2.16,2.31C90.82,17.62,88.11,26.81,81,27.82Z" transform="translate(0 0.01)"/><path class="cls-3" d="M47.68,48.6A21.48,21.48,0,0,0,51.07,43c.91-2,1.75-4.09,2.56-6.15s1.64-4.12,2.61-6.11c-.88,2-1.56,4.13-2.3,6.22s-1.57,4.18-2.45,6.18A21,21,0,0,1,48,48.79,13.51,13.51,0,0,1,45.4,51a16.13,16.13,0,0,1-3,1.49A15.55,15.55,0,0,0,47.68,48.6Z" transform="translate(0 0.01)"/><path class="cls-2" d="M27.1,49.75c1.87,8.44-1.57,7.44-1.31,14.44.28,7.62,14.58,8.54,14.94,5,.81-8.17-12.6-2.17-7.44-9.11C52.61,54.2,42,41.89,42,41.89" transform="translate(0 0.01)"/><path class="cls-3" d="M44.32,45.64A9.74,9.74,0,0,1,45.07,50a7.59,7.59,0,0,1-1.61,4.09A9.61,9.61,0,0,1,42,55.71c-.56.47-1.19.86-1.78,1.28.55-.48,1.13-.92,1.64-1.43a10.27,10.27,0,0,0,1.44-1.65,8.55,8.55,0,0,0,.56-.91l.4-1a8,8,0,0,0,.42-2,9.87,9.87,0,0,0-.63-4.2,12.27,12.27,0,0,0-.88-2A13.63,13.63,0,0,0,42,41.89,13.25,13.25,0,0,1,44.32,45.64Z" transform="translate(0 0.01)"/><path class="cls-3" d="M27.24,52a20.19,20.19,0,0,1-.19-2.2,7.6,7.6,0,0,1,.61,2.14,6.42,6.42,0,0,1,0,2.23C27.49,53.4,27.42,52.69,27.24,52Z" transform="translate(0 0.01)"/><path class="cls-2" d="M50.1,32.28c1,4.12,5.24,9.25,10.75,6,1,2.45,3.13,2.19,2-.75,1.32,3.43,2.9,1.69,1.77-1.25.87.79,1.44,2.27,2.23,1.4s-.37-5.46-5.7-4.57-7.55-5-7.55-5" transform="translate(0 0.01)"/><path class="cls-4" d="M60.4,4.88h0A4.41,4.41,0,1,1,56,9.29,4.4,4.4,0,0,1,60.41,4.88Z" transform="translate(0 0.01)"/><g class="cls-5"><path class="cls-3" d="M58.37,4.88h0A4.41,4.41,0,1,1,54,9.29,4.4,4.4,0,0,1,58.37,4.88Z" transform="translate(0 0.01)"/></g><path class="cls-6" d="M34.28,26c1.54-1.29,3.32-1.79,3.86-1.13s-.29,2.25-1.88,3.55S33,30.23,32.4,29.56,32.74,27.29,34.28,26Z" transform="translate(0 0.01)"/><path class="cls-6" d="M26.9,32.27c1-1.77,2.45-2.88,3.2-2.43s.53,2.22-.5,4-2.46,2.86-3.21,2.43S25.88,34,26.9,32.27Z" transform="translate(0 0.01)"/><path class="cls-6" d="M33.39,32.41C34,31.34,34.87,30.7,35.32,31s.32,1.34-.3,2.4-1.48,1.72-1.93,1.46S32.77,33.48,33.39,32.41Z" transform="translate(0 0.01)"/><path class="cls-6" d="M29.05,37.53c1.07-.62,2.14-.76,2.4-.31s-.4,1.31-1.46,1.93-2.14.75-2.4.3S28,38.15,29.05,37.53Z" transform="translate(0 0.01)"/><path class="cls-3" d="M83.5,22a12.93,12.93,0,0,1-4.68.89,15,15,0,0,1-4.69-.75A8.93,8.93,0,0,1,72,21.07a2.58,2.58,0,0,1-1.23-1.95,2.45,2.45,0,0,0,1.35,1.78,9.11,9.11,0,0,0,2.12.93,15.86,15.86,0,0,0,4.59.64,13.61,13.61,0,0,0,4.56-.73,8.36,8.36,0,0,0,3.79-2.62A7.67,7.67,0,0,1,83.5,22Z" transform="translate(0 0.01)"/><path class="cls-6" d="M40.82,27.21c1.63-1.63,3.31-3.82,0-2.63C39.46,25.09,39.19,28.84,40.82,27.21Z" transform="translate(0 0.01)"/><path class="cls-6" d="M40.24,22c1.12-.88,4.41,0,2.52.72C40.17,23.66,39.12,22.84,40.24,22Z" transform="translate(0 0.01)"/><path class="cls-3" d="M35.74,68.78a3.57,3.57,0,0,1,0,1.22l-.18.58c-.09.18-.16.37-.25.54a7.08,7.08,0,0,0,0-2.25A3.21,3.21,0,0,0,34.2,67,2.31,2.31,0,0,1,35.74,68.78Z" transform="translate(0 0.01)"/><path class="cls-3" d="M39.5,68.85a3.35,3.35,0,0,1,0,1,2,2,0,0,1-.46.92,4.81,4.81,0,0,0,.13-1,3.56,3.56,0,0,0-.1-.92A12,12,0,0,0,38.49,67,3.43,3.43,0,0,1,39.5,68.85Z" transform="translate(0 0.01)"/><path class="cls-3" d="M55.15,33.74c-.58,1.35-1.12,2.68-1.75,4a25.07,25.07,0,0,1,1.36-4.14,29.62,29.62,0,0,1,2-3.88C56.3,31.1,55.73,32.39,55.15,33.74Z" transform="translate(0 0.01)"/><path class="cls-2" d="M46.3,31.55C45.78,35.76,47.88,42,54.19,41c0,2.63,2.1,3.15,2.1,0,0,3.68,2.1,2.63,2.1-.53.58,1,.53,2.62,1.58,2.1s1.58-5.24-3.68-6.3S51,28.93,51,28.93" transform="translate(0 0.01)"/><path class="cls-3" d="M54.92,43.06a1.39,1.39,0,0,1-.49-.58A3.32,3.32,0,0,1,54.08,41l.15.12a6.81,6.81,0,0,1-3.66-.24,5.91,5.91,0,0,1-2.87-2.3,9.92,9.92,0,0,1-1.38-7,12.67,12.67,0,0,0,.31,3.58A9.55,9.55,0,0,0,48,38.35a6,6,0,0,0,2.68,2.17,7.23,7.23,0,0,0,3.48.35h0a.12.12,0,0,1,.11.13,3.91,3.91,0,0,0,.22,1.44,1.53,1.53,0,0,0,.41.59.61.61,0,0,0,.68.07A.64.64,0,0,1,54.92,43.06Z" transform="translate(0 0.01)"/><path class="cls-3" d="M51.93,32.4A6.59,6.59,0,0,0,54,35.12c.25.15.48.34.73.46a8.08,8.08,0,0,0,.8.35l.84.24a5.11,5.11,0,0,1,.87.25A4.82,4.82,0,0,1,60,38.65a5.32,5.32,0,0,0-2.88-1.92c-.55-.15-1.14-.26-1.74-.43-.29-.11-.57-.23-.85-.36s-.53-.31-.8-.47a6.71,6.71,0,0,1-2.14-3,9.1,9.1,0,0,1-.6-3.54A11.54,11.54,0,0,0,51.93,32.4Z" transform="translate(0 0.01)"/><path class="cls-3" d="M56.49,41.14a2,2,0,0,1-.34,1.13,8.47,8.47,0,0,1-.08-1.13A4.41,4.41,0,0,1,56.22,40,2.26,2.26,0,0,1,56.49,41.14Z" transform="translate(0 0.01)"/><path class="cls-3" d="M58.58,40.72a2,2,0,0,1-.44,1.11,5.81,5.81,0,0,1,0-.59v-.56a5.46,5.46,0,0,1,.21-1.14A2.09,2.09,0,0,1,58.58,40.72Z" transform="translate(0 0.01)"/><path class="cls-3" d="M63.06,37.37a1.8,1.8,0,0,1,.08,1.23c-.1-.19-.18-.38-.25-.55s-.13-.35-.22-.52c-.13-.35-.3-.68-.43-1.09A1.9,1.9,0,0,1,63.06,37.37Z" transform="translate(0 0.01)"/><path class="cls-3" d="M64.94,36.42a2.28,2.28,0,0,1,0,1.32c-.19-.42-.31-.8-.46-1.2a5,5,0,0,1-.23-1.27A2.84,2.84,0,0,1,64.94,36.42Z" transform="translate(0 0.01)"/><path class="cls-3" d="M77.64,14.82a3.79,3.79,0,0,1-.58-.74,2.06,2.06,0,0,1-.21-.48.65.65,0,0,1,0-.34.43.43,0,0,1,.27-.24.91.91,0,0,1,1,.35,2.65,2.65,0,0,1,.46.84A6.09,6.09,0,0,1,79,16,8.7,8.7,0,0,1,77.64,14.82Zm.64-.48a3.35,3.35,0,0,0-.45-.72.51.51,0,0,0-.57-.21c-.07,0-.07,0-.07.13a1.48,1.48,0,0,0,.13.35c.14.25.33.47.5.72.36.47.76.92,1.14,1.39A14.1,14.1,0,0,0,78.28,14.34Z" transform="translate(0 0.01)"/><path class="cls-3" d="M84.71,13.77a5.17,5.17,0,0,1,.33-1.1,1.73,1.73,0,0,1,.35-.54.57.57,0,0,1,.43-.13.68.68,0,0,1,.34.21,1.89,1.89,0,0,1,0,2.3A4.69,4.69,0,0,1,84.46,16,11.9,11.9,0,0,1,84.71,13.77Zm1.14.59a1.55,1.55,0,0,0,0-1.85c-.12-.11-.1-.11-.19-.06a1.16,1.16,0,0,0-.26.39,7,7,0,0,0-.37,1c-.21.71-.38,1.43-.57,2.16A7,7,0,0,0,85.85,14.36Z" transform="translate(0 0.01)"/><path class="cls-3" d="M58.82,22.94a12.5,12.5,0,0,1-1.77-1.11,4.76,4.76,0,0,1-1.43-1.5,7.72,7.72,0,0,0,1.61,1.23,17.25,17.25,0,0,0,1.78,1c1.19.63,2.45,1.16,3.68,1.76A16.69,16.69,0,0,1,58.82,22.94Z" transform="translate(0 0.01)"/><path class="cls-3" d="M62.82,1.4A5.49,5.49,0,0,0,59.67,1a5.71,5.71,0,0,0-2.85,1.23A6,6,0,0,0,55,4.88,5.38,5.38,0,0,1,56.61,2a5.75,5.75,0,0,1,3-1.42,5.6,5.6,0,0,1,3.32.55A4,4,0,0,1,65,3.68,4.35,4.35,0,0,0,62.82,1.4Z" transform="translate(0 0.01)"/><path class="cls-3" d="M40.94,51.3a8.77,8.77,0,0,0-1.49-.52,4.62,4.62,0,0,0-3.09.11,3,3,0,0,1,1.52-.66,4.77,4.77,0,0,1,1.68.14A6.64,6.64,0,0,1,42.4,52,6.71,6.71,0,0,0,40.94,51.3Z" transform="translate(0 0.01)"/><path class="cls-3" d="M38.41,54.62a3.57,3.57,0,0,1-2.09-1.3,7.24,7.24,0,0,0,2.18.88,5.05,5.05,0,0,0,2.32-.06A3.07,3.07,0,0,1,38.41,54.62Z" transform="translate(0 0.01)"/><path class="cls-3" d="M39.56,52.56A1.79,1.79,0,0,1,38.45,52a10.85,10.85,0,0,0,1.19.19,7.85,7.85,0,0,1,1.18.3A2.26,2.26,0,0,1,39.56,52.56Z" transform="translate(0 0.01)"/><path class="cls-3" d="M52.58,48.85a2.86,2.86,0,0,0-.82.08,6.62,6.62,0,0,0-.84.24,1.92,1.92,0,0,1,.74-.55,2.4,2.4,0,0,1,.92-.19,2.21,2.21,0,0,1,1.65.74A4.89,4.89,0,0,0,52.58,48.85Z" transform="translate(0 0.01)"/><path class="cls-3" d="M53.49,50.87a3.09,3.09,0,0,1-.91.08,4.36,4.36,0,0,1-.87-.19,3.29,3.29,0,0,1-.79-.41c.31,0,.59.06.87.09a7.8,7.8,0,0,0,.83.09,5.48,5.48,0,0,0,.81,0,2,2,0,0,0,.8-.2A1.2,1.2,0,0,1,53.49,50.87Z" transform="translate(0 0.01)"/><path class="cls-3" d="M51.83,47.46a5.9,5.9,0,0,1,3.12,0A5.9,5.9,0,0,1,51.83,47.46Z" transform="translate(0 0.01)"/></g></g></svg>