<svg xmlns="http://www.w3.org/2000/svg" xmlns:xlink="http://www.w3.org/1999/xlink" viewBox="0 0 70.29 57.79"><defs><style>.cls-1{fill:none;}.cls-2{fill:#d64e72;}.cls-3{fill:#fff;}.cls-4{clip-path:url(#clip-path);}.cls-5{fill:#1a2e36;}.cls-6{fill:#ff8283;}</style><clipPath id="clip-path"><circle id="SVGID" class="cls-1" cx="53.25" cy="24.53" r="3.74"/></clipPath></defs><g id="Layer_2" data-name="Layer 2"><g id="OBJECTS"><path class="cls-2" d="M63.33,20.78c5.83-11.61.37-12.37-2.88-8.63,2.47-7.67-3.45-5.76-4-4-.58-5.18-5.18-5.18-5.76-2.3-.57-4-5.18-3.46-5.18,0-1.85-4.62-6.91-1.73-5.76,1.72-4-1.15-7.78,2.78-4.9,6.23-11.51-1.15-16.4,4.71-18.13,9.89-1.64,4.94-7,11.45-15.43,1.57a.72.72,0,0,0-1.26.5C.6,40.37,13.72,46.64,36.84,45.54c9.79,0,11.52-6.91,16.7-8.63s16.12,4,16.12-8.64C69.66,23.09,63.33,20.78,63.33,20.78Z"/><circle class="cls-3" cx="53.25" cy="24.53" r="3.74"/><g class="cls-4"><circle class="cls-5" cx="51.53" cy="24.53" r="3.74"/></g><path class="cls-2" d="M40.59,42.05s-.7,10.68.24,11.27,9.84,1.44,9.58-1.07-2.27-2.2-2.27-2.2l1-10.36"/><path class="cls-5" d="M45.63,51.41a.73.73,0,0,1,.79.2,1.92,1.92,0,0,1,.4.74,2.92,2.92,0,0,1-.09,1.58c-.16-.52-.19-1-.32-1.47a2.23,2.23,0,0,0-.24-.64A.86.86,0,0,0,45.63,51.41Z"/><path class="cls-5" d="M48.2,51.06a1.8,1.8,0,0,1,1.06,1,1.75,1.75,0,0,1,0,1.45c-.07-.24-.1-.46-.18-.67a2.64,2.64,0,0,0-.23-.61A6.36,6.36,0,0,0,48.2,51.06Z"/><path class="cls-2" d="M30.51,45.89s-.7,10.68.24,11.27,9.84,1.44,9.58-1.07-2.27-2.2-2.27-2.2l1-10.35"/><path class="cls-5" d="M30.49,43.51a8.32,8.32,0,0,1-.09,3.67,7.21,7.21,0,0,1-.17-1.84A7.7,7.7,0,0,1,30.49,43.51Z"/><path class="cls-5" d="M38.73,44.68a2.58,2.58,0,0,1,.12,1,2.48,2.48,0,0,1-.31,1,2.45,2.45,0,0,1-.12-1A2.39,2.39,0,0,1,38.73,44.68Z"/><path class="cls-5" d="M35.55,55.25a.73.73,0,0,1,.79.21,1.7,1.7,0,0,1,.4.73,2.82,2.82,0,0,1-.09,1.58c-.16-.52-.18-1-.32-1.47a2.23,2.23,0,0,0-.24-.64A.86.86,0,0,0,35.55,55.25Z"/><path class="cls-5" d="M38.12,54.9a1.8,1.8,0,0,1,1.06,1,1.73,1.73,0,0,1,0,1.46c-.07-.25-.1-.47-.17-.68a4,4,0,0,0-.23-.61A7.5,7.5,0,0,0,38.12,54.9Z"/><path class="cls-2" d="M16.11,41.11s-.68,14.32.26,14.91S26.21,57.46,26,55s-2.27-2.2-2.27-2.2l1-10.35"/><path class="cls-5" d="M16.11,42.37a7.68,7.68,0,0,1,.16,1.84A7.22,7.22,0,0,1,16,46a7.68,7.68,0,0,1-.16-1.84A7.22,7.22,0,0,1,16.11,42.37Z"/><path class="cls-5" d="M24.44,44.68a2.26,2.26,0,0,1,.12,1,2.48,2.48,0,0,1-.31,1,2.44,2.44,0,0,1-.11-1A2.37,2.37,0,0,1,24.44,44.68Z"/><path class="cls-5" d="M21.17,54.11a.74.74,0,0,1,.79.21,1.81,1.81,0,0,1,.4.73,2.92,2.92,0,0,1-.09,1.58c-.16-.52-.19-1-.32-1.47a2.23,2.23,0,0,0-.24-.64A.86.86,0,0,0,21.17,54.11Z"/><path class="cls-5" d="M23.74,53.76a1.8,1.8,0,0,1,1.06,1,1.77,1.77,0,0,1,0,1.46c-.07-.25-.1-.47-.18-.68a2.64,2.64,0,0,0-.23-.61A7.09,7.09,0,0,0,23.74,53.76Z"/><path class="cls-5" d="M49.12,39.69a20.83,20.83,0,0,1-3.89,3.67,14.5,14.5,0,0,1-2.3,1.39,6.76,6.76,0,0,1-2.59.7,9.27,9.27,0,0,0,2.44-1A19.8,19.8,0,0,0,45,43c.73-.5,1.41-1.06,2.1-1.62S48.44,40.27,49.12,39.69Z"/><path class="cls-6" d="M23,23.12c-3,2.42-3-.23-1.1-2.34S26,20.7,23,23.12Z"/><path class="cls-6" d="M28.45,17.27c-2.81.63-2.66-.78,0-1.71S31.25,16.65,28.45,17.27Z"/><path class="cls-6" d="M28.45,21.33c-2.81,1.87-3.28.58-1.1-1.43S31.25,19.46,28.45,21.33Z"/><path class="cls-6" d="M22.52,19c-2.41,1.17-1.56-1.78.62-2.59S25.8,17.38,22.52,19Z"/><path class="cls-6" d="M24.72,25.15c-1.8.52-2.34-.76,0-1.54S27.17,24.42,24.72,25.15Z"/><path class="cls-5" d="M34.82,13.77a2.09,2.09,0,0,0-1,1.75,3.26,3.26,0,0,0,2.22,3.12,4.59,4.59,0,0,0,2,.14.18.18,0,0,1,.2.17.19.19,0,0,1-.06.16,6.13,6.13,0,0,0-1.6,1.74,1.77,1.77,0,0,0,.11,2.07,3.85,3.85,0,0,0,2,1.13A3.26,3.26,0,0,0,41,23.92a.2.2,0,0,1,.26.08.2.2,0,0,1,0,.21,5.19,5.19,0,0,0-1.12,2,2.12,2.12,0,0,0,.53,2.06,3.23,3.23,0,0,0,2.09.86,2.49,2.49,0,0,0,2.1-.85,2.54,2.54,0,0,1-2.11,1,3.29,3.29,0,0,1-2.26-.82,2.43,2.43,0,0,1-.68-2.32A5.34,5.34,0,0,1,40.94,24l.24.28a3.64,3.64,0,0,1-2.55.21,4.15,4.15,0,0,1-2.22-1.26,2.22,2.22,0,0,1-.47-1.26v-.34a1.87,1.87,0,0,1,.08-.32,1.85,1.85,0,0,1,.26-.61A6.43,6.43,0,0,1,38,18.82l.13.32A4.86,4.86,0,0,1,36,18.93a3.52,3.52,0,0,1-1.7-1.34,3.15,3.15,0,0,1-.54-2.08A2.14,2.14,0,0,1,34.82,13.77Z"/><path class="cls-3" d="M44.83,16.37S50.14,12.59,49.51.74c-.32-3.59,7.38,6.47,0,18.68C47.17,21.48,43.73,19.05,44.83,16.37Z"/><path class="cls-3" d="M58,14.41S62.52,11.16,62,1C61.7-2.12,68.33,6.54,62,17A2.48,2.48,0,0,1,58,14.41Z"/><path class="cls-3" d="M66.85,17.88c.28,4.09-.93,6.62-2.06,8.05-.39,1.71,1.64,3.59,4.21,2.34C72.91,21.52,66.61,15.83,66.85,17.88Z"/><path class="cls-5" d="M64.74,30.53a6.61,6.61,0,0,0,.7,1.16,1.25,1.25,0,0,0,1,.55,1.48,1.48,0,0,0,1-.55,3.86,3.86,0,0,0,.66-1.16,2.33,2.33,0,0,1-.41,1.36,1.65,1.65,0,0,1-1.28.77,1.55,1.55,0,0,1-1.29-.78A3.34,3.34,0,0,1,64.74,30.53Z"/><path class="cls-5" d="M63.33,20.78a15.19,15.19,0,0,1-2.91-1.15,14.6,14.6,0,0,1-2.65-1.71,8.34,8.34,0,0,1-2.06-2.4,4.91,4.91,0,0,1-.59-3.06,5.73,5.73,0,0,0,.87,2.9,9.09,9.09,0,0,0,2,2.24,17.78,17.78,0,0,0,2.53,1.75A30,30,0,0,0,63.33,20.78Z"/><path class="cls-5" d="M20.37,49.61a10.07,10.07,0,0,1,1.14.06,3.09,3.09,0,0,0,1.08-.06.93.93,0,0,1-.49.4,1.66,1.66,0,0,1-.62.08A1.84,1.84,0,0,1,20.37,49.61Z"/><path class="cls-5" d="M19.75,48.3a2.58,2.58,0,0,1,1.37-.6,1.92,1.92,0,0,1,1.47.33,8,8,0,0,0-1.41.09C20.71,48.16,20.26,48.27,19.75,48.3Z"/><path class="cls-5" d="M35,51.79c.42,0,.78.05,1.14.05a2.84,2.84,0,0,0,1.08-.05.87.87,0,0,1-.48.4,2,2,0,0,1-.63.08A1.9,1.9,0,0,1,35,51.79Z"/><path class="cls-5" d="M34.37,50.47a2.81,2.81,0,0,1,1.38-.6,2,2,0,0,1,1.46.33,9.2,9.2,0,0,0-1.41.09C35.34,50.34,34.88,50.45,34.37,50.47Z"/><path class="cls-5" d="M45.38,47.55c.42,0,.78.06,1.14.06a3.07,3.07,0,0,0,1.08-.06.87.87,0,0,1-.48.4,1.71,1.71,0,0,1-.63.08A1.78,1.78,0,0,1,45.38,47.55Z"/><path class="cls-5" d="M44.76,46.24a2.61,2.61,0,0,1,1.38-.6A1.94,1.94,0,0,1,47.6,46a8.09,8.09,0,0,0-1.41.09C45.73,46.1,45.27,46.21,44.76,46.24Z"/></g></g></svg>